<svg id="Layer_1" data-name="Layer 1" xmlns="http://www.w3.org/2000/svg" xmlns:xlink="http://www.w3.org/1999/xlink" viewBox="0 0 1000.66 566.93"><defs><style>.cls-1{fill:#fff;}.cls-11,.cls-19,.cls-2,.cls-30,.cls-31{opacity:0.3;}.cls-3{fill:#dae5f8;}.cls-4{fill:#b4caed;}.cls-5{fill:#a6a6a6;}.cls-6{fill:#575757;}.cls-7{fill:gray;}.cls-8{fill:#517fa2;}.cls-30,.cls-9{fill:#295e87;}.cls-10{fill:#edc255;}.cls-11{fill:#0d0d0d;}.cls-12{fill:#ffed83;}.cls-13{fill:#fff4b3;}.cls-14{fill:#0b577d;}.cls-15{fill:#1078ad;}.cls-16{fill:#083c57;}.cls-17{fill:#303033;}.cls-18{fill:#2b9fe3;}.cls-20{opacity:0.5;}.cls-21,.cls-22{opacity:0.2;}.cls-23{fill:#003552;}.cls-24{fill:#f5a52e;}.cls-25{fill:#00537d;}.cls-26,.cls-31{fill:#659ec9;}.cls-27{opacity:0.7;}.cls-28{fill:#68cce3;}.cls-29{fill:#8deaff;}.cls-32{fill:#d0e8f2;}.cls-33{fill:#121214;}.cls-34{fill:#535359;}.cls-35{fill:#3b6d91;}.cls-36{fill:#7c9cab;}.cls-37{fill:#ff8400;}.cls-38{fill:url(#linear-gradient);}.cls-39{fill:url(#linear-gradient-2);}.cls-40{fill:#ba6000;}</style><linearGradient id="linear-gradient" x1="610.67" y1="377.15" x2="610.67" y2="482.29" gradientUnits="userSpaceOnUse"><stop offset="0" stop-color="#2a8db8"/><stop offset="1" stop-color="#102a5e"/></linearGradient><linearGradient id="linear-gradient-2" x1="593.52" y1="330.17" x2="676.24" y2="416.66" xlink:href="#linear-gradient"/></defs><title>Artboard 14</title><path class="cls-1" d="M261.36,482v-1.12c3,0,6-.07,8.92-.22l.06,1.12C267.36,481.9,264.35,482,261.36,482Zm-9-.22c-3-.14-6-.37-9-.66l.11-1.12c2.94.3,5.93.52,8.9.67Zm26.92-.68-.12-1.11c3-.3,5.94-.68,8.86-1.13l.17,1.11C285.27,480.39,282.27,480.77,279.3,481.07ZM234.51,480c-2.95-.45-5.93-1-8.84-1.57l.22-1.09c2.89.59,5.85,1.11,8.79,1.55Zm62.54-1.61-.22-1.09c2.91-.6,5.84-1.28,8.69-2l.28,1.09C302.93,477.08,300,477.76,297.05,478.36Zm-80.14-2c-2.9-.74-5.81-1.57-8.64-2.46l.33-1.07c2.82.88,5.71,1.71,8.59,2.45Zm97.53-2.52-.34-1.06c2.84-.9,5.69-1.87,8.45-2.89l.39,1C320.16,472,317.3,473,314.44,473.86ZM199.74,471c-2.79-1-5.61-2.16-8.35-3.34l.44-1c2.73,1.17,5.52,2.29,8.3,3.32Zm131.52-3.39-.44-1c2.73-1.17,5.45-2.43,8.09-3.73l.5,1C336.75,465.19,334,466.45,331.26,467.63Zm-148-3.71c-2.69-1.32-5.37-2.72-8-4.17l.54-1c2.58,1.44,5.25,2.83,7.93,4.15Zm164.14-4.2-.54-1c2.57-1.43,5.16-3,7.68-4.53l.59,1C352.54,456.74,349.94,458.27,347.35,459.72Zm-179.86-4.53c-2.54-1.59-5.07-3.26-7.51-4.95l.64-.92c2.42,1.68,4.93,3.34,7.47,4.92Zm195.08-5-.64-.91c2.41-1.69,4.83-3.47,7.19-5.29l.68.88C367.44,446.73,365,448.52,362.57,450.21Zm-209.83-5.3c-2.35-1.82-4.69-3.73-7-5.68l.73-.85c2.26,1.94,4.58,3.83,6.92,5.64Zm224-5.69-.73-.85c2.25-1.93,4.47-3.94,6.62-6l.77.81C381.26,435.25,379,437.28,376.76,439.22Zm-237.65-6c-2.17-2.06-4.31-4.2-6.35-6.34l.81-.78c2,2.14,4.15,4.26,6.31,6.31Zm250.67-6.36-.81-.77c2-2.14,4-4.37,6-6.62l.85.73C393.86,422.44,391.83,424.69,389.78,426.84Zm-263-6.65c-2-2.26-3.86-4.6-5.68-6.95l.88-.69c1.82,2.34,3.71,4.66,5.65,6.91Zm274.76-7-.89-.69c1.82-2.34,3.6-4.76,5.3-7.19l.92.64C405.11,408.43,403.32,410.86,401.49,413.22ZM115.73,406c-1.7-2.43-3.37-4.95-5-7.49l1-.59c1.58,2.52,3.23,5,4.92,7.44Zm296-7.53-.95-.6c1.58-2.53,3.11-5.11,4.54-7.7l1,.55C414.9,393.33,413.37,395.93,411.78,398.48ZM106.21,390.8c-1.44-2.61-2.84-5.28-4.16-7.95l1-.49c1.3,2.65,2.7,5.31,4.13,7.89Zm314.31-8-1-.49c1.31-2.67,2.57-5.4,3.74-8.13l1,.45C423.11,377.33,421.84,380.08,420.52,382.76ZM98.29,374.71C97.12,372,96,369.18,95,366.39L96,366c1,2.77,2.14,5.55,3.31,8.27Zm329.33-8.48-1.05-.39c1-2.8,2-5.65,2.9-8.47l1.07.33C429.65,360.54,428.67,363.41,427.62,366.23ZM92.05,357.89c-.89-2.83-1.73-5.73-2.48-8.63l1.09-.29c.74,2.88,1.57,5.77,2.45,8.58Zm341-8.82-1.09-.28c.75-2.89,1.43-5.81,2-8.7l1.09.22C434.43,343.22,433.75,346.16,433,349.07ZM87.54,340.5c-.6-2.92-1.14-5.89-1.59-8.84l1.11-.17c.45,2.93,1,5.89,1.58,8.79Zm349.06-9-1.11-.17c.44-2.93.82-5.9,1.12-8.86l1.11.12C437.42,325.53,437.05,328.52,436.6,331.47ZM84.82,322.75c-.3-3-.53-6-.68-8.95l1.12-.06c.15,3,.38,5.95.68,8.9Zm353.57-9.15-1.12-.06c.15-2.94.23-5.94.23-8.92v-.38h1.12v.38C438.62,307.62,438.54,310.64,438.39,313.6ZM85,304.81H83.91v-.19c0-2.92.07-5.87.21-8.79l1.12.06c-.14,2.89-.21,5.83-.21,8.73Zm352.23-9.49c-.16-3-.39-6-.69-8.9l1.11-.11c.31,2.94.54,6,.69,8.95ZM85.9,287l-1.11-.12c.29-3,.67-6,1.11-8.91l1.11.17C86.57,281,86.2,284,85.9,287Zm349.53-9.42c-.45-2.95-1-5.9-1.58-8.79l1.1-.22c.59,2.9,1.13,5.87,1.59,8.84ZM88.56,269.34l-1.1-.22c.6-2.93,1.27-5.87,2-8.76l1.08.28C89.82,263.51,89.15,266.44,88.56,269.34Zm343.26-9.25c-.75-2.87-1.58-5.75-2.47-8.58l1.07-.34c.9,2.85,1.73,5.75,2.49,8.64ZM93,252.06l-1.07-.34c.9-2.87,1.87-5.73,2.9-8.53l1,.39C94.86,246.36,93.89,249.21,93,252.06Zm333.45-9c-1-2.78-2.16-5.57-3.32-8.26l1-.45c1.18,2.72,2.31,5.52,3.35,8.32Zm-327.26-7.8-1-.44c1.17-2.73,2.43-5.48,3.75-8.17l1,.49C101.62,229.82,100.36,232.56,99.19,235.27Zm320.2-8.55c-1.32-2.66-2.71-5.32-4.15-7.89l1-.55c1.44,2.59,2.85,5.27,4.17,7.94Zm-312.33-7.49-1-.55c1.45-2.6,3-5.21,4.57-7.75l.95.59C110,214.05,108.5,216.64,107.06,219.23Zm303.64-8.07c-1.57-2.5-3.22-5-4.93-7.44l.92-.64c1.72,2.45,3.38,5,5,7.48Zm-294.18-7.1-.92-.64c1.69-2.44,3.49-4.88,5.32-7.24l.88.68C120,199.21,118.2,201.64,116.52,204.06Zm284-7.52c-1.81-2.33-3.71-4.65-5.65-6.9l.85-.73c1.95,2.26,3.87,4.6,5.69,6.94Zm-273-6.6-.85-.73c1.95-2.27,4-4.51,6-6.67l.82.77C131.39,185.46,129.38,187.68,127.44,189.94ZM388.83,183c-2-2.14-4.17-4.26-6.32-6.31l.77-.81c2.16,2.05,4.3,4.19,6.36,6.34Zm-249.1-6-.77-.81c2.16-2.06,4.4-4.09,6.66-6l.73.85C144.11,172.93,141.88,175,139.73,177Zm236.14-6.25c-2.25-1.93-4.58-3.83-6.92-5.63l.68-.89c2.36,1.82,4.7,3.72,7,5.67Zm-222.61-5.39-.69-.88c2.36-1.84,4.79-3.63,7.23-5.33l.64.92C158,161.75,155.6,163.53,153.26,165.35Zm208.49-5.53c-2.45-1.7-5-3.35-7.47-4.91l.59-.95c2.53,1.57,5.06,3.23,7.51,4.94Zm-193.87-4.68-.6-.95c2.52-1.58,5.11-3.11,7.73-4.57l.54,1C173,152.05,170.37,153.58,167.88,155.14Zm178.7-4.76c-2.61-1.45-5.28-2.84-7.93-4.14l.5-1c2.66,1.31,5.35,2.71,8,4.16Zm-163.14-3.93-.49-1c2.67-1.32,5.41-2.58,8.14-3.76l.44,1C188.82,143.89,186.1,145.15,183.44,146.45Zm147.08-3.93c-2.73-1.17-5.52-2.28-8.31-3.31l.39-1.05c2.8,1,5.61,2.15,8.36,3.33ZM199.8,139.4l-.39-1.05c2.79-1,5.65-2,8.49-2.91l.34,1.06C205.41,137.4,202.57,138.37,199.8,139.4Zm113.94-3.07c-2.84-.88-5.73-1.7-8.59-2.43l.28-1.09c2.88.74,5.79,1.57,8.64,2.46ZM216.82,134l-.28-1.08c2.87-.75,5.82-1.43,8.74-2l.23,1.1C222.6,132.61,219.68,133.3,216.82,134Zm79.63-2.14c-2.89-.58-5.85-1.1-8.79-1.55l.17-1.1c3,.44,5.93,1,8.84,1.55Zm-62.15-1.46-.17-1.11c2.94-.45,5.93-.83,8.91-1.14l.11,1.12C240.2,129.61,237.22,130,234.3,130.44Zm44.51-1.19c-3-.29-6-.51-8.91-.65l.06-1.12c3,.14,6,.36,9,.66Zm-26.76-.62-.05-1.12c3-.16,6-.24,9-.24v1.12C258,128.39,255,128.47,252.05,128.63Z"/><path class="cls-1" d="M477.36,244.61a55.31,55.31,0,1,1-55.31-55.31A55.31,55.31,0,0,1,477.36,244.61Z"/><path class="cls-1" d="M154,244.61A55.31,55.31,0,1,1,98.64,189.3,55.31,55.31,0,0,1,154,244.61Z"/><path class="cls-1" d="M199.36,436.89a55.32,55.32,0,1,1-55.31-55.3A55.32,55.32,0,0,1,199.36,436.89Z"/><path class="cls-1" d="M433.62,436.89a55.31,55.31,0,1,1-55.31-55.3A55.32,55.32,0,0,1,433.62,436.89Z"/><path class="cls-1" d="M315.72,130a55.31,55.31,0,1,1-55.31-55.31A55.31,55.31,0,0,1,315.72,130Z"/><path class="cls-2" d="M257.38,411l-48.5-28,48.5-28,48.51,28Z"/><polygon class="cls-1" points="257.38 333.11 211.09 306.38 257.38 279.66 303.68 306.38 257.38 333.11"/><polygon class="cls-3" points="257.38 409.67 211.09 382.94 211.09 306.38 257.38 333.11 257.38 409.67"/><polygon class="cls-4" points="257.38 409.67 303.68 382.94 303.68 306.38 257.38 333.11 257.38 409.67"/><polygon class="cls-5" points="257.38 328.74 211.09 302.01 257.38 275.29 303.68 302.01 257.38 328.74"/><polygon class="cls-6" points="299.51 302.01 297.42 303.22 257.38 280.11 217.35 303.22 215.27 302.01 257.38 277.69 299.51 302.01"/><polygon class="cls-7" points="297.42 303.22 257.38 326.34 217.35 303.22 257.38 280.11 297.42 303.22"/><polygon class="cls-7" points="257.38 333.11 211.09 306.38 211.09 302.01 257.38 328.74 257.38 333.11"/><polygon class="cls-6" points="257.38 333.11 303.68 306.38 303.68 302.01 257.38 328.74 257.38 333.11"/><path class="cls-8" d="M248.14,371.2l-1,.59,2.75,4.75,1-.58h0a1.37,1.37,0,0,0,.57-1.26,4.29,4.29,0,0,0-1.94-3.36A1.39,1.39,0,0,0,248.14,371.2Z"/><path class="cls-9" d="M248.49,371.93a4.27,4.27,0,0,1,1.95,3.36c0,1.24-.87,1.74-1.95,1.12a4.29,4.29,0,0,1-1.94-3.37C246.55,371.81,247.42,371.3,248.49,371.93Z"/><path class="cls-8" d="M242.11,407.5v-1.18h-5.5v1.18h0a1.36,1.36,0,0,0,.81,1.12,4.28,4.28,0,0,0,3.88,0A1.39,1.39,0,0,0,242.11,407.5Z"/><path class="cls-9" d="M241.3,407.44a4.28,4.28,0,0,1-3.88,0c-1.08-.61-1.08-1.62,0-2.25a4.28,4.28,0,0,1,3.88,0A1.18,1.18,0,0,1,241.3,407.44Z"/><path class="cls-10" d="M244.41,373.8l2.7-1.56a1.16,1.16,0,0,1,1.2.1,3.68,3.68,0,0,1,1.67,2.9,1.15,1.15,0,0,1-.52,1.09h0l-2.69,1.57a11.48,11.48,0,0,0-5,8.7v19.62h0a1.18,1.18,0,0,1-.69,1,3.71,3.71,0,0,1-3.34,0,1.2,1.2,0,0,1-.7-1h0V386.6A16.11,16.11,0,0,1,244.41,373.8Z"/><path class="cls-8" d="M239.21,366.05l-1,.58,2.75,4.76,1-.58h0a1.38,1.38,0,0,0,.57-1.26,4.3,4.3,0,0,0-1.94-3.36A1.36,1.36,0,0,0,239.21,366.05Z"/><path class="cls-9" d="M239.56,366.77a4.27,4.27,0,0,1,1.95,3.36c0,1.24-.87,1.74-1.95,1.13a4.32,4.32,0,0,1-1.94-3.37C237.62,366.65,238.49,366.15,239.56,366.77Z"/><path class="cls-8" d="M233.18,402.34v-1.18h-5.5v1.17h0a1.37,1.37,0,0,0,.81,1.13,4.26,4.26,0,0,0,3.87,0A1.37,1.37,0,0,0,233.18,402.34Z"/><path class="cls-9" d="M232.37,402.29a4.31,4.31,0,0,1-3.88,0,1.19,1.19,0,0,1,0-2.25,4.25,4.25,0,0,1,3.88,0A1.18,1.18,0,0,1,232.37,402.29Z"/><path class="cls-10" d="M235.48,368.64l2.69-1.55a1.15,1.15,0,0,1,1.21.1,3.66,3.66,0,0,1,1.66,2.89,1.15,1.15,0,0,1-.51,1.09h0l-2.69,1.58a11.42,11.42,0,0,0-5,8.69v19.62h0a1.21,1.21,0,0,1-.69,1,3.71,3.71,0,0,1-3.34,0,1.19,1.19,0,0,1-.69-1h0V381.44A16.13,16.13,0,0,1,235.48,368.64Z"/><path class="cls-8" d="M230.28,346.41l-1,.59,2.75,4.75,1-.58h0a1.37,1.37,0,0,0,.57-1.26,4.29,4.29,0,0,0-1.94-3.36A1.39,1.39,0,0,0,230.28,346.41Z"/><path class="cls-9" d="M230.63,347.14a4.27,4.27,0,0,1,2,3.36c0,1.24-.87,1.74-2,1.12a4.26,4.26,0,0,1-1.94-3.36C228.69,347,229.56,346.52,230.63,347.14Z"/><path class="cls-8" d="M224.24,397.19V396h-5.49v1.18h0a1.35,1.35,0,0,0,.81,1.12,4.26,4.26,0,0,0,3.87,0A1.35,1.35,0,0,0,224.24,397.19Z"/><path class="cls-9" d="M223.44,397.13a4.33,4.33,0,0,1-3.89,0,1.19,1.19,0,0,1,0-2.25,4.3,4.3,0,0,1,3.89,0A1.18,1.18,0,0,1,223.44,397.13Z"/><path class="cls-10" d="M226.55,349l2.69-1.56a1.17,1.17,0,0,1,1.21.1,3.68,3.68,0,0,1,1.67,2.89,1.16,1.16,0,0,1-.52,1.1h0l-2.69,1.57a11.49,11.49,0,0,0-5,8.7v34.1h0a1.18,1.18,0,0,1-.7,1,3.69,3.69,0,0,1-3.33,0,1.2,1.2,0,0,1-.7-1h0v-34.1A16.11,16.11,0,0,1,226.55,349Z"/><path class="cls-11" d="M271.22,311.59c-7.64,4.42-20,4.42-27.67,0s-7.64-11.56,0-16,20-4.41,27.67,0S278.86,307.18,271.22,311.59Z"/><path class="cls-3" d="M275.55,263.31H239.22l9.18,26.9h0a5.26,5.26,0,0,0,2.52,2.77,14.3,14.3,0,0,0,12.93,0,5.18,5.18,0,0,0,2.52-2.77h0Z"/><path class="cls-10" d="M277,303.59V260.5h-1.63v43.09h0a.4.4,0,0,0,.24.33,1.23,1.23,0,0,0,1.15,0A.4.4,0,0,0,277,303.59Z"/><path class="cls-5" d="M276.71,260.84a1.29,1.29,0,0,1-1.15,0c-.32-.19-.32-.48,0-.67a1.29,1.29,0,0,1,1.15,0C277,260.36,277,260.65,276.71,260.84Z"/><path class="cls-10" d="M239.45,303.59V260.5h-1.63v43.09h0a.4.4,0,0,0,.24.33,1.23,1.23,0,0,0,1.15,0A.4.4,0,0,0,239.45,303.59Z"/><path class="cls-5" d="M239.21,260.84a1.29,1.29,0,0,1-1.15,0c-.32-.19-.32-.48,0-.67a1.29,1.29,0,0,1,1.15,0C239.53,260.36,239.53,260.65,239.21,260.84Z"/><path class="cls-10" d="M258.2,314.43V271.34h-1.63v43.09h0a.4.4,0,0,0,.24.33,1.23,1.23,0,0,0,1.15,0A.38.38,0,0,0,258.2,314.43Z"/><path class="cls-5" d="M258,271.67a1.23,1.23,0,0,1-1.15,0,.35.35,0,0,1,0-.66,1.29,1.29,0,0,1,1.15,0A.35.35,0,0,1,258,271.67Z"/><path class="cls-12" d="M277.3,257.22H266.42a33.21,33.21,0,0,0-18.07,0H237.47v3.21h0c0,2.94,1.94,5.88,5.83,8.13,7.78,4.49,20.39,4.49,28.17,0,3.89-2.25,5.83-5.19,5.83-8.13h0Z"/><path class="cls-13" d="M271.47,265.35c-7.78,4.49-20.39,4.49-28.17,0s-7.77-11.77,0-16.26,20.39-4.49,28.17,0S279.25,260.86,271.47,265.35Z"/><path class="cls-3" d="M277,222H266.26a32.79,32.79,0,0,0-17.74,0h-10.7v35h0c0,2.89,1.91,5.78,5.73,8,7.64,4.41,20,4.41,27.67,0,3.82-2.21,5.73-5.1,5.73-8h0Z"/><path class="cls-1" d="M271.22,230c-7.64,4.41-20,4.41-27.67,0s-7.64-11.57,0-16,20-4.42,27.67,0S278.86,225.58,271.22,230Z"/><path class="cls-4" d="M277,232.7c0,2.89-1.91,5.78-5.73,8-7.64,4.41-20,4.41-27.67,0-3.82-2.21-5.73-5.1-5.73-8h0v1.59c0,2.88,1.91,5.78,5.73,8,7.64,4.42,20,4.42,27.67,0,3.82-2.2,5.73-5.1,5.73-8V232.7Z"/><path class="cls-4" d="M277,242c0,2.9-1.91,5.78-5.73,8-7.64,4.41-20,4.41-27.67,0-3.82-2.21-5.73-5.09-5.73-8h0v1.59c0,2.89,1.91,5.78,5.73,8,7.64,4.41,20,4.41,27.67,0,3.82-2.21,5.73-5.1,5.73-8V242Z"/><path class="cls-4" d="M270.86,223.35a7.66,7.66,0,0,0-3.81-4.23c-5.33-3.09-14-3.09-19.34,0a7.72,7.72,0,0,0-3.8,4.23c-.74-2.44.53-5,3.8-6.94,5.35-3.08,14-3.08,19.34,0C270.32,218.31,271.6,220.91,270.86,223.35Z"/><path class="cls-3" d="M270.86,223.35a7.67,7.67,0,0,1-3.81,4.23c-5.33,3.09-14,3.09-19.34,0a7.68,7.68,0,0,1-3.8-4.23,7.72,7.72,0,0,1,3.8-4.23c5.35-3.09,14-3.09,19.34,0A7.66,7.66,0,0,1,270.86,223.35Z"/><path class="cls-2" d="M308.29,403.15c-4.86,2.8-12.73,2.8-17.59,0s-4.86-7.35,0-10.15,12.73-2.81,17.59,0S313.15,400.35,308.29,403.15Z"/><path class="cls-14" d="M311,397.44V370.33H288.38v27.11c0,1.67,1.1,3.33,3.32,4.62,4.42,2.56,11.59,2.55,16,0C309.91,400.77,311,399.11,311,397.44Z"/><path class="cls-15" d="M307.71,375a17.71,17.71,0,0,1-16,0c-4.41-2.56-4.41-6.69,0-9.24a17.65,17.65,0,0,1,16,0C312.12,368.26,312.12,372.39,307.71,375Z"/><path class="cls-16" d="M310.17,370.88a5.58,5.58,0,0,0-3-3.7,16.42,16.42,0,0,0-14.86,0,5.56,5.56,0,0,0-3,3.7c-.28-1.73.73-3.51,3-4.84a16.42,16.42,0,0,1,14.86,0C309.44,367.37,310.45,369.15,310.17,370.88Z"/><path class="cls-14" d="M310.17,370.88v0a5.61,5.61,0,0,1-3,3.71,16.42,16.42,0,0,1-14.86,0,5.59,5.59,0,0,1-3-3.71v0a5.56,5.56,0,0,1,3-3.7,16.42,16.42,0,0,1,14.86,0A5.58,5.58,0,0,1,310.17,370.88Z"/><path class="cls-16" d="M299.7,385.35a17,17,0,0,1-8.33-2,5.79,5.79,0,0,1-3.26-5.18,10.58,10.58,0,0,0,3.92,4.43,17,17,0,0,0,15.36,0c1.91-1.1,3.93-4.77,3.93-4.41a5.85,5.85,0,0,1-3.28,5.16A17,17,0,0,1,299.7,385.35Z"/><path class="cls-15" d="M311.65,376h0a4.75,4.75,0,0,0-.62-1.93V377c0,1.5-1.74,3.54-3.63,4.64a17,17,0,0,1-15.36,0c-1.93-1.12-3.64-3.21-3.64-4.7V374.1a4.75,4.75,0,0,0-.62,1.93h0a8.34,8.34,0,0,0,0,2l0,0c.16,1.82,1.41,3.51,3.59,4.77a18.45,18.45,0,0,0,16.67,0c2.17-1.26,3.43-3,3.59-4.77l0,0A8.34,8.34,0,0,0,311.65,376Z"/><path class="cls-16" d="M299.7,391.84a17,17,0,0,1-8.33-2,5.78,5.78,0,0,1-3.26-5.17,10.66,10.66,0,0,0,3.92,4.43,17,17,0,0,0,15.36,0c1.91-1.11,3.93-4.78,3.93-4.41a5.84,5.84,0,0,1-3.28,5.15A17,17,0,0,1,299.7,391.84Z"/><path class="cls-15" d="M311.65,382.53h0a4.71,4.71,0,0,0-.62-1.93v2.92c0,1.5-1.74,3.54-3.63,4.64a17,17,0,0,1-15.36,0c-1.93-1.11-3.64-3.2-3.64-4.7V380.6a4.71,4.71,0,0,0-.62,1.93h0a8.27,8.27,0,0,0,0,2l0,0c.16,1.83,1.41,3.51,3.59,4.77a18.37,18.37,0,0,0,16.67,0c2.17-1.26,3.43-2.94,3.59-4.77l0,0A8.27,8.27,0,0,0,311.65,382.53Z"/><path class="cls-16" d="M299.7,398.34a17.13,17.13,0,0,1-8.33-2,5.8,5.8,0,0,1-3.26-5.18A10.66,10.66,0,0,0,292,395.6a17,17,0,0,0,15.36,0c1.91-1.11,3.93-4.77,3.93-4.41a5.84,5.84,0,0,1-3.28,5.16A17.14,17.14,0,0,1,299.7,398.34Z"/><path class="cls-15" d="M311.65,389h0a4.8,4.8,0,0,0-.62-1.93V390c0,1.49-1.74,3.54-3.63,4.63a17,17,0,0,1-15.36,0c-1.93-1.11-3.64-3.19-3.64-4.7v-2.86a4.8,4.8,0,0,0-.62,1.93h0a8.25,8.25,0,0,0,0,2l0,0c.16,1.83,1.41,3.52,3.59,4.78a18.45,18.45,0,0,0,16.67,0c2.17-1.26,3.43-2.94,3.59-4.78l0,0A8.25,8.25,0,0,0,311.65,389Z"/><ellipse class="cls-16" cx="305.94" cy="368.27" rx="1.21" ry="0.7"/><path class="cls-2" d="M287.47,416c-4.87,2.8-12.74,2.8-17.6,0s-4.86-7.35,0-10.16,12.73-2.8,17.6,0S292.32,413.16,287.47,416Z"/><path class="cls-14" d="M290.19,410.24v-27.1H267.55v27.1c0,1.68,1.11,3.35,3.32,4.63,4.42,2.56,11.59,2.55,16,0C289.08,413.59,290.19,411.92,290.19,410.24Z"/><path class="cls-15" d="M286.88,387.75a17.65,17.65,0,0,1-16,0c-4.41-2.55-4.41-6.69,0-9.24a17.71,17.71,0,0,1,16,0C291.3,381.06,291.3,385.2,286.88,387.75Z"/><path class="cls-16" d="M289.34,383.69a5.58,5.58,0,0,0-3-3.7,16.42,16.42,0,0,0-14.86,0,5.6,5.6,0,0,0-3,3.7c-.28-1.73.73-3.51,3-4.84a16.42,16.42,0,0,1,14.86,0C288.61,380.18,289.62,382,289.34,383.69Z"/><path class="cls-14" d="M289.34,383.69v0a5.56,5.56,0,0,1-3,3.7,16.36,16.36,0,0,1-14.86,0,5.58,5.58,0,0,1-3-3.7v0a5.6,5.6,0,0,1,3-3.7,16.42,16.42,0,0,1,14.86,0A5.58,5.58,0,0,1,289.34,383.69Z"/><path class="cls-16" d="M278.88,398.16a17.07,17.07,0,0,1-8.33-2,5.82,5.82,0,0,1-3.27-5.18,10.66,10.66,0,0,0,3.92,4.43,17,17,0,0,0,15.36,0c1.91-1.11,3.93-4.77,3.93-4.41a5.82,5.82,0,0,1-3.28,5.16A17.13,17.13,0,0,1,278.88,398.16Z"/><path class="cls-15" d="M290.82,388.85s0,0,0,0a4.75,4.75,0,0,0-.62-1.93v2.93c0,1.49-1.74,3.54-3.63,4.63a17,17,0,0,1-15.36,0c-1.93-1.12-3.64-3.2-3.64-4.71v-2.86a4.91,4.91,0,0,0-.62,1.93s0,0,0,0a8.9,8.9,0,0,0,0,2v0c.17,1.83,1.43,3.52,3.61,4.78a18.43,18.43,0,0,0,16.66,0c2.17-1.26,3.43-3,3.6-4.78v0A8.27,8.27,0,0,0,290.82,388.85Z"/><path class="cls-16" d="M278.88,404.65a17,17,0,0,1-8.33-2,5.81,5.81,0,0,1-3.27-5.18,10.63,10.63,0,0,0,3.92,4.44,17,17,0,0,0,15.36,0c1.91-1.11,3.93-4.77,3.93-4.42a5.82,5.82,0,0,1-3.28,5.16A17,17,0,0,1,278.88,404.65Z"/><path class="cls-15" d="M290.82,395.34h0a4.71,4.71,0,0,0-.62-1.93v2.92c0,1.5-1.74,3.54-3.63,4.64a17,17,0,0,1-15.36,0c-1.93-1.11-3.64-3.2-3.64-4.7v-2.86a4.86,4.86,0,0,0-.62,1.93h0a8.9,8.9,0,0,0,0,2v0c.17,1.83,1.43,3.52,3.61,4.77a18.43,18.43,0,0,0,16.66,0c2.17-1.25,3.43-2.94,3.6-4.77v0A8.27,8.27,0,0,0,290.82,395.34Z"/><path class="cls-16" d="M278.88,411.14a17,17,0,0,1-8.33-2,5.81,5.81,0,0,1-3.27-5.17,10.58,10.58,0,0,0,3.92,4.43,17,17,0,0,0,15.36,0c1.91-1.11,3.93-4.77,3.93-4.41a5.8,5.8,0,0,1-3.28,5.15A17,17,0,0,1,278.88,411.14Z"/><path class="cls-15" d="M290.82,401.83h0a4.8,4.8,0,0,0-.62-1.93v2.93c0,1.49-1.74,3.54-3.63,4.63a17,17,0,0,1-15.36,0c-1.93-1.11-3.64-3.2-3.64-4.7V399.9a5,5,0,0,0-.62,1.93h0a8.9,8.9,0,0,0,0,2h0c.17,1.82,1.43,3.51,3.61,4.77a18.43,18.43,0,0,0,16.66,0c2.17-1.26,3.43-2.95,3.6-4.77h0A8.27,8.27,0,0,0,290.82,401.83Z"/><path class="cls-16" d="M286,381.57a1.91,1.91,0,0,1-1.71,0c-.48-.27-.48-.71,0-1a2,2,0,0,1,1.71,0C286.44,380.86,286.44,381.3,286,381.57Z"/><polygon class="cls-5" points="287.72 325.75 264.48 339.24 262.69 338.21 285.94 324.72 287.72 325.75"/><polygon class="cls-7" points="264.48 353.58 262.69 352.55 262.69 338.21 264.48 339.24 264.48 353.58"/><polygon class="cls-6" points="287.72 340.09 264.48 353.58 264.48 339.24 287.72 325.75 287.72 340.09"/><polygon class="cls-7" points="286.51 328.01 286.51 339.67 265.76 351.62 265.76 350.38 285.43 339.05 285.43 328.63 286.51 328.01"/><polygon class="cls-17" points="285.43 328.63 285.43 339.05 265.76 350.38 265.76 339.97 285.43 328.63"/><path class="cls-2" d="M453.48,259.06l-1.15-.67c5.25-3.8,8.11-8.51,8.11-13.48,0-5.8-3.87-11.23-10.91-15.29s-16.21-6.24-26-6.24-19.07,2.22-26,6.24-10.91,9.49-10.91,15.29,3.87,11.23,10.91,15.29,16.21,6.24,26,6.24c9,0,17.54-1.87,24.27-5.28l1,.6Z"/><path class="cls-4" d="M459.87,241.85c-.67-4.81-4.19-9.52-10.57-13.2-14.26-8.24-37.36-8.24-51.62,0-6.34,3.66-9.86,8.33-10.56,13.12H387V245c0,5.38,3.58,10.76,10.69,14.86,14.26,8.23,37.37,8.23,51.62,0,7.11-4.1,10.67-9.48,10.69-14.86v-3.1Z"/><path class="cls-1" d="M449.3,256.66c-14.25,8.23-37.36,8.23-51.62,0s-14.26-21.57,0-29.8,37.36-8.23,51.62,0S463.56,248.43,449.3,256.66Z"/><path class="cls-5" d="M459,242.19c-.19-5.11-3.65-10.18-10.4-14.08-13.88-8-36.38-8-50.25,0-6.76,3.9-10.22,9-10.41,14.08-.19-5.39,3.28-10.82,10.41-14.94,13.87-8,36.37-8,50.25,0C455.75,231.37,459.21,236.8,459,242.19Z"/><path class="cls-18" d="M459,242.19c-.19,5.1-3.65,10.18-10.4,14.08-13.88,8-36.38,8-50.25,0-6.76-3.9-10.22-9-10.41-14.08.19-5.11,3.65-10.18,10.41-14.08,13.87-8,36.37-8,50.25,0C455.37,232,458.83,237.08,459,242.19Z"/><path class="cls-6" d="M454.48,241.84c-.5-4.18-3.5-8.27-9-11.47-12.13-7-31.79-7-43.92,0-5.48,3.17-8.48,7.22-9,11.36l-.09,0v1.3c0,4.59,3,9.18,9.1,12.68,12.13,7,31.79,7,43.92,0,6-3.49,9.08-8,9.1-12.63h0v-1.34Z"/><path class="cls-5" d="M445.45,254.44c-12.13,7-31.79,7-43.92,0s-12.13-18.36,0-25.36,31.79-7,43.92,0S457.58,247.44,445.45,254.44Z"/><path class="cls-6" d="M453.78,242.19c-.18-4.34-3.14-8.64-8.86-11.94-11.84-6.84-31-6.84-42.85,0-5.73,3.3-8.69,7.6-8.87,11.94-.19-4.62,2.76-9.27,8.87-12.8,11.83-6.83,31-6.83,42.85,0C451,232.92,454,237.57,453.78,242.19Z"/><path class="cls-18" d="M453.78,242.19c-.18,4.33-3.14,8.63-8.86,11.94-11.84,6.83-31,6.83-42.85,0-5.73-3.31-8.69-7.61-8.87-11.94.18-4.34,3.14-8.64,8.87-11.94,11.83-6.84,31-6.84,42.85,0C450.64,233.55,453.6,237.85,453.78,242.19Z"/><path class="cls-2" d="M427.19,244a10.75,10.75,0,0,1-2.85.66l22.07,12.75.56-.28.68-1.74Z"/><path class="cls-6" d="M430,241.27H430a3.51,3.51,0,0,0-1.85-2.18,10.21,10.21,0,0,0-9.26,0,3.51,3.51,0,0,0-1.85,2.18H417v.49h0v0h0a3.27,3.27,0,0,0,1.91,2.65,10.21,10.21,0,0,0,9.26,0,3.27,3.27,0,0,0,1.91-2.65h0Z"/><path class="cls-5" d="M428.12,244a10.27,10.27,0,0,1-9.26,0c-2.55-1.48-2.55-3.87,0-5.35a10.27,10.27,0,0,1,9.26,0C430.67,240.11,430.67,242.5,428.12,244Z"/><path class="cls-6" d="M427.37,241.31V238h-7.76v3.33h0a1.94,1.94,0,0,0,1.13,1.58,6.06,6.06,0,0,0,5.5,0A1.92,1.92,0,0,0,427.37,241.31Z"/><path class="cls-5" d="M426.24,239.57a6.12,6.12,0,0,1-5.5,0c-1.51-.88-1.51-2.3,0-3.17a6.06,6.06,0,0,1,5.5,0C427.75,237.27,427.75,238.69,426.24,239.57Z"/><path class="cls-6" d="M425.61,238.27a1.32,1.32,0,0,0-.58-.6,3.41,3.41,0,0,0-3.08,0,1.32,1.32,0,0,0-.58.6c-.16-.41,0-.86.58-1.17a3.35,3.35,0,0,1,3.08,0C425.58,237.41,425.77,237.86,425.61,238.27Z"/><path class="cls-7" d="M425.61,238.27a1.32,1.32,0,0,1-.58.6,3.41,3.41,0,0,1-3.08,0,.6.6,0,0,1,0-1.2,3.41,3.41,0,0,1,3.08,0A1.32,1.32,0,0,1,425.61,238.27Z"/><polygon class="cls-6" points="452.84 259.1 448.86 261.39 448.63 258.25 452.84 255.95 452.84 259.1"/><polygon class="cls-7" points="448.86 261.39 447.65 260.7 447.65 257.56 448.38 257.75 448.86 258.25 448.86 261.39"/><polygon class="cls-6" points="448.86 258.25 452.84 255.95 452.84 254.67 448.45 256.34 448.86 258.25"/><path class="cls-7" d="M448.86,257l-21.49-15.72c-.53,1.86-4,1-4,1v1.28l25.47,14.71Z"/><path class="cls-5" d="M427.37,240a1.89,1.89,0,0,1-1.13,1.65,5.66,5.66,0,0,1-2.85.65L448.86,257l4-2.3Z"/><path class="cls-2" d="M128.63,267.72l-1.15-.66c5.25-3.8,8.12-8.51,8.12-13.48,0-5.8-3.88-11.23-10.92-15.3s-16.21-6.23-26-6.23-19.07,2.21-26,6.23-10.91,9.5-10.91,15.3,3.87,11.23,10.91,15.29,16.22,6.24,26,6.24c9,0,17.54-1.87,24.26-5.29l1,.61Z"/><path class="cls-4" d="M135,234.45c-.67-4.82-4.19-9.52-10.57-13.2-14.25-8.24-37.36-8.24-51.62,0-6.34,3.66-9.86,8.33-10.56,13.12h-.13v19.22c0,5.37,3.58,10.75,10.69,14.85,14.26,8.24,37.37,8.24,51.62,0,7.11-4.1,10.67-9.47,10.69-14.85V234.45Z"/><polygon class="cls-6" points="74.51 237.79 70.53 240.09 70.3 220.78 70.53 219.97 74.51 217.67 74.51 237.79"/><polygon class="cls-7" points="70.53 240.09 69.32 239.39 69.32 219.28 70.53 219.97 70.53 240.09"/><path class="cls-1" d="M124.45,249.26c-14.25,8.23-37.36,8.23-51.62,0s-14.25-21.57,0-29.8,37.37-8.23,51.62,0S138.71,241,124.45,249.26Z"/><path class="cls-6" d="M134.17,234.79a12.65,12.65,0,0,1-1.24,5c-1.57-3.33-4.63-6.48-9.16-9.1-13.88-8-36.38-8-50.26,0-4.53,2.62-7.58,5.76-9.15,9.1a12.65,12.65,0,0,1-1.24-5c-.2-5.4,3.27-10.82,10.39-14.94,13.88-8,36.38-8,50.26,0C130.9,224,134.36,229.39,134.17,234.79Z"/><path class="cls-18" d="M132.93,239.76c-1.57,3.34-4.63,6.49-9.16,9.1-13.88,8-36.38,8-50.26,0-4.53-2.61-7.58-5.76-9.15-9.1,1.57-3.34,4.62-6.48,9.15-9.1,13.88-8,36.38-8,50.26,0C128.3,233.28,131.36,236.43,132.93,239.76Z"/><path class="cls-6" d="M129.7,244.33v-10l-.08.08c-.48-4.18-3.49-8.28-9-11.47-12.13-7-31.79-7-43.92,0-5.48,3.17-8.48,7.22-9,11.36l-.09,0v10a27.35,27.35,0,0,0,5.93,4.54c6.94,4,16,6,25.13,6s18.19-2,25.13-6A27.35,27.35,0,0,0,129.7,244.33Z"/><path class="cls-5" d="M120.6,247c-12.13,7-31.79,7-43.92,0s-12.13-18.36,0-25.36,31.79-7,43.92,0S132.73,240,120.6,247Z"/><path class="cls-6" d="M128.93,234.79a10.52,10.52,0,0,1-.85,3.71c-1.27-3-3.94-5.87-8-8.22-11.84-6.84-31-6.84-42.85,0-4.08,2.35-6.75,5.21-8,8.22a10.75,10.75,0,0,1-.85-3.71c-.19-4.62,2.76-9.28,8.87-12.8,11.83-6.83,31-6.83,42.85,0C126.17,225.51,129.12,230.17,128.93,234.79Z"/><path class="cls-18" d="M128.08,238.5c-1.26,3-3.93,5.88-8,8.23-11.84,6.83-31,6.83-42.85,0-4.08-2.35-6.75-5.21-8-8.23,1.27-3,3.94-5.87,8-8.22,11.83-6.84,31-6.84,42.85,0C124.14,232.63,126.81,235.49,128.08,238.5Z"/><path class="cls-2" d="M102.34,236.63a10.64,10.64,0,0,1-2.85.66L121.56,250l.56-.28.68-1.74Z"/><path class="cls-6" d="M105.18,233.87h-.05a3.56,3.56,0,0,0-1.86-2.18,10.19,10.19,0,0,0-9.25,0,3.53,3.53,0,0,0-1.86,2.18H92.1v8.5h0A3.26,3.26,0,0,0,94,245a10.19,10.19,0,0,0,9.25,0,3.25,3.25,0,0,0,1.91-2.65h0Z"/><path class="cls-5" d="M103.27,236.57a10.19,10.19,0,0,1-9.25,0c-2.56-1.47-2.56-3.86,0-5.34a10.25,10.25,0,0,1,9.25,0C105.82,232.71,105.82,235.1,103.27,236.57Z"/><polygon class="cls-6" points="94.79 233.99 98.78 231.69 98.78 228.63 94.38 230.31 94.79 233.99"/><path class="cls-7" d="M94.79,230.93,73.3,215.21c-.52,1.87-4,1-4,1v3.06L94.79,234Z"/><polygon class="cls-5" points="73.3 213.93 69.32 216.22 94.79 230.94 98.78 228.63 73.3 213.93"/><path class="cls-6" d="M102.52,233.9v-3.32H94.76v3.32h0a1.94,1.94,0,0,0,1.13,1.59,6.12,6.12,0,0,0,5.5,0A1.92,1.92,0,0,0,102.52,233.9Z"/><path class="cls-5" d="M101.39,232.17a6.12,6.12,0,0,1-5.5,0c-1.51-.88-1.51-2.3,0-3.18a6.12,6.12,0,0,1,5.5,0C102.9,229.87,102.9,231.29,101.39,232.17Z"/><path class="cls-6" d="M100.76,230.87a1.27,1.27,0,0,0-.58-.6,3.41,3.41,0,0,0-3.08,0,1.32,1.32,0,0,0-.58.6c-.16-.41,0-.86.58-1.18a3.41,3.41,0,0,1,3.08,0C100.73,230,100.92,230.46,100.76,230.87Z"/><path class="cls-7" d="M100.76,230.87a1.27,1.27,0,0,1-.58.6,3.41,3.41,0,0,1-3.08,0,.6.6,0,0,1,0-1.2,3.41,3.41,0,0,1,3.08,0A1.27,1.27,0,0,1,100.76,230.87Z"/><polygon class="cls-6" points="127.99 267.72 124.01 270.02 123.78 250.04 127.99 248.55 127.99 267.72"/><polygon class="cls-7" points="124.01 270.02 122.8 269.32 122.8 250.16 123.53 250.34 124.01 249.91 124.01 270.02"/><polygon class="cls-6" points="124.01 250.85 127.99 248.55 127.99 245.5 123.6 247.18 124.01 250.85"/><path class="cls-7" d="M124,247.8l-21.49-15.72c-.53,1.86-4,1-4,1v3L124,250.85Z"/><path class="cls-5" d="M102.52,230.79a1.89,1.89,0,0,1-1.13,1.65,5.66,5.66,0,0,1-2.85.65L124,247.8l4-2.3Z"/><g class="cls-19"><path d="M174.88,444.88a.4.4,0,0,1,0,.76L129.13,472a1.44,1.44,0,0,1-1.31,0l-.74-.42a.4.4,0,0,1,0-.76l45.74-26.41a1.44,1.44,0,0,1,1.31,0Z"/></g><polygon class="cls-5" points="136.67 465.21 135.62 464.61 140.14 462 141.18 462.6 136.67 465.21"/><polygon class="cls-7" points="136.67 467.07 135.62 466.47 135.62 464.61 136.67 465.21 136.67 467.07"/><polygon class="cls-6" points="136.67 467.07 141.18 464.46 141.18 462.6 136.67 465.21 136.67 467.07"/><polygon class="cls-20" points="136.67 466.13 141.18 463.53 141.18 462.6 136.67 465.21 136.67 466.13"/><polygon class="cls-5" points="151.98 456.37 150.93 455.77 155.44 453.16 156.49 453.76 151.98 456.37"/><polygon class="cls-7" points="151.98 458.23 150.93 457.63 150.93 455.77 151.98 456.37 151.98 458.23"/><polygon class="cls-6" points="151.98 458.23 156.49 455.63 156.49 453.76 151.98 456.37 151.98 458.23"/><polygon class="cls-20" points="151.98 457.3 156.49 454.69 156.49 453.76 151.98 456.37 151.98 457.3"/><polygon class="cls-5" points="167.38 447.48 166.33 446.88 170.84 444.27 171.89 444.87 167.38 447.48"/><polygon class="cls-7" points="167.38 449.34 166.33 448.74 166.33 446.88 167.38 447.48 167.38 449.34"/><polygon class="cls-6" points="167.38 449.34 171.89 446.74 171.89 444.87 167.38 447.48 167.38 449.34"/><polygon class="cls-20" points="167.38 448.41 171.89 445.8 171.89 444.87 167.38 447.48 167.38 448.41"/><path class="cls-6" d="M175.77,443.28a3.26,3.26,0,0,0-1.48-2.56,1,1,0,0,0-1-.1h0l-.67.38.24.41v.16a3.26,3.26,0,0,0,1.47,2.56.85.85,0,0,0,.17.08l.23.4.65-.37h0A1.06,1.06,0,0,0,175.77,443.28Z"/><path class="cls-7" d="M175.12,443.65c0,1-.66,1.33-1.48.86a3.28,3.28,0,0,1-1.47-2.56c0-.94.66-1.33,1.47-.86A3.28,3.28,0,0,1,175.12,443.65Z"/><path class="cls-6" d="M174.51,443.44a2.23,2.23,0,0,0-1-1.72.7.7,0,0,0-.7-.07h0l-45.17,26.08,1.43,2.43,45.14-26.07h0A.73.73,0,0,0,174.51,443.44Z"/><path d="M129.35,469.52c0,.64-.45.89-1,.58a2.21,2.21,0,0,1-1-1.73c0-.63.45-.89,1-.57A2.19,2.19,0,0,1,129.35,469.52Z"/><path class="cls-6" d="M129.83,469.8a3.26,3.26,0,0,0-1.48-2.56,1,1,0,0,0-1-.1h0l-.66.38.24.42a.76.76,0,0,0,0,.15,3.27,3.27,0,0,0,1.48,2.56l.17.09.23.39.64-.37h0A1.06,1.06,0,0,0,129.83,469.8Z"/><path class="cls-7" d="M129.18,470.17c0,.95-.66,1.33-1.48.86a3.26,3.26,0,0,1-1.48-2.56c0-.94.66-1.33,1.48-.85A3.24,3.24,0,0,1,129.18,470.17Z"/><path class="cls-6" d="M128.63,470.28c-.14.34-.51.43-.93.19a2.2,2.2,0,0,1-1-1.72c0-.49.26-.76.63-.71a.89.89,0,0,0-.07.38,2.19,2.19,0,0,0,1,1.72A1,1,0,0,0,128.63,470.28Z"/><path d="M128.7,469.9a1.12,1.12,0,0,1-.07.38,1,1,0,0,1-.36-.14,2.19,2.19,0,0,1-1-1.72.89.89,0,0,1,.07-.38,1.22,1.22,0,0,1,.36.13A2.21,2.21,0,0,1,128.7,469.9Z"/><path class="cls-2" d="M162.63,446.4a15.46,15.46,0,0,1-14,0c-3.86-2.23-3.86-5.85,0-8.08a15.53,15.53,0,0,1,14,0C166.49,440.55,166.49,444.17,162.63,446.4Z"/><path class="cls-6" d="M164.83,437.45H146.44V442h0c0,1.36.9,2.72,2.7,3.76a14.36,14.36,0,0,0,13,0c1.8-1,2.7-2.4,2.7-3.76h0Z"/><path class="cls-21" d="M151.42,437.45h-5V442c0,1.36.9,2.72,2.7,3.76a10.34,10.34,0,0,0,2.28,1Z"/><path class="cls-8" d="M165.24,415c0-4.7-4.3-8.5-9.61-8.5s-9.6,3.8-9.6,8.5v22.23h0c0,1.42.94,2.84,2.81,3.92a15.06,15.06,0,0,0,13.59,0c1.87-1.08,2.81-2.5,2.81-3.92h0Z"/><g class="cls-22"><path d="M148.84,441.15a11.26,11.26,0,0,0,2.06.9V423a8.38,8.38,0,0,0-4.87-7.4v21.63C146,438.65,147,440.07,148.84,441.15Z"/></g><path class="cls-23" d="M162.43,419.81a12.43,12.43,0,0,1-4.1,1.41v7.29a12.42,12.42,0,0,0,4.1-1.4,6.12,6.12,0,0,0,2.36-2.25v-7.29A6,6,0,0,1,162.43,419.81Z"/><path class="cls-3" d="M158.6,421.44v6.75a11.91,11.91,0,0,0,3.69-1.32,5.79,5.79,0,0,0,2.23-2.08v-6.34a7.11,7.11,0,0,1-2,1.6A12.43,12.43,0,0,1,158.6,421.44Z"/><path class="cls-6" d="M158,407.58h-1.28a3.79,3.79,0,0,0-2.11,0H153.3v2.13h0a1.15,1.15,0,0,0,.69,1,3.62,3.62,0,0,0,3.3,0,1.15,1.15,0,0,0,.68-1h0Z"/><path class="cls-5" d="M157.29,408.53a3.62,3.62,0,0,1-3.3,0c-.92-.53-.92-1.38,0-1.9a3.62,3.62,0,0,1,3.3,0A1,1,0,0,1,157.29,408.53Z"/><path class="cls-7" d="M156.79,408.24a2.54,2.54,0,0,1-2.31,0,.7.7,0,0,1,0-1.33,2.61,2.61,0,0,1,2.31,0C157.43,407.28,157.43,407.88,156.79,408.24Z"/><path d="M156.41,407.13a1.7,1.7,0,0,0-1.55,0,.47.47,0,0,0,0,.88l0,0a1.7,1.7,0,0,0,1.55,0l0,0C156.85,407.76,156.84,407.37,156.41,407.13Z"/><path class="cls-6" d="M159,397.79a2.78,2.78,0,0,0-4.44,2.56v7.22h0a.54.54,0,0,0,.32.44,1.65,1.65,0,0,0,1.53,0,.54.54,0,0,0,.32-.45v-7.21c0-.53.15-.81.28-.88s.45-.07.91.19l1.62.94,1.08-1.88Z"/><path class="cls-20" d="M169.51,445.21a1.74,1.74,0,0,1-1.57,0,.48.48,0,0,1,0-.91,1.8,1.8,0,0,1,1.57,0A.48.48,0,0,1,169.51,445.21Z"/><path class="cls-6" d="M166.45,402.09l-5.84-3.37a1.08,1.08,0,0,0-1.08,1.88l5.83,3.37a5.16,5.16,0,0,1,2.27,3.93v36.77a.54.54,0,0,0,.32.44,1.72,1.72,0,0,0,1.53,0,.53.53,0,0,0,.32-.46V407.9A7.32,7.32,0,0,0,166.45,402.09Z"/><path class="cls-2" d="M147.35,455.22a15.44,15.44,0,0,1-14,0c-3.87-2.23-3.87-5.85,0-8.07a15.38,15.38,0,0,1,14,0C151.21,449.37,151.21,453,147.35,455.22Z"/><path class="cls-6" d="M149.55,446.27H131.16v4.52h0c0,1.35.9,2.71,2.7,3.75a14.38,14.38,0,0,0,13,0c1.79-1,2.69-2.4,2.69-3.75h0Z"/><path class="cls-21" d="M136.15,446.27h-5v4.52c0,1.35.9,2.71,2.7,3.75a10.22,10.22,0,0,0,2.29,1Z"/><path class="cls-8" d="M150,423.82c0-4.69-4.3-8.5-9.6-8.5s-9.6,3.81-9.6,8.5v22.23h0c0,1.42.93,2.84,2.81,3.92a15,15,0,0,0,13.58,0c1.88-1.08,2.81-2.5,2.81-3.92h0Z"/><g class="cls-22"><path d="M133.57,450a11.16,11.16,0,0,0,2.05.9V431.81a8.4,8.4,0,0,0-4.86-7.39v21.63C130.76,447.47,131.69,448.89,133.57,450Z"/></g><path class="cls-23" d="M147.15,428.64a12.6,12.6,0,0,1-4.09,1.4v7.29a12.37,12.37,0,0,0,4.09-1.4,6.16,6.16,0,0,0,2.37-2.25v-7.3A6.1,6.1,0,0,1,147.15,428.64Z"/><path class="cls-3" d="M143.32,430.26V437a11.91,11.91,0,0,0,3.69-1.32,5.87,5.87,0,0,0,2.23-2.08v-6.34a7,7,0,0,1-2,1.6A12.43,12.43,0,0,1,143.32,430.26Z"/><path class="cls-6" d="M142.69,416.4h-1.27a3.82,3.82,0,0,0-2.12,0H138v2.13h0a1.13,1.13,0,0,0,.68,1,3.62,3.62,0,0,0,3.3,0,1.15,1.15,0,0,0,.68-1h0Z"/><path class="cls-5" d="M142,417.35a3.62,3.62,0,0,1-3.3,0,1,1,0,0,1,0-1.9,3.62,3.62,0,0,1,3.3,0A1,1,0,0,1,142,417.35Z"/><path class="cls-7" d="M141.51,417.07a2.61,2.61,0,0,1-2.31,0,.71.71,0,0,1,0-1.34,2.61,2.61,0,0,1,2.31,0A.71.71,0,0,1,141.51,417.07Z"/><path d="M141.14,416a1.72,1.72,0,0,0-1.56,0c-.42.24-.43.63,0,.88l0,0a1.72,1.72,0,0,0,1.56,0l0,0C141.57,416.58,141.56,416.19,141.14,416Z"/><path class="cls-6" d="M143.71,406.61a2.77,2.77,0,0,0-4.43,2.56v7.22h0a.53.53,0,0,0,.31.44,1.65,1.65,0,0,0,1.53,0,.52.52,0,0,0,.32-.46v-7.2c0-.53.15-.8.29-.88s.44-.07.9.19l1.62.94,1.08-1.88Z"/><path class="cls-20" d="M154.23,454a1.74,1.74,0,0,1-1.57,0,.48.48,0,0,1,0-.91,1.74,1.74,0,0,1,1.57,0A.48.48,0,0,1,154.23,454Z"/><path class="cls-6" d="M151.17,410.91l-5.84-3.37a1.08,1.08,0,0,0-1.08,1.88l5.84,3.37a5.17,5.17,0,0,1,2.27,3.93v36.77a.52.52,0,0,0,.32.44,1.72,1.72,0,0,0,1.53,0,.51.51,0,0,0,.31-.46V416.72A7.32,7.32,0,0,0,151.17,410.91Z"/><path class="cls-2" d="M131.91,464.13a15.44,15.44,0,0,1-14,0c-3.87-2.23-3.87-5.84,0-8.07a15.44,15.44,0,0,1,14,0C135.77,458.29,135.77,461.9,131.91,464.13Z"/><path class="cls-6" d="M134.11,455.18H115.73v4.52h0c0,1.36.89,2.72,2.69,3.75a14.38,14.38,0,0,0,13,0c1.8-1,2.69-2.39,2.69-3.75h0Z"/><path class="cls-8" d="M134.52,432.73c0-4.69-4.3-8.5-9.6-8.5s-9.6,3.81-9.6,8.5V455h0c0,1.42.93,2.84,2.81,3.92a15,15,0,0,0,13.58,0c1.87-1.08,2.81-2.5,2.81-3.92h0Z"/><path class="cls-23" d="M131.71,437.55a12.35,12.35,0,0,1-4.1,1.4v7.29a12.35,12.35,0,0,0,4.1-1.4,6.16,6.16,0,0,0,2.37-2.25V435.3A6.16,6.16,0,0,1,131.71,437.55Z"/><path class="cls-3" d="M127.89,439.18v6.74a12.2,12.2,0,0,0,3.68-1.31,5.89,5.89,0,0,0,2.23-2.09v-6.34a7,7,0,0,1-2,1.6A12.22,12.22,0,0,1,127.89,439.18Z"/><path class="cls-6" d="M127.25,425.31H126a4,4,0,0,0-2.12,0h-1.28v2.14h0a1.16,1.16,0,0,0,.69.95,3.65,3.65,0,0,0,3.3,0,1.17,1.17,0,0,0,.68-.95h0Z"/><path class="cls-5" d="M126.57,426.27a3.69,3.69,0,0,1-3.3,0,1,1,0,0,1,0-1.91,3.62,3.62,0,0,1,3.3,0A1,1,0,0,1,126.57,426.27Z"/><path class="cls-7" d="M126.07,426a2.52,2.52,0,0,1-2.3,0c-.64-.37-.64-1,0-1.33a2.52,2.52,0,0,1,2.3,0C126.71,425,126.71,425.61,126.07,426Z"/><path d="M125.7,424.86a1.72,1.72,0,0,0-1.56,0c-.42.25-.43.64,0,.89h0a1.72,1.72,0,0,0,1.56,0h0C126.13,425.5,126.12,425.11,125.7,424.86Z"/><path class="cls-6" d="M128.27,415.52a2.77,2.77,0,0,0-4.43,2.56v7.22h0a.55.55,0,0,0,.31.45,1.74,1.74,0,0,0,1.54,0,.54.54,0,0,0,.31-.46v-7.21c0-.52.16-.8.29-.87s.44-.08.9.19l1.62.93,1.08-1.88Z"/><path class="cls-20" d="M138.79,462.94a1.74,1.74,0,0,1-1.57,0,.48.48,0,0,1,0-.9,1.74,1.74,0,0,1,1.57,0A.48.48,0,0,1,138.79,462.94Z"/><path class="cls-6" d="M135.73,419.83l-5.84-3.38a1.08,1.08,0,0,0-1.08,1.88l5.84,3.37a5.22,5.22,0,0,1,2.27,3.94V462.4a.53.53,0,0,0,.31.44,1.65,1.65,0,0,0,1.53,0,.51.51,0,0,0,.32-.45V425.64A7.29,7.29,0,0,0,135.73,419.83Z"/><path class="cls-7" d="M273.36,123.67h-5.89a17.94,17.94,0,0,0-9.75,0h-5.88v1.73h0c0,1.59,1,3.18,3.15,4.4a16.84,16.84,0,0,0,15.21,0c2.11-1.22,3.16-2.81,3.16-4.4h0Z"/><path class="cls-5" d="M270.2,128.06a16.78,16.78,0,0,1-15.21,0c-4.2-2.42-4.2-6.36,0-8.78a16.78,16.78,0,0,1,15.21,0C274.41,121.7,274.41,125.64,270.2,128.06Z"/><path class="cls-3" d="M272.77,96.63h-5.56a17,17,0,0,0-9.22,0h-5.57v26.71h0c0,1.5,1,3,3,4.15a15.87,15.87,0,0,0,14.39,0c2-1.15,3-2.65,3-4.15h0Z"/><path class="cls-1" d="M269.79,100.78a15.93,15.93,0,0,1-14.39,0c-4-2.3-4-6,0-8.31a15.93,15.93,0,0,1,14.39,0C273.76,94.77,273.76,98.48,269.79,100.78Z"/><path class="cls-4" d="M272.77,109.84c0,1.5-1,3-3,4.15a15.93,15.93,0,0,1-14.39,0c-2-1.14-3-2.65-3-4.15h0v.82c0,1.51,1,3,3,4.16a15.93,15.93,0,0,0,14.39,0c2-1.15,3-2.65,3-4.16v-.82Z"/><path class="cls-4" d="M272.77,114.66c0,1.5-1,3-3,4.15a15.93,15.93,0,0,1-14.39,0c-2-1.14-3-2.65-3-4.15h0v.83c0,1.5,1,3,3,4.15a15.93,15.93,0,0,0,14.39,0c2-1.15,3-2.65,3-4.15v-.83Z"/><path class="cls-4" d="M269.6,97.33a4,4,0,0,0-2-2.2,11.12,11.12,0,0,0-10.05,0,4,4,0,0,0-2,2.2c-.38-1.27.28-2.62,2-3.61a11.12,11.12,0,0,1,10.05,0C269.32,94.71,270,96.06,269.6,97.33Z"/><path class="cls-3" d="M269.6,97.33a4,4,0,0,1-2,2.2,11.12,11.12,0,0,1-10.05,0,4,4,0,0,1-2-2.2,4,4,0,0,1,2-2.2,11.12,11.12,0,0,1,10.05,0A4,4,0,0,1,269.6,97.33Z"/><path class="cls-7" d="M249.12,137.66h-5.88a18,18,0,0,0-9.76,0H227.6v1.74h0c0,1.59,1.05,3.18,3.15,4.39a16.86,16.86,0,0,0,15.22,0c2.1-1.21,3.15-2.8,3.15-4.39h0Z"/><path class="cls-5" d="M246,142.05a16.8,16.8,0,0,1-15.22,0c-4.2-2.42-4.2-6.35,0-8.78a16.8,16.8,0,0,1,15.22,0C250.17,135.7,250.17,139.63,246,142.05Z"/><path class="cls-3" d="M248.53,110.62H243a17,17,0,0,0-9.22,0h-5.56v26.71h0c0,1.5,1,3,3,4.15a15.85,15.85,0,0,0,14.38,0c2-1.14,3-2.65,3-4.15h0Z"/><path class="cls-1" d="M245.55,114.77a15.91,15.91,0,0,1-14.38,0c-4-2.29-4-6,0-8.3a15.85,15.85,0,0,1,14.38,0C249.52,108.76,249.52,112.48,245.55,114.77Z"/><path class="cls-4" d="M248.53,123.83c0,1.5-1,3-3,4.15a15.85,15.85,0,0,1-14.38,0c-2-1.14-3-2.65-3-4.15h0v.83c0,1.5,1,3,3,4.15a15.91,15.91,0,0,0,14.38,0c2-1.15,3-2.65,3-4.15v-.83Z"/><path class="cls-4" d="M248.53,128.65c0,1.51-1,3-3,4.16a15.91,15.91,0,0,1-14.38,0c-2-1.15-3-2.65-3-4.16h0v.83c0,1.5,1,3,3,4.15a15.91,15.91,0,0,0,14.38,0c2-1.14,3-2.65,3-4.15v-.83Z"/><path class="cls-4" d="M245.36,111.32a4,4,0,0,0-2-2.2,11.12,11.12,0,0,0-10,0,4,4,0,0,0-2,2.2c-.38-1.27.28-2.62,2-3.6a11.06,11.06,0,0,1,10,0C245.09,108.7,245.75,110.05,245.36,111.32Z"/><path class="cls-3" d="M245.36,111.32a4,4,0,0,1-2,2.2,11.12,11.12,0,0,1-10,0,4,4,0,0,1-2-2.2,4,4,0,0,1,2-2.2,11.12,11.12,0,0,1,10,0A4,4,0,0,1,245.36,111.32Z"/><polygon class="cls-1" points="303.91 132.89 257.06 159.94 236.48 148.06 283.33 121.01 303.91 132.89"/><polygon class="cls-3" points="283.59 122.85 300.72 132.74 298.65 133.93 283.59 125.23 283.59 122.85"/><polygon class="cls-4" points="283.59 125.23 241.74 149.4 239.68 148.2 283.59 122.85 283.59 125.23"/><polygon class="cls-18" points="298.65 133.93 256.8 158.09 241.74 149.4 283.59 125.23 298.65 133.93"/><polygon class="cls-3" points="257.06 163.79 236.48 151.9 236.48 148.06 257.06 159.94 257.06 163.79"/><polygon class="cls-4" points="257.06 163.79 303.91 136.74 303.91 132.89 257.06 159.94 257.06 163.79"/><path class="cls-8" d="M270.67,115.27l.65.38-1.77,3-.65-.37h0a.91.91,0,0,1-.36-.81,2.74,2.74,0,0,1,1.24-2.16A.89.89,0,0,1,270.67,115.27Z"/><path class="cls-9" d="M270.44,115.74a2.74,2.74,0,0,0-1.25,2.16c0,.79.56,1.11,1.25.71a2.75,2.75,0,0,0,1.24-2.15C271.68,115.66,271.12,115.34,270.44,115.74Z"/><path class="cls-2" d="M283.64,135.78a3.12,3.12,0,0,1-2.85,0,.87.87,0,0,1,0-1.64,3.12,3.12,0,0,1,2.85,0A.86.86,0,0,1,283.64,135.78Z"/><path class="cls-24" d="M279.06,120.43l-7.73-4.49a.75.75,0,0,0-.77.06,2.39,2.39,0,0,0-1.08,1.86.75.75,0,0,0,.34.7h0l7.73,4.5a7.34,7.34,0,0,1,3.22,5.57v6.22h0a.75.75,0,0,0,.45.62,2.37,2.37,0,0,0,2.14,0,.75.75,0,0,0,.44-.62h0v-6.22A10.32,10.32,0,0,0,279.06,120.43Z"/><path class="cls-8" d="M246.43,129.27l.65.37-1.76,3.05-.65-.37h0a.87.87,0,0,1-.37-.81,2.77,2.77,0,0,1,1.25-2.16A.87.87,0,0,1,246.43,129.27Z"/><path class="cls-9" d="M246.2,129.73a2.75,2.75,0,0,0-1.25,2.16c0,.79.56,1.11,1.25.72a2.76,2.76,0,0,0,1.24-2.16C247.44,129.66,246.89,129.33,246.2,129.73Z"/><path class="cls-2" d="M259.47,149.75a3.12,3.12,0,0,1-2.85,0,.86.86,0,0,1,0-1.64,3.12,3.12,0,0,1,2.85,0A.86.86,0,0,1,259.47,149.75Z"/><path class="cls-24" d="M254.82,134.42l-7.73-4.49a.75.75,0,0,0-.77.06,2.4,2.4,0,0,0-1.07,1.86.75.75,0,0,0,.33.7h0l7.72,4.5a7.32,7.32,0,0,1,3.22,5.57v6.22h0a.74.74,0,0,0,.44.63,2.44,2.44,0,0,0,2.14,0,.74.74,0,0,0,.44-.63h0v-6.22A10.29,10.29,0,0,0,254.82,134.42Z"/><path class="cls-7" d="M407.73,443.83h3.73a11.42,11.42,0,0,1,6.19,0h3.73v1.1h0a3.4,3.4,0,0,1-2,2.78,10.66,10.66,0,0,1-9.65,0,3.4,3.4,0,0,1-2-2.78h0Z"/><path class="cls-5" d="M409.73,446.61a10.66,10.66,0,0,0,9.65,0c2.66-1.54,2.66-4,0-5.57a10.66,10.66,0,0,0-9.65,0C407.06,442.58,407.06,445.07,409.73,446.61Z"/><path class="cls-1" d="M408.1,426.68h3.53a10.76,10.76,0,0,1,5.85,0H421v16.94h0a3.21,3.21,0,0,1-1.89,2.63,10.1,10.1,0,0,1-9.12,0,3.21,3.21,0,0,1-1.89-2.63h0Z"/><path class="cls-3" d="M420.77,425.71,419,421h-8.83l-1.81,4.76c-.58,1.24,0,2.62,1.66,3.6a10.1,10.1,0,0,0,9.12,0C420.8,428.33,421.35,427,420.77,425.71Z"/><path class="cls-3" d="M408.1,435.06a3.21,3.21,0,0,0,1.89,2.63,10,10,0,0,0,9.12,0,3.21,3.21,0,0,0,1.89-2.63h0v.52a3.2,3.2,0,0,1-1.89,2.63,10,10,0,0,1-9.12,0,3.2,3.2,0,0,1-1.89-2.63v-.52Z"/><path class="cls-3" d="M408.1,438.11a3.21,3.21,0,0,0,1.89,2.64,10.1,10.1,0,0,0,9.12,0,3.21,3.21,0,0,0,1.89-2.64h0v.53a3.21,3.21,0,0,1-1.89,2.63,10.1,10.1,0,0,1-9.12,0,3.21,3.21,0,0,1-1.89-2.63v-.53Z"/><path class="cls-1" d="M417.74,419.63a7.07,7.07,0,0,0-6.37,0c-1.08.62-1.5,1.48-1.26,2.29a2.54,2.54,0,0,0,1.26,1.39,7,7,0,0,0,6.37,0,2.52,2.52,0,0,0,1.25-1.39C419.24,421.11,418.82,420.25,417.74,419.63Z"/><path class="cls-7" d="M369.37,421.68h3.73a11.19,11.19,0,0,1,6.18,0H383v1.1h0a3.38,3.38,0,0,1-2,2.78,10.66,10.66,0,0,1-9.65,0,3.39,3.39,0,0,1-2-2.78h0Z"/><path class="cls-5" d="M371.37,424.46a10.66,10.66,0,0,0,9.65,0c2.66-1.53,2.66-4,0-5.57a10.66,10.66,0,0,0-9.65,0C368.7,420.43,368.7,422.93,371.37,424.46Z"/><path class="cls-1" d="M369.74,404.53h3.53a10.76,10.76,0,0,1,5.85,0h3.52v16.94h0a3.21,3.21,0,0,1-1.89,2.63,10.1,10.1,0,0,1-9.12,0,3.21,3.21,0,0,1-1.89-2.63h0Z"/><path class="cls-3" d="M382.41,403.56l-1.8-4.75h-8.83L370,403.56c-.58,1.24,0,2.63,1.66,3.6a10.07,10.07,0,0,0,9.12,0C382.44,406.19,383,404.8,382.41,403.56Z"/><path class="cls-3" d="M369.74,412.91a3.21,3.21,0,0,0,1.89,2.63,10,10,0,0,0,9.12,0,3.21,3.21,0,0,0,1.89-2.63h0v.52a3.2,3.2,0,0,1-1.89,2.63,10,10,0,0,1-9.12,0,3.2,3.2,0,0,1-1.89-2.63v-.52Z"/><path class="cls-3" d="M369.74,416a3.21,3.21,0,0,0,1.89,2.63,10.1,10.1,0,0,0,9.12,0,3.21,3.21,0,0,0,1.89-2.63h0v.52a3.21,3.21,0,0,1-1.89,2.63,10,10,0,0,1-9.12,0,3.21,3.21,0,0,1-1.89-2.63V416Z"/><path class="cls-1" d="M379.38,397.48a7.1,7.1,0,0,0-6.38,0c-1.08.63-1.49,1.48-1.25,2.29a2.52,2.52,0,0,0,1.25,1.39,7,7,0,0,0,6.38,0,2.58,2.58,0,0,0,1.26-1.39C380.87,399,380.46,398.11,379.38,397.48Z"/><polygon class="cls-1" points="414.13 449.62 384.43 466.77 333.13 437.15 362.83 420 414.13 449.62"/><polygon class="cls-3" points="362.99 421.17 373.85 427.44 372.54 428.19 362.99 422.68 362.99 421.17"/><polygon class="cls-4" points="362.99 422.68 336.46 438 335.15 437.25 362.99 421.17 362.99 422.68"/><polygon class="cls-23" points="372.54 428.19 346.01 443.51 336.46 438 362.99 422.68 372.54 428.19"/><polygon class="cls-3" points="375.69 428.5 386.55 434.77 385.24 435.52 375.69 430.01 375.69 428.5"/><polygon class="cls-4" points="375.69 430.01 349.15 445.33 347.85 444.57 375.69 428.5 375.69 430.01"/><polygon class="cls-25" points="385.24 435.52 358.71 450.85 349.15 445.33 375.69 430.01 385.24 435.52"/><polygon class="cls-3" points="388.39 435.83 399.25 442.1 397.94 442.85 388.39 437.34 388.39 435.83"/><polygon class="cls-4" points="388.39 437.34 361.85 452.66 360.54 451.91 388.39 435.83 388.39 437.34"/><polygon class="cls-15" points="397.94 442.85 371.4 458.17 361.85 452.66 388.39 437.34 397.94 442.85"/><polygon class="cls-3" points="401.08 443.16 411.94 449.43 410.64 450.19 401.08 444.67 401.08 443.16"/><polygon class="cls-4" points="401.08 444.67 374.55 459.99 373.24 459.24 401.08 443.16 401.08 444.67"/><polygon class="cls-18" points="410.64 450.19 384.1 465.5 374.55 459.99 401.08 444.67 410.64 450.19"/><polygon class="cls-3" points="384.43 469.21 333.13 439.59 333.13 437.15 384.43 466.77 384.43 469.21"/><polygon class="cls-4" points="384.43 469.21 414.13 452.06 414.13 449.62 384.43 466.77 384.43 469.21"/><path class="cls-8" d="M409.44,438.5l-.42.24,1.12,1.93.41-.23h0a.56.56,0,0,0,.24-.52,1.75,1.75,0,0,0-.79-1.36A.56.56,0,0,0,409.44,438.5Z"/><path class="cls-9" d="M409.58,438.8a1.72,1.72,0,0,1,.79,1.36c0,.51-.35.71-.79.46a1.73,1.73,0,0,1-.79-1.37C408.79,438.75,409.15,438.54,409.58,438.8Z"/><path class="cls-2" d="M401.21,451.5a1.93,1.93,0,0,0,1.81,0c.5-.28.5-.75,0-1a2,2,0,0,0-1.81,0C400.71,450.75,400.71,451.22,401.21,451.5Z"/><path class="cls-24" d="M404.11,441.77l4.91-2.85a.45.45,0,0,1,.48.05,1.47,1.47,0,0,1,.68,1.17.46.46,0,0,1-.2.44h0l-4.9,2.85a4.64,4.64,0,0,0-2,3.53v3.95h0c0,.14-.09.28-.28.39a1.53,1.53,0,0,1-1.35,0,.49.49,0,0,1-.29-.39h0V447A6.54,6.54,0,0,1,404.11,441.77Z"/><path class="cls-8" d="M371.08,416.35l-.42.24,1.12,1.94.41-.24h0a.56.56,0,0,0,.23-.51,1.73,1.73,0,0,0-.79-1.37A.54.54,0,0,0,371.08,416.35Z"/><path class="cls-9" d="M371.22,416.65A1.73,1.73,0,0,1,372,418c0,.5-.35.71-.79.45a1.75,1.75,0,0,1-.79-1.37C370.43,416.6,370.79,416.4,371.22,416.65Z"/><path class="cls-2" d="M362.85,429.36a2,2,0,0,0,1.8,0c.5-.29.5-.76,0-1a2,2,0,0,0-1.8,0C362.35,428.6,362.35,429.07,362.85,429.36Z"/><path class="cls-24" d="M365.76,419.62l4.9-2.85a.45.45,0,0,1,.48.05,1.49,1.49,0,0,1,.68,1.17.48.48,0,0,1-.21.45h0l-4.89,2.85a4.62,4.62,0,0,0-2,3.53v3.95h0a.47.47,0,0,1-.28.39,1.48,1.48,0,0,1-1.36,0,.49.49,0,0,1-.28-.39h0v-3.95A6.54,6.54,0,0,1,365.76,419.62Z"/><path class="cls-2" d="M649.54,363.41c-8.85,5.11-23.19,5.11-32,0s-8.84-13.39,0-18.5,23.19-5.1,32,0S658.38,358.31,649.54,363.41Z"/><path class="cls-26" d="M655.41,318.11c0-3.24-2.14-6.47-6.41-8.94-8.55-4.94-22.41-4.94-31,0-4.28,2.47-6.41,5.7-6.41,8.94v.72c0-3.24,2.13-6.47,6.41-8.94,8.55-4.94,22.41-4.94,31,0,4.27,2.47,6.41,5.7,6.41,8.94Z"/><path class="cls-26" d="M655.41,325.71c0-3.23-2.14-6.47-6.41-8.93-8.55-4.94-22.41-4.94-31,0-4.28,2.46-6.41,5.7-6.41,8.93v.72c0-3.23,2.13-6.47,6.41-8.93,8.55-4.94,22.41-4.94,31,0,4.27,2.46,6.41,5.7,6.41,8.93Z"/><path class="cls-26" d="M655.41,309.52c0-3.23-2.14-6.47-6.41-8.94-8.55-4.93-22.41-4.93-31,0-4.28,2.47-6.41,5.71-6.41,8.94v.72c0-3.23,2.13-6.47,6.41-8.94,8.55-4.93,22.41-4.93,31,0,4.27,2.47,6.41,5.71,6.41,8.94Z"/><g class="cls-27"><path class="cls-28" d="M653.21,345.51V267.22H613.85v78.29h0s2.55,9.31,2.95,10.41c.75,1.73,4.46,4,8-1.46.39.1,1.79.2,2.15.29,0,0,2.65,8.57,6.62,8.57,4.16,0,6.22-8.53,6.22-8.53l2.65-.32c3,5.37,7,3.24,8,1.36C651.25,354.12,653.21,345.51,653.21,345.51Z"/><path class="cls-29" d="M647.45,275.26c-7.68,4.44-20.15,4.44-27.83,0s-7.68-11.63,0-16.06,20.15-4.44,27.83,0S655.13,270.82,647.45,275.26Z"/></g><polygon class="cls-30" points="641.4 355.65 645.35 358.96 648.5 358.87 651.48 356.57 654.2 347.94 650.34 351.65 646.33 354.06 642.08 355.4 641.4 355.65"/><polygon class="cls-30" points="625.62 356.12 621.48 358.96 618.33 358.87 615.35 356.57 612.63 347.94 616.49 351.65 620.5 354.06 624.75 355.4 625.62 356.12"/><path class="cls-31" d="M654.79,266.11c0-10.49-9.51-19-21.25-19s-21.26,8.49-21.26,19h0v78c0,3.14,2.07,6.28,6.22,8.67a30,30,0,0,0,7.28,2.93c2.77,6.92,4.84,8.83,7.75,8.81,2.72,0,5.07-2.14,7.41-8.74a32.52,32.52,0,0,0,7.62-3c4.15-2.4,6.23-5.54,6.23-8.68v-78Z"/><path class="cls-26" d="M633.53,365.18a7.21,7.21,0,0,1-5.66-3.5l-2.31-4.89-.39.37c-1.27,1.22-2.71,2.6-4.22,2.6h-1a6,6,0,0,1-5.52-4c-.67-2.19-2.84-9.4-2.84-10.28V266.12c0-10.84,9.83-19.65,21.92-19.65s21.91,8.81,21.91,19.64v79.35c0,.92-2.19,8.11-2.86,10.28a6,6,0,0,1-5.54,4h-1c-1.56,0-3.11-1.53-4.35-2.76l-.41-.41-2.14,5.09A7.17,7.17,0,0,1,633.53,365.18Zm-7.75-10.13h.42l2.85,6a5,5,0,0,0,9,0l2.51-5.95h.43a1.09,1.09,0,0,1,.51.13l.34-.07.22.26.65.62c1,1,2.4,2.38,3.42,2.38h1a4.71,4.71,0,0,0,4.28-3.08c1.33-4.34,2.77-9.28,2.8-9.89V266.13c0-10.12-9.24-18.34-20.59-18.34s-20.6,8.22-20.6,18.32v79.35c0,.59,1.46,5.54,2.79,9.9a4.67,4.67,0,0,0,4.25,3.07h1c1,0,2.27-1.23,3.3-2.22.26-.25.5-.49.74-.7l.1-.09A.8.8,0,0,1,625.78,355.05Z"/><path class="cls-26" d="M611.63,326.43c0,3.24,2.13,6.48,6.41,8.94,8.55,4.94,22.41,4.94,31,0,4.27-2.46,6.41-5.7,6.41-8.94v-.72c0,3.24-2.14,6.47-6.41,8.94-8.55,4.94-22.41,4.94-31,0-4.28-2.47-6.41-5.7-6.41-8.94Z"/><path class="cls-26" d="M611.63,318.83c0,3.23,2.13,6.46,6.41,8.93,8.55,4.94,22.41,4.94,31,0,4.27-2.47,6.41-5.7,6.41-8.93v-.72c0,3.23-2.14,6.46-6.41,8.93-8.55,4.94-22.41,4.94-31,0-4.28-2.47-6.41-5.7-6.41-8.93Z"/><path class="cls-26" d="M611.63,310.24c0,3.24,2.13,6.47,6.41,8.94,8.55,4.93,22.41,4.93,31,0,4.27-2.47,6.41-5.7,6.41-8.94v-.72c0,3.23-2.14,6.47-6.41,8.94-8.55,4.93-22.41,4.93-31,0-4.28-2.47-6.41-5.71-6.41-8.94Z"/><path class="cls-1" d="M652.45,282.51A16.88,16.88,0,0,1,649,285.1c-7.43,4.28-18.85,4.85-27.32,1.69v25.93c8.47,3.16,19.89,2.6,27.32-1.69a16.53,16.53,0,0,0,3.45-2.59Z"/><path class="cls-26" d="M639.53,243.1h-3.28a10,10,0,0,0-5.43,0h-3.28v6.78h0a3,3,0,0,0,1.75,2.45,9.38,9.38,0,0,0,8.48,0,3,3,0,0,0,1.76-2.45h0Z"/><path class="cls-26" d="M637.77,245.55a9.32,9.32,0,0,1-8.48,0c-2.34-1.35-2.34-3.54,0-4.89a9.38,9.38,0,0,1,8.48,0C640.12,242,640.12,244.2,637.77,245.55Z"/><path class="cls-9" d="M640.18,238.82h-3.63a11,11,0,0,0-6,0h-3.63v4.83h0a3.31,3.31,0,0,0,1.94,2.71,10.38,10.38,0,0,0,9.4,0,3.3,3.3,0,0,0,1.95-2.71h0Z"/><path class="cls-8" d="M638.23,241.53a10.38,10.38,0,0,1-9.4,0c-2.59-1.5-2.59-3.93,0-5.43a10.44,10.44,0,0,1,9.4,0C640.83,237.6,640.83,240,638.23,241.53Z"/><path class="cls-26" d="M641.08,356.42l-.28-1.29a25.57,25.57,0,0,0,7.41-2.75c3.8-2.19,5.89-5.07,5.89-8.1h1.33c0,3.52-2.34,6.81-6.56,9.25A26.81,26.81,0,0,1,641.08,356.42Z"/><path class="cls-26" d="M625.64,356.36a26.94,26.94,0,0,1-7.48-2.83c-4-2.3-6.31-5.39-6.54-8.7l1.32-.09c.2,2.85,2.28,5.57,5.88,7.64a25.21,25.21,0,0,0,7.1,2.69Z"/><path class="cls-2" d="M615.12,414.25c-8.85,5.11-23.19,5.11-32,0s-8.85-13.39,0-18.5,23.18-5.1,32,0S624,409.15,615.12,414.25Z"/><path class="cls-26" d="M621,368.94c0-3.23-2.13-6.46-6.41-8.93-8.55-4.94-22.41-4.94-31,0-4.27,2.47-6.41,5.7-6.41,8.93v.72c0-3.23,2.14-6.46,6.41-8.93,8.55-4.94,22.41-4.94,31,0,4.28,2.47,6.42,5.7,6.41,8.93Z"/><path class="cls-26" d="M621,376.55c0-3.23-2.13-6.47-6.41-8.93-8.55-4.94-22.41-4.94-31,0-4.27,2.46-6.41,5.7-6.41,8.93v.72c0-3.23,2.14-6.47,6.41-8.93,8.55-4.94,22.41-4.94,31,0,4.28,2.46,6.42,5.7,6.41,8.93Z"/><path class="cls-26" d="M621,360.36c0-3.23-2.13-6.47-6.41-8.94-8.55-4.93-22.41-4.93-31,0-4.27,2.47-6.41,5.71-6.41,8.94v.72c0-3.23,2.14-6.47,6.41-8.94,8.55-4.93,22.41-4.93,31,0,4.28,2.47,6.42,5.71,6.41,8.94Z"/><g class="cls-27"><path class="cls-28" d="M618.8,396.35V318.06H579.44v78.29h0s2.54,9.3,2.94,10.41c.76,1.73,4.47,4,8-1.46.38.1,1.78.2,2.14.29,0,0,2.65,8.57,6.62,8.57,4.17,0,6.22-8.53,6.22-8.53l2.65-.32c3,5.37,7,3.24,8,1.35C616.83,405,618.8,396.35,618.8,396.35Z"/><path class="cls-29" d="M613,326.1c-7.68,4.44-20.14,4.44-27.83,0s-7.68-11.63,0-16.07,20.15-4.43,27.83,0S620.71,321.66,613,326.1Z"/></g><polygon class="cls-30" points="606.98 406.49 610.94 409.8 614.09 409.7 617.06 407.41 619.79 398.78 615.92 402.49 611.91 404.9 607.66 406.24 606.98 406.49"/><polygon class="cls-30" points="591.21 406.96 587.06 409.8 583.91 409.7 580.93 407.41 578.21 398.78 582.07 402.49 586.08 404.9 590.34 406.24 591.21 406.96"/><path class="cls-31" d="M620.37,317c0-10.49-9.51-19-21.25-19s-21.26,8.49-21.26,19h0v78c0,3.14,2.08,6.28,6.23,8.67a29.74,29.74,0,0,0,7.27,2.93c2.78,6.92,4.84,8.83,7.75,8.81,2.72,0,5.08-2.14,7.42-8.74a32.52,32.52,0,0,0,7.62-3c4.15-2.4,6.22-5.54,6.22-8.68V317Z"/><path class="cls-26" d="M599.11,416a7.17,7.17,0,0,1-5.65-3.5l-2.32-4.89-.39.37c-1.27,1.22-2.7,2.6-4.22,2.6h-1a6,6,0,0,1-5.53-4c-.66-2.19-2.84-9.4-2.84-10.28V317c0-10.84,9.84-19.65,21.92-19.65S621,306.12,621,317V396.3c0,.92-2.19,8.11-2.86,10.28a6,6,0,0,1-5.53,4h-1c-1.55,0-3.1-1.53-4.35-2.77l-.41-.4-2.14,5.09A7.17,7.17,0,0,1,599.11,416Zm-7.75-10.13h.43l2.84,6a5,5,0,0,0,9,0l2.5-5.95h.44a1.36,1.36,0,0,1,.51.12l.33-.06.22.25.65.63c1,1,2.41,2.38,3.42,2.38h1a4.7,4.7,0,0,0,4.27-3.08c1.34-4.34,2.77-9.29,2.8-9.89V317c0-10.12-9.24-18.34-20.59-18.34s-20.6,8.22-20.6,18.32V396.3c0,.59,1.46,5.54,2.79,9.9a4.7,4.7,0,0,0,4.26,3.07h1c1,0,2.27-1.23,3.31-2.22.25-.25.5-.49.73-.7l.1-.09A.81.81,0,0,1,591.36,405.89Z"/><path class="cls-26" d="M577.21,377.27c0,3.24,2.14,6.47,6.41,8.94,8.55,4.94,22.41,4.94,31,0,4.28-2.47,6.41-5.7,6.41-8.94v-.72c0,3.24-2.13,6.47-6.41,8.94-8.55,4.94-22.41,4.94-31,0-4.27-2.47-6.41-5.7-6.41-8.94Z"/><path class="cls-26" d="M577.21,369.66c0,3.24,2.14,6.47,6.41,8.94,8.55,4.94,22.41,4.94,31,0,4.28-2.47,6.41-5.7,6.41-8.94v-.72c0,3.24-2.13,6.47-6.41,8.94-8.55,4.93-22.41,4.93-31,0-4.27-2.47-6.41-5.7-6.41-8.94Z"/><path class="cls-26" d="M577.21,361.08c0,3.23,2.14,6.47,6.41,8.94,8.55,4.93,22.41,4.93,31,0,4.28-2.47,6.41-5.71,6.41-8.94v-.72c0,3.23-2.13,6.47-6.41,8.94-8.55,4.93-22.41,4.93-31,0-4.27-2.47-6.41-5.71-6.41-8.94Z"/><path class="cls-1" d="M618,333.35a16.88,16.88,0,0,1-3.45,2.59c-7.42,4.28-18.85,4.84-27.32,1.69v25.93c8.47,3.16,19.9,2.6,27.32-1.69a16.53,16.53,0,0,0,3.45-2.59Z"/><path class="cls-26" d="M605.11,293.94h-3.27a10.05,10.05,0,0,0-5.44,0h-3.28v6.78h0a3,3,0,0,0,1.76,2.45,9.38,9.38,0,0,0,8.48,0,3,3,0,0,0,1.75-2.45h0Z"/><path class="cls-26" d="M603.36,296.39a9.38,9.38,0,0,1-8.48,0c-2.35-1.35-2.35-3.54,0-4.89a9.32,9.32,0,0,1,8.48,0C605.7,292.85,605.7,295,603.36,296.39Z"/><path class="cls-9" d="M605.76,289.66h-3.63a11,11,0,0,0-6,0h-3.63v4.83h0a3.3,3.3,0,0,0,1.95,2.71,10.38,10.38,0,0,0,9.4,0,3.29,3.29,0,0,0,1.94-2.71h0Z"/><path class="cls-8" d="M603.82,292.37a10.38,10.38,0,0,1-9.4,0c-2.6-1.5-2.6-3.93,0-5.43a10.38,10.38,0,0,1,9.4,0C606.41,288.44,606.41,290.87,603.82,292.37Z"/><path class="cls-26" d="M606.66,407.26l-.27-1.29a25.51,25.51,0,0,0,7.4-2.75c3.8-2.19,5.89-5.07,5.89-8.1H621c0,3.52-2.33,6.81-6.56,9.25A26.81,26.81,0,0,1,606.66,407.26Z"/><path class="cls-26" d="M591.22,407.2a27.06,27.06,0,0,1-7.48-2.83c-4-2.3-6.3-5.39-6.54-8.7l1.32-.1c.2,2.86,2.29,5.58,5.88,7.65a24.85,24.85,0,0,0,7.11,2.68Z"/><path class="cls-2" d="M826.84,257.6c-13.63,7.87-35.73,7.87-49.36,0s-13.63-20.62,0-28.49,35.73-7.87,49.36,0S840.46,249.74,826.84,257.6Z"/><path class="cls-26" d="M835.6,222.1c0-4.94-3.26-9.88-9.79-13.65-13.06-7.54-34.24-7.54-47.3,0-6.53,3.77-9.8,8.71-9.8,13.65v1.1c0-4.94,3.27-9.88,9.8-13.65,13.06-7.54,34.24-7.54,47.3,0,6.53,3.77,9.8,8.71,9.79,13.65Z"/><path class="cls-26" d="M835.6,227.17c0-4.94-3.26-9.88-9.79-13.65-13.06-7.54-34.24-7.54-47.3,0-6.53,3.77-9.8,8.71-9.8,13.65v1.1c0-4.94,3.27-9.88,9.8-13.65,13.06-7.54,34.24-7.54,47.3,0,6.53,3.77,9.8,8.71,9.79,13.65Z"/><path class="cls-26" d="M835.6,232.24c0-4.94-3.26-9.89-9.79-13.65-13.06-7.54-34.24-7.54-47.3,0-6.53,3.76-9.8,8.71-9.8,13.65v1.1c0-4.94,3.27-9.88,9.8-13.65,13.06-7.54,34.24-7.54,47.3,0,6.53,3.77,9.8,8.71,9.79,13.65Z"/><g class="cls-27"><path class="cls-28" d="M832.52,240.83V181.75H771.88v59.09h0c0,4.48,3,9,8.89,12.38,11.83,6.83,31,6.83,42.87,0C829.57,249.8,832.53,245.32,832.52,240.83Z"/><path class="cls-29" d="M823.64,194.12c-11.83,6.84-31,6.84-42.87,0s-11.84-17.91,0-24.75,31-6.83,42.87,0S835.48,187.29,823.64,194.12Z"/></g><path class="cls-31" d="M835,180c0-16.15-14.66-29.24-32.75-29.24S769.46,163.87,769.46,180v61.79c0,4.84,3.2,9.67,9.59,13.36,12.79,7.39,33.52,7.39,46.31,0,6.39-3.7,9.59-8.53,9.59-13.37V180Z"/><path class="cls-26" d="M802.21,261.7h0c-8.92,0-17.33-2-23.65-5.67-6.51-3.75-10.09-8.8-10.09-14.22V180c0-16.69,15.13-30.25,33.73-30.25s33.74,13.56,33.74,30.23v61.79c0,5.41-3.58,10.47-10.09,14.23C819.52,259.69,811.13,261.7,802.21,261.7Zm0-109.93c-17.5,0-31.75,12.68-31.75,28.25v61.79c0,4.68,3.23,9.12,9.1,12.51,6,3.48,14.08,5.4,22.66,5.4h0c8.57,0,16.62-1.92,22.65-5.4,5.87-3.39,9.1-7.83,9.1-12.51V180.06C834,164.45,819.72,151.77,802.2,151.77Z"/><path class="cls-26" d="M811.45,145.35h-5.06a15.45,15.45,0,0,0-8.37,0H793v10.43h0c0,1.37.91,2.73,2.71,3.77a14.41,14.41,0,0,0,13.07,0c1.8-1,2.71-2.4,2.71-3.77h0Z"/><path class="cls-26" d="M808.74,149.12a14.41,14.41,0,0,1-13.07,0c-3.61-2.08-3.61-5.46,0-7.55a14.47,14.47,0,0,1,13.07,0C812.35,143.66,812.35,147,808.74,149.12Z"/><path class="cls-9" d="M812.44,138.74h-5.59a17.24,17.24,0,0,0-9.29,0H792v7.44h0c0,1.51,1,3,3,4.18a16,16,0,0,0,14.48,0c2-1.15,3-2.67,3-4.18h0Z"/><path class="cls-8" d="M809.44,142.93a16.06,16.06,0,0,1-14.48,0c-4-2.32-4-6.06,0-8.37a16,16,0,0,1,14.48,0C813.45,136.87,813.45,140.61,809.44,142.93Z"/><path class="cls-26" d="M768.71,233.34c0,4.94,3.27,9.89,9.8,13.66,13.06,7.54,34.24,7.54,47.3,0,6.53-3.77,9.79-8.72,9.79-13.66v-1.1c0,4.94-3.26,9.88-9.79,13.65-13.06,7.55-34.24,7.55-47.3,0-6.53-3.77-9.8-8.71-9.8-13.65Z"/><path class="cls-26" d="M768.71,228.27c0,4.94,3.27,9.89,9.8,13.66,13.06,7.54,34.24,7.54,47.3,0,6.53-3.77,9.79-8.72,9.79-13.66v-1.1c0,4.94-3.26,9.89-9.79,13.66-13.06,7.54-34.24,7.54-47.3,0-6.53-3.77-9.8-8.72-9.8-13.66Z"/><path class="cls-26" d="M768.71,223.2c0,4.94,3.27,9.89,9.8,13.66,13.06,7.54,34.24,7.54,47.3,0,6.53-3.77,9.79-8.72,9.79-13.66v-1.1c0,5-3.26,9.89-9.79,13.66-13.06,7.54-34.24,7.54-47.3,0-6.53-3.77-9.8-8.71-9.8-13.66Z"/><path class="cls-1" d="M830.34,203.27a27.58,27.58,0,0,1-4.53,3.25c-9.89,5.71-24.43,7.09-36.58,4.15v21c12.15,2.94,26.69,1.55,36.58-4.16a27.55,27.55,0,0,0,4.53-3.24Z"/><polygon class="cls-2" points="958.43 302.8 640.41 486.4 574.13 448.14 892.16 264.54 958.43 302.8"/><polygon class="cls-14" points="953.62 291.53 875.58 246.53 875.58 232.84 953.62 277.84 953.62 291.53"/><polygon class="cls-15" points="958.43 275.04 953.62 277.84 875.58 232.84 880.4 230.04 958.43 275.04"/><polygon class="cls-16" points="958.43 275.04 953.62 277.84 953.62 291.53 958.43 288.73 958.43 275.04"/><path class="cls-3" d="M643.37,451.29l-33.84-31.44-37.2-7.76c1.58,12.29,4.19,23.43,4.19,32.29L636.3,478.9Z"/><path class="cls-32" d="M573.12,417.56c1,6.81,2.2,13.19,2.87,18.93l62,35.79,3.83-15Z"/><path class="cls-1" d="M629.3,450l-8.82-5.08c1,6.8,2.22,13.18,2.88,18.92l8.82,5.08C631.5,463.19,630.32,456.81,629.3,450Z"/><path class="cls-1" d="M585.26,424.58l-8.81-5.09c1,6.81,2.21,13.18,2.88,18.92l8.82,5.1C587.49,437.77,586.28,431.38,585.26,424.58Z"/><polygon class="cls-15" points="915.96 298.76 918.56 306.62 916.01 316.18 909.43 323.48 902.51 326.89 894.95 324.92 893.14 315.53 898.2 306.29 904.3 298.35 910.33 296.76 915.96 298.76"/><polygon class="cls-14" points="898.55 294.1 917.12 304.84 916.77 303.4 898.18 292.66 898.55 294.1"/><polygon class="cls-14" points="898.55 298.18 917.12 308.89 916.77 307.45 898.18 296.71 898.55 298.18"/><polygon class="cls-14" points="898.55 302.23 917.12 312.95 916.77 311.51 898.18 300.77 898.55 302.23"/><polygon class="cls-14" points="898.55 306.29 917.12 317.01 916.77 315.56 898.18 304.82 898.55 306.29"/><polygon class="cls-14" points="896.04 308.91 914.65 319.65 914.3 318.2 895.72 307.45 896.04 308.91"/><polygon class="cls-14" points="896.04 312.96 912.36 322.38 912.02 320.93 895.72 311.52 896.04 312.96"/><polygon class="cls-14" points="896.04 317.02 909.74 324.92 909.43 323.48 895.72 315.57 896.04 317.02"/><polygon class="cls-14" points="896.04 321.07 906.33 327.01 905.99 325.57 895.72 319.65 896.04 321.07"/><path class="cls-14" d="M835.82,276.81a10.47,10.47,0,0,1,4.79-8.26,3.33,3.33,0,0,1,3.33-.36L885,292.06l24.62,14.23-.38.95s-2.93-.12-4.34,1.64a18.22,18.22,0,0,0-2.48,4.42h0v1.59l1.26,1.34-.83,1.74-65.61-38a.24.24,0,0,1-.08-.06h0A3.38,3.38,0,0,1,835.82,276.81Z"/><path class="cls-16" d="M906.25,306.6a10.52,10.52,0,0,0-4.76,8.27c0,3,2.11,4.29,4.76,2.77a10.52,10.52,0,0,0,4.77-8.28c0-3-2.12-4.27-4.77-2.76Z"/><path class="cls-33" d="M832.12,287.17c0-9.93,7-22,15.53-26.93,4.26-2.47,8.12-2.71,10.91-1.15h0l58.81,34.09-1.25,3.14s-9.51-.37-14.09,5.33-5.92,9.66-8.16,14.4h0v5.2l4.15,4.32-2.67,5.7-58.52-34c-.1-.06-.2-.13-.32-.19h0C833.8,295.44,832.12,292,832.12,287.17Z"/><path class="cls-34" d="M906.33,300.25c5.71-3.28,10.35-.62,10.35,6s-4.64,14.62-10.35,17.92-10.35.6-10.35-6,4.66-14.62,10.35-17.93Zm0-6c-8.6,4.95-15.55,17-15.55,26.93s7,13.94,15.55,9,15.55-17,15.55-26.94-7-13.94-15.55-9Z"/><path class="cls-16" d="M906.33,300.25C900.64,303.56,896,311.6,896,318.18s4.66,9.28,10.35,6,10.35-11.34,10.35-17.92S912,297,906.33,300.25Zm0,22.82c-5.18,3-9.42.55-9.42-5.42s4.24-13.29,9.42-16.3,9.42-.56,9.42,5.44S911.51,320.07,906.33,323.07Z"/><path class="cls-15" d="M859.8,256.14h-.06c-3.26-2.16-7.9-2-13.06.95-9.85,5.68-17.87,19.57-17.87,30.95a20.28,20.28,0,0,0,.33,3.7l59.64,34.51c-.15-.74.75-4.84,1.39-7.95h0a32,32,0,0,0,.61-3.47,2.92,2.92,0,0,0-.13-.84l2.62-6.91,6.81-9.48,5.1-3.76,5.84-2.51,6.1-.44,2-.43Z"/><path class="cls-16" d="M906.33,291.57c-9.85,5.7-17.87,19.58-17.87,31a20.51,20.51,0,0,0,.32,3.71l2.38-1.37a16.84,16.84,0,0,1-.38-3.68c0-9.91,7-22,15.55-26.93s15.55-.94,15.55,9a25.46,25.46,0,0,1-.38,4.12l2.37-1.37a27.27,27.27,0,0,0,.33-4.09C924.2,290.51,916.18,285.89,906.33,291.57Z"/><polygon class="cls-35" points="877.66 277.72 864.78 270.28 834.04 288.04 846.91 295.46 865.8 288.89 877.66 277.72"/><path class="cls-16" d="M882.45,280.47l-4.79-2.75-30.75,17.74L867,307.06C868.09,297.22,874.45,286.26,882.45,280.47Z"/><polygon class="cls-36" points="691.73 446.89 665.23 431.59 678.91 415.41 690.64 413.56 704.87 427.75 691.73 446.89"/><polygon class="cls-15" points="688.03 429.81 690.64 437.67 688.1 447.23 681.53 454.53 674.58 457.95 667.02 455.96 665.23 446.59 670.28 437.34 676.38 429.4 682.41 427.82 688.03 429.81"/><polygon class="cls-14" points="670.63 425.15 689.2 435.89 688.85 434.45 670.26 423.72 670.63 425.15"/><polygon class="cls-14" points="670.63 429.23 689.2 439.95 688.85 438.51 670.26 427.75 670.63 429.23"/><polygon class="cls-14" points="670.63 433.28 689.2 444 688.85 442.56 670.26 431.82 670.63 433.28"/><polygon class="cls-14" points="670.63 437.34 689.2 448.06 688.85 446.61 670.26 435.88 670.63 437.34"/><polygon class="cls-14" points="668.12 439.96 686.73 450.7 686.38 449.25 667.78 438.51 668.12 439.96"/><polygon class="cls-14" points="668.12 444.01 684.44 453.43 684.1 451.98 667.78 442.57 668.12 444.01"/><polygon class="cls-14" points="668.12 448.07 681.84 455.96 681.53 454.53 667.78 446.62 668.12 448.07"/><polygon class="cls-14" points="668.12 452.13 678.41 458.07 678.07 456.62 667.78 450.7 668.12 452.13"/><path class="cls-14" d="M649,431.74a10.49,10.49,0,0,1,4.78-8.26,3.33,3.33,0,0,1,3.34-.36h0l24.63,14.22-.38,1s-2.93-.13-4.35,1.63a18,18,0,0,0-2.47,4.43h0V446l1.25,1.33L675,449l-24.53-14.17-.1-.06h0A3.38,3.38,0,0,1,649,431.74Z"/><path class="cls-16" d="M678.34,437.66a10.5,10.5,0,0,0-4.77,8.26c0,3.05,2.12,4.29,4.77,2.77a10.56,10.56,0,0,0,4.76-8.28c0-3-2.13-4.26-4.76-2.75Z"/><path class="cls-33" d="M645.28,442.09c0-9.92,7-22,15.53-26.93,4.27-2.46,8.12-2.7,10.91-1.14h0l17.72,10.21-1.25,3.15s-9.49-.38-14.09,5.32-5.9,9.67-8.15,14.4h0v5.2l4.16,4.32-2.68,5.7L650,452.24a3.54,3.54,0,0,0-.33-.19h0C647,450.37,645.28,446.92,645.28,442.09Z"/><path class="cls-34" d="M678.41,431.31c5.7-3.29,10.36-.62,10.36,6s-4.66,14.63-10.36,17.92-10.35.61-10.35-6,4.66-14.63,10.35-17.93Zm0-6c-8.59,4.95-15.56,17-15.56,26.92s7,13.95,15.56,9S694,444.2,694,434.29s-7-14-15.54-9Z"/><path class="cls-16" d="M678.41,431.31c-5.69,3.3-10.35,11.35-10.35,17.93s4.66,9.27,10.35,6,10.36-11.34,10.36-17.92S684.11,428,678.41,431.31Zm0,22.81c-5.18,3-9.41.56-9.41-5.42s4.23-13.29,9.41-16.3,9.41-.56,9.41,5.44S683.58,451.12,678.41,454.12Z"/><polygon class="cls-36" points="811.92 377.5 785.42 362.2 799.11 346.01 810.83 344.17 817.63 353.02 817.49 369.4 811.92 377.5"/><polygon class="cls-15" points="808.22 360.42 810.83 368.27 808.29 377.84 801.72 385.13 794.78 388.56 787.23 386.57 785.42 377.19 790.48 367.94 796.58 360.01 802.59 358.42 808.22 360.42"/><polygon class="cls-14" points="790.81 355.76 809.41 366.49 809.05 365.05 790.46 354.32 790.81 355.76"/><polygon class="cls-14" points="790.81 359.83 809.41 370.56 809.05 369.12 790.46 358.36 790.81 359.83"/><polygon class="cls-14" points="790.81 363.88 809.41 374.6 809.05 373.17 790.46 362.43 790.81 363.88"/><polygon class="cls-14" points="790.81 367.94 809.41 378.66 809.05 377.22 790.46 366.48 790.81 367.94"/><polygon class="cls-14" points="788.33 370.57 806.91 381.31 806.58 379.86 787.99 369.12 788.33 370.57"/><polygon class="cls-14" points="788.33 374.61 804.63 384.03 804.3 382.58 787.99 373.18 788.33 374.61"/><polygon class="cls-14" points="788.33 378.68 802.02 386.57 801.72 385.13 787.99 377.23 788.33 378.68"/><polygon class="cls-14" points="788.33 382.73 798.6 388.67 798.26 387.23 787.99 381.31 788.33 382.73"/><path class="cls-14" d="M769.18,362.34a10.46,10.46,0,0,1,4.78-8.26,3.37,3.37,0,0,1,3.35-.36h0l24.62,14.22-.4,1s-2.91-.13-4.33,1.63a17.54,17.54,0,0,0-2.47,4.43h0v1.59l1.25,1.33-.83,1.74-24.51-14.16a.26.26,0,0,1-.11-.07h0A3.36,3.36,0,0,1,769.18,362.34Z"/><path class="cls-16" d="M798.53,368.26a10.54,10.54,0,0,0-4.78,8.27c0,3,2.14,4.28,4.78,2.76a10.54,10.54,0,0,0,4.76-8.28c0-3-2.12-4.26-4.76-2.75Z"/><path class="cls-33" d="M765.46,372.69c0-9.92,7-22,15.54-26.93,4.26-2.45,8.13-2.7,10.91-1.14h0l17.74,10.22L808.39,358s-9.51-.37-14.1,5.32-5.9,9.67-8.13,14.41h0v5.19l4.14,4.33-2.67,5.69-17.44-10.08-.32-.19h0C767.16,381,765.46,377.52,765.46,372.69Z"/><path class="cls-34" d="M798.6,361.91c5.72-3.28,10.37-.62,10.37,6s-4.65,14.63-10.37,17.92-10.35.61-10.35-6,4.66-14.63,10.35-17.94Zm0-6c-8.58,4.95-15.56,17-15.56,26.92s7,14,15.56,9,15.55-17,15.55-26.93-6.95-13.95-15.55-9Z"/><path class="cls-16" d="M798.6,361.91c-5.69,3.31-10.35,11.35-10.35,17.94s4.66,9.27,10.35,6S809,374.49,809,367.9,804.32,358.63,798.6,361.91Zm0,22.81c-5.17,3-9.41.56-9.41-5.42S793.43,366,798.6,363s9.42-.56,9.42,5.43S803.78,381.73,798.6,384.72Z"/><polygon class="cls-36" points="771.05 401.09 744.56 385.79 758.24 369.6 769.96 367.77 776.76 376.62 776.61 393 771.05 401.09"/><polygon class="cls-15" points="767.35 384.01 769.96 391.88 767.42 401.43 760.84 408.73 753.91 412.15 746.36 410.17 744.56 400.78 749.61 391.53 755.71 383.61 761.73 382.02 767.35 384.01"/><polygon class="cls-14" points="749.95 379.35 768.53 390.09 768.18 388.65 749.59 377.92 749.95 379.35"/><polygon class="cls-14" points="749.95 383.43 768.53 394.15 768.18 392.7 749.59 381.96 749.95 383.43"/><polygon class="cls-14" points="749.95 387.48 768.53 398.2 768.18 396.77 749.59 386.02 749.95 387.48"/><polygon class="cls-14" points="749.95 391.53 768.53 402.26 768.18 400.81 749.59 390.07 749.95 391.53"/><polygon class="cls-14" points="747.45 394.16 766.06 404.9 765.71 403.46 747.11 392.7 747.45 394.16"/><polygon class="cls-14" points="747.45 398.21 763.76 407.63 763.43 406.18 747.11 396.77 747.45 398.21"/><polygon class="cls-14" points="747.45 402.28 761.15 410.17 760.84 408.73 747.11 400.83 747.45 402.28"/><polygon class="cls-14" points="747.45 406.33 757.74 412.26 757.39 410.82 747.11 404.9 747.45 406.33"/><path class="cls-14" d="M728.31,385.93a10.48,10.48,0,0,1,4.77-8.25,3.34,3.34,0,0,1,3.35-.36h0l24.63,14.21-.38,1s-2.93-.13-4.35,1.63a18.61,18.61,0,0,0-2.48,4.43h0v1.58l1.27,1.34-.83,1.74-24.53-14.17-.09-.06h0A3.35,3.35,0,0,1,728.31,385.93Z"/><path class="cls-16" d="M757.66,391.86a10.54,10.54,0,0,0-4.77,8.26c0,3,2.14,4.29,4.77,2.77a10.56,10.56,0,0,0,4.76-8.28c0-3-2.13-4.26-4.76-2.75Z"/><path class="cls-33" d="M724.6,396.29c0-9.92,7-22,15.54-26.93,4.26-2.46,8.11-2.71,10.91-1.14h0l17.73,10.21-1.26,3.15s-9.5-.38-14.11,5.32-5.89,9.66-8.12,14.4h0v5.2l4.14,4.32-2.67,5.7-17.44-10.08-.33-.19v0h0C726.29,404.57,724.6,401.12,724.6,396.29Z"/><path class="cls-34" d="M757.74,385.5c5.71-3.28,10.35-.61,10.35,6s-4.64,14.63-10.35,17.91-10.35.62-10.35-6,4.65-14.62,10.35-17.93Zm0-6c-8.59,5-15.56,17-15.56,26.92s7,13.94,15.56,9,15.54-17,15.54-26.92-7-14-15.54-9Z"/><path class="cls-16" d="M757.74,385.5c-5.7,3.31-10.35,11.35-10.35,17.93s4.65,9.29,10.35,6,10.35-11.33,10.35-17.91S763.45,382.22,757.74,385.5Zm0,22.81c-5.18,3-9.42.56-9.42-5.41s4.24-13.3,9.42-16.29,9.41-.57,9.41,5.43S762.91,405.32,757.74,408.31Z"/><polygon class="cls-1" points="764.21 300.82 823.98 335.33 819.82 342.42 718.64 400.83 659.32 361.37 764.21 300.82"/><polygon class="cls-36" points="743.01 386.76 819.82 342.42 823.98 335.33 764.21 300.82 679.19 349.9 743.01 386.76"/><polygon class="cls-35" points="928.39 250.11 903.26 235.6 705.1 349.41 730.22 363.92 928.39 250.11"/><polygon class="cls-9" points="928.4 259.73 928.39 250.11 730.22 363.92 730.22 373.53 928.4 259.73"/><polygon class="cls-8" points="705.1 359.04 705.1 349.41 730.22 363.92 730.22 373.53 705.1 359.04"/><path class="cls-26" d="M889.43,159.69c14-8.07,36.23,4.23,49.65,27.49s13,48.67-1,56.76-36.23-4.23-49.66-27.5S875.43,167.77,889.43,159.69Z"/><path class="cls-1" d="M884.09,159.61,685.24,274l51.42,89,198.82-114.4c6.59-3.8,10.63-11.91,10.67-23.55,0-23.19-16.29-51.35-36.35-63C899.73,156.38,890.68,155.81,884.09,159.61Z"/><path class="cls-26" d="M685.09,274.11a22.82,22.82,0,0,0-1.93,1.35l-.4.3A33,33,0,0,0,671,294.9c0,.08,0,.15-.05.25-.19.89-.31,1.81-.44,2.78,0,.34-.09.67-.12,1l-.06.43s0,0,0,.06c-.93,10.83,2.23,24.21,9.6,37s17.38,22.19,27.22,26.79c0,0,.05.08.05.06s.3.12.44.19l.77.33a29.43,29.43,0,0,0,2.84,1.09s0,0,0,0a32.93,32.93,0,0,0,22.6-.61l.33-.13a24,24,0,0,0,2.31-1.1c6.61-3.77,10.7-11.92,10.71-23.53,0-23.19-16.27-51.36-36.35-63C700.81,270.74,691.68,270.23,685.09,274.11Z"/><path class="cls-4" d="M774.38,249.73v-6.14H740.26v6.14c0,2.52,1.66,5,5,7,6.67,3.84,17.47,3.84,24.14,0C772.72,254.75,774.38,252.25,774.38,249.73Z"/><path class="cls-3" d="M769.4,250.46c-6.67,3.85-17.47,3.85-24.14,0s-6.65-10.07,0-13.92,17.47-3.85,24.14,0S776,246.61,769.4,250.46Z"/><path class="cls-4" d="M771.08,243.06V241.9l-27.51.06v1.1c0,2,1.32,4.06,4,5.63,5.37,3.11,14.08,3.1,19.45,0C769.75,247.12,771.08,245.1,771.08,243.06Z"/><path class="cls-3" d="M767.05,247.6c-5.37,3.1-14.08,3.1-19.45,0s-5.38-8.15,0-11.24,14.08-3.11,19.45,0S772.44,244.48,767.05,247.6Z"/><path class="cls-4" d="M881.52,188.31v-6.12H847.39v6.12c0,2.53,1.67,5,5,7,6.66,3.85,17.44,3.84,24.12,0C879.86,193.34,881.52,190.84,881.52,188.31Z"/><path class="cls-3" d="M876.53,189.06c-6.68,3.85-17.46,3.85-24.12,0s-6.67-10.08,0-13.93,17.44-3.86,24.12,0S883.19,185.2,876.53,189.06Z"/><path class="cls-4" d="M878.22,181.65v-1.16l-27.52.08v1.08c0,2,1.35,4.06,4,5.63,5.38,3.11,14.09,3.1,19.46,0C876.88,185.71,878.22,183.69,878.22,181.65Z"/><path class="cls-3" d="M874.19,186.17c-5.37,3.12-14.08,3.12-19.46,0s-5.37-8.12,0-11.23,14.09-3.11,19.46,0S879.57,183.07,874.19,186.17Z"/><path class="cls-1" d="M654.52,304.22l-38.61,22.29c-10.84,6.26-19.2,12.88-25.57,19.7h0l0,0,59.79,34.51,15.23,2.87,47.87-18.15,1.06-26.71Z"/><path class="cls-3" d="M630.14,334.69h0l10.12-5.85a4.37,4.37,0,0,0-2-3.39,1.37,1.37,0,0,0-1.37-.15l-10.13,5.85.15.4a2.39,2.39,0,0,1,1.79.67,7.06,7.06,0,0,1,1,1.82v.42Z"/><path class="cls-32" d="M630.14,334.69h0a4.34,4.34,0,0,0-2-3.4c-1.09-.62-2-.12-2,1.13h0Z"/><path class="cls-4" d="M629.8,334.32l-3.26-1.88h0c0-.65.28-1.05.72-1.14a1.32,1.32,0,0,0-.27.88h0l2.74,1.6A1.77,1.77,0,0,1,629.8,334.32Z"/><path class="cls-37" d="M629.73,333.77l-2.74-1.6h0a1.32,1.32,0,0,1,.27-.88,1.35,1.35,0,0,1,.91.2A3.66,3.66,0,0,1,629.73,333.77Z"/><path class="cls-3" d="M665.86,355.35h0L676,349.5a4.33,4.33,0,0,0-2-3.39,1.37,1.37,0,0,0-1.37-.15l-10.14,5.85.15.4a2.45,2.45,0,0,1,1.79.67,7.37,7.37,0,0,1,1,1.82v.42Z"/><path class="cls-32" d="M665.86,355.35h0a4.37,4.37,0,0,0-2-3.41c-1.1-.61-2-.11-2,1.14h0Z"/><path class="cls-4" d="M665.54,355l-3.29-1.88h0c0-.65.3-1.06.73-1.14a1.41,1.41,0,0,0-.27.89h0l2.76,1.59A2.76,2.76,0,0,1,665.54,355Z"/><path class="cls-37" d="M665.47,354.43l-2.76-1.59h0A1.41,1.41,0,0,1,663,352a1.39,1.39,0,0,1,.92.2A3.71,3.71,0,0,1,665.47,354.43Z"/><path class="cls-4" d="M824,335.33,719.1,395.89V342l-4.81-3.29L675.69,361c-66.05,38.14-39.39,89.59-39.39,117.88l28.79-16.62c-2-2-3.23-5.23-3.23-9.46,0-10.53,7.42-23.39,16.55-28.66s16.54-1,16.54,9.55a32,32,0,0,1-3.22,13.18l52.68-30.41c-2-2-3.22-5.22-3.22-9.46,0-10.54,7.42-23.39,16.55-28.66s16.54-1,16.54,9.56a31.88,31.88,0,0,1-3.23,13.17l14.24-8.21c-2-2-3.24-5.22-3.24-9.45,0-10.54,7.43-23.4,16.55-28.67s16.55-1,16.55,9.56a31.73,31.73,0,0,1-3.23,13.18l12.06-7,5-8.69V338.23Z"/><path class="cls-38" d="M632.17,447l18-66.26-59.79-34.51h0c-20.38,21.83-20.61,45.67-18,66.25Z"/><path class="cls-39" d="M662.88,413.93c34.36-31.13,29-57.31,29-57.31l-41.76,24.11h0c-20.4,21.83-20.62,45.67-18,66.26C637.53,437.14,644.72,430.37,662.88,413.93Z"/><path class="cls-37" d="M700,360.62h0a.67.67,0,0,1-.25-.59,2.1,2.1,0,0,1,1-1.67L712,351.88a.72.72,0,0,1,.7-.07h0l1.36.79-12.58,8.85Z"/><path class="cls-40" d="M701.14,360.81a2.18,2.18,0,0,1,1-1.67l11.22-6.48c.53-.31,1-.06,1,.56a2.15,2.15,0,0,1-1,1.67l-11.22,6.47C701.57,361.68,701.14,361.42,701.14,360.81Z"/><path class="cls-2" d="M951,351.44c-8.84,5.11-23.18,5.11-32,0s-8.84-13.38,0-18.49,23.19-5.11,32,0S959.87,346.34,951,351.44Z"/><path class="cls-26" d="M956.9,306.14c0-3.23-2.14-6.47-6.41-8.94-8.55-4.93-22.41-4.93-31,0-4.28,2.47-6.41,5.71-6.41,8.94v.72c0-3.23,2.13-6.47,6.41-8.94,8.55-4.93,22.41-4.93,31,0,4.27,2.47,6.41,5.71,6.41,8.94Z"/><path class="cls-26" d="M956.9,313.75c0-3.24-2.14-6.47-6.41-8.94-8.55-4.93-22.41-4.93-31,0-4.28,2.47-6.41,5.7-6.41,8.94v.72c0-3.24,2.13-6.47,6.41-8.94,8.55-4.93,22.41-4.93,31,0,4.27,2.47,6.41,5.7,6.41,8.94Z"/><path class="cls-26" d="M956.9,297.55c0-3.23-2.14-6.47-6.41-8.93-8.55-4.94-22.41-4.94-31,0-4.28,2.46-6.41,5.7-6.41,8.93v.73c0-3.24,2.13-6.48,6.41-8.94,8.55-4.94,22.41-4.94,31,0,4.27,2.46,6.41,5.7,6.41,8.94Z"/><g class="cls-27"><path class="cls-28" d="M954.7,333.54V255.26H915.34v78.29h0s2.55,9.3,2.95,10.41c.75,1.72,4.46,4,8-1.47.39.11,1.79.21,2.15.29,0,0,2.65,8.57,6.61,8.57,4.17,0,6.23-8.53,6.23-8.53l2.65-.31c3,5.36,7,3.24,8,1.35C952.73,342.15,954.7,333.54,954.7,333.54Z"/><path class="cls-29" d="M948.93,263.29c-7.68,4.44-20.14,4.44-27.82,0s-7.69-11.63,0-16.06,20.14-4.44,27.82,0S956.62,258.86,948.93,263.29Z"/></g><polygon class="cls-30" points="942.89 343.69 946.84 346.99 949.99 346.9 952.97 344.61 955.69 335.97 951.83 339.68 947.82 342.1 943.57 343.44 942.89 343.69"/><polygon class="cls-30" points="927.11 344.15 922.97 346.99 919.82 346.9 916.84 344.61 914.12 335.97 917.98 339.68 921.99 342.1 926.24 343.44 927.11 344.15"/><path class="cls-31" d="M956.27,254.14c0-10.48-9.5-19-21.25-19s-21.25,8.5-21.25,19h0v78c0,3.14,2.07,6.28,6.22,8.68a30,30,0,0,0,7.28,2.92c2.77,6.92,4.84,8.84,7.75,8.82,2.72,0,5.07-2.15,7.41-8.75a32.52,32.52,0,0,0,7.62-3c4.15-2.4,6.22-5.54,6.22-8.68v-78Z"/><path class="cls-26" d="M935,353.22a7.23,7.23,0,0,1-5.66-3.5l-2.31-4.9-.4.38c-1.26,1.21-2.7,2.59-4.21,2.59h-1a6,6,0,0,1-5.52-4c-.67-2.19-2.84-9.41-2.84-10.29V254.15c0-10.84,9.83-19.65,21.91-19.65s21.92,8.81,21.92,19.64v79.35c0,.93-2.19,8.11-2.86,10.29a6,6,0,0,1-5.54,4h-1c-1.56,0-3.11-1.53-4.35-2.76l-.41-.4-2.15,5.09A7.17,7.17,0,0,1,935,353.22Zm-7.75-10.14h.42l2.85,6a5,5,0,0,0,9,0l2.51-6h.43a1.31,1.31,0,0,1,.51.12l.34-.06.22.25.65.63c1,1,2.4,2.38,3.42,2.38h1a4.7,4.7,0,0,0,4.27-3.09c1.34-4.34,2.78-9.28,2.81-9.89V254.16c0-10.12-9.24-18.34-20.6-18.34s-20.59,8.22-20.59,18.32v79.35c0,.59,1.46,5.54,2.78,9.9a4.71,4.71,0,0,0,4.26,3.08h1c1,0,2.27-1.24,3.3-2.23l.74-.7.1-.09A.8.8,0,0,1,927.27,343.08Z"/><path class="cls-26" d="M913.12,314.47c0,3.23,2.13,6.47,6.41,8.94,8.55,4.93,22.41,4.93,31,0,4.27-2.47,6.41-5.71,6.41-8.94v-.72c0,3.23-2.14,6.46-6.41,8.93-8.55,4.94-22.41,4.94-31,0-4.28-2.47-6.42-5.7-6.41-8.93Z"/><path class="cls-26" d="M913.12,306.86c0,3.23,2.13,6.47,6.41,8.94,8.55,4.93,22.41,4.93,31,0,4.27-2.47,6.41-5.71,6.41-8.94v-.72c0,3.23-2.14,6.47-6.41,8.93-8.55,4.94-22.41,4.94-31,0-4.28-2.46-6.42-5.7-6.41-8.93Z"/><path class="cls-26" d="M913.12,298.28c0,3.23,2.13,6.46,6.41,8.93,8.55,4.94,22.41,4.94,31,0,4.27-2.47,6.41-5.7,6.41-8.93v-.73c0,3.24-2.14,6.47-6.41,8.94-8.55,4.94-22.41,4.94-31,0-4.28-2.47-6.42-5.7-6.41-8.94Z"/><path class="cls-1" d="M953.94,270.54a16.8,16.8,0,0,1-3.45,2.59c-7.43,4.29-18.85,4.85-27.33,1.69v25.94c8.48,3.15,19.9,2.59,27.33-1.69a17.55,17.55,0,0,0,3.45-2.59Z"/><path class="cls-26" d="M941,231.14h-3.28a10.05,10.05,0,0,0-5.44,0H929v6.77h0a3,3,0,0,0,1.75,2.45,9.38,9.38,0,0,0,8.48,0,3,3,0,0,0,1.76-2.45h0Z"/><path class="cls-26" d="M939.26,233.59a9.38,9.38,0,0,1-8.48,0c-2.34-1.36-2.34-3.55,0-4.9a9.38,9.38,0,0,1,8.48,0C941.61,230,941.61,232.23,939.26,233.59Z"/><path class="cls-9" d="M941.67,226.85H938a11.22,11.22,0,0,0-6,0h-3.63v4.83h0a3.29,3.29,0,0,0,1.94,2.71,10.41,10.41,0,0,0,9.4,0,3.33,3.33,0,0,0,1.95-2.72h0Z"/><path class="cls-8" d="M939.72,229.57a10.38,10.38,0,0,1-9.4,0c-2.59-1.5-2.59-3.93,0-5.43a10.38,10.38,0,0,1,9.4,0C942.32,225.64,942.32,228.07,939.72,229.57Z"/><path class="cls-26" d="M942.57,344.46l-.28-1.3a25.57,25.57,0,0,0,7.41-2.74c3.8-2.2,5.89-5.08,5.89-8.11h1.32c0,3.53-2.33,6.81-6.55,9.25A27.11,27.11,0,0,1,942.57,344.46Z"/><path class="cls-26" d="M927.13,344.39a26.33,26.33,0,0,1-7.48-2.83c-4-2.3-6.31-5.39-6.54-8.7l1.32-.09c.2,2.86,2.28,5.57,5.88,7.65a25.51,25.51,0,0,0,7.1,2.68Z"/><path class="cls-2" d="M920.05,381.41c-8.84,5.1-23.19,5.1-32,0s-8.84-13.39,0-18.5,23.19-5.1,32,0S928.9,376.3,920.05,381.41Z"/><path class="cls-26" d="M925.93,336.1c0-3.23-2.14-6.47-6.41-8.93-8.55-4.94-22.41-4.94-31,0-4.28,2.46-6.41,5.7-6.41,8.93v.72c0-3.23,2.13-6.47,6.41-8.93,8.55-4.94,22.41-4.94,31,0,4.27,2.46,6.41,5.7,6.41,8.93Z"/><path class="cls-26" d="M925.93,343.71c0-3.23-2.14-6.47-6.41-8.93-8.55-4.94-22.41-4.94-31,0-4.28,2.46-6.41,5.7-6.41,8.93v.72c0-3.23,2.13-6.47,6.41-8.93,8.55-4.94,22.41-4.94,31,0,4.27,2.46,6.41,5.7,6.41,8.93Z"/><path class="cls-26" d="M925.93,327.52c0-3.23-2.14-6.47-6.41-8.94-8.55-4.93-22.41-4.93-31,0-4.28,2.47-6.41,5.71-6.41,8.94v.72c0-3.23,2.13-6.47,6.41-8.94,8.55-4.93,22.41-4.93,31,0,4.27,2.47,6.41,5.71,6.41,8.94Z"/><g class="cls-27"><path class="cls-28" d="M923.73,363.51V285.22H884.37v78.29h0s2.55,9.3,3,10.41c.75,1.73,4.46,4,8-1.46.38.1,1.78.2,2.15.29,0,0,2.64,8.57,6.61,8.57,4.17,0,6.23-8.53,6.23-8.53l2.65-.32c3,5.36,7,3.24,8,1.35C921.76,372.12,923.73,363.51,923.73,363.51Z"/><path class="cls-29" d="M918,293.25c-7.68,4.44-20.14,4.44-27.82,0s-7.69-11.62,0-16.06,20.14-4.44,27.82,0S925.65,288.82,918,293.25Z"/></g><polygon class="cls-30" points="911.91 373.65 915.87 376.96 919.02 376.86 921.99 374.57 924.72 365.94 920.85 369.64 916.85 372.06 912.59 373.4 911.91 373.65"/><polygon class="cls-30" points="896.14 374.12 892 376.96 888.84 376.86 885.87 374.57 883.15 365.94 887.01 369.64 891.01 372.06 895.27 373.4 896.14 374.12"/><path class="cls-31" d="M925.3,284.1c0-10.48-9.51-19-21.25-19s-21.25,8.49-21.25,19v78c0,3.14,2.07,6.28,6.22,8.67a30,30,0,0,0,7.28,2.93c2.77,6.92,4.84,8.83,7.75,8.81,2.72,0,5.07-2.15,7.41-8.75a32.07,32.07,0,0,0,7.62-3c4.15-2.4,6.22-5.54,6.22-8.68v-78Z"/><path class="cls-26" d="M904.05,383.18a7.21,7.21,0,0,1-5.66-3.5l-2.31-4.89-.4.37c-1.26,1.22-2.7,2.6-4.21,2.6h-1a6,6,0,0,1-5.52-4c-.67-2.19-2.84-9.41-2.84-10.28V284.12c0-10.85,9.83-19.65,21.91-19.65S926,273.27,926,284.1v79.36c0,.92-2.19,8.1-2.86,10.28a6,6,0,0,1-5.54,4h-1c-1.56,0-3.11-1.53-4.35-2.77l-.41-.4-2.15,5.09A7.17,7.17,0,0,1,904.05,383.18Zm-7.75-10.13h.42l2.85,6a5,5,0,0,0,8.95,0l2.5-5.95h.44a1.31,1.31,0,0,1,.51.12l.34-.06.22.25.65.63c1,1,2.4,2.38,3.42,2.38h1a4.68,4.68,0,0,0,4.27-3.09c1.34-4.33,2.78-9.28,2.8-9.89V284.13c0-10.13-9.23-18.34-20.59-18.34S883.46,274,883.46,284.1v79.36c0,.59,1.46,5.54,2.78,9.9a4.71,4.71,0,0,0,4.26,3.07h1c1,0,2.27-1.23,3.3-2.22.25-.25.5-.49.74-.7l.1-.09A.8.8,0,0,1,896.3,373.05Z"/><path class="cls-26" d="M882.15,344.43c0,3.24,2.13,6.47,6.41,8.94,8.55,4.93,22.41,4.93,31,0,4.27-2.47,6.41-5.7,6.41-8.94v-.72c0,3.24-2.14,6.47-6.41,8.94-8.55,4.93-22.41,4.93-31,0-4.28-2.47-6.42-5.7-6.41-8.94Z"/><path class="cls-26" d="M882.15,336.82c0,3.24,2.13,6.47,6.41,8.94,8.55,4.93,22.41,4.93,31,0,4.27-2.47,6.41-5.7,6.41-8.94v-.72c0,3.24-2.14,6.47-6.41,8.94-8.55,4.93-22.41,4.93-31,0-4.28-2.47-6.42-5.7-6.41-8.94Z"/><path class="cls-26" d="M882.15,328.24c0,3.23,2.13,6.47,6.41,8.94,8.55,4.93,22.41,4.93,31,0,4.27-2.47,6.41-5.71,6.41-8.94v-.72c0,3.23-2.14,6.47-6.41,8.94-8.55,4.93-22.41,4.93-31,0-4.28-2.47-6.42-5.71-6.41-8.94Z"/><path class="cls-1" d="M923,300.51a17.85,17.85,0,0,1-3.45,2.59c-7.43,4.28-18.85,4.84-27.33,1.69v25.93c8.48,3.16,19.9,2.59,27.33-1.69a17.07,17.07,0,0,0,3.45-2.59Z"/><path class="cls-26" d="M910.05,261.1h-3.28a10.05,10.05,0,0,0-5.44,0h-3.27v6.78h0a3,3,0,0,0,1.75,2.44,9.38,9.38,0,0,0,8.48,0,3,3,0,0,0,1.76-2.44h0Z"/><path class="cls-26" d="M908.29,263.55a9.38,9.38,0,0,1-8.48,0c-2.34-1.35-2.34-3.54,0-4.9a9.38,9.38,0,0,1,8.48,0C910.64,260,910.64,262.2,908.29,263.55Z"/><path class="cls-9" d="M910.69,256.82h-3.62a11,11,0,0,0-6,0h-3.63v4.82h0a3.29,3.29,0,0,0,1.94,2.72,10.44,10.44,0,0,0,9.4,0,3.29,3.29,0,0,0,1.94-2.72h0Z"/><path class="cls-8" d="M908.75,259.53a10.38,10.38,0,0,1-9.4,0c-2.59-1.5-2.59-3.93,0-5.43a10.38,10.38,0,0,1,9.4,0C911.35,255.6,911.35,258,908.75,259.53Z"/><path class="cls-26" d="M911.6,374.42l-.28-1.29a25.4,25.4,0,0,0,7.4-2.75c3.81-2.19,5.9-5.07,5.9-8.1h1.32c0,3.52-2.33,6.8-6.56,9.25A26.64,26.64,0,0,1,911.6,374.42Z"/><path class="cls-26" d="M896.16,374.35a26.62,26.62,0,0,1-7.48-2.82c-4-2.3-6.31-5.39-6.54-8.71l1.32-.09c.2,2.86,2.28,5.58,5.88,7.65a25.2,25.2,0,0,0,7.1,2.68Z"/><path class="cls-2" d="M848.14,428.9c-8.85,5.11-23.19,5.11-32,0s-8.85-13.38,0-18.49,23.18-5.11,32,0S857,423.8,848.14,428.9Z"/><path class="cls-26" d="M854,383.6c0-3.23-2.13-6.47-6.41-8.94-8.55-4.93-22.41-4.93-31,0-4.27,2.47-6.41,5.71-6.41,8.94v.72c0-3.23,2.14-6.47,6.41-8.94,8.55-4.93,22.41-4.93,31,0,4.28,2.47,6.42,5.71,6.41,8.94Z"/><path class="cls-26" d="M854,391.21c0-3.24-2.13-6.47-6.41-8.94-8.55-4.94-22.41-4.94-31,0-4.27,2.47-6.41,5.7-6.41,8.94v.72c0-3.24,2.14-6.47,6.41-8.94,8.55-4.93,22.41-4.93,31,0,4.28,2.47,6.42,5.7,6.41,8.94Z"/><path class="cls-26" d="M854,375c0-3.23-2.13-6.47-6.41-8.93-8.55-4.94-22.41-4.94-31,0-4.27,2.46-6.41,5.7-6.41,8.93v.72c0-3.23,2.14-6.47,6.41-8.93,8.55-4.94,22.41-4.94,31,0,4.28,2.46,6.42,5.7,6.41,8.93Z"/><g class="cls-27"><path class="cls-28" d="M851.82,411V332.72H812.46V411h0s2.54,9.3,2.94,10.41c.76,1.72,4.47,4,8-1.47.38.11,1.78.21,2.14.29,0,0,2.65,8.57,6.62,8.57,4.17,0,6.22-8.53,6.22-8.53L841,420c3,5.36,7,3.24,8,1.35C849.85,419.61,851.82,411,851.82,411Z"/><path class="cls-29" d="M846.05,340.75c-7.68,4.44-20.14,4.44-27.83,0s-7.68-11.63,0-16.06,20.15-4.44,27.83,0S853.73,336.32,846.05,340.75Z"/></g><polygon class="cls-30" points="840 421.15 843.96 424.45 847.11 424.36 850.08 422.06 852.81 413.43 848.94 417.14 844.93 419.56 840.68 420.9 840 421.15"/><polygon class="cls-30" points="824.23 421.61 820.08 424.45 816.93 424.36 813.95 422.06 811.23 413.43 815.09 417.14 819.1 419.56 823.36 420.9 824.23 421.61"/><path class="cls-31" d="M853.39,331.6c0-10.48-9.51-19-21.25-19s-21.26,8.5-21.26,19h0v78c0,3.14,2.08,6.28,6.23,8.68a30.12,30.12,0,0,0,7.27,2.92c2.78,6.92,4.84,8.84,7.75,8.82,2.72,0,5.08-2.15,7.42-8.75a32.52,32.52,0,0,0,7.62-3c4.15-2.4,6.22-5.54,6.22-8.68v-78Z"/><path class="cls-26" d="M832.13,430.68a7.2,7.2,0,0,1-5.65-3.5l-2.32-4.9-.39.38c-1.27,1.21-2.7,2.59-4.22,2.59h-1a6,6,0,0,1-5.53-4c-.67-2.19-2.84-9.41-2.84-10.29V331.61c0-10.84,9.84-19.65,21.92-19.65s21.91,8.81,21.91,19.64V411c0,.93-2.19,8.11-2.86,10.29a6,6,0,0,1-5.53,4h-1c-1.55,0-3.1-1.53-4.35-2.76l-.41-.4-2.14,5.09A7.2,7.2,0,0,1,832.13,430.68Zm-7.75-10.14h.43l2.84,6a5,5,0,0,0,9,0l2.5-5.95h.44a1.36,1.36,0,0,1,.51.12l.33-.06.22.25c.21.19.43.4.65.63,1,1,2.41,2.38,3.42,2.38h1a4.71,4.71,0,0,0,4.27-3.09c1.34-4.34,2.77-9.28,2.8-9.89V331.62c0-10.12-9.24-18.34-20.59-18.34s-20.6,8.22-20.6,18.32V411c0,.59,1.46,5.54,2.79,9.9a4.7,4.7,0,0,0,4.26,3.08h1c1,0,2.27-1.24,3.31-2.23.25-.25.49-.48.73-.7l.1-.09A.81.81,0,0,1,824.38,420.54Z"/><path class="cls-26" d="M810.23,391.93c0,3.23,2.14,6.47,6.41,8.94,8.55,4.93,22.41,4.93,31,0,4.28-2.47,6.41-5.71,6.41-8.94v-.72c0,3.23-2.13,6.46-6.41,8.93-8.55,4.94-22.41,4.94-31,0-4.27-2.47-6.41-5.7-6.41-8.93Z"/><path class="cls-26" d="M810.23,384.32c0,3.23,2.14,6.47,6.41,8.94,8.55,4.93,22.41,4.93,31,0,4.28-2.47,6.41-5.71,6.41-8.94v-.72c0,3.23-2.13,6.47-6.41,8.93-8.55,4.94-22.41,4.94-31,0-4.27-2.46-6.41-5.7-6.41-8.93Z"/><path class="cls-26" d="M810.23,375.73c0,3.24,2.14,6.47,6.41,8.94,8.55,4.94,22.41,4.94,31,0,4.28-2.47,6.41-5.7,6.41-8.94V375c0,3.24-2.13,6.47-6.41,8.94-8.55,4.93-22.41,4.93-31,0-4.27-2.47-6.41-5.7-6.41-8.94Z"/><path class="cls-1" d="M851.05,348a16.53,16.53,0,0,1-3.45,2.59c-7.42,4.29-18.85,4.85-27.32,1.69v25.94c8.47,3.15,19.9,2.59,27.32-1.69a17.25,17.25,0,0,0,3.45-2.59Z"/><path class="cls-26" d="M838.13,308.6h-3.27a10.05,10.05,0,0,0-5.44,0h-3.28v6.77h0a3,3,0,0,0,1.76,2.45,9.38,9.38,0,0,0,8.48,0,3,3,0,0,0,1.75-2.45h0Z"/><path class="cls-26" d="M836.38,311.05a9.38,9.38,0,0,1-8.48,0c-2.35-1.36-2.35-3.55,0-4.9a9.38,9.38,0,0,1,8.48,0C838.72,307.5,838.72,309.69,836.38,311.05Z"/><path class="cls-9" d="M838.78,304.31h-3.63a11.22,11.22,0,0,0-6,0h-3.63v4.83h0a3.3,3.3,0,0,0,2,2.71,10.41,10.41,0,0,0,9.4,0,3.31,3.31,0,0,0,1.94-2.72h0Z"/><path class="cls-8" d="M836.84,307a10.44,10.44,0,0,1-9.4,0c-2.6-1.5-2.6-3.93,0-5.43a10.38,10.38,0,0,1,9.4,0C839.43,303.1,839.43,305.53,836.84,307Z"/><path class="cls-26" d="M839.68,421.92l-.27-1.3a25.5,25.5,0,0,0,7.4-2.74c3.8-2.2,5.89-5.08,5.89-8.11H854c0,3.53-2.33,6.81-6.56,9.25A27.11,27.11,0,0,1,839.68,421.92Z"/><path class="cls-26" d="M824.24,421.85a26.44,26.44,0,0,1-7.48-2.83c-4-2.3-6.3-5.39-6.54-8.7l1.32-.09c.2,2.86,2.29,5.57,5.88,7.65a25.46,25.46,0,0,0,7.11,2.68Z"/><path class="cls-2" d="M906.06,460.53c-13.62,7.87-35.72,7.87-49.35,0s-13.63-20.63,0-28.5,35.73-7.86,49.35,0S919.69,452.66,906.06,460.53Z"/><path class="cls-26" d="M914.83,425c0-4.94-3.26-9.88-9.79-13.65-13.06-7.54-34.24-7.54-47.31,0-6.53,3.77-9.79,8.71-9.79,13.65v1.1c0-4.94,3.26-9.88,9.79-13.65,13.07-7.54,34.25-7.54,47.31,0,6.53,3.77,9.8,8.71,9.79,13.65Z"/><path class="cls-26" d="M914.83,430.1c0-4.94-3.26-9.89-9.79-13.66-13.06-7.54-34.24-7.54-47.31,0-6.53,3.77-9.79,8.72-9.79,13.66v1.1c0-4.94,3.26-9.88,9.79-13.65C870.8,410,892,410,905,417.55c6.53,3.77,9.8,8.71,9.79,13.65Z"/><path class="cls-26" d="M914.83,435.17c0-4.94-3.26-9.89-9.79-13.66-13.06-7.54-34.24-7.54-47.31,0-6.53,3.77-9.79,8.72-9.79,13.66v1.1c0-4.94,3.26-9.89,9.79-13.66,13.07-7.54,34.25-7.54,47.31,0,6.53,3.77,9.8,8.72,9.79,13.66Z"/><g class="cls-27"><path class="cls-28" d="M911.75,443.76V384.68H851.11v59.09h0c0,4.48,3,9,8.89,12.38,11.83,6.83,31,6.83,42.87,0C908.8,452.72,911.75,448.24,911.75,443.76Z"/><path class="cls-29" d="M902.87,397.05c-11.84,6.84-31,6.84-42.87,0s-11.84-17.92,0-24.75,31-6.84,42.87,0S914.71,390.22,902.87,397.05Z"/></g><path class="cls-31" d="M914.18,383c0-16.15-14.66-29.24-32.75-29.24S848.69,366.8,848.69,383v61.78c0,4.84,3.19,9.68,9.59,13.37,12.78,7.39,33.52,7.39,46.31,0,6.39-3.69,9.59-8.53,9.59-13.37V383Z"/><path class="cls-26" d="M881.44,464.63h0c-8.91,0-17.32-2-23.65-5.67-6.5-3.75-10.09-8.81-10.09-14.23V383c0-16.69,15.14-30.25,33.74-30.25s33.74,13.56,33.74,30.23v61.78c0,5.42-3.58,10.47-10.09,14.24C898.75,462.62,890.35,464.63,881.44,464.63Zm0-109.93c-17.51,0-31.75,12.68-31.75,28.25v61.78c0,4.69,3.23,9.13,9.1,12.51,6,3.49,14.07,5.41,22.65,5.41h0c8.57,0,16.62-1.92,22.65-5.4,5.87-3.39,9.1-7.83,9.1-12.52V383C913.19,367.38,898.94,354.7,881.43,354.7Z"/><path class="cls-26" d="M890.67,348.27h-5a15.69,15.69,0,0,0-8.38,0h-5v10.44h0c0,1.36.91,2.73,2.71,3.77a14.41,14.41,0,0,0,13.07,0c1.8-1,2.7-2.41,2.7-3.77h0Z"/><path class="cls-26" d="M888,352.05a14.47,14.47,0,0,1-13.07,0c-3.61-2.08-3.61-5.46,0-7.55a14.47,14.47,0,0,1,13.07,0C891.58,346.59,891.58,350,888,352.05Z"/><path class="cls-9" d="M891.67,341.67h-5.59a17,17,0,0,0-9.29,0H871.2v7.44h0c0,1.51,1,3,3,4.18a16,16,0,0,0,14.48,0c2-1.16,3-2.67,3-4.18h0Z"/><path class="cls-8" d="M888.67,345.85a16,16,0,0,1-14.48,0c-4-2.31-4-6.05,0-8.36a16,16,0,0,1,14.48,0C892.67,339.8,892.67,343.54,888.67,345.85Z"/><path class="cls-26" d="M847.94,436.27c0,4.94,3.26,9.88,9.79,13.65,13.06,7.54,34.25,7.54,47.31,0,6.53-3.77,9.79-8.71,9.79-13.65v-1.1c0,4.94-3.26,9.88-9.79,13.65-13.06,7.55-34.25,7.55-47.31,0-6.53-3.77-9.79-8.71-9.79-13.65Z"/><path class="cls-26" d="M847.94,431.2c0,4.94,3.26,9.89,9.79,13.66,13.06,7.54,34.25,7.54,47.31,0,6.53-3.77,9.79-8.72,9.79-13.66v-1.1c0,4.94-3.26,9.88-9.79,13.65-13.06,7.54-34.25,7.54-47.31,0-6.53-3.77-9.79-8.71-9.79-13.65Z"/><path class="cls-26" d="M847.94,426.13c0,4.94,3.26,9.89,9.79,13.66,13.06,7.54,34.25,7.54,47.31,0,6.53-3.77,9.79-8.72,9.79-13.66V425c0,4.94-3.26,9.89-9.79,13.65-13.06,7.55-34.25,7.55-47.31,0-6.53-3.76-9.79-8.71-9.79-13.65Z"/><path class="cls-1" d="M909.56,406.2a27.06,27.06,0,0,1-4.52,3.25c-9.89,5.71-24.43,7.09-36.58,4.15v21c12.15,2.93,26.69,1.55,36.58-4.16a27.06,27.06,0,0,0,4.52-3.25Z"/><path class="cls-2" d="M725.82,508.77c-13.63,7.87-35.73,7.87-49.35,0s-13.63-20.62,0-28.5,35.72-7.86,49.35,0S739.45,500.9,725.82,508.77Z"/><path class="cls-26" d="M734.59,473.27c0-4.94-3.27-9.88-9.8-13.65-13.06-7.54-34.24-7.54-47.3,0-6.53,3.77-9.79,8.71-9.79,13.65v1.1c0-4.94,3.26-9.88,9.79-13.65,13.06-7.54,34.24-7.54,47.3,0,6.53,3.77,9.8,8.71,9.8,13.65Z"/><path class="cls-26" d="M734.59,478.34c0-4.94-3.27-9.89-9.8-13.66-13.06-7.54-34.24-7.54-47.3,0-6.53,3.77-9.79,8.72-9.79,13.66v1.1c0-4.94,3.26-9.88,9.79-13.65,13.06-7.54,34.24-7.54,47.3,0,6.53,3.77,9.8,8.71,9.8,13.65Z"/><path class="cls-26" d="M734.59,483.41c0-4.94-3.27-9.89-9.8-13.66-13.06-7.53-34.24-7.53-47.3,0-6.53,3.77-9.79,8.72-9.79,13.66v1.1c0-4.94,3.26-9.89,9.79-13.66,13.06-7.53,34.24-7.53,47.3,0,6.53,3.77,9.8,8.72,9.8,13.66Z"/><g class="cls-27"><path class="cls-28" d="M731.51,492V432.92H670.87V492h0c0,4.48,3,9,8.88,12.38,11.84,6.83,31,6.83,42.88,0C728.55,501,731.51,496.49,731.51,492Z"/><path class="cls-29" d="M722.63,445.29c-11.84,6.84-31,6.84-42.88,0s-11.84-17.91,0-24.75,31-6.84,42.88,0S734.47,438.46,722.63,445.29Z"/></g><path class="cls-31" d="M733.93,431.19c0-16.15-14.66-29.24-32.74-29.24S668.44,415,668.44,431.19V493c0,4.84,3.2,9.67,9.59,13.36,12.79,7.39,33.53,7.39,46.31,0,6.4-3.7,9.59-8.53,9.59-13.37V431.19Z"/><path class="cls-26" d="M701.19,512.87h0c-8.92,0-17.32-2-23.65-5.67-6.51-3.75-10.09-8.8-10.09-14.22V431.21c0-16.69,15.13-30.25,33.74-30.25s33.74,13.56,33.74,30.23V493c0,5.41-3.59,10.47-10.09,14.23C718.51,510.86,710.11,512.87,701.19,512.87Zm0-109.93c-17.51,0-31.76,12.68-31.76,28.25V493c0,4.68,3.23,9.12,9.09,12.5,6,3.49,14.08,5.41,22.66,5.41h0c8.58,0,16.62-1.92,22.66-5.4,5.86-3.39,9.09-7.83,9.09-12.51V431.23C732.94,415.62,718.7,402.94,701.19,402.94Z"/><path class="cls-26" d="M710.43,396.51h-5a15.69,15.69,0,0,0-8.38,0h-5V407h0c0,1.36.9,2.73,2.7,3.77a14.41,14.41,0,0,0,13.07,0c1.81-1,2.71-2.41,2.71-3.77h0Z"/><path class="cls-26" d="M707.72,400.29a14.47,14.47,0,0,1-13.07,0c-3.61-2.08-3.61-5.46,0-7.55a14.47,14.47,0,0,1,13.07,0C711.33,394.83,711.33,398.21,707.72,400.29Z"/><path class="cls-9" d="M711.43,389.91h-5.6a17.24,17.24,0,0,0-9.29,0H691v7.44h0c0,1.51,1,3,3,4.18a16,16,0,0,0,14.48,0c2-1.15,3-2.67,3-4.18h0Z"/><path class="cls-8" d="M708.43,394.09a16,16,0,0,1-14.48,0c-4-2.31-4-6,0-8.36a16,16,0,0,1,14.48,0C712.43,388,712.43,391.78,708.43,394.09Z"/><path class="cls-26" d="M667.7,484.51c0,4.94,3.26,9.89,9.79,13.66,13.06,7.54,34.24,7.54,47.3,0,6.53-3.77,9.8-8.72,9.8-13.66v-1.1c0,4.94-3.27,9.88-9.8,13.65-13.06,7.55-34.24,7.55-47.3,0-6.53-3.77-9.79-8.71-9.79-13.65Z"/><path class="cls-26" d="M667.7,479.44c0,4.94,3.26,9.89,9.79,13.66,13.06,7.54,34.24,7.54,47.3,0,6.53-3.77,9.8-8.72,9.8-13.66v-1.1c0,4.94-3.27,9.88-9.8,13.65-13.06,7.55-34.24,7.55-47.3,0-6.53-3.77-9.79-8.71-9.79-13.65Z"/><path class="cls-26" d="M667.7,474.37c0,4.94,3.26,9.89,9.79,13.66,13.06,7.54,34.24,7.54,47.3,0,6.53-3.77,9.8-8.72,9.8-13.66v-1.1c0,4.94-3.27,9.89-9.8,13.66-13.06,7.54-34.24,7.54-47.3,0-6.53-3.77-9.79-8.72-9.79-13.66Z"/><path class="cls-1" d="M729.32,454.44a26.75,26.75,0,0,1-4.53,3.25c-9.89,5.71-24.43,7.09-36.58,4.15v21c12.15,2.93,26.69,1.55,36.58-4.16a26.21,26.21,0,0,0,4.53-3.25Z"/><polygon class="cls-4" points="584.65 168.94 574.55 163.12 570.86 168.94 577.08 173.85 584.65 168.94"/><path class="cls-4" d="M564.61,161.81a21.5,21.5,0,0,0-.31-2.89l6.42-2.12-12.19-7h0c-3.61-2-8.53-1.59-14,1.52-10.73,6.21-19.5,21-20,33.58-6.7,5-11.82,14.66-11.82,22.74V208c0,4.47,1.58,7.58,4.09,9l12.32,7.05,33.31-28.67c7.7-4.46,14-15.3,14-24.19v-.32C576.43,162.85,571.3,159.14,564.61,161.81Z"/><path class="cls-1" d="M576.82,168.81c-.51-12-9.26-16.65-20-10.45s-19.52,21-20.05,33.56C530.1,197,525,206.61,525,214.66V215c0,8.9,6.25,12.5,14,8l35.75-20.62c7.71-4.45,14-15.28,14-24.18v-.33C588.64,169.85,583.51,166.14,576.82,168.81Z"/><polygon class="cls-4" points="658.63 167.54 650.89 163.07 648.07 167.54 652.83 171.3 658.63 167.54"/><path class="cls-4" d="M643.28,162.07a16.46,16.46,0,0,0-.24-2.2l4.92-1.63-9.34-5.34h0c-2.76-1.5-6.53-1.22-10.69,1.16-8.22,4.76-14.94,16.12-15.32,25.73-5.13,3.87-9.06,11.23-9.06,17.41v.25c0,3.42,1.21,5.81,3.14,6.93l9.43,5.4,25.52-22c5.9-3.42,10.69-11.72,10.69-18.53V169C652.33,162.87,648.4,160,643.28,162.07Z"/><path class="cls-1" d="M652.63,167.44c-.39-9.17-7.09-12.75-15.32-8s-15,16.1-15.35,25.71c-5.11,3.88-9.05,11.25-9.05,17.42v.25c0,6.82,4.78,9.58,10.7,6.17L651,193.18c5.91-3.41,10.7-11.7,10.7-18.52v-.26C661.69,168.23,657.76,165.4,652.63,167.44Z"/><polygon class="cls-4" points="784.58 86.46 776.85 82 774.02 86.46 778.79 90.22 784.58 86.46"/><path class="cls-4" d="M769.23,81a15.14,15.14,0,0,0-.23-2.21l4.91-1.63-9.34-5.34h0c-2.76-1.5-6.52-1.22-10.68,1.17C745.67,77.75,739,89.1,738.56,98.71c-5.13,3.87-9,11.23-9,17.42v.24c0,3.42,1.21,5.81,3.13,6.93l9.44,5.4,25.51-21.95c5.91-3.42,10.7-11.72,10.7-18.54V88C778.29,81.79,774.36,79,769.23,81Z"/><path class="cls-1" d="M778.59,86.36c-.39-9.16-7.09-12.75-15.33-8s-15,16.09-15.35,25.71c-5.11,3.87-9,11.24-9,17.41v.26c0,6.82,4.78,9.58,10.69,6.16L777,112.1c5.91-3.4,10.69-11.7,10.69-18.52v-.25C787.64,87.16,783.71,84.32,778.59,86.36Z"/><polygon class="cls-4" points="642.29 78.15 632.65 72.59 629.13 78.15 635.07 82.84 642.29 78.15"/><path class="cls-4" d="M623.16,71.35a19.63,19.63,0,0,0-.29-2.76l6.12-2-11.63-6.66h0c-3.44-1.87-8.14-1.52-13.32,1.45C593.8,67.3,585.42,81.44,585,93.42c-6.4,4.82-11.29,14-11.29,21.7v.3c0,4.27,1.51,7.24,3.91,8.64l11.76,6.73,31.79-27.36c7.35-4.26,13.33-14.6,13.33-23.09V80C634.45,72.34,629.55,68.8,623.16,71.35Z"/><path class="cls-1" d="M634.81,78c-.48-11.42-8.83-15.89-19.08-10s-18.64,20.06-19.13,32c-6.37,4.83-11.28,14-11.28,21.7v.32c0,8.5,6,11.93,13.33,7.68l34.13-19.69c7.36-4.24,13.32-14.58,13.32-23.07v-.32C646.1,79,641.2,75.49,634.81,78Z"/><polygon class="cls-4" points="706.83 110.67 701.06 107.34 698.95 110.67 702.5 113.47 706.83 110.67"/><path class="cls-4" d="M695.38,106.59a13.55,13.55,0,0,0-.17-1.64l3.66-1.22-7-4h0c-2.06-1.12-4.87-.91-8,.87-6.13,3.55-11.14,12-11.43,19.18-3.82,2.89-6.75,8.37-6.75,13V133c0,2.55.91,4.33,2.34,5.16l7,4,19-16.37c4.4-2.55,8-8.74,8-13.82v-.18C702.13,107.19,699.2,105.07,695.38,106.59Z"/><path class="cls-1" d="M702.35,110.59c-.29-6.83-5.28-9.5-11.42-6s-11.15,12-11.45,19.17c-3.81,2.89-6.74,8.39-6.74,13V137c0,5.08,3.57,7.14,8,4.6l20.42-11.78a17.62,17.62,0,0,0,8-13.81v-.19C709.11,111.19,706.18,109.07,702.35,110.59Z"/></svg>