<svg id="Layer_1" data-name="Layer 1" xmlns="http://www.w3.org/2000/svg" viewBox="0 0 1000.66 566.93"><defs><style>.cls-1,.cls-40{fill:#fff;}.cls-2,.cls-24,.cls-5{opacity:0.3;}.cls-3{fill:#ffa769;}.cls-4{fill:#9de368;}.cls-41,.cls-5{fill:#0d0d0d;}.cls-20,.cls-6{fill:#659ec9;}.cls-17,.cls-26,.cls-6{opacity:0.7;}.cls-7{fill:#4fbeff;}.cls-15,.cls-24,.cls-8{fill:#8dd5ff;}.cls-18,.cls-9{fill:#517fa2;}.cls-10,.cls-12{fill:#b4caed;}.cls-11{fill:#dae5f8;}.cls-12,.cls-15,.cls-21,.cls-30{opacity:0.5;}.cls-13{fill:#003552;}.cls-14,.cls-19{fill:#295e87;}.cls-16,.cls-25,.cls-26,.cls-27,.cls-30{fill:#c7f2ff;}.cls-18,.cls-19,.cls-25{opacity:0.4;}.cls-22{fill:#249e48;}.cls-23{fill:#68e38b;}.cls-27,.cls-40,.cls-41{opacity:0.2;}.cls-28{fill:#1078ad;}.cls-29{fill:#00537d;}.cls-31{fill:gray;}.cls-32{fill:#575757;}.cls-33{fill:#ff8530;}.cls-34{fill:#f26716;}.cls-35{fill:#a6a6a6;}.cls-36{fill:#b2c4da;}.cls-37{fill:#ffc654;}.cls-38{fill:#ff8587;}.cls-39{opacity:0.1;}</style></defs><title>Artboard 14</title><path class="cls-1" d="M501.57,526.84v-1.38c3.64,0,7.32-.09,10.95-.27l.07,1.37C508.93,526.74,505.23,526.84,501.57,526.84Zm-11-.27c-3.66-.18-7.36-.46-11-.82l.14-1.36c3.6.35,7.26.63,10.91.81Zm33-.84-.14-1.37c3.63-.37,7.28-.83,10.86-1.37l.21,1.35C530.88,524.89,527.21,525.36,523.56,525.73Zm-54.9-1.35c-3.62-.55-7.28-1.2-10.85-1.92l.28-1.35c3.55.73,7.17,1.37,10.77,1.91Zm76.67-2-.27-1.34c3.57-.74,7.16-1.57,10.66-2.48l.34,1.33C552.54,520.84,548.93,521.67,545.33,522.41ZM447.08,520c-3.56-.91-7.12-1.93-10.59-3l.4-1.3c3.46,1.07,7,2.09,10.53,3Zm119.57-3.09-.41-1.3c3.48-1.1,7-2.29,10.35-3.55l.48,1.29C573.66,514.6,570.15,515.79,566.65,516.89ZM426,513.4c-3.43-1.27-6.88-2.64-10.24-4.09l.54-1.26c3.34,1.44,6.77,2.81,10.18,4.07Zm161.24-4.15-.54-1.26c3.34-1.44,6.69-3,9.92-4.57l.61,1.23C594,506.25,590.64,507.8,587.27,509.25ZM405.76,504.7c-3.29-1.61-6.59-3.34-9.77-5.11l.66-1.2c3.17,1.76,6.44,3.47,9.72,5.08ZM607,499.55l-.67-1.2c3.16-1.75,6.33-3.62,9.41-5.56l.73,1.17C613.36,495.9,610.17,497.78,607,499.55ZM386.49,494c-3.12-1.95-6.22-4-9.2-6.07l.78-1.13c3,2.06,6,4.1,9.15,6Zm239.16-6.1-.78-1.13c3-2.06,5.93-4.24,8.81-6.48l.84,1.09C631.62,483.62,628.64,485.82,625.65,487.9Zm-257.24-6.5c-2.88-2.24-5.75-4.58-8.54-7l.9-1c2.76,2.37,5.62,4.7,8.48,6.92Zm274.65-7-.9-1c2.75-2.37,5.48-4.83,8.12-7.34l.94,1C648.57,469.55,645.82,472,643.06,474.42ZM351.7,467c-2.67-2.53-5.29-5.14-7.79-7.78l1-.95c2.49,2.62,5.09,5.23,7.74,7.74ZM659,459.25l-1-.95c2.5-2.63,5-5.36,7.34-8.12l1,.9C664,453.85,661.53,456.6,659,459.25Zm-322.5-8.15c-2.39-2.78-4.73-5.65-7-8.53l1.08-.84c2.23,2.86,4.56,5.71,6.93,8.47Zm336.85-8.56-1.08-.84c2.22-2.87,4.41-5.83,6.49-8.82l1.13.79C677.81,436.67,675.61,439.66,673.37,442.54ZM323,433.7c-2.08-3-4.12-6.07-6.07-9.18l1.16-.73c1.94,3.1,4,6.17,6,9.13Zm363-9.23-1.16-.73c1.94-3.1,3.81-6.27,5.57-9.44l1.2.67C689.82,418.15,687.94,421.35,686,424.47Zm-374.61-9.42c-1.78-3.18-3.5-6.46-5.11-9.74l1.23-.6c1.61,3.25,3.31,6.51,5.08,9.67ZM696.7,405.2l-1.23-.6c1.6-3.27,3.15-6.62,4.58-10l1.26.54C699.87,398.55,698.32,401.92,696.7,405.2Zm-395.05-9.87c-1.43-3.35-2.81-6.78-4.08-10.2l1.29-.48c1.26,3.4,2.62,6.81,4.05,10.14Zm403.76-10.4-1.29-.48c1.28-3.43,2.47-6.92,3.55-10.38l1.31.41C707.89,378,706.69,381.48,705.41,384.93ZM294,374.71c-1.09-3.47-2.12-7-3-10.58l1.33-.35c.92,3.53,1.93,7.07,3,10.52Zm418-10.82-1.33-.34c.91-3.54,1.75-7.13,2.47-10.66l1.35.27C713.76,356.73,712.92,360.33,712,363.89ZM288.47,353.4c-.74-3.58-1.39-7.23-1.94-10.85l1.35-.2c.56,3.59,1.2,7.21,1.93,10.77Zm427.95-11.08-1.36-.21c.54-3.59,1-7.24,1.37-10.85l1.36.13C717.42,335,717,338.71,716.42,342.32ZM285.14,331.63c-.37-3.63-.65-7.33-.84-11l1.37-.07c.19,3.63.47,7.3.84,10.91Zm433.47-11.22-1.37-.07c.18-3.6.28-7.28.28-10.94v-.46h1.37v.46C718.89,313.08,718.8,316.78,718.61,320.41ZM285.39,309.64H284v-.24c0-3.58.09-7.2.26-10.77l1.37.07c-.17,3.55-.26,7.15-.26,10.7ZM717.22,298c-.19-3.65-.47-7.32-.84-10.91l1.37-.14c.37,3.61.65,7.31.84,11ZM286.46,287.78l-1.37-.13c.37-3.67.83-7.35,1.37-10.93l1.36.2C287.28,280.48,286.82,284.13,286.46,287.78ZM715,276.23c-.55-3.6-1.2-7.23-1.94-10.76l1.35-.28c.73,3.56,1.39,7.2,2,10.83ZM289.72,266.15l-1.34-.27c.73-3.59,1.55-7.2,2.46-10.74l1.33.34C291.27,259,290.45,262.59,289.72,266.15Zm420.84-11.34c-.92-3.52-1.94-7.05-3-10.52l1.31-.41c1.1,3.48,2.13,7,3,10.58ZM295.17,245l-1.31-.41c1.09-3.52,2.29-7,3.55-10.45l1.29.47C297.44,238,296.25,241.47,295.17,245Zm408.8-11c-1.27-3.41-2.64-6.82-4.07-10.13l1.26-.54c1.44,3.33,2.82,6.76,4.1,10.19Zm-401.21-9.55-1.26-.55c1.44-3.35,3-6.72,4.6-10l1.23.6C305.73,217.7,304.19,221.05,302.76,224.39Zm392.55-10.5c-1.61-3.26-3.32-6.51-5.08-9.67l1.2-.67c1.77,3.18,3.49,6.46,5.12,9.74Zm-382.9-9.18-1.2-.67c1.76-3.19,3.65-6.38,5.59-9.5l1.17.72C316,198.36,314.17,201.54,312.41,204.71Zm372.25-9.89c-1.92-3.06-3.95-6.13-6-9.12l1.13-.79c2.1,3,4.15,6.1,6.08,9.18ZM324,186.12l-1.12-.79c2.08-3,4.28-6,6.52-8.88l1.08.84C328.25,180.17,326.06,183.14,324,186.12Zm348.14-9.22c-2.22-2.86-4.56-5.7-6.93-8.47l1-.89c2.39,2.78,4.74,5.64,7,8.52Zm-334.74-8.1-1-.89c2.39-2.78,4.87-5.53,7.38-8.18l1,1C342.23,163.31,339.76,166,337.39,168.8Zm320.46-8.47c-2.5-2.63-5.11-5.23-7.75-7.73l.94-1c2.66,2.52,5.28,5.14,7.8,7.78Zm-305.39-7.4-.95-1c2.65-2.52,5.4-5,8.17-7.39l.89,1.05C357.82,148,355.09,150.42,352.46,152.93ZM642,145.27c-2.77-2.37-5.63-4.7-8.5-6.91l.85-1.09c2.88,2.23,5.75,4.57,8.54,7ZM369,138.66l-.84-1.08c2.89-2.25,5.87-4.45,8.86-6.53l.79,1.12C374.88,134.24,371.91,136.43,369,138.66Zm255.61-6.78c-3-2.08-6.08-4.11-9.15-6l.72-1.17c3.1,1.93,6.2,4,9.21,6.06ZM387,126.14l-.73-1.17c3.09-1.93,6.27-3.81,9.47-5.6l.67,1.2C393.19,122.35,390,124.22,387,126.14Zm219.09-5.84c-3.2-1.77-6.47-3.47-9.72-5.07l.61-1.23c3.27,1.6,6.56,3.32,9.77,5.1Zm-200-4.81-.61-1.23c3.28-1.62,6.64-3.17,10-4.61l.54,1.26C412.64,112.35,409.31,113.89,406.05,115.49Zm180.31-4.82c-3.34-1.43-6.77-2.8-10.19-4.06l.48-1.28c3.43,1.26,6.89,2.63,10.25,4.07ZM426.1,106.85l-.48-1.29c3.42-1.27,6.93-2.48,10.41-3.58l.42,1.31C433,104.38,429.5,105.58,426.1,106.85Zm139.69-3.77c-3.48-1.08-7-2.08-10.53-3l.34-1.33c3.53.9,7.1,1.91,10.6,3ZM447,100.27l-.34-1.33c3.53-.92,7.14-1.75,10.73-2.49l.27,1.34C454.06,98.53,450.47,99.36,447,100.27Zm97.63-2.62c-3.54-.72-7.17-1.36-10.77-1.9l.2-1.36c3.63.55,7.28,1.19,10.85,1.92ZM468.4,95.86l-.21-1.36c3.6-.55,7.28-1,10.92-1.4l.14,1.37C475.63,94.84,472,95.31,468.4,95.86ZM523,94.4c-3.62-.36-7.3-.63-10.91-.8l.06-1.37c3.64.17,7.34.44,11,.8Zm-32.8-.77-.07-1.37c3.65-.19,7.36-.28,11-.29v1.37C497.47,93.35,493.79,93.44,490.16,93.63Z"/><path class="cls-1" d="M766.39,235.83A67.81,67.81,0,1,1,698.58,168,67.81,67.81,0,0,1,766.39,235.83Z"/><path class="cls-1" d="M369.89,235.83A67.81,67.81,0,1,1,302.08,168,67.81,67.81,0,0,1,369.89,235.83Z"/><path class="cls-1" d="M425.56,471.57a67.82,67.82,0,1,1-67.81-67.81A67.82,67.82,0,0,1,425.56,471.57Z"/><path class="cls-1" d="M712.76,471.57A67.81,67.81,0,1,1,645,403.76,67.81,67.81,0,0,1,712.76,471.57Z"/><path class="cls-1" d="M568.22,95.36a67.81,67.81,0,1,1-67.81-67.82A67.81,67.81,0,0,1,568.22,95.36Z"/><polygon class="cls-2" points="586.1 350.3 542.36 301.01 558.84 296.13 602.59 345.43 586.1 350.3"/><polygon class="cls-1" points="586.1 349.31 542.36 300.02 558.84 295.14 602.59 344.43 586.1 349.31"/><polygon class="cls-3" points="551.71 308.44 544.88 300.75 558.21 296.8 565.03 304.49 551.71 308.44"/><polygon class="cls-3" points="563.41 321.62 556.59 313.93 569.91 309.99 576.73 317.68 563.41 321.62"/><polygon class="cls-3" points="575.11 334.8 568.29 327.11 581.61 323.17 588.43 330.86 575.11 334.8"/><polygon class="cls-4" points="586.81 347.99 579.98 340.3 593.31 336.36 600.13 344.05 586.81 347.99"/><polygon class="cls-2" points="581.25 357.32 513.41 318.15 526.5 310.59 594.34 349.75 581.25 357.32"/><polygon class="cls-1" points="581.25 356.32 513.41 317.16 526.5 309.59 594.34 348.76 581.25 356.32"/><polygon class="cls-3" points="526.79 323.52 516.2 317.41 526.79 311.3 537.37 317.41 526.79 323.52"/><polygon class="cls-3" points="544.93 333.99 534.35 327.88 544.93 321.77 555.51 327.88 544.93 333.99"/><polygon class="cls-4" points="562.79 344.76 552.2 338.64 562.79 332.54 573.37 338.64 562.79 344.76"/><polygon class="cls-4" points="581.22 354.95 570.63 348.84 581.22 342.73 591.8 348.84 581.22 354.95"/><polygon class="cls-2" points="612.85 365.87 522.3 347.57 528.41 337.48 618.97 355.78 612.85 365.87"/><polygon class="cls-1" points="612.85 364.88 522.3 346.58 528.41 336.48 618.97 354.78 612.85 364.88"/><polygon class="cls-3" points="539.13 348.95 525 346.1 529.95 337.94 544.07 340.8 539.13 348.95"/><polygon class="cls-4" points="563.06 354.13 548.93 351.28 553.88 343.12 568.01 345.98 563.06 354.13"/><polygon class="cls-4" points="587.57 358.74 573.44 355.89 578.38 347.73 592.51 350.58 587.57 358.74"/><polygon class="cls-4" points="611.79 363.64 597.65 360.78 602.6 352.63 616.73 355.48 611.79 363.64"/><path class="cls-5" d="M440.44,370.36c-8.39-4.84-13-11.37-13-18.45s4.61-13.65,13-18.5c8-4.59,18.57-7.11,29.79-7.11s21.82,2.52,29.83,7.11c8.35,4.85,12.95,11.45,12.95,18.5s-4.6,13.61-12.95,18.45c-8,4.62-18.59,7.14-29.83,7.14S448.43,375,440.44,370.36Z"/><path class="cls-6" d="M500.89,224.47c-16.82-9.72-44.12-9.72-60.94,0-8.86,5.11-13.05,11.9-12.58,18.6h0l8.24,106.86c.32,4.89,3.7,9.72,10.18,13.46,13.61,7.86,35.68,7.86,49.29,0,6.47-3.74,9.86-8.57,10.18-13.46h0l8.19-106.67h0v-.18h0C513.94,236.37,509.75,229.58,500.89,224.47Z"/><path class="cls-7" d="M433.94,278.28l5.59,69.62h0c.28,4.34,3.29,8.63,9,12,12.07,7,31.65,7,43.73,0,5.74-3.32,8.75-7.61,9-12h0l5.17-69.44Z"/><path class="cls-8" d="M495.89,292.53c-14.17,8.18-37.16,8.18-51.34,0s-14.17-21.46,0-29.64,37.17-8.19,51.34,0S510.07,284.35,495.89,292.53Z"/><path class="cls-9" d="M470.42,268.71c-11.82,0-22.95-2.67-31.35-7.52-8.71-5-13.51-11.82-13.51-19.13s4.8-14.1,13.51-19.12c8.4-4.86,19.53-7.52,31.35-7.52s23,2.66,31.36,7.52c8.71,5,13.51,11.82,13.51,19.12s-4.8,14.1-13.51,19.13C493.38,266,482.24,268.71,470.42,268.71Zm0-49.77c-11.2,0-21.71,2.51-29.59,7.06-7.57,4.37-11.74,10.07-11.74,16.06s4.17,11.7,11.74,16.07c7.88,4.55,18.39,7.05,29.59,7.05s21.72-2.5,29.59-7.05c7.57-4.37,11.74-10.08,11.74-16.07S507.58,230.37,500,226C492.14,221.45,481.63,218.94,470.42,218.94Z"/><path class="cls-9" d="M470.42,371c-9.24,0-18.49-2-25.53-6.1-6.76-3.9-10.68-9.19-11.05-14.88L425.6,243.2l3.52-.27,8.24,106.86c.29,4.5,3.59,8.78,9.3,12.07,13.1,7.57,34.42,7.57,47.52,0,5.71-3.29,9-7.57,9.3-12.05l.16-1.65,8.09-105.23,3.52.27-8.34,108.49h-.11c-.95,5.06-4.75,9.71-10.85,13.23C488.91,369,479.67,371,470.42,371Z"/><path class="cls-2" d="M663.8,518.8c-9.66,5.58-25.34,5.58-35,0s-9.67-14.63,0-20.21,25.34-5.58,35,0S673.47,513.22,663.8,518.8Z"/><polygon class="cls-10" points="640.18 511.17 632.87 515.39 629.82 511.13 630.96 501.11 640.18 500.23 640.18 511.17"/><path class="cls-11" d="M624.74,456.52l2.61,51.35h0c.09,2.73,1.92,5.44,5.51,7.52a28.09,28.09,0,0,1-.54-13,52.07,52.07,0,0,0,9.57,15.95c6.18.85,13-.1,17.8-2.89,3.61-2.08,5.46-4.8,5.55-7.54h0l2.61-51.35Z"/><path class="cls-12" d="M657.52,459.65a41.51,41.51,0,0,0-22.44,0H624.9l.5,9.81a19,19,0,0,0,3.4,2.45c9.66,5.58,25.34,5.59,35,0a18.69,18.69,0,0,0,3.4-2.45l.5-9.81Z"/><path class="cls-1" d="M661.55,465.33c-8.42,4.86-22.08,4.86-30.5,0s-8.41-12.75,0-17.61,22.08-4.86,30.5,0S670,460.47,661.55,465.33Z"/><path class="cls-11" d="M671.05,457.21H657.52a41.32,41.32,0,0,0-22.44,0H621.55v2.16h0c0,3.65,2.42,7.31,7.25,10.1,9.66,5.58,25.34,5.58,35,0,4.84-2.79,7.25-6.45,7.25-10.1h0Z"/><path class="cls-1" d="M663.8,467.31c-9.66,5.59-25.34,5.59-35,0s-9.67-14.62,0-20.2,25.34-5.59,35,0S673.47,461.73,663.8,467.31Z"/><path class="cls-11" d="M667.86,440.65H656.08a36.1,36.1,0,0,0-19.56,0H624.74v15.8h0c0,3.19,2.11,6.37,6.31,8.8,8.42,4.86,22.08,4.86,30.5,0,4.21-2.43,6.31-5.61,6.31-8.8h0Z"/><path class="cls-10" d="M661.14,452.52c-.31.17-.61.33-.93.48v10.68c.32-.15.62-.31.93-.47Z"/><path class="cls-10" d="M659.08,453.52l-.92.37v10.69l.92-.38Z"/><path class="cls-10" d="M657,454.29l-.93.29v10.68c.32-.09.63-.18.93-.29Z"/><path class="cls-10" d="M632.39,453c-.32-.15-.62-.31-.92-.48V463.2c.3.17.6.33.92.48Z"/><path class="cls-10" d="M629.41,461.91c.3.21.6.43.93.63V451.86c-.33-.21-.63-.42-.93-.63Z"/><path class="cls-10" d="M663.19,451.23l-.92.63v10.68c.32-.2.62-.42.92-.63Z"/><path class="cls-10" d="M650.87,455.66l-.92.1v10.68l.92-.1Z"/><path class="cls-10" d="M666.37,458.72a9.3,9.3,0,0,0,.93-1.72V446.32a9.63,9.63,0,0,1-.93,1.72Z"/><path class="cls-10" d="M647.89,466.59l.93,0V455.85l-.93,0Z"/><path class="cls-10" d="M652.92,455.34l-.92.16v10.68l.92-.16Z"/><path class="cls-10" d="M655,454.89l-.93.22v10.68l.93-.22Z"/><path class="cls-10" d="M628.29,450.33c-.34-.29-.64-.59-.93-.89v10.68a11.37,11.37,0,0,0,.93.9Z"/><path class="cls-10" d="M634.44,453.89l-.92-.37V464.2l.92.38Z"/><path class="cls-10" d="M646.76,455.94h-.92v10.68h.92Z"/><path class="cls-10" d="M665.25,449.44c-.29.3-.6.6-.93.89V461q.49-.43.93-.9Z"/><path class="cls-10" d="M644.71,455.9l-.92,0v10.69l.92,0Z"/><path class="cls-10" d="M626.23,448a9.63,9.63,0,0,1-.93-1.72V457a9.71,9.71,0,0,0,.93,1.73Z"/><path class="cls-10" d="M642.66,455.76l-.93-.1v10.68l.93.1Z"/><path class="cls-10" d="M636.5,454.58l-.93-.29V465c.31.11.62.2.93.29Z"/><path class="cls-10" d="M638.55,455.11l-.92-.22v10.68l.92.22Z"/><path class="cls-10" d="M640.61,455.5l-.93-.16V466l.93.16Z"/><path class="cls-1" d="M661.55,449.45c-8.42,4.87-22.08,4.87-30.5,0s-8.41-12.74,0-17.6,22.08-4.86,30.5,0S670,444.59,661.55,449.45Z"/><path class="cls-11" d="M659,425.1h-7a21.26,21.26,0,0,0-11.52,0H633.6v15.49h0c0,1.88,1.24,3.75,3.72,5.18,5,2.87,13,2.87,18,0,2.49-1.43,3.73-3.3,3.73-5.18h0Z"/><path class="cls-1" d="M655.28,430.29c-5,2.86-13,2.86-18,0s-5-7.51,0-10.38,13-2.86,18,0S660.25,427.42,655.28,430.29Z"/><path class="cls-10" d="M655.83,425.82a5.24,5.24,0,0,0-2.73-3.21,15,15,0,0,0-13.59,0,5.23,5.23,0,0,0-2.74,3.21c-.37-1.65.53-3.38,2.74-4.64a15,15,0,0,1,13.59,0C655.29,422.44,656.2,424.17,655.83,425.82Z"/><path class="cls-11" d="M655.83,425.82A5.24,5.24,0,0,1,653.1,429a15.06,15.06,0,0,1-13.59,0,3.25,3.25,0,0,1,0-6.42,15,15,0,0,1,13.59,0A5.24,5.24,0,0,1,655.83,425.82Z"/><path class="cls-2" d="M297.07,278.07a11.85,11.85,0,0,1-5.8-1.39l-17.94-10.36a4.27,4.27,0,0,1-2.49-3.5,4.09,4.09,0,0,1,2.29-3.43h0l23.9-13.8a12.84,12.84,0,0,1,11.62,0l17.89,10.33,0,0c1.61.94,2.5,2.2,2.49,3.55a4.28,4.28,0,0,1-2.49,3.51l-23.71,13.69A11.89,11.89,0,0,1,297.07,278.07Z"/><polygon class="cls-13" points="328.99 232.44 330.45 231.02 327.74 204.3 323.43 197.6 314.66 199.56 314.66 203.44 319.59 202.35 322.93 228.94 324.98 231.16 328.99 232.44"/><polygon class="cls-13" points="311.59 238.71 311.31 240.93 316.94 244.18 318.52 242.01 317.22 241.97 311.59 238.71"/><polygon class="cls-9" points="318.47 242.69 328.99 232.44 322.93 228.94 311.59 238.71 318.47 242.69"/><polygon class="cls-14" points="329.06 200.85 322.87 200.2 320.28 202.81 320.28 206.69 325.22 205.6 328.56 232.2 317.22 241.96 316.94 244.18 332.79 230.53 329.06 200.85"/><polygon class="cls-9" points="329.06 200.85 323.43 197.6 314.66 199.56 320.28 202.81 329.06 200.85"/><path class="cls-15" d="M328.78,209.64l-.8-1.59-.77-.91L308,195.94a11.57,11.57,0,0,0-5.43-1.11,11.93,11.93,0,0,0-5,1.11l-23.26,13.45-2.07,1.49-1.11,2.1,6.3,49.28h0a3.42,3.42,0,0,0,1.93,2.46l13,7.49a10.42,10.42,0,0,0,9.42,0l18.81-10.8a3.53,3.53,0,0,0,1.92-2.39h0Z"/><path class="cls-7" d="M292.55,271.54,280,264.26c-2.53-1.46-2.53-3.83,0-5.29l18.27-10.5a10.13,10.13,0,0,1,9.16,0L320,255.75c2.53,1.46,2.53,3.83,0,5.29l-18.28,10.5A10.13,10.13,0,0,1,292.55,271.54Z"/><path class="cls-16" d="M328.78,209.64c0-1.19-.78-2.38-2.34-3.28h0L308.5,196a12.54,12.54,0,0,0-11.32,0l-23.71,13.69h0c-1.56.91-2.34,2.1-2.33,3.29l.62,0a3.67,3.67,0,0,1,2.16-3h0l23.7-13.69a11.65,11.65,0,0,1,10.45,0L326,206.61h0a3.66,3.66,0,0,1,2.16,3Z"/><g class="cls-17"><path class="cls-7" d="M321,253.86l-19.14,11.05a9.38,9.38,0,0,1-8.43,0l-14.48-8.36a3.18,3.18,0,0,1-1.71-2.08h0l1,7.69a.68.68,0,0,0,0,.14v0h0a3.27,3.27,0,0,0,1.72,2l12.88,7.44a9.43,9.43,0,0,0,8.53,0L320.07,261a3.09,3.09,0,0,0,1.74-2.22h0l.86-7.17h0A3.06,3.06,0,0,1,321,253.86Z"/><path class="cls-8" d="M302.25,239.62a8.57,8.57,0,0,0-4.21,1L278.9,251.68c-2.32,1.34-2.32,3.53,0,4.87l14.48,8.36a9.38,9.38,0,0,0,8.43,0L321,253.86c2.32-1.34,2.32-3.53,0-4.87l-14.48-8.36a8.64,8.64,0,0,0-4.22-1Z"/></g><polygon class="cls-10" points="298.13 251.33 295.91 252.61 294.99 251.32 295.33 248.29 298.13 248.02 298.13 251.33"/><path class="cls-11" d="M293.45,234.79l.79,15.55h0a2.88,2.88,0,0,0,1.67,2.27,8.6,8.6,0,0,1-.17-4,15.72,15.72,0,0,0,2.9,4.83,8.83,8.83,0,0,0,5.39-.87,2.88,2.88,0,0,0,1.68-2.28h0l.79-15.55Z"/><path class="cls-12" d="M303.38,235.74a12.47,12.47,0,0,0-6.8,0H293.5l.15,3a5.58,5.58,0,0,0,1,.75,11.71,11.71,0,0,0,10.6,0,5.58,5.58,0,0,0,1-.75l.15-3Z"/><path class="cls-1" d="M304.59,237.45a10.21,10.21,0,0,1-9.23,0c-2.55-1.47-2.55-3.85,0-5.33a10.21,10.21,0,0,1,9.23,0C307.14,233.6,307.14,236,304.59,237.45Z"/><path class="cls-18" d="M328.1,210.16l-.31-.81-.65-1.48-1.16-1-18.53-10.59a10.62,10.62,0,0,0-5.2-.94,13.17,13.17,0,0,0-5.2,1.5l-23.2,13.47-1.53,1.54-.25,1.33-.21.47,4,24.66a.77.77,0,0,0,0,.15v0h0a3.59,3.59,0,0,0,1.89,2.26L292,249a10.46,10.46,0,0,0,9.44,0l20.74-12a3.48,3.48,0,0,0,1.93-2.46h0Z"/><path class="cls-19" d="M301.4,248.28a10.15,10.15,0,0,1-9.2,0l-13.9-8c-2.53-1.46-2.53-3.85,0-5.31l20.21-11.67a10.23,10.23,0,0,1,9.21,0l13.89,8c2.53,1.46,2.53,3.85,0,5.31Z"/><path class="cls-11" d="M307.47,235h-4.09a12.66,12.66,0,0,0-6.8,0h-4.1v.66h0a3.74,3.74,0,0,0,2.2,3.06,11.71,11.71,0,0,0,10.6,0,3.73,3.73,0,0,0,2.19-3.06h0Z"/><path class="cls-1" d="M305.28,238.05a11.71,11.71,0,0,1-10.6,0c-2.93-1.69-2.93-4.43,0-6.11a11.71,11.71,0,0,1,10.6,0C308.2,233.62,308.2,236.36,305.28,238.05Z"/><path class="cls-11" d="M306.51,230h-3.57a11,11,0,0,0-5.92,0h-3.57v4.78h0a3.26,3.26,0,0,0,1.91,2.67,10.21,10.21,0,0,0,9.23,0,3.25,3.25,0,0,0,1.92-2.67h0Z"/><path class="cls-10" d="M304.47,233.58l-.28.14V237l.28-.15Z"/><path class="cls-10" d="M303.85,233.88l-.28.11v3.24l.28-.12Z"/><path class="cls-10" d="M303.23,234.11l-.28.09v3.23l.28-.08Z"/><path class="cls-10" d="M295.76,233.72l-.27-.14v3.23l.27.15Z"/><path class="cls-10" d="M294.86,236.42l.28.19v-3.23l-.28-.2Z"/><path class="cls-10" d="M305.09,233.18l-.28.2v3.23l.28-.19Z"/><path class="cls-10" d="M301.36,234.52l-.28,0v3.23l.28,0Z"/><path class="cls-10" d="M306.06,235.45a2.86,2.86,0,0,0,.27-.52V231.7a3.23,3.23,0,0,1-.27.52Z"/><path class="cls-10" d="M300.46,237.83h.28v-3.24l-.28,0Z"/><path class="cls-10" d="M302,234.43l-.28,0v3.23l.28-.05Z"/><path class="cls-10" d="M302.6,234.29l-.28.07v3.23l.28-.06Z"/><path class="cls-10" d="M294.52,232.91l-.28-.27v3.24l.28.27Z"/><path class="cls-10" d="M296.39,234l-.28-.11v3.23l.28.12Z"/><path class="cls-10" d="M300.12,234.61h-.28v3.23h.28Z"/><path class="cls-10" d="M305.71,232.64a3.63,3.63,0,0,1-.28.27v3.24a3.63,3.63,0,0,0,.28-.27Z"/><path class="cls-10" d="M299.5,234.6l-.29,0v3.24h.29Z"/><path class="cls-10" d="M293.9,232.22a2.65,2.65,0,0,1-.28-.52v3.23a2.39,2.39,0,0,0,.28.52Z"/><path class="cls-10" d="M298.87,234.56l-.28,0v3.24l.28,0Z"/><path class="cls-10" d="M297,234.2l-.28-.09v3.24l.28.08Z"/><path class="cls-10" d="M297.63,234.36l-.28-.07v3.24l.28.06Z"/><path class="cls-10" d="M298.25,234.48l-.28,0v3.23l.28.05Z"/><path class="cls-1" d="M304.59,232.65a10.21,10.21,0,0,1-9.23,0c-2.55-1.48-2.55-3.86,0-5.33a10.15,10.15,0,0,1,9.23,0C307.14,228.79,307.14,231.17,304.59,232.65Z"/><path class="cls-11" d="M303.83,225.27h-2.11a6.46,6.46,0,0,0-3.49,0h-2.1V230h0a1.91,1.91,0,0,0,1.13,1.57,6,6,0,0,0,5.44,0,1.91,1.91,0,0,0,1.13-1.57h0Z"/><path class="cls-1" d="M302.7,226.84a6,6,0,0,1-5.44,0c-1.5-.86-1.5-2.27,0-3.14a6,6,0,0,1,5.44,0C304.2,224.57,304.2,226,302.7,226.84Z"/><path class="cls-10" d="M302.86,225.49a1.59,1.59,0,0,0-.82-1,4.53,4.53,0,0,0-4.12,0,1.57,1.57,0,0,0-.83,1c-.11-.5.16-1,.83-1.41a4.6,4.6,0,0,1,4.12,0A1.35,1.35,0,0,1,302.86,225.49Z"/><path class="cls-11" d="M302.86,225.49a1.56,1.56,0,0,1-.82,1,4.53,4.53,0,0,1-4.12,0,1.55,1.55,0,0,1-.83-1,1.57,1.57,0,0,1,.83-1,4.53,4.53,0,0,1,4.12,0A1.59,1.59,0,0,1,302.86,225.49Z"/><path class="cls-20" d="M302.84,195.61a10,10,0,0,1,4.93,1.17l17.93,10.35a2.61,2.61,0,0,1,0,5L302,225.81a11,11,0,0,1-9.85,0l-17.93-10.36a2.6,2.6,0,0,1,0-5l23.7-13.68a10,10,0,0,1,4.92-1.17Zm0-.6a10.8,10.8,0,0,0-5.22,1.24l-23.7,13.69c-2.88,1.66-2.88,4.37,0,6l17.93,10.36a11.63,11.63,0,0,0,10.45,0L326,212.64c2.88-1.66,2.88-4.37,0-6l-17.93-10.36a10.81,10.81,0,0,0-5.23-1.24Z"/><g class="cls-21"><path class="cls-22" d="M323.79,222.94l-21.68,12.52a10.59,10.59,0,0,1-9.56,0L276.15,226a3.5,3.5,0,0,1-1.95-2.46l2.3,14.37s0,.1,0,.15v0h0a3.51,3.51,0,0,0,1.84,2.19l13.88,8a10.25,10.25,0,0,0,9.19,0l20.18-11.65a3.4,3.4,0,0,0,1.88-2.4h0l2.21-13.57A3.69,3.69,0,0,1,323.79,222.94Z"/><path class="cls-23" d="M302.61,206.81a9.77,9.77,0,0,0-4.78,1.14l-21.68,12.52c-2.63,1.52-2.63,4,0,5.52l16.4,9.47a10.59,10.59,0,0,0,9.56,0l21.68-12.52c2.63-1.52,2.63-4,0-5.52L307.39,208a9.79,9.79,0,0,0-4.78-1.14Z"/></g><path class="cls-24" d="M328.78,209.64l-1.21,2.25-2.09,1.35-22.29,12.82a10.65,10.65,0,0,1-5.83,1.69,16,16,0,0,1-5.41-1.07l-19.2-11.17-1.07-1.31-.54-1.22,6.3,49.28h0a3.42,3.42,0,0,0,1.93,2.46l13,7.49a10.42,10.42,0,0,0,9.42,0l18.81-10.8a3.53,3.53,0,0,0,1.92-2.39h0Z"/><polygon class="cls-25" points="277.37 224.33 288.27 224.76 284.83 251.56 277.37 224.33"/><polygon class="cls-26" points="277.37 224.33 275.97 221.44 284.83 251.56 277.37 224.33"/><path class="cls-16" d="M328.16,209.62a3.66,3.66,0,0,1-2.16,3l-23.7,13.69a11.59,11.59,0,0,1-10.45,0l-9-5.18-9-5.18a3.66,3.66,0,0,1-2.16-3l-.62,0a4,4,0,0,0,2.34,3.24l3.15,1.82c-2.33,1.94.74,6.29.74,6.29s7.55,1.78,10.9.43l3.14,1.82a12.54,12.54,0,0,0,11.32,0l23.71-13.69a4,4,0,0,0,2.34-3.25Z"/><path class="cls-18" d="M277.06,218.44c-2.1,1.75.67,5.68.67,5.68s6.82,1.6,9.84.39Z"/><path class="cls-14" d="M328.66,208.12a5.41,5.41,0,0,0-2.07-2l0,0L308.65,195.8a12.76,12.76,0,0,0-11.62,0l-23.9,13.8h0a5.23,5.23,0,0,0-1.88,1.86l-.41-.13V213a4.27,4.27,0,0,0,2.49,3.5l17.94,10.35a12.74,12.74,0,0,0,11.61,0l23.71-13.68a4.28,4.28,0,0,0,2.49-3.51V208Z"/><path class="cls-20" d="M297.07,226.62a11.74,11.74,0,0,1-5.8-1.39l-17.94-10.36a4.27,4.27,0,0,1-2.49-3.49,4.1,4.1,0,0,1,2.29-3.44h0l23.9-13.8a12.84,12.84,0,0,1,11.62,0l17.89,10.33,0,0c1.61.93,2.5,2.19,2.49,3.54a4.27,4.27,0,0,1-2.49,3.51l-23.71,13.69A11.78,11.78,0,0,1,297.07,226.62Z"/><path class="cls-27" d="M297.57,223.36a10.39,10.39,0,0,1-5.14-1.23L276.57,213a3.75,3.75,0,0,1-2.19-3.09,3.61,3.61,0,0,1,2-3h0l21.13-12.2a11.33,11.33,0,0,1,10.27,0l15.82,9.13,0,0a3.31,3.31,0,0,1,0,6.24l-21,12.1A10.33,10.33,0,0,1,297.57,223.36Z"/><path class="cls-9" d="M315.78,201.91l0,0-3.81-2.2a10,10,0,0,0-9.13,0L284,210.54h0a3.47,3.47,0,0,0-1.75,2.21,3.6,3.6,0,0,0,1.91,2.3l3.84,2.22a10.1,10.1,0,0,0,9.13,0l18.63-10.75a2.35,2.35,0,0,0,0-4.61Z"/><path class="cls-14" d="M317.73,203.76a2.28,2.28,0,0,1,0,.45,3.63,3.63,0,0,0-1.91-2.3l0,0-3.81-2.2a10,10,0,0,0-9.13,0L284,210.54h0a3.47,3.47,0,0,0-1.75,2.21,2.3,2.3,0,0,1,0-.45,3.25,3.25,0,0,1,1.8-2.7h0l18.78-10.85a10.1,10.1,0,0,1,9.13,0l3.81,2.2,0,0A3.34,3.34,0,0,1,317.73,203.76Z"/><path class="cls-14" d="M314.74,203.24a1.33,1.33,0,0,0,.77-1.08v-2.4l-1.06.45-1.22-.7a4,4,0,0,0-3.59,0L291.5,210l-6.94,3v2.34l3.46,2a8.14,8.14,0,0,0,.89.43,3.6,3.6,0,0,0,1.52-.42Z"/><path class="cls-20" d="M288.63,215.31a3.62,3.62,0,0,1-1.79-.43l-1.51-.87a1.33,1.33,0,0,1-.77-1.08,1.3,1.3,0,0,1,.71-1.06h0l24.37-14.07a4,4,0,0,1,3.59,0l1.51.87a1.31,1.31,0,0,1,.77,1.09,1.32,1.32,0,0,1-.77,1.08l-24.31,14A3.63,3.63,0,0,1,288.63,215.31Z"/><path class="cls-2" d="M364.59,514.45c-5.6,3.24-14.68,3.24-20.28,0s-5.6-8.47,0-11.7,14.68-3.23,20.28,0S370.19,511.22,364.59,514.45Z"/><path class="cls-1" d="M363.85,450h-5.14a15.8,15.8,0,0,0-8.52,0h-5.14v50h0c0,1.39.92,2.78,2.75,3.84a14.7,14.7,0,0,0,13.3,0c1.83-1.06,2.75-2.45,2.75-3.84h0Z"/><path class="cls-11" d="M361.1,453.88a14.7,14.7,0,0,1-13.3,0c-3.67-2.12-3.67-5.56,0-7.68a14.73,14.73,0,0,1,13.3,0C364.77,448.32,364.77,451.76,361.1,453.88Z"/><path class="cls-28" d="M359.1,452.72a10.23,10.23,0,0,1-9.3,0c-2.56-1.48-2.56-3.88,0-5.36a10.29,10.29,0,0,1,9.3,0C361.66,448.84,361.66,451.24,359.1,452.72Z"/><path class="cls-29" d="M357.7,451.79l-.11-.07a7,7,0,0,0-6.28,0l-.1.07c-1.63-1-1.6-2.58.1-3.56a7,7,0,0,1,6.28,0C359.29,449.21,359.32,450.78,357.7,451.79Z"/><path class="cls-13" d="M357.7,451.79l-.11.06a7,7,0,0,1-6.28,0l-.1-.06.1-.07a7,7,0,0,1,6.28,0Z"/><path class="cls-30" d="M363.43,445.11a19.83,19.83,0,0,0-18,0c-2.48,1.43-3.72,3.31-3.72,5.19h0V499a12.71,12.71,0,1,0,25.41,0V450.3C367.16,448.42,365.91,446.54,363.43,445.11Z"/><path class="cls-1" d="M346.25,454.31V498.7a1.63,1.63,0,0,0,3.26,0V454.31Z"/><path class="cls-7" d="M366.39,450.86v48.26a11.94,11.94,0,1,1-23.88,0V450.86l-.89-.89v49.15a12.83,12.83,0,1,0,25.66,0V450Z"/><path class="cls-7" d="M354.45,443.45a17.57,17.57,0,0,1,8.63,2.05c2.14,1.23,3.31,2.82,3.31,4.47s-1.17,3.23-3.31,4.46a19.19,19.19,0,0,1-17.26,0c-2.13-1.23-3.31-2.82-3.31-4.46s1.18-3.24,3.31-4.47a17.59,17.59,0,0,1,8.63-2.05Zm0-.89a18.6,18.6,0,0,0-9.07,2.16c-5,2.9-5,7.59,0,10.48a20.06,20.06,0,0,0,18.15,0c5-2.89,5-7.58,0-10.48a18.64,18.64,0,0,0-9.08-2.16Z"/><path class="cls-9" d="M368.79,447.79H361a23.92,23.92,0,0,0-13,0h-7.84v3.85h0c0,2.12,1.41,4.24,4.2,5.85,5.6,3.23,14.68,3.23,20.28,0,2.8-1.61,4.2-3.73,4.2-5.85h0Z"/><path class="cls-20" d="M364.59,453.64c-5.6,3.23-14.68,3.23-20.28,0s-5.6-8.47,0-11.71,14.68-3.23,20.28,0S370.19,450.41,364.59,453.64Z"/><path class="cls-9" d="M349.61,431.9l-1.73,3a10.61,10.61,0,0,1-2.86,5l-1.73,3-6.42-3.71h0a3.14,3.14,0,0,1-1.31-2.89,9.87,9.87,0,0,1,4.47-7.74,3.14,3.14,0,0,1,3.16-.32h0Z"/><path class="cls-14" d="M346.45,432.22A9.85,9.85,0,0,0,342,440c0,2.85,2,4,4.47,2.58a9.87,9.87,0,0,0,4.47-7.74C350.92,432,348.92,430.79,346.45,432.22Z"/><path class="cls-31" d="M346.45,433.77a6.9,6.9,0,0,0-3.12,5.41c0,2,1.39,2.8,3.12,1.8a6.89,6.89,0,0,0,3.13-5.41C349.58,433.58,348.18,432.77,346.45,433.77Z"/><path class="cls-32" d="M346.52,434.9a.19.19,0,0,1,0,.08,4.68,4.68,0,0,1-2.11,3.66l-.08,0c0,1.28,1,1.79,2.11,1.13a4.65,4.65,0,0,0,2.11-3.65C348.56,434.84,347.66,434.29,346.52,434.9Z"/><path d="M346.52,434.9l-.07,0a4.67,4.67,0,0,0-2.11,3.65v.09l.08,0a4.68,4.68,0,0,0,2.11-3.66A.19.19,0,0,0,346.52,434.9Z"/><path class="cls-9" d="M367.28,435.58h-7a21.51,21.51,0,0,0-11.64,0h-7v11.66h0c0,1.9,1.25,3.79,3.76,5.24,5,2.89,13.13,2.89,18.15,0,2.5-1.45,3.75-3.34,3.75-5.24h0Z"/><path class="cls-20" d="M363.53,440.82c-5,2.89-13.14,2.89-18.15,0s-5-7.59,0-10.48,13.13-2.89,18.15,0S368.54,437.93,363.53,440.82Z"/><path class="cls-9" d="M365.71,430.46h-6.15a18.87,18.87,0,0,0-10.22,0h-6.15v4.45h0c0,1.66,1.1,3.33,3.3,4.6,4.4,2.53,11.53,2.53,15.92,0,2.2-1.27,3.3-2.94,3.3-4.6h0Z"/><path class="cls-20" d="M362.41,435.06c-4.39,2.54-11.52,2.54-15.92,0s-4.4-6.66,0-9.2,11.53-2.53,15.92,0S366.81,432.52,362.41,435.06Z"/><path class="cls-14" d="M361.49,431.52a4.46,4.46,0,0,0-1.89-1.9,11.38,11.38,0,0,0-10.29,0,4.35,4.35,0,0,0-1.89,1.9c-.64-1.39,0-2.94,1.89-4a11.38,11.38,0,0,1,10.29,0C361.49,428.58,362.12,430.13,361.49,431.52Z"/><path class="cls-9" d="M361.49,431.52a4.47,4.47,0,0,1-1.89,1.91,11.38,11.38,0,0,1-10.29,0,1.91,1.91,0,0,1,0-3.81,11.38,11.38,0,0,1,10.29,0A4.46,4.46,0,0,1,361.49,431.52Z"/><path class="cls-20" d="M373.11,445.47l-1.73,3a10.57,10.57,0,0,1-2.86,5l-1.73,3-6.43-3.71h0a3.17,3.17,0,0,1-1.3-2.9,9.88,9.88,0,0,1,4.47-7.74,3.12,3.12,0,0,1,3.15-.31h0Z"/><path class="cls-14" d="M370,445.78a9.88,9.88,0,0,0-4.47,7.74c0,2.85,2,4,4.47,2.58a9.87,9.87,0,0,0,4.47-7.74C374.42,445.51,372.42,444.36,370,445.78Z"/><path class="cls-33" d="M370,447.33a6.9,6.9,0,0,0-3.12,5.42c0,2,1.39,2.8,3.12,1.8a6.92,6.92,0,0,0,3.12-5.41C373.07,447.15,371.67,446.34,370,447.33Z"/><path class="cls-34" d="M370,448.46a.28.28,0,0,1,0,.09,4.66,4.66,0,0,1-2.12,3.65l-.07,0c0,1.29,1,1.8,2.11,1.14a4.65,4.65,0,0,0,2.11-3.66C372.06,448.4,371.16,447.86,370,448.46Z"/><path class="cls-13" d="M370,448.46l-.07.05a4.65,4.65,0,0,0-2.11,3.65v.08l.07,0a4.66,4.66,0,0,0,2.12-3.65A.28.28,0,0,0,370,448.46Z"/><polygon class="cls-2" points="718.03 280.21 672.94 254.19 685.25 247.08 730.35 273.1 718.03 280.21"/><path class="cls-9" d="M676,212a7.5,7.5,0,0,1-4.75-6.26,5.43,5.43,0,0,1,2-5.28c1.14-.75,3.19-1.26,6.48.61l-.51.9c-2.24-1.27-4.11-1.5-5.4-.64a4.44,4.44,0,0,0-1.54,4.3,6.49,6.49,0,0,0,4.08,5.4Z"/><path class="cls-35" d="M662.6,217.08l-.37.64a2.31,2.31,0,0,1-.61,1.06l-.37.64L657,217h0a.67.67,0,0,1-.28-.62,2.09,2.09,0,0,1,1-1.65.64.64,0,0,1,.67-.07h0Z"/><path class="cls-32" d="M661.92,217.15a2.08,2.08,0,0,0-.95,1.65c0,.61.42.85.95.55a2.09,2.09,0,0,0,1-1.65C662.88,217.09,662.45,216.84,661.92,217.15Z"/><path class="cls-31" d="M661.92,217.51a1.41,1.41,0,0,0-.63,1.11c0,.4.28.57.63.36a1.4,1.4,0,0,0,.64-1.1C662.56,217.47,662.28,217.31,661.92,217.51Z"/><path class="cls-32" d="M661.94,217.74v0a1,1,0,0,1-.43.75h0a.26.26,0,0,0,.43.23.93.93,0,0,0,.43-.74C662.35,217.73,662.17,217.62,661.94,217.74Z"/><path d="M661.94,217.74h0a1,1,0,0,0-.43.75h0a1,1,0,0,0,.43-.75Z"/><path class="cls-31" d="M660.36,214.35h-.6a1.92,1.92,0,0,0-1,0h-.6V216h0a.54.54,0,0,0,.32.45,1.74,1.74,0,0,0,1.57,0,.54.54,0,0,0,.32-.45h0Z"/><path class="cls-35" d="M660,214.8a1.74,1.74,0,0,1-1.57,0,.48.48,0,0,1,0-.9,1.74,1.74,0,0,1,1.57,0A.48.48,0,0,1,660,214.8Z"/><path class="cls-31" d="M659.8,214.67a1.23,1.23,0,0,1-1.09,0c-.3-.18-.3-.46,0-.63a1.17,1.17,0,0,1,1.09,0C660.1,214.21,660.1,214.49,659.8,214.67Z"/><path class="cls-32" d="M659.64,214.56h0a.81.81,0,0,0-.74,0h0a.22.22,0,0,1,0-.42.81.81,0,0,1,.74,0A.22.22,0,0,1,659.64,214.56Z"/><path d="M659.64,214.56h0a.87.87,0,0,1-.74,0h0a.81.81,0,0,1,.74,0Z"/><path class="cls-9" d="M664.63,194.27c-5.22,3.55-5.9,12.59-5.9,20.08h0a.28.28,0,0,0,.14.21h0a.87.87,0,0,0,.74,0h0a.28.28,0,0,0,.14-.21h0c0-7.23.61-15.94,5.43-19.22,2.53-1.71,6-1.7,10.42,0l.38-1C671.28,192.33,667.45,192.35,664.63,194.27Z"/><path class="cls-11" d="M695.05,223.47H690.8a13.06,13.06,0,0,0-7.07,0h-4.26v31h0a3.87,3.87,0,0,0,2.28,3.18,12.22,12.22,0,0,0,11,0,3.87,3.87,0,0,0,2.28-3.18h0Z"/><path class="cls-36" d="M692.43,239.18a12.29,12.29,0,0,1-10.34,0v9a12.37,12.37,0,0,0,10.34,0Z"/><path class="cls-23" d="M691.21,244.93a12.88,12.88,0,0,1-5.16.56v2.63a12.71,12.71,0,0,0,5.16-.57Z"/><path class="cls-10" d="M690.8,223.47a12.61,12.61,0,0,0-3.54-.49,12.44,12.44,0,0,0-3.53.49h-4.26v3.74a6,6,0,0,0,1.64,1.32,13.54,13.54,0,0,0,12.3,0,6,6,0,0,0,1.64-1.32v-3.74Z"/><path class="cls-20" d="M692.77,226.65a12.22,12.22,0,0,1-11,0c-3-1.76-3-4.61,0-6.36a12.16,12.16,0,0,1,11,0C695.81,222,695.81,224.89,692.77,226.65Z"/><polygon class="cls-10" points="693.8 258.41 693.46 258.6 693.3 258.12 693.11 258.01 693.11 227.4 692.77 226.72 693.11 226.53 693.8 226.93 693.8 258.41"/><polygon class="cls-1" points="693.46 258.6 692.24 257.9 692.77 257.62 692.77 226.72 693.46 227.12 693.46 258.6"/><polygon class="cls-1" points="680.72 258.41 681.06 258.6 681.22 258.12 681.41 258.01 681.41 227.4 681.75 226.72 681.41 226.53 680.72 226.93 680.72 258.41"/><polygon class="cls-10" points="681.06 258.6 682.28 257.9 681.75 257.62 681.75 226.72 681.06 227.12 681.06 258.6"/><path class="cls-11" d="M696,217.66h-4.75a14.52,14.52,0,0,0-7.9,0h-4.75v6.25h0c0,1.29.85,2.57,2.55,3.56a13.6,13.6,0,0,0,12.3,0c1.7-1,2.55-2.27,2.55-3.56h0Z"/><path class="cls-10" d="M696,219.18h-17.4v.25h0c0,1.29.85,2.58,2.55,3.56a13.6,13.6,0,0,0,12.3,0c1.7-1,2.55-2.27,2.55-3.56h0Z"/><path class="cls-1" d="M693.41,221.21a13.6,13.6,0,0,1-12.3,0c-3.4-2-3.4-5.14,0-7.1a13.54,13.54,0,0,1,12.3,0C696.81,216.07,696.81,219.25,693.41,221.21Z"/><path class="cls-11" d="M708.71,231.36h-4.25a13.06,13.06,0,0,0-7.07,0h-4.26v31h0a3.86,3.86,0,0,0,2.28,3.18,12.16,12.16,0,0,0,11,0,3.86,3.86,0,0,0,2.28-3.18h0Z"/><path class="cls-36" d="M706.09,247.08a12.29,12.29,0,0,1-10.34,0v9a12.29,12.29,0,0,0,10.34,0Z"/><path class="cls-37" d="M704.87,252.82a12.71,12.71,0,0,1-5.16.57V256a12.7,12.7,0,0,0,5.16-.56Z"/><path class="cls-10" d="M704.46,231.36a13.26,13.26,0,0,0-7.07,0h-4.26v3.75a6,6,0,0,0,1.64,1.32,13.62,13.62,0,0,0,12.31,0,6.14,6.14,0,0,0,1.63-1.32v-3.75Z"/><ellipse class="cls-20" cx="700.92" cy="231.36" rx="7.79" ry="4.5"/><polygon class="cls-10" points="707.46 266.31 707.12 266.5 706.96 266.02 706.77 265.91 706.77 235.3 706.43 234.62 706.77 234.43 707.46 234.83 707.46 266.31"/><polygon class="cls-1" points="707.12 266.5 705.9 265.79 706.43 265.51 706.43 234.62 707.12 235.02 707.12 266.5"/><polygon class="cls-1" points="694.38 266.31 694.72 266.5 694.88 266.02 695.07 265.91 695.07 235.3 695.41 234.62 695.07 234.43 694.38 234.83 694.38 266.31"/><polygon class="cls-10" points="694.72 266.5 695.94 265.79 695.41 265.51 695.41 234.62 694.72 235.02 694.72 266.5"/><path class="cls-11" d="M709.62,225.56h-4.75a14.49,14.49,0,0,0-7.89,0h-4.76v6.25h0c0,1.29.85,2.57,2.55,3.55a13.56,13.56,0,0,0,12.31,0c1.7-1,2.54-2.26,2.54-3.55h0Z"/><path class="cls-10" d="M709.62,227.07h-17.4v.26h0c0,1.29.85,2.57,2.55,3.55a13.56,13.56,0,0,0,12.31,0c1.7-1,2.54-2.26,2.54-3.55h0Z"/><path class="cls-1" d="M707.08,229.11a13.62,13.62,0,0,1-12.31,0c-3.4-2-3.4-5.14,0-7.11a13.62,13.62,0,0,1,12.31,0C710.47,224,710.47,227.15,707.08,229.11Z"/><path class="cls-11" d="M722.36,239.24h-4.25a13.06,13.06,0,0,0-7.07,0h-4.26v31h0a3.84,3.84,0,0,0,2.29,3.17,12.14,12.14,0,0,0,11,0,3.85,3.85,0,0,0,2.28-3.17h0Z"/><path class="cls-36" d="M719.74,255a12.29,12.29,0,0,1-10.34,0v9a12.29,12.29,0,0,0,10.34,0Z"/><path class="cls-38" d="M718.52,260.71a12.84,12.84,0,0,1-5.16.56v2.63a12.84,12.84,0,0,0,5.16-.57Z"/><path class="cls-10" d="M718.11,239.24a13.26,13.26,0,0,0-7.07,0h-4.26V243a6,6,0,0,0,1.64,1.32,13.59,13.59,0,0,0,12.31,0,6,6,0,0,0,1.63-1.32v-3.75Z"/><path class="cls-20" d="M720.08,242.42a12.14,12.14,0,0,1-11,0c-3.05-1.75-3.05-4.6,0-6.36a12.2,12.2,0,0,1,11,0C723.12,237.82,723.12,240.67,720.08,242.42Z"/><polygon class="cls-10" points="721.12 274.19 720.77 274.38 720.62 273.9 720.43 273.8 720.43 243.18 720.08 242.5 720.43 242.31 721.12 242.71 721.12 274.19"/><polygon class="cls-1" points="720.77 274.38 719.55 273.68 720.08 273.39 720.08 242.5 720.77 242.9 720.77 274.38"/><polygon class="cls-1" points="708.03 274.19 708.38 274.38 708.53 273.9 708.72 273.8 708.72 243.18 709.07 242.5 708.72 242.31 708.03 242.71 708.03 274.19"/><polygon class="cls-10" points="708.38 274.38 709.6 273.68 709.07 273.39 709.07 242.5 708.38 242.9 708.38 274.38"/><path class="cls-11" d="M723.28,233.44h-4.76a14.49,14.49,0,0,0-7.89,0h-4.76v6.25h0c0,1.29.85,2.57,2.55,3.56a13.62,13.62,0,0,0,12.31,0c1.7-1,2.55-2.27,2.55-3.56h0Z"/><path class="cls-10" d="M723.28,235H705.87v.25h0c0,1.29.85,2.57,2.55,3.56a13.62,13.62,0,0,0,12.31,0c1.7-1,2.55-2.27,2.55-3.56h0Z"/><path class="cls-1" d="M720.73,237a13.62,13.62,0,0,1-12.31,0c-3.4-2-3.4-5.14,0-7.11a13.62,13.62,0,0,1,12.31,0C724.13,231.85,724.13,235,720.73,237Z"/><polygon class="cls-1" points="718.03 237.41 672.94 211.39 685.25 204.28 730.35 230.31 718.03 237.41"/><polygon class="cls-39" points="683.08 205.54 675.13 210.13 720.23 236.15 728.17 231.56 683.08 205.54"/><polygon class="cls-11" points="718.03 242.5 672.94 216.48 672.94 211.39 718.03 237.41 718.03 242.5"/><path class="cls-20" d="M718,242.5l-45.09-26v-5.09c6.9,12.34,36,19,45.09,29.42Z"/><polygon class="cls-10" points="718.03 242.5 730.35 235.39 730.35 230.31 718.03 237.41 718.03 242.5"/><path class="cls-11" d="M687.43,197.51l-1.93,3.35a11.88,11.88,0,0,1-3.2,5.55l-1.94,3.34-3.53-2h0a3.49,3.49,0,0,1-1.46-3.23,11,11,0,0,1,5-8.66,3.52,3.52,0,0,1,3.54-.35h0Z"/><path class="cls-10" d="M683.9,197.86a11,11,0,0,0-5,8.66c0,3.18,2.24,4.47,5,2.88a11,11,0,0,0,5-8.65C688.9,197.56,686.66,196.27,683.9,197.86Z"/><polygon class="cls-1" points="685.64 212.28 683.46 211.03 692.89 205.58 695.08 206.83 685.64 212.28"/><polygon class="cls-11" points="685.64 216.18 683.46 214.92 683.46 211.03 685.64 212.28 685.64 216.18"/><polygon class="cls-10" points="685.64 216.18 695.08 210.73 695.08 206.83 685.64 212.28 685.64 216.18"/><polygon class="cls-1" points="706.59 224.38 704.4 223.12 713.84 217.67 716.02 218.93 706.59 224.38"/><polygon class="cls-11" points="706.59 228.27 704.4 227.01 704.4 223.12 706.59 224.38 706.59 228.27"/><polygon class="cls-10" points="706.59 228.27 716.02 222.82 716.02 218.93 706.59 224.38 706.59 228.27"/><path class="cls-11" d="M718.56,216l-1.81,3.13a11,11,0,0,1-3,5.19L712,227.46l-31.13-18h0a3.27,3.27,0,0,1-1.37-3,10.32,10.32,0,0,1,4.67-8.09,3.28,3.28,0,0,1,3.31-.33h0Z"/><path class="cls-10" d="M716.75,219.14a10.82,10.82,0,0,1-1.13,2.8,11,11,0,0,1-1.86,2.39L712,227.46l-3.61-2.09a5.58,5.58,0,0,1-.18-1.47,12,12,0,0,1,5.43-9.39,5.72,5.72,0,0,1,1.35-.58l3.62,2.08Z"/><path class="cls-20" d="M715.26,216.34a10.33,10.33,0,0,0-4.68,8.09c0,3,2.1,4.19,4.68,2.7a10.32,10.32,0,0,0,4.67-8.09C719.93,216.06,717.84,214.85,715.26,216.34Z"/><path class="cls-11" d="M724.54,218.24l-2.09,3.63a12.93,12.93,0,0,1-3.48,6l-2.1,3.63L710.75,228h0a3.82,3.82,0,0,1-1.59-3.51,12,12,0,0,1,5.42-9.39,3.8,3.8,0,0,1,3.84-.38h0Z"/><path class="cls-10" d="M720.71,218.62a12,12,0,0,0-5.42,9.39c0,3.46,2.42,4.86,5.42,3.13a12,12,0,0,0,5.42-9.39C726.13,218.29,723.7,216.89,720.71,218.62Z"/><path class="cls-11" d="M725.85,221.7l-1.46,2.52a9,9,0,0,1-2.41,4.19l-1.46,2.52-2.19-1.27h0a2.63,2.63,0,0,1-1.11-2.44A8.32,8.32,0,0,1,721,220.7a2.65,2.65,0,0,1,2.66-.27h0Z"/><path class="cls-10" d="M723.18,222a8.34,8.34,0,0,0-3.77,6.53c0,2.4,1.69,3.37,3.77,2.17a8.32,8.32,0,0,0,3.77-6.52C727,221.73,725.26,220.76,723.18,222Z"/><path class="cls-9" d="M723.18,225a2.6,2.6,0,0,0-1.18,2c0,.76.53,1.06,1.18.69a2.64,2.64,0,0,0,1.19-2.05C724.37,224.88,723.83,224.57,723.18,225Z"/><path class="cls-11" d="M726.62,226.6l-.41.7a2.47,2.47,0,0,1-.66,1.15l-.4.69-2.68-1.55h0a.71.71,0,0,1-.3-.67,2.27,2.27,0,0,1,1-1.79.73.73,0,0,1,.73-.08h0Z"/><path class="cls-10" d="M725.88,226.67a2.31,2.31,0,0,0-1,1.8c0,.66.47.93,1,.6a2.31,2.31,0,0,0,1-1.8C726.92,226.61,726.45,226.34,725.88,226.67Z"/><path class="cls-31" d="M725.88,227a1.61,1.61,0,0,0-.72,1.26c0,.46.32.65.72.42a1.6,1.6,0,0,0,.73-1.26C726.61,227,726.28,226.8,725.88,227Z"/><path class="cls-32" d="M725.9,227.3h0a1.07,1.07,0,0,1-.49.85h0a.3.3,0,0,0,.49.27,1.1,1.1,0,0,0,.49-.85C726.37,227.28,726.16,227.15,725.9,227.3Z"/><path d="M725.9,227.3h0a1.1,1.1,0,0,0-.49.85v0h0a1.07,1.07,0,0,0,.49-.85Z"/><path class="cls-1" d="M682,191.83l-1.49,2.57a9,9,0,0,1-2.46,4.28l-1.49,2.58-2.72-1.57h0a2.72,2.72,0,0,1-1.13-2.5,8.51,8.51,0,0,1,3.85-6.67,2.69,2.69,0,0,1,2.72-.26h0Z"/><path class="cls-10" d="M679.24,192.1a8.48,8.48,0,0,0-3.85,6.66c0,2.46,1.72,3.46,3.85,2.23a8.51,8.51,0,0,0,3.85-6.67C683.09,191.86,681.37,190.87,679.24,192.1Z"/><path class="cls-1" d="M708.9,207.79l-1.39,2.41a8.6,8.6,0,0,1-2.31,4l-1.39,2.4-26.94-15.55h0a2.53,2.53,0,0,1-1-2.33,8,8,0,0,1,3.6-6.23,2.5,2.5,0,0,1,2.54-.25h0Z"/><path class="cls-10" d="M707.51,210.2a8.33,8.33,0,0,1-.88,2.16,9,9,0,0,1-1.43,1.84l-1.39,2.4L701,215a5,5,0,0,1-.13-1.14,9.22,9.22,0,0,1,4.18-7.23,4.37,4.37,0,0,1,1-.45l2.79,1.61Z"/><path class="cls-20" d="M706.35,208a8,8,0,0,0-3.6,6.23c0,2.3,1.62,3.23,3.6,2.08a8,8,0,0,0,3.6-6.23C710,207.82,708.34,206.89,706.35,208Z"/><path class="cls-1" d="M713.51,209.5l-1.62,2.8a9.86,9.86,0,0,1-2.68,4.64l-1.61,2.8L702.88,217h0a2.93,2.93,0,0,1-1.22-2.7,9.24,9.24,0,0,1,4.18-7.24,2.93,2.93,0,0,1,2.95-.29h0Z"/><path class="cls-10" d="M710.55,209.8a9.21,9.21,0,0,0-4.17,7.23c0,2.67,1.87,3.74,4.17,2.41a9.22,9.22,0,0,0,4.18-7.23C714.73,209.55,712.86,208.47,710.55,209.8Z"/><path class="cls-1" d="M714.51,212.17l-1.12,1.94a6.9,6.9,0,0,1-1.86,3.22l-1.12,1.94-1.69-1h0a2,2,0,0,1-.85-1.88,6.4,6.4,0,0,1,2.9-5,2,2,0,0,1,2.05-.21h0Z"/><path class="cls-10" d="M712.46,212.37a6.41,6.41,0,0,0-2.9,5c0,1.85,1.29,2.6,2.9,1.67a6.4,6.4,0,0,0,2.9-5C715.36,212.19,714.06,211.45,712.46,212.37Z"/><path class="cls-9" d="M712.46,214.38a2.63,2.63,0,0,0-1.18,2.05c0,.75.53,1.06,1.18.68a2.6,2.6,0,0,0,1.18-2C713.64,214.31,713.11,214,712.46,214.38Z"/><path class="cls-1" d="M715.89,216l-.4.69a2.47,2.47,0,0,1-.66,1.15l-.4.7L711.75,217h0a.72.72,0,0,1-.3-.67,2.3,2.3,0,0,1,1-1.8.75.75,0,0,1,.74-.07h0Z"/><path class="cls-10" d="M715.16,216.11a2.29,2.29,0,0,0-1,1.79c0,.67.47.94,1,.6a2.29,2.29,0,0,0,1-1.79C716.2,216.05,715.73,215.78,715.16,216.11Z"/><path class="cls-31" d="M715.16,216.47a1.6,1.6,0,0,0-.73,1.26c0,.46.33.65.73.41a1.59,1.59,0,0,0,.72-1.25C715.88,216.43,715.56,216.24,715.16,216.47Z"/><path class="cls-32" d="M715.18,216.73v0a1.1,1.1,0,0,1-.49.85h0c0,.3.22.42.49.26a1.07,1.07,0,0,0,.49-.85C715.65,216.72,715.44,216.59,715.18,216.73Z"/><path d="M715.18,216.73h0a1.1,1.1,0,0,0-.49.85v0h0a1.1,1.1,0,0,0,.49-.85Z"/><path class="cls-9" d="M727.51,220.19c-2.41-1.8-4.94-2-7.18-2.1-1.89-.11-3.52-.29-4.76-1.33a.29.29,0,0,0-.39,0h0a1.1,1.1,0,0,0-.49.85v0a.4.4,0,0,0,.11.27h0c1.55,1.31,3.45,1.33,5.48,1.46s4.4.27,6.5,1.85c1.43,1.08,2.33,3.28,1.88,4.62-.32,1-1,1.43-2.53,1.43h0a.42.42,0,0,0-.21.06h0a1.1,1.1,0,0,0-.49.85v0c0,.2.11.32.26.33h.05c2.76,0,3.84-1.45,4.12-2.3C730.5,224.16,729.17,221.45,727.51,220.19Z"/><path class="cls-5" d="M520,107.68a24.56,24.56,0,0,1-12.14-2.92c-3.42-2-5.3-4.65-5.3-7.53s1.88-5.55,5.3-7.54a26.82,26.82,0,0,1,24.3,0c3.41,2,5.3,4.64,5.3,7.52s-1.89,5.57-5.3,7.53A24.63,24.63,0,0,1,520,107.68Z"/><polygon class="cls-6" points="504.44 63.18 507.93 58.63 512.93 56.38 519.11 55.48 523.67 55.48 527.49 56.94 530.8 58.12 534.29 60.99 535.75 64.19 535.75 97.68 532.59 102.36 526.92 105.28 520.8 106.01 514.95 105.61 510.9 104.61 507.65 102.53 505.68 100.5 504.44 97.68 504.44 63.18"/><path class="cls-14" d="M520,103.74a19.27,19.27,0,0,1-9.34-2.22c-2.63-1.52-4.08-3.59-4.08-5.81V75.1h26.86V95.71c0,2.22-1.45,4.29-4.08,5.81A19.33,19.33,0,0,1,520,103.74Z"/><path class="cls-20" d="M520,83.15a19,19,0,0,1-9.34-2.25c-2.63-1.51-4.08-3.57-4.08-5.8s1.45-4.28,4.08-5.78a20.47,20.47,0,0,1,18.7,0c2.63,1.5,4.08,3.56,4.08,5.78s-1.45,4.29-4.08,5.8A19,19,0,0,1,520,83.15Z"/><polygon class="cls-40" points="514.37 105 509.88 103.29 509.88 72.03 514.37 73.3 514.37 105"/><polygon class="cls-41" points="525.24 105.61 532.59 102.15 532.59 69.93 525.24 73.3 525.24 105.61"/><path class="cls-9" d="M536.43,64.45c0-2.7-1.77-5.21-5-7.06a25.25,25.25,0,0,0-22.88,0c-3.2,1.85-5,4.36-5,7.06V96.84c0,2.71,1.78,5.22,5,7.09a25.31,25.31,0,0,0,22.87,0c3.21-1.87,5-4.38,5-7.09V64.45Zm-31.17,0c0-2.08,1.48-4.08,4.15-5.62a23.49,23.49,0,0,1,21.21,0c2.69,1.54,4.15,3.54,4.15,5.62s-1.46,4.12-4.15,5.65a23.49,23.49,0,0,1-21.21,0c-2.67-1.53-4.15-3.54-4.15-5.63v0Zm29.51,32.39c0,2.09-1.46,4.1-4.15,5.64-5.85,3.38-15.36,3.38-21.21,0-2.67-1.54-4.15-3.55-4.15-5.64v-28a12,12,0,0,0,3.32,2.75,25.23,25.23,0,0,0,22.87,0,11.72,11.72,0,0,0,3.32-2.75Z"/><path class="cls-5" d="M466.3,126c-3.88-2.24-6-5.26-6-8.53s2.14-6.32,6-8.57a30.57,30.57,0,0,1,27.59,0c3.86,2.25,6,5.3,6,8.57s-2.13,6.29-6,8.53a30.4,30.4,0,0,1-27.59,0Z"/><path class="cls-6" d="M472,85.71V65.51l2.81-8.2h9.55l2.79,8.2v20.2a19.65,19.65,0,1,1-15.15,0Z"/><path class="cls-7" d="M496,103.85a16.36,16.36,0,0,1-32.71,0Z"/><path class="cls-8" d="M468.09,110.5c6.38,3.67,16.71,3.67,23.08,0s6.38-9.64,0-13.33-16.7-3.66-23.08,0S461.7,106.84,468.09,110.5Z"/><path class="cls-40" d="M479,64.8V89.06s-11.58,5.64-11.58,16.15c0,9.61,4.89,12.86,12.2,15-9.63,0-16.37-7-16.37-16.64,0-7.39,5.46-12.4,12.42-14.86l1.12-.38V64.8Z"/><path class="cls-9" d="M471.59,84.39V62.55h3V85.47l-1.2.42a18.84,18.84,0,1,0,12.49,0l-1.2-.42V62.55h3V84.39a20.77,20.77,0,1,1-16,0Z"/><path class="cls-20" d="M472.47,64.58a15.78,15.78,0,0,0,14.29,0c3.92-2.26,3.92-5.94,0-8.23a15.84,15.84,0,0,0-14.29,0C468.53,58.64,468.53,62.32,472.47,64.58Zm3.64-8.06a7.75,7.75,0,0,1,7.05,0c1.95,1.12,1.95,2.93,0,4.07a7.94,7.94,0,0,1-7.05,0C474.17,59.45,474.17,57.64,476.11,56.52Z"/><path class="cls-2" d="M489.09,92c3.41,2.52,6.87,6.35,6.87,11.56,0,9.63-6.73,16.64-16.34,16.64,7.27-2.12,12.17-5.37,12.17-15,0-5.59-3.27-9.8-6.34-12.5C484.13,91.53,486.35,90,489.09,92Z"/><path class="cls-14" d="M483.68,60.23a4.72,4.72,0,0,0-.52-.35,7.69,7.69,0,0,0-7.05,0,3.37,3.37,0,0,0-.52.35c-1.4-1.13-1.25-2.72.52-3.71a7.75,7.75,0,0,1,7.05,0C484.92,57.51,485.09,59.1,483.68,60.23Z"/></svg>