<svg xmlns="http://www.w3.org/2000/svg" xmlns:xlink="http://www.w3.org/1999/xlink" viewBox="0 0 1000.66 566.93"><defs><style>.cls-1,.cls-12,.cls-17,.cls-27,.cls-63,.cls-64,.cls-65,.cls-77{fill:none;}.cls-2{isolation:isolate;}.cls-3{fill:#cdd5ee;}.cls-4{fill:#e6ecf7;}.cls-5{fill:#81c4fa;}.cls-6{fill:#fff;}.cls-7{fill:#ffa85b;}.cls-8{fill:#e39478;}.cls-9{fill:#a7b6d9;}.cls-10,.cls-67{opacity:0.45;}.cls-11{fill:#84abe0;}.cls-12,.cls-18,.cls-63,.cls-64,.cls-65,.cls-77{stroke:#fff;}.cls-12,.cls-17,.cls-18,.cls-27{stroke-miterlimit:10;}.cls-12,.cls-17,.cls-18{stroke-width:0.82px;opacity:0.19;}.cls-13{fill:#cfe6f9;}.cls-14{fill:#7897d2;}.cls-15{fill:#476a9d;}.cls-16{fill:#537fb1;}.cls-17{stroke:#daeef7;}.cls-18{fill:#56a4f1;}.cls-19{clip-path:url(#clip-path);}.cls-20{fill:#bccdeb;}.cls-21{fill:#3b1977;opacity:0.38;mix-blend-mode:screen;}.cls-22{fill:#88a0cb;}.cls-23{fill:#748fb7;}.cls-24{fill:#6786be;}.cls-25{fill:#82a2d5;}.cls-26{clip-path:url(#clip-path-2);}.cls-27{stroke:#dfe6f3;}.cls-28{fill:#dfe6f4;}.cls-29{fill:#dae4ed;}.cls-30{fill:#1d2c4c;}.cls-31{fill:#ff9c6e;}.cls-32{fill:#54abf7;}.cls-33{fill:#309be4;}.cls-34{fill:#ff8051;}.cls-35{fill:#996e60;}.cls-36{fill:#007fd1;}.cls-37{fill:#334d74;}.cls-38{fill:#cb684e;}.cls-39{fill:#8a7e7c;}.cls-40{fill:#b2a19f;}.cls-41{fill:#e2e8f4;}.cls-42{fill:#52ab49;}.cls-43{fill:#6dcc63;}.cls-44{fill:#2b751d;}.cls-45{fill:#35832b;}.cls-46{fill:#bb8e4f;}.cls-47{clip-path:url(#clip-path-3);}.cls-48{fill:#15183c;}.cls-49{fill:#469d3d;}.cls-50{fill:#b5d3e3;opacity:0.5;}.cls-50,.cls-78{mix-blend-mode:multiply;}.cls-51{fill:#101621;}.cls-52{fill:#4e4e69;}.cls-53{fill:#7686e1;}.cls-54{fill:#7b3636;}.cls-55{fill:#ca7b61;}.cls-56{fill:#a25640;}.cls-57{fill:#4f6bc4;}.cls-58{fill:#90a1c6;}.cls-59{fill:#521f1f;}.cls-60{fill:#93442c;}.cls-61{fill:#e2e4e5;}.cls-62{fill:#2a2b43;}.cls-63,.cls-64,.cls-65,.cls-77{stroke-linecap:round;stroke-linejoin:round;}.cls-63{stroke-width:0.86px;}.cls-64{stroke-width:0.83px;}.cls-65{stroke-width:0.75px;}.cls-66{fill:#ff8980;}.cls-67,.cls-71{fill:#f2966d;}.cls-68{fill:#ffccaf;}.cls-69{fill:#d16857;}.cls-70{fill:#f9f5ec;}.cls-72{fill:#3d3d3d;}.cls-73{fill:#1e2b43;}.cls-74{fill:#ff8876;}.cls-75{fill:#f8f4eb;}.cls-76{fill:#d26759;}.cls-77{stroke-width:0.87px;}.cls-78{fill:#f2f2f2;}.cls-79{fill:#354f81;}.cls-80{fill:#c4c8d4;}.cls-81{fill:#2d384f;}</style><clipPath id="clip-path"><rect class="cls-1" x="2.05" y="-21.56" width="249.15" height="532.31"/></clipPath><clipPath id="clip-path-2"><rect class="cls-1" x="2.05" y="465.68" width="998.62" height="178.5"/></clipPath><clipPath id="clip-path-3"><path class="cls-1" d="M582.6,324.39H560.94l4.77-56.54a2.29,2.29,0,0,1,2.28-2.09h8.47a2.29,2.29,0,0,1,2.29,2.13Z"/></clipPath></defs><title>Artboard 14</title><g class="cls-2"><g id="Layer_1" data-name="Layer 1"><rect class="cls-3" x="653.21" y="102.44" width="94.72" height="120.09"/><rect class="cls-4" x="659.86" y="110.86" width="81.43" height="103.24"/><rect class="cls-3" x="853.46" y="102.44" width="147.21" height="159.36"/><rect class="cls-4" x="860.1" y="110.86" width="140.56" height="142.51"/><rect class="cls-3" x="759.68" y="102.44" width="50.68" height="52.18"/><rect class="cls-4" x="764.96" y="107.87" width="40.12" height="41.31"/><rect class="cls-3" x="760.26" y="160.74" width="62.87" height="75.09"/><rect class="cls-4" x="765.89" y="167.47" width="51.6" height="61.63"/><rect class="cls-3" x="665.81" y="119.32" width="22.86" height="20.2"/><rect class="cls-3" x="665.81" y="171.41" width="5.86" height="5.18"/><rect class="cls-3" x="673.99" y="171.41" width="62.75" height="5.18"/><rect class="cls-3" x="665.81" y="180.22" width="5.86" height="5.18"/><rect class="cls-3" x="673.99" y="180.22" width="62.75" height="5.18"/><rect class="cls-3" x="665.81" y="189.02" width="5.86" height="5.18"/><rect class="cls-3" x="673.99" y="189.02" width="62.75" height="5.18"/><rect class="cls-3" x="665.81" y="197.83" width="5.86" height="5.18"/><rect class="cls-3" x="673.99" y="197.83" width="62.75" height="5.18"/><rect class="cls-3" x="665.81" y="147.22" width="37.36" height="20.2"/><rect class="cls-3" x="707.19" y="147.22" width="29.59" height="20.2"/><rect class="cls-3" x="691.8" y="119.32" width="46.3" height="2.92"/><rect class="cls-3" x="691.8" y="124.17" width="46.3" height="2.92"/><rect class="cls-3" x="691.8" y="129.02" width="28.72" height="2.92"/><rect class="cls-3" x="691.8" y="133.87" width="28.72" height="2.92"/><rect class="cls-3" x="771.15" y="173.82" width="18.23" height="16.11"/><rect class="cls-3" x="791.88" y="173.82" width="20.7" height="2.33"/><rect class="cls-3" x="791.88" y="177.69" width="20.7" height="2.33"/><rect class="cls-3" x="791.88" y="181.56" width="12.84" height="2.33"/><rect class="cls-3" x="791.88" y="185.43" width="12.84" height="2.33"/><rect class="cls-3" x="771.15" y="194.76" width="18.23" height="16.11"/><rect class="cls-3" x="771.15" y="214.11" width="41.8" height="10.39"/><rect class="cls-3" x="791.88" y="194.76" width="20.7" height="2.33"/><rect class="cls-3" x="791.88" y="198.63" width="20.7" height="2.33"/><rect class="cls-3" x="791.88" y="202.49" width="12.84" height="2.33"/><rect class="cls-3" x="791.88" y="206.36" width="12.84" height="2.33"/><rect class="cls-3" x="780.72" y="111.6" width="8.6" height="8.6"/><rect class="cls-3" x="769.34" y="124.82" width="6.29" height="6.29"/><rect class="cls-3" x="781.54" y="124.82" width="6.29" height="6.29"/><rect class="cls-3" x="794.41" y="124.82" width="6.29" height="6.29"/><rect class="cls-3" x="769.34" y="136.68" width="6.29" height="6.29"/><rect class="cls-3" x="781.54" y="136.68" width="6.29" height="6.29"/><rect class="cls-3" x="794.41" y="136.68" width="6.29" height="6.29"/><path class="cls-3" d="M784.38,120.12q0,1.26.06,2.52a12.61,12.61,0,0,0,.29,2.45.17.17,0,0,0,.33,0c0-.81-.13-1.64-.22-2.45s-.16-1.64-.19-2.47c0-.17-.28-.17-.27,0Z"/><path class="cls-3" d="M773.24,125.52a1.92,1.92,0,0,1,.82-2.78,10,10,0,0,1,3.85-.61c2.6-.06,5.22.06,7.82.11l7.93.12a4.18,4.18,0,0,1,2,.22,1.66,1.66,0,0,1,.75,1.18,8.49,8.49,0,0,0,.51,2.45c.1.19.34.05.32-.14-.18-1.28-.08-3.4-1.5-4a8.33,8.33,0,0,0-3-.24l-3.6-.07-7.43-.12a27,27,0,0,0-6.84.32,2.87,2.87,0,0,0-2.16,1.55,2.42,2.42,0,0,0,.21,2.26c.16.24.55,0,.39-.23Z"/><path class="cls-3" d="M772.08,130.57c0,1.27,0,2.53.1,3.8a24,24,0,0,0,.32,3.69.18.18,0,0,0,.35-.05c0-.63-.06-1.27-.1-1.89s-.08-1.22-.11-1.83c-.06-1.24-.09-2.48-.1-3.72a.23.23,0,0,0-.46,0Z"/><path class="cls-3" d="M772.4,133.6a35.72,35.72,0,0,1,7.31-.06c1,.11,2.16.26,2.73,1.16s.37,1.94.79,2.84a.23.23,0,0,0,.43-.12,7.1,7.1,0,0,0-.79-3.07,3.43,3.43,0,0,0-2.48-1.23,26.37,26.37,0,0,0-8,.14c-.19,0-.15.36,0,.34Z"/><path class="cls-3" d="M797.71,130.45c-.1,1.22-.19,2.44-.25,3.67,0,.61-.05,1.22-.06,1.84a12.94,12.94,0,0,0,.05,1.76c0,.23.43.22.46,0A14.81,14.81,0,0,0,798,136c0-.62,0-1.23,0-1.84,0-1.23.09-2.45.17-3.67,0-.32-.47-.32-.5,0Z"/><rect class="cls-5" x="917.83" y="140.7" width="25.86" height="23.55" transform="translate(-12.39 158.63) rotate(-9.68)"/><rect class="cls-6" x="966.18" y="195.78" width="21.7" height="20.32" transform="translate(63.13 -196.3) rotate(11.85)"/><rect class="cls-6" x="878.33" y="124.54" width="21.7" height="20.32"/><rect class="cls-7" x="921.37" y="179.15" width="29.09" height="18.47" transform="translate(70.56 -214.83) rotate(13.6)"/><rect class="cls-8" x="958.93" y="125.92" width="20.32" height="20.78"/><path class="cls-7" d="M891.28,124.7a2.13,2.13,0,1,1-2.13-2.13A2.12,2.12,0,0,1,891.28,124.7Z"/><path class="cls-3" d="M781.41,130.85a0,0,0,0,0,0-.08,0,0,0,0,0,0,.08Z"/><path class="cls-3" d="M935.56,60.44H566.69l3.1-7.06a44.82,44.82,0,0,1,41-26.74H890.24a44.79,44.79,0,0,1,38.91,22.59Z"/><rect class="cls-3" x="624.68" y="-21.56" width="4.09" height="49.6"/><rect class="cls-3" x="873.48" y="-21.56" width="4.09" height="49.6"/><rect class="cls-9" x="2.05" y="444.74" width="479.28" height="25.24"/><g class="cls-10"><polygon class="cls-9" points="214.07 469.98 358.54 469.98 450.31 469.98 450.31 17.4 214.07 17.4 214.07 469.98"/></g><polygon class="cls-11" points="231.32 469.98 357.91 469.98 438.32 469.98 438.32 30.48 231.32 30.48 231.32 469.98"/><path class="cls-11" d="M440.35,467.4V48.22c0-5.66.11-11.34,0-17v-.75a2.06,2.06,0,0,0-2-2H256.84c-8.36,0-16.81-.35-25.17,0h-.35a2.06,2.06,0,0,0-2,2V449.67c0,5.66-.11,11.33,0,17v.74c0,2.62,4.07,2.63,4.07,0V48.22c0-5.61.41-11.4,0-17,0-.25,0-.5,0-.75l-2,2H429.87c2.56,0,5.56.43,8.1,0a2,2,0,0,1,.35,0l-2-2V449.67c0,5.66-.11,11.33,0,17,0,.25,0,.5,0,.74,0,2.62,4.07,2.63,4.07,0Z"/><rect class="cls-12" x="231.32" y="30.48" width="207" height="439.5" transform="translate(669.64 500.46) rotate(180)"/><rect class="cls-13" x="253.07" y="52.43" width="165.52" height="416.81" transform="translate(671.65 521.67) rotate(180)"/><rect class="cls-14" x="253.07" y="52.43" width="9.06" height="416.81"/><polygon class="cls-15" points="262.7 54.47 378.75 65.24 378.75 459.02 262.7 467.2 262.7 54.47"/><path class="cls-16" d="M363.61,90.47l-26.7-3.4-42.18-5.36-9.8-1.24c-.33,0-.62.32-.62.62V417c0,4.54-.07,9.08,0,13.62v.59a.63.63,0,0,0,.62.63l26.63-1.16L354,428.8l9.66-.42a.63.63,0,0,0,.63-.62v-323c0-4.36.07-8.73,0-13.1v-.55a.63.63,0,0,0-1.25,0V422.67a34.39,34.39,0,0,0,0,4.54,5,5,0,0,1,0,.55l.62-.63L337,428.29l-42.39,1.84-9.67.42.63.62V86.37a40.59,40.59,0,0,0,0-4.68,4,4,0,0,1,0-.6l-.63.63,26.7,3.39,42.19,5.36,9.79,1.25C364.41,91.82,364.4,90.57,363.61,90.47Z"/><polygon class="cls-16" points="352.84 107.86 299.94 102.91 299.94 177.55 352.84 176.85 352.84 107.86"/><line class="cls-17" x1="438.32" y1="30.48" x2="418.58" y2="52.43"/><line class="cls-18" x1="231.32" y1="30.48" x2="253.07" y2="52.43"/><g class="cls-19"><path class="cls-9" d="M60.46,399.4v-111c0-14.38,10.52-26,23.5-26h72.42c13,0,23.5,11.66,23.5,26v111Z"/><path class="cls-20" d="M179.88,288.35v4.53c0-14.38-10.52-26-23.49-26H84c-13,0-23.49,11.66-23.49,26v-4.53c0-14.37,10.52-26,23.49-26h72.44C169.36,262.32,179.88,274,179.88,288.35Z"/><rect class="cls-21" x="60.46" y="405.77" width="119.42" height="4.52"/><path class="cls-22" d="M179.88,401.29v5.62a9.54,9.54,0,0,1-9.53,9.53H70a9.53,9.53,0,0,1-9.53-9.53v-5.62A9.53,9.53,0,0,1,70,391.76H170.35A9.54,9.54,0,0,1,179.88,401.29Z"/><path class="cls-9" d="M-74.22,399.4v-111c0-14.38,10.52-26,23.49-26H21.7c13,0,23.5,11.66,23.5,26v111Z"/><path class="cls-20" d="M45.19,288.35v4.53c0-14.38-10.51-26-23.48-26H-50.73c-13,0-23.49,11.66-23.49,26v-4.53c0-14.37,10.52-26,23.49-26H21.71C34.68,262.32,45.19,274,45.19,288.35Z"/><rect class="cls-21" x="-74.22" y="405.77" width="119.42" height="4.52"/><path class="cls-22" d="M45.2,401.29v5.62a9.54,9.54,0,0,1-9.54,9.53H-64.68a9.54,9.54,0,0,1-9.54-9.53v-5.62a9.54,9.54,0,0,1,9.54-9.53H35.66A9.54,9.54,0,0,1,45.2,401.29Z"/><polygon class="cls-15" points="49.66 479.06 46.75 474.84 46.75 440.01 52.34 443.63 49.66 479.06"/><rect class="cls-23" x="42.07" y="381.27" width="18.39" height="65" transform="translate(102.53 827.54) rotate(180)"/><rect class="cls-24" x="49.66" y="446.27" width="5.36" height="32.8" transform="translate(104.69 925.33) rotate(180)"/><path class="cls-22" d="M60.46,353.55v30.32a9.2,9.2,0,1,1-18.39,0V353.55Z"/><path class="cls-23" d="M60.46,353.55v6.91a6.76,6.76,0,0,1-1,.09H43.07a6.52,6.52,0,0,1-1-.09v-6.91Z"/><rect class="cls-22" x="37.15" y="338.87" width="28.24" height="18.4" rx="5.81"/><path class="cls-25" d="M65.39,344.8v2a5.93,5.93,0,0,0-5.94-5.92H43.08a5.94,5.94,0,0,0-5.94,5.92v-2a5.94,5.94,0,0,1,5.94-5.92H59.45A5.93,5.93,0,0,1,65.39,344.8Z"/><polygon class="cls-15" points="187.48 479.06 184.56 474.84 184.56 440.01 190.16 443.63 187.48 479.06"/><rect class="cls-23" x="179.88" y="381.27" width="18.39" height="65" transform="translate(378.16 827.54) rotate(180)"/><rect class="cls-24" x="187.48" y="446.27" width="5.36" height="32.8" transform="translate(380.32 925.33) rotate(180)"/><path class="cls-22" d="M198.28,353.55v30.32a9.2,9.2,0,0,1-18.4,0V353.55Z"/><path class="cls-23" d="M198.28,353.55v6.91a6.77,6.77,0,0,1-1,.09H180.89a6.77,6.77,0,0,1-1-.09v-6.91Z"/><rect class="cls-22" x="174.96" y="338.87" width="28.24" height="18.4" rx="5.81"/><path class="cls-25" d="M203.2,344.8v2a5.92,5.92,0,0,0-5.94-5.92H180.89a5.93,5.93,0,0,0-5.93,5.92v-2a5.93,5.93,0,0,1,5.93-5.92h16.37A5.92,5.92,0,0,1,203.2,344.8Z"/></g><g class="cls-26"><line class="cls-27" x1="613.15" y1="446.15" x2="794.35" y2="846.55"/><line class="cls-27" x1="488.93" y1="446.15" x2="567.85" y2="858.24"/><line class="cls-27" x1="354.49" y1="446.15" x2="360.34" y2="871.39"/><line class="cls-27" x1="218.59" y1="446.15" x2="120.68" y2="871.39"/><line class="cls-27" x1="75.38" y1="454.91" x2="-104.37" y2="850.94"/><line class="cls-27" x1="769.51" y1="466.61" x2="990.17" y2="837.78"/><line class="cls-27" x1="934.64" y1="441.76" x2="1177.22" y2="808.56"/><line class="cls-27" x1="-12.3" y1="546.98" x2="1015.01" y2="546.98"/></g><rect class="cls-6" x="481.47" y="309.34" width="519.19" height="211.74"/><rect class="cls-28" x="481.47" y="495.84" width="519.19" height="25.24"/><path class="cls-29" d="M586.23,502.33V392q0-11.81,0-23.59v-20q0-7.35,0-14.69c0-2.47,0-4.94,0-7.41v-.51a.1.1,0,0,0-.2,0c0,1.8,0,3.6,0,5.4l0,13.12v18.88q0,11.42,0,22.82V502.33a.16.16,0,0,0,.31,0Z"/><path class="cls-29" d="M693,502.33V348.39q0-7.35,0-14.69c0-2.47,0-4.94,0-7.41v-.51a.1.1,0,0,0-.2,0c0,1.8,0,3.6,0,5.4q0,6.57,0,13.12v18.88q0,11.42,0,22.82V502.33a.16.16,0,0,0,.32,0Z"/><path class="cls-29" d="M799.66,502.33V392q0-11.81,0-23.59v-20q0-7.35,0-14.69,0-3.7,0-7.41v-.51a.11.11,0,0,0-.21,0c0,1.8,0,3.6,0,5.4,0,4.38,0,8.75,0,13.12v18.88q0,11.42,0,22.82V502.33a.16.16,0,0,0,.31,0Z"/><path class="cls-29" d="M906.38,502.33V368.39l0-20q0-7.35,0-14.69,0-3.7,0-7.41v-.51a.1.1,0,0,0-.2,0c0,1.8,0,3.6,0,5.4q0,6.57,0,13.12v18.88q0,11.42,0,22.82V502.33a.16.16,0,0,0,.32,0Z"/><path class="cls-30" d="M744.42,240.87a8.41,8.41,0,0,0-.52-7.88,3.68,3.68,0,0,1-.87-2c.05-.86.79-1.48,1.34-2.14a5.49,5.49,0,0,0,.35-6.26c-.42-.66-1-1.22-1.35-1.9-1.06-1.91-.45-4.28.17-6.37a16.67,16.67,0,0,1,1.9-4.59,8.77,8.77,0,0,0,1.51-2.56c.26-1-.07-2.17.36-3.15s1.79-1.66,2.44-2.69c.87-1.37.36-3.2-.51-4.57a9,9,0,0,1-1.49-2.7,9.8,9.8,0,0,1,0-2.65,9.08,9.08,0,0,0-5.2-8.53c-1.84-.83-4-1-5.52-2.38-1.09-.95-1.7-2.36-2.82-3.27a5.94,5.94,0,0,0-5.22-.83,17.7,17.7,0,0,0-4.88,2.48,6.4,6.4,0,0,0-4,.11,15.14,15.14,0,0,0-8.83,7.91c-.55,1.2-.95,2.47-1.6,3.61-.91,1.56-2.26,2.8-3.32,4.26a6.07,6.07,0,0,0-1.37,5c.4,1.44,1.6,2.57,1.88,4,.63,3.29-3.54,5.61-4.11,8.92-.47,2.75,1.68,5.53,1,8.24-.52,2-2.47,3.34-4.15,4.64s-3.33,3.21-2.88,5.28c.33,1.5,1.72,2.64,1.87,4.17.33,3.2-4.75,5.23-4.05,8.37.44,2,2.9,2.7,4.93,3,13.57,1.64,27.4.18,40.64-3.22C741.83,242.71,743.68,242.47,744.42,240.87Z"/><path class="cls-31" d="M751.31,288.13c.81,2.13,2.05,4.14,2.44,6.39a10.71,10.71,0,0,0,1.7,4.87c.32.42.9.06,1.4.24a2.75,2.75,0,0,0,2.11-.36,14.57,14.57,0,0,0,7.38-16.21,8.68,8.68,0,0,0-1.48-3.2,7.46,7.46,0,0,0-7-2.47,10.93,10.93,0,0,0-6.48,4.1C749.74,283.49,750.39,285.75,751.31,288.13Z"/><path class="cls-31" d="M739.06,235.11a2.23,2.23,0,0,0-1.12-.52,15.57,15.57,0,0,1-4.65-2.08,3.49,3.49,0,0,1-1-.93,3.82,3.82,0,0,1-.4-2,9.39,9.39,0,0,1,.88-4.55,7.06,7.06,0,0,0,6.7-1.26,13.5,13.5,0,0,0,4-5.79,15.58,15.58,0,0,0,1.19-4.88c.1-1.83-.25-3.66-.31-5.49-.13-4.3,1.38-8.75,0-12.82-.18-.52-.36-.7-.5-1.22a4,4,0,0,0-2.47-2.66,8,8,0,0,1-2-.69c-.77-.51-1.11-1.51-1.89-2a5.23,5.23,0,0,0-2.62-.37c-.9,0-2-.35-2.19-1.21a9,9,0,0,1-3.76,5.21c-1.43.89-3.28,1.59-3.69,3.22-.3,1.14.25,2.42-.24,3.49s-1.94,1.5-2.86,2.33a3.46,3.46,0,0,0-.79,4,4.57,4.57,0,0,0-3.35-1.08,3.23,3.23,0,0,0-2.45,3.44,6.59,6.59,0,0,0,2.1,4c.88.91,2.07,1.75,3.31,1.51h-.27c.41,4.75.35,10.18-1.16,14.71s-4.67,8.68-9.1,10.47c-2.87,4.41-3.44,10.35-3.26,15.61a17.64,17.64,0,0,0,1.46,7.34c1.46,2.92,4.21,5,7,6.68a75.6,75.6,0,0,0,16.54,7.75,12.43,12.43,0,0,0,6.29.83c3.1-.64,5.4-3.44,6.34-6.47s.73-6.27.47-9.42q-.68-8.29-1.9-16.54A16.77,16.77,0,0,0,739.06,235.11Z"/><path class="cls-32" d="M753,310.36c-6.22,2.53-13.18,2.29-19.87,1.75-7.89-.63-15.55-1.42-23.34-2.77a63.21,63.21,0,0,0-.22-10.39c-.26-2.06-.73-4.08-1.19-6.1-.66-2.91-1.27-5.8-1.93-8.71a27.9,27.9,0,0,1-14.81-2.75,85.73,85.73,0,0,1,0-24.83c.71-4.91,2.06-10.11,5.83-13.33a22,22,0,0,1,4.88-2.93c3.83-1.86,7.83-3.25,11.72-5A73.19,73.19,0,0,0,733.86,254a34.19,34.19,0,0,0,4.68-19.08c5.32.91,9.87,3.53,14.55,6.21a20.7,20.7,0,0,1,4.45,3.12c2.74,2.74,3.69,6.74,4.5,10.53,1.91,9,3.64,18.08,4.64,27.23a15.62,15.62,0,0,0-9.78,1.93,4.41,4.41,0,0,0-2.26,2.47c-1.59,6.23-.6,12.68,0,19.09a7.91,7.91,0,0,1-.13,3.29C754.16,309.81,754,310,753,310.36Z"/><path class="cls-33" d="M752.57,260.15c-1.78,3.22-.07,6.86,1.33,9.87a14.56,14.56,0,0,1,1.66,5.41,16.48,16.48,0,0,1-.92,5.38c-.31,1-.63,2-.9,3a9,9,0,0,0-.45,3,.18.18,0,0,0,.35,0c.23-.86.3-1.76.52-2.63s.52-1.78.79-2.67a21.2,21.2,0,0,0,1.13-5.14,11.6,11.6,0,0,0-1.08-5.15c-.73-1.69-1.67-3.29-2.27-5a7.54,7.54,0,0,1,0-6,.12.12,0,0,0-.21-.12Z"/><path class="cls-33" d="M698.27,245.13a38.66,38.66,0,0,1,7.27,3.36,16.16,16.16,0,0,1,5.39,5.78c.74,1.31,1.25,2.71,1.93,4,.07.13.27,0,.24-.1a16,16,0,0,0-1.57-3.69,18,18,0,0,0-2.29-3.36,18.24,18.24,0,0,0-6.62-4.61c-1.4-.62-2.85-1.13-4.28-1.66-.15,0-.22.19-.07.24Z"/><path class="cls-33" d="M712.49,260.3c.82,6.79,1.41,13.59,1.93,20.41,0,.16.28.17.27,0-.4-6.83-1.1-13.63-2-20.41,0-.15-.27-.16-.25,0Z"/><path class="cls-33" d="M692.48,276.7a59.6,59.6,0,0,0,9.76,1.39,44.47,44.47,0,0,0,4.76.07,8.38,8.38,0,0,0,4.2-1c.16-.11.07-.4-.14-.33a15.18,15.18,0,0,1-2,.68,13.74,13.74,0,0,1-2.22.27,45.63,45.63,0,0,1-4.68-.07,64.79,64.79,0,0,1-9.61-1.24c-.17,0-.24.23-.07.26Z"/><path class="cls-33" d="M756.21,278.42a10.34,10.34,0,0,1,3.88-1.43,9.61,9.61,0,0,1,2.08-.1,9.91,9.91,0,0,1,1.08.12,5.19,5.19,0,0,0,1,.15.13.13,0,0,0,.06-.24,4.68,4.68,0,0,0-2-.38,9.87,9.87,0,0,0-2.17.09,10.06,10.06,0,0,0-4.06,1.55c-.15.1,0,.34.14.24Z"/><path class="cls-31" d="M767.46,316.7c-1.87-3.5-4.91-6.73-8.83-7.31-4.35-.65-9,3.49-13.14,2.07-5.79-2-11.3-4.69-17-6.89a46.12,46.12,0,0,0-17.81-3.5c-1.11-5.6-.52-12-.73-17.72-4.92.41-13,.29-16.44-1.16A151,151,0,0,0,696.67,303a28.56,28.56,0,0,0,1.82,5.64,5.6,5.6,0,0,0,2.32,2.92,6,6,0,0,0,2.05.51q16.86,2.1,33.86,2.75c3.36.12,5.57,4.18,8.78,5.2a13,13,0,0,0,4.4.38A58.16,58.16,0,0,0,767.46,316.7Z"/><path class="cls-34" d="M709.75,302.24a7,7,0,0,0-2.71,4.45c0,.1.15.11.17,0a10.57,10.57,0,0,1,1-2.37,8.43,8.43,0,0,1,1.66-2c.1-.09,0-.22-.13-.14Z"/><path class="cls-35" d="M718.89,234.76a.31.31,0,0,0-.23,0,.2.2,0,0,0-.08.08.42.42,0,0,0,0,.1,0,0,0,0,0,0,0l0-.07h0s0,0,0,0l0,0h0s0,0,0,0h.15a0,0,0,0,0,0,0,0,0,0,0,0,0-.06Z"/><path class="cls-34" d="M719.38,235.14l4.2.15c.32,0,.65,0,1,0a1.06,1.06,0,0,1,.8.43c.19.22.49.62.83.44a.1.1,0,0,0,0-.16,1.68,1.68,0,0,1-.51-.36,2.63,2.63,0,0,0-.43-.45,3.26,3.26,0,0,0-1.67-.23l-4.2-.15c-.19,0-.19.28,0,.29Z"/><path class="cls-34" d="M729.53,235.57c1.63-1.4,3.91,0,5.74-.68a.11.11,0,1,0-.06-.22,8.05,8.05,0,0,1-1.77.07c-.54,0-1.08-.11-1.62-.12a3.67,3.67,0,0,0-2.5.74c-.14.13.07.34.21.21Z"/><path class="cls-34" d="M722.06,220.12A27.2,27.2,0,0,0,725.61,233a.07.07,0,1,0,.13-.07,34.18,34.18,0,0,1-2.44-6.22,29.42,29.42,0,0,1-1-6.6c0-.16-.26-.16-.25,0Z"/><path class="cls-34" d="M721,208a4.42,4.42,0,0,0-1.15-2.2,1.75,1.75,0,0,0-1.86-.25,1,1,0,0,0-.55.79.08.08,0,0,0,.14,0,1.13,1.13,0,0,1,.71-.66,1.52,1.52,0,0,1,1.07,0c.86.38,1.19,1.46,1.45,2.28a.1.1,0,0,0,.19,0Z"/><path class="cls-34" d="M720,205.94a2.85,2.85,0,0,0-1.12.16,2.16,2.16,0,0,0-.94.61c-.07.09,0,.26.14.18a4.39,4.39,0,0,1,.91-.48,2.63,2.63,0,0,1,1-.13c.22,0,.22-.32,0-.34Z"/><path class="cls-34" d="M726.61,219.8a17,17,0,0,0,2.63,3.18,14.74,14.74,0,0,0,1.56,1.28,6.83,6.83,0,0,0,1.77,1c.09,0,.17-.1.1-.16-.51-.42-1.09-.73-1.62-1.1a15,15,0,0,1-1.59-1.27,16.17,16.17,0,0,1-2.64-3.08c-.08-.13-.29,0-.21.12Z"/><path class="cls-6" d="M730.05,265.64c-.45-2.56-1.65-8.7-1.62-8.77a102.34,102.34,0,0,0-12.34,1.36c.58,2.59.86,6.5,1.19,9.14C721.11,266.8,726.18,266.06,730.05,265.64Z"/><path class="cls-36" d="M723.77,258.79c-.79.12-1.52.16-2.4.35a.86.86,0,0,1-1-.64l-.32-1.32a.85.85,0,0,1,.72-1.05l2.44-.31a.86.86,0,0,1,.93.61c.15.5.23.84.34,1.31A.86.86,0,0,1,723.77,258.79Z"/><path class="cls-37" d="M707.7,210.72a4.47,4.47,0,0,0-1.21,3.84c.14,1.73.64,3.37.44,5.12a10,10,0,0,1-1.66,4.41,16,16,0,0,1-3.18,3.08c-1.06.89-2.19,2-2.3,3.44,0,.14.22.18.25,0a5.46,5.46,0,0,1,2.21-3.23,18.46,18.46,0,0,0,3-2.78,10.09,10.09,0,0,0,1.82-3.91,11.45,11.45,0,0,0,0-4.48c-.31-1.78-.68-4,.83-5.34.13-.12-.06-.31-.19-.19Z"/><path class="cls-37" d="M715.84,222.48c-.32,2.91-.37,5.9-2.09,8.4a11.43,11.43,0,0,1-3,2.81,16.87,16.87,0,0,0-3.09,2.41.07.07,0,0,0,.1.11c2.11-1.76,4.69-3,6.26-5.31,1.68-2.5,1.77-5.51,2-8.42,0-.16-.23-.15-.24,0Z"/><path class="cls-37" d="M737,227.32a5.53,5.53,0,0,0,.57,4.51c.06.09.22,0,.18-.08a8.61,8.61,0,0,1-.62-2.12,5.83,5.83,0,0,1,.14-2.24.14.14,0,0,0-.27-.07Z"/><path class="cls-37" d="M712.41,198.16a6,6,0,0,0-.66,3.79,5.79,5.79,0,0,0,.6,1.77,10,10,0,0,1,1,2,6.64,6.64,0,0,1-.21,2.38,3.09,3.09,0,0,0,.34,1.69,5.5,5.5,0,0,0,3.15,2.48.16.16,0,0,0,.12-.29c-1.17-.63-2.42-1.23-3-2.5a3.28,3.28,0,0,1-.11-2.12,3.44,3.44,0,0,0,0-1.8,6.76,6.76,0,0,0-.78-1.54,6.62,6.62,0,0,1-.76-1.77,5.78,5.78,0,0,1,.46-3.94c.07-.13-.12-.24-.18-.11Z"/><path class="cls-37" d="M726.55,189.59a6.53,6.53,0,0,0-4.26,4.19c-.7,2.18,0,5.55-2.43,6.83-.92.48-2.23.6-2.76,1.61-.06.11.09.23.17.14.85-1,2.27-1,3.27-1.77a5,5,0,0,0,1.59-3.43c.2-1.64.21-3.26,1.12-4.7a6.25,6.25,0,0,1,3.37-2.63c.15-.05.09-.29-.07-.24Z"/><path class="cls-37" d="M721.92,190a5.57,5.57,0,0,0-1.45,2.05,4.47,4.47,0,0,0-.34,2.47.07.07,0,0,0,.14,0,7.88,7.88,0,0,1,.44-2.35,5.46,5.46,0,0,1,1.37-2c.1-.1-.05-.25-.16-.16Z"/><path class="cls-37" d="M718.88,182.73c-1.88.69-4.06,1.61-4.65,3.73-.35,1.25-.26,2.52-1,3.65a4.8,4.8,0,0,1-2.81,2,.13.13,0,0,0,.07.26,4.65,4.65,0,0,0,2.57-1.55,5.34,5.34,0,0,0,1.21-3,5.89,5.89,0,0,1,.51-2.07,3.94,3.94,0,0,1,1.05-1.25,11.18,11.18,0,0,1,3.1-1.62c.13-.05.07-.26-.06-.21Z"/><path class="cls-37" d="M725.67,180.49a7.58,7.58,0,0,1,3.51,1.46,7.72,7.72,0,0,1,1.36,1.32c.41.51.67,1.09,1,1.63a.09.09,0,0,0,.17-.07,4.64,4.64,0,0,0-1-1.69,7.64,7.64,0,0,0-1.44-1.4,7.47,7.47,0,0,0-3.68-1.47c-.15,0-.14.21,0,.22Z"/><path class="cls-37" d="M734.44,184.79c1.67.59,3.58.15,5.16,1a3.31,3.31,0,0,1,1.48,2,3.1,3.1,0,0,0,1.14,1.61c.64.43,1.4.62,2,1.07a4.64,4.64,0,0,1,1.42,1.75,9,9,0,0,1,.77,4.48c-.1,2.17-.56,4.38-.08,6.54,0,.08.17.07.16,0-.4-3.59,1.09-7.36-.38-10.81a5.48,5.48,0,0,0-1.15-1.75,5.89,5.89,0,0,0-1.84-1.13,3.55,3.55,0,0,1-1.11-.66,3.19,3.19,0,0,1-.71-1.22,3.75,3.75,0,0,0-1.12-1.74c-1.63-1.26-3.87-.68-5.71-1.32-.14-.05-.2.18-.06.23Z"/><path class="cls-37" d="M732.26,182.38a5.32,5.32,0,0,1,2.43-.42,7.68,7.68,0,0,1,2.35.6c.1,0,.14-.11.07-.16a4.46,4.46,0,0,0-2.46-.73,5.65,5.65,0,0,0-2.53.48c-.15.07,0,.3.14.23Z"/><path class="cls-37" d="M741.27,224.62a3.89,3.89,0,0,1,1,2.88,8.59,8.59,0,0,1-1.23,2.93c-.85,1.84.33,3.72,1.77,4.88a.12.12,0,0,0,.17-.16,8.4,8.4,0,0,1-1.84-2.67c-.36-1.18.26-2.11.81-3.1a4.1,4.1,0,0,0-.52-4.93c-.1-.11-.27.05-.16.17Z"/><path class="cls-37" d="M716.46,220.89a6.35,6.35,0,0,0-.32-2.92,3.5,3.5,0,0,1,.1-1.7c.18-.55.5-1,.69-1.56,0-.08-.09-.14-.14-.08a4.19,4.19,0,0,0-1,3c.11,1.08.68,2.13.45,3.24a.11.11,0,0,0,.21,0Z"/><path class="cls-37" d="M699.82,231.89c-.38,2,1.2,3.63,1.13,5.58a4.38,4.38,0,0,1-3.19,4,.13.13,0,0,0,.07.26,4.54,4.54,0,0,0,3.36-3.59,5.29,5.29,0,0,0-.35-2.78,6.31,6.31,0,0,1-.7-3.34c0-.21-.28-.3-.32-.09Z"/><path class="cls-33" d="M693,282.16A27.66,27.66,0,0,0,703,284a30.12,30.12,0,0,0,7.92-.87,5.51,5.51,0,0,0,2.19-.94c.11-.09,0-.26-.15-.19a9,9,0,0,1-1.91.68,24.66,24.66,0,0,1-3.32.65,33,33,0,0,1-9.15-.07,26.72,26.72,0,0,1-5.56-1.43c-.18-.07-.26.22-.08.3Z"/><path class="cls-31" d="M763.11,286.58q7.8-13.47,15.78-26.83c1.38-2.3,2.8-4.76,2.8-7.45,0-2-.82-4-.53-6,.5-3.36,4.08-6.09,3.36-9.41,1.54,0,2.16,2,1.93,3.55s-.8,3.23.09,4.49c3.5-4.22,7.07-8.64,10.58-12.86.65-.79,1.56-1.66,2.55-1.38.35.85-.22,1.79-.76,2.54l-6.68,9.23a5.42,5.42,0,0,0,1.76-1.46l7-9.44a3.12,3.12,0,0,1,1-1,1.09,1.09,0,0,1,1.3.14c.42.48.14,1.23-.18,1.78-2.55,4.45-6.3,8.12-8.82,12.59a111,111,0,0,1,8.73-7.45,1,1,0,0,1,.5-.27c.4,0,.71.36.78.75a2.74,2.74,0,0,1-.86,2.16,6.57,6.57,0,0,0-1.41,1.92c.24-.51,1-.36,1.43.06a1.47,1.47,0,0,1,.13,1.59,4.48,4.48,0,0,1-1.1,1.28l-15.26,13.62a4.08,4.08,0,0,0-1.58,2.25c-1.8,11.91-7.25,22.6-11.29,33.94-1.13,3.19-2.48,6.43-4.91,8.78s-6.24,3.6-9.31,2.17-4.2-4.36-5.32-7.44a4.65,4.65,0,0,1,.27-.92,130.51,130.51,0,0,1,7.61-10.91C763,286.37,762.93,286.9,763.11,286.58Z"/><path class="cls-34" d="M765.57,283.14a17.49,17.49,0,0,0-3.65,5.74,15.32,15.32,0,0,0-1.17,6.81.08.08,0,1,0,.16,0,24.14,24.14,0,0,1,1.28-6.58,19.47,19.47,0,0,1,3.49-5.86c.07-.08,0-.19-.11-.11Z"/><path class="cls-34" d="M802.14,242.11a44.69,44.69,0,0,0-4.08,2.74c-.62.46-1.24.94-1.83,1.44a10.68,10.68,0,0,0-1.73,1.63c-.06.07,0,.17.13.12a18,18,0,0,0,1.72-1.44c.64-.54,1.29-1.08,2-1.59q1.91-1.45,3.94-2.71a.11.11,0,0,0-.11-.19Z"/><path class="cls-34" d="M793,249c-1.46,1.68-3.76,2-5.69,2.9-1.55.71-3.31,2.17-3,4.08,0,.11.17.07.17,0,.16-2.22,2-3.42,3.88-4.16,1.71-.66,3.59-1.2,4.8-2.67.08-.09-.05-.22-.13-.13Z"/><path class="cls-34" d="M789.83,244.23a10.19,10.19,0,0,1,2,1.69,10,10,0,0,1,.81,1c.25.37.46.76.72,1.12.06.09.21,0,.18-.07a4.69,4.69,0,0,0-.64-1.16,9,9,0,0,0-.86-1.07,9.22,9.22,0,0,0-2.14-1.69c-.1-.06-.2.1-.09.17Z"/><path class="cls-34" d="M786,244.66a5.32,5.32,0,0,1,.74,2,7.25,7.25,0,0,1,0,2.08c0,.11.14.11.17,0a4.19,4.19,0,0,0,.1-2.14,5.19,5.19,0,0,0-.83-2c-.06-.09-.2,0-.15.08Z"/><path class="cls-30" d="M726.14,203.52a4.89,4.89,0,0,1,2.76-1.6,5.11,5.11,0,0,1,1.56-.09,8.67,8.67,0,0,1,1.6.38c.26.07.36-.26.17-.41a4.39,4.39,0,0,0-3.49-.46,5.11,5.11,0,0,0-2.94,1.92c-.15.2.18.45.34.26Z"/><path class="cls-30" d="M731.81,202.11a7.08,7.08,0,0,0-4.85.27,3.32,3.32,0,0,0-1.38.9c-.11.13,0,.39.18.32.47-.19.89-.47,1.36-.68a6.75,6.75,0,0,1,1.46-.48,7.55,7.55,0,0,1,3.14,0,.17.17,0,0,0,.09-.32Z"/><path class="cls-30" d="M729.73,204.3a2.54,2.54,0,0,0-.5,2,1.4,1.4,0,0,0,.41.87.62.62,0,0,0,.87.05.83.83,0,0,0,.2-.48,6.18,6.18,0,0,0-.05-1.77c0-.31-.1-.78-.46-.89a.66.66,0,0,0-.8.5,2.61,2.61,0,0,0,0,1.21,3.83,3.83,0,0,0,.4,1.15.29.29,0,0,0,.5,0,1.88,1.88,0,0,0-.07-1.9.25.25,0,0,0-.42,0,.88.88,0,0,0,.2,1.23c.21.15.42-.16.26-.33a.53.53,0,0,1-.08-.6l-.38-.05a1.4,1.4,0,0,1,0,1.36h.5a2.85,2.85,0,0,1-.39-1.48c0-.17,0-.5.15-.61s.06,0,.08,0a1.5,1.5,0,0,1,.09.42,4.91,4.91,0,0,1,0,1.71.42.42,0,0,1,0,.12s0,0,0,0,0,0,0,0,0,0,0,0h0l-.11-.08a1,1,0,0,1-.21-.55,2.76,2.76,0,0,1,.3-1.6.23.23,0,0,0-.05-.29.23.23,0,0,0-.29,0Z"/><path class="cls-30" d="M744.27,203.18a4.57,4.57,0,0,0-2.65-1.92,3.6,3.6,0,0,0-3.11.5.21.21,0,0,0,.2.35,7.24,7.24,0,0,1,1.36-.38,4.12,4.12,0,0,1,1.4.08,4.3,4.3,0,0,1,2.45,1.58c.15.2.49,0,.35-.21Z"/><path class="cls-30" d="M739,202.33a6,6,0,0,1,2.73,0,5.46,5.46,0,0,1,1.3.47c.41.21.78.49,1.21.68.14.07.35-.08.24-.24a3,3,0,0,0-1.19-.9,6.38,6.38,0,0,0-1.43-.5,5.44,5.44,0,0,0-2.94.19.16.16,0,0,0,.08.3Z"/><path class="cls-30" d="M740.44,204.43a3.34,3.34,0,0,1,.3,1.43,1.69,1.69,0,0,1-.13.66.56.56,0,0,1-.14.2l-.06,0h0a.56.56,0,0,0,0-.12c0-.06,0-.11,0-.16s0-.31,0-.46a6.18,6.18,0,0,1,0-.86c0-.13,0-.26,0-.39a.74.74,0,0,1,.09-.33s0,0,0,0l.06.08a.88.88,0,0,1,.07.32,3.27,3.27,0,0,1-.34,1.71h.47a1.56,1.56,0,0,1,0-1.38h-.4a.6.6,0,0,1,0,.67.2.2,0,0,0,.28.29.92.92,0,0,0,.15-1.19.24.24,0,0,0-.4,0,2,2,0,0,0-.06,1.88.27.27,0,0,0,.47,0,3.78,3.78,0,0,0,.37-2.07c0-.35-.17-.73-.58-.77a.44.44,0,0,0-.4.15,1,1,0,0,0-.16.44,6.56,6.56,0,0,0-.14,1.17,3.91,3.91,0,0,0,.07,1.08.52.52,0,0,0,.76.37,1.09,1.09,0,0,0,.5-.72,2.73,2.73,0,0,0-.37-2.21.2.2,0,0,0-.25-.09.21.21,0,0,0-.12.25Z"/><path class="cls-38" d="M736.63,205a5.79,5.79,0,0,0,1.11,3.91c.37.58,1.14,1.26.82,2s-1,1.08-1,1.8a.19.19,0,0,0,.35.09,9.53,9.53,0,0,1,.62-.94,3.47,3.47,0,0,0,.5-.8c.29-.71-.06-1.19-.48-1.75A6.33,6.33,0,0,1,736.9,205c0-.15-.24-.18-.27,0Z"/><polygon class="cls-39" points="587.47 230.3 584.83 233.1 693.91 302.08 696.39 298.62 692.1 230.3 587.47 230.3"/><polygon class="cls-40" points="584.83 233.1 689.79 232.94 693.91 302.08 588.13 302.25 584.83 233.1"/><polygon class="cls-39" points="628.07 277.66 649.85 277.66 643.75 323.04 617.01 322.05 628.07 277.66"/><path class="cls-39" d="M618.54,268.46l4-.13L632,268l11.51-.37,10-.33,3.27-.11a8.12,8.12,0,0,0,1.56,0h.07l-.39-.39.5,8.83.8,14,.19,3.19.39-.39H620.34a10.82,10.82,0,0,0-1.61,0h-.07l.39.39,0-8.38L619,271.11l0-3a.39.39,0,0,0-.78,0l0,8.39.06,13.34,0,3a.4.4,0,0,0,.39.39h36.19c1.66,0,3.34.07,5,0h.07a.4.4,0,0,0,.39-.39l-.5-8.83-.8-14-.19-3.2a.39.39,0,0,0-.39-.39l-4,.13-9.52.31-11.5.37-10,.33c-1.6.05-3.24,0-4.83.16h-.07C618,267.69,618,268.48,618.54,268.46Z"/><path class="cls-39" d="M589.45,238.12l5.22-.06L603,238l1.92,0-.39-.39.58,12,.08,1.71.39-.4-5.18.28-8.27.45-1.89.1.39.39-.73-12.6-.1-1.76c0-.5-.81-.5-.78,0l.72,12.6.1,1.76a.41.41,0,0,0,.4.39l5.18-.28,8.27-.44,1.89-.1a.4.4,0,0,0,.4-.39l-.58-12-.08-1.7a.4.4,0,0,0-.4-.39l-5.21.05-8.38.09-1.92,0A.4.4,0,0,0,589.45,238.12Z"/><path class="cls-39" d="M524.77,312.28h13.06a16.14,16.14,0,0,0,9.94-14.82,25.12,25.12,0,0,0-1.07-7.89H515.88a25.79,25.79,0,0,0-1,7.89A16.14,16.14,0,0,0,524.77,312.28Z"/><path class="cls-40" d="M520.3,294.75c6.16.35,12.44.7,18.51-.7.1,0,.05-.18,0-.16-6.09,1.22-12.29,1-18.46.69-.11,0-.11.17,0,.17Z"/><path class="cls-40" d="M516.58,300.42a27.85,27.85,0,0,0,11.13,1.45c.08,0,.08-.13,0-.13a36.08,36.08,0,0,1-11.08-1.52c-.12,0-.18.16,0,.2Z"/><path class="cls-40" d="M530.82,302a35.82,35.82,0,0,0,16.84-3.08c.07,0,0-.17-.06-.14a47.36,47.36,0,0,1-8.13,2.4,39.78,39.78,0,0,1-8.65.61c-.13,0-.13.2,0,.21Z"/><path class="cls-40" d="M520.48,306.78a51,51,0,0,0,22-.9.11.11,0,1,0-.06-.21,55,55,0,0,1-21.93.92c-.13,0-.18.17-.06.19Z"/><path class="cls-41" d="M524,310.21a92.29,92.29,0,0,0,14-.12c.1,0,.1-.17,0-.17a139.29,139.29,0,0,1-14,0c-.18,0-.18.28,0,.29Z"/><path class="cls-42" d="M535.48,283.15a5.59,5.59,0,0,1,5.86-.72c2.1,1,3.42,2.42,5.75,2.49.71,0,1.63.75,2.34.77,2,.06,3.5,1.86,4.62,3.54s2.36,3.58,4.33,4c-1.71-.51-3.78.35-5.57.24-1.47-.09-2.82-.86-4.26-1.2s-2.8-.22-4.17-.53c-2.4-.54-4.36-2.23-6.18-3.89C536.76,286.56,535.32,285.08,535.48,283.15Z"/><path class="cls-43" d="M537.39,283.54c3.44.27,6.14,2.56,8.89,4.41a10.08,10.08,0,0,0,2,1.08c.8.31,1.64.5,2.44.83a30.53,30.53,0,0,0,4.54,1.91c.09,0,.12-.11,0-.13a45.65,45.65,0,0,1-4.73-2c-.8-.31-1.65-.49-2.44-.82a11.93,11.93,0,0,1-2.29-1.34c-2.57-1.78-5.2-3.81-8.44-4,0,0,0,.06,0,.07Z"/><path class="cls-44" d="M527.85,284.86a8.11,8.11,0,0,0-9.61-4.78c-1.62.49-3.1,1.51-4.79,1.6-1.51.09-2.94-.58-4.42-.86a8.78,8.78,0,0,0-8.19,2.95c-1.91,2.29-2.59,5.53-4.87,7.44,2.09-2.6,5.19-2.93,8.52-2.64s6.57,1.36,9.91,1.49A20,20,0,0,0,527.85,284.86Z"/><path class="cls-42" d="M496.35,273.12c2.28,2,5.83,1,8.7,1.94,3.38,1.1,5.41,4.7,8.7,6,2.87,1.15,6.13.38,9.17.92a11.59,11.59,0,0,1,6.13,3.39,10.53,10.53,0,0,0-1.12-8.71,8,8,0,0,0-7.8-3.54c-1.4.25-2.86.92-4.16.35a5.93,5.93,0,0,1-1.57-1.22,11.87,11.87,0,0,0-5.13-2.78,7.64,7.64,0,0,0-4.54.07c-2.63,1-4.58,3.91-7.38,3.72"/><path class="cls-45" d="M528.59,284.05c-1.81-2.42-3.72-5.2-3.28-8.19.33-2.29,2-4.51,1.28-6.7-.53-1.54-2.11-2.46-2.9-3.88-1.13-2-.45-4.53.25-6.74.18,1.91,1.83,3,3.54,3.94s3.59,1.47,5,2.74c2.4,2.11,3,5.78,2.06,8.83a5.71,5.71,0,0,0-.46,2.64,9.28,9.28,0,0,0,.79,1.8,4.74,4.74,0,0,1-1.5,5.59C531.71,285.3,529.84,285.72,528.59,284.05Z"/><path class="cls-43" d="M526.07,281.22a12,12,0,0,0-3.81-3.11,16.62,16.62,0,0,0-4.69-1.41,7.22,7.22,0,0,1-2.59-.91,27.46,27.46,0,0,0-2.23-1.61,10.64,10.64,0,0,0-4.62-.95,43.76,43.76,0,0,1-6.87-.22.09.09,0,0,0-.05.17c2.29.68,4.78.25,7.13.32a11.51,11.51,0,0,1,3.19.47,9.37,9.37,0,0,1,3,1.8c1.7,1.3,4,1.18,5.92,1.83a12.77,12.77,0,0,1,5.54,3.74c.07.08.19,0,.12-.12Z"/><path class="cls-43" d="M524.26,282.92a13.43,13.43,0,0,0-5.61,0,14.36,14.36,0,0,0-2.77.94,21.3,21.3,0,0,1-2.81,1.25c-2.12.64-4.35,0-6.5.29a20.09,20.09,0,0,0-5.72,1.71c-.08,0,0,.16,0,.14a28,28,0,0,1,6-1.65c2-.18,4,.29,5.9-.19s3.43-1.58,5.26-2.06a14.83,14.83,0,0,1,6.15-.3c.11,0,.16-.15,0-.17Z"/><path class="cls-43" d="M529.13,282a6.24,6.24,0,0,1-.07-6c.45-.85,1-1.63,1.41-2.53a6.4,6.4,0,0,0-1.14-6.62c-1.17-1.28-2.91-2.08-3.57-3.78,0-.09-.18-.06-.15,0,.44,1.56,1.87,2.42,3,3.45a6.2,6.2,0,0,1,2,5.16c-.21,2.08-1.79,3.49-2.35,5.43a6.43,6.43,0,0,0,.63,5,.11.11,0,0,0,.19-.11Z"/><path class="cls-42" d="M529.21,284.43a7.14,7.14,0,0,1,.93-7.46c1.89-2.28,5.27-3.46,6.07-6.31.25-.87.21-1.8.46-2.67.69-2.47,3.37-3.75,5.79-4.61s5.15-1.8,6.3-4.1c-1.15,2-.74,4.78-1.42,6.94-.57,1.8-1.94,3.22-2.79,4.89s-1.15,3.39-1.95,5c-1.41,2.8-4.1,4.69-6.71,6.43C533.83,283.9,531.55,285.22,529.21,284.43Z"/><path class="cls-45" d="M559.44,273.94c-1.23.69-2.79.27-4.05-.37a12.67,12.67,0,0,0-3.85-1.69c-2.59-.37-4.92,1.61-7.52,1.95-1.24.16-2.53-.07-3.76.21a8.23,8.23,0,0,0-3.77,2.43,31.6,31.6,0,0,0-5,6.49c-.38.65-1,1.39-.64,2.06a3.31,3.31,0,0,0,1.67,1.45,6.77,6.77,0,0,0,5.35-.17,11.52,11.52,0,0,0,4.22-3.47c1.28-1.64,2.46-3.65,4.48-4.19,1.55-.41,3.27.18,4.79-.36a13.72,13.72,0,0,0,2-1.14C555.55,275.91,558.41,276.24,559.44,273.94Z"/><path class="cls-44" d="M560.74,283.48c-1.75,2.13-4.34,3.84-7.09,3.6-2.17-.18-4.12-1.54-6.3-1.6-2.46-.07-4.64,1.52-7,2.17a9.72,9.72,0,0,1-10.28-3.72c2.37-3.12,6.63-4.35,10.55-4.64,2.87-.22,6-.28,8.38,1.29.82.54,1.51,1.24,2.3,1.83C553.73,284.23,557.83,284.44,560.74,283.48Z"/><path class="cls-43" d="M530.29,282.19c1.33-4,4.81-6.63,7.85-9.31a14.76,14.76,0,0,0,2.13-2.2c.67-.91,1.17-1.92,1.83-2.83,1.27-1.75,2.88-3.23,3.87-5.17,0-.1-.1-.19-.15-.09-1.05,1.91-2.63,3.41-3.89,5.16-.74,1-1.27,2.18-2.07,3.16a19.65,19.65,0,0,1-2.31,2.25c-2.93,2.55-6.16,5.16-7.35,9,0,.05.07.08.09,0Z"/><path class="cls-43" d="M534,281.72a17.18,17.18,0,0,1,10.63-4.93,17.79,17.79,0,0,0,3-.42c1-.27,2-.69,3-.94a18.51,18.51,0,0,1,3.41-.34c1.17-.06,2.33-.12,3.5-.21.1,0,.11-.17,0-.17-1.21,0-2.42.09-3.62.14a18.64,18.64,0,0,0-3.25.32c-1.09.25-2.13.71-3.22,1a27.46,27.46,0,0,1-3.5.45,16.52,16.52,0,0,0-10,5c-.06.07,0,.16.1.1Z"/><path class="cls-43" d="M535.13,282.78a14.68,14.68,0,0,1,5.49-.89,25.32,25.32,0,0,1,5.5,1.24c1.81.48,3.64.69,5.41,1.3,1.49.52,3.07,1.12,4.62.51.07,0,0-.15,0-.12-1.84.56-3.61-.33-5.35-.88s-3.67-.72-5.47-1.26a17.87,17.87,0,0,0-5.12-1,12.74,12.74,0,0,0-5.07,1c-.08,0-.05.16,0,.13Z"/><path class="cls-46" d="M574.27,278.13a59.78,59.78,0,0,1,5.51-26.33,69.21,69.21,0,0,1,3.61-6.74c.06-.1-.09-.18-.15-.09a56.28,56.28,0,0,0-8.94,25.37,57.91,57.91,0,0,0-.27,7.79.12.12,0,0,0,.24,0Z"/><path class="cls-46" d="M573.9,277.28a117.63,117.63,0,0,1-.47-48.1A121.32,121.32,0,0,1,576.85,216c0-.1-.13-.14-.16,0a110.94,110.94,0,0,0-5.15,23.69,114.58,114.58,0,0,0,0,24.21,112.58,112.58,0,0,0,2.28,13.42c0,.08.14,0,.12,0Z"/><path class="cls-46" d="M559.29,230.22a67.53,67.53,0,0,1,7,16.1,123.42,123.42,0,0,1,3.56,17.36c.48,3.33.87,6.68,1.26,10,0,.08.12.08.11,0A176,176,0,0,0,568.88,256,88,88,0,0,0,564,238.92a59,59,0,0,0-4.51-8.81c-.08-.12-.27,0-.2.11Z"/><path class="cls-42" d="M579.22,249.79c0-.36-.1-.72-.09-1.09a3.9,3.9,0,0,1,.54-1.53l2.46-4.69a6.27,6.27,0,0,1,.75-1.21,9.82,9.82,0,0,0,.82-.89,9.46,9.46,0,0,0,.66-1.68,6.65,6.65,0,0,1,2.26-2.46,5,5,0,0,1,1.68-1,1.73,1.73,0,0,1,1.8.46,2.09,2.09,0,0,1,.11,2,7.55,7.55,0,0,0-.63,2c0,.71.25,1.41.21,2.12-.09,1.61-1.75,2.66-2.35,4.17a7,7,0,0,1-.54,1.33,5.25,5.25,0,0,1-1.55,1.19,15.76,15.76,0,0,0-2.77,3c-.54.62-2.87,3.12-3.83,2.62C577.61,253.58,579.24,250.76,579.22,249.79Z"/><path class="cls-42" d="M572,227.41c-.08-.52-.3-1-.4-1.52a3.64,3.64,0,0,1,.27-2.23,4.66,4.66,0,0,0,.4-.92c.18-.75-.27-1.51-.3-2.28a4.24,4.24,0,0,1,.55-1.94c1-2.17,1-3.8,3.26-6.43.56-.64.86-1.53,1.62-1.92,1.41-.72,3.21.4,3.79,1.87a8.68,8.68,0,0,1,.06,4.69l-.45,2.59a11.85,11.85,0,0,1-.53,2.19,12.41,12.41,0,0,1-1.22,2.23l-3.3,5.14c-.65,1-1.67,3.44-3.22,2.48C571.29,230.6,572.2,228.59,572,227.41Z"/><path class="cls-42" d="M560.3,236.9a6.86,6.86,0,0,1-1-.46c-.78-.55-.72-1.72-1.18-2.56-.65-1.17-2.31-1.66-2.63-3a15.13,15.13,0,0,1-.09-1.52c-.2-1.31-1.57-2.18-1.88-3.48a4.67,4.67,0,0,1,.87-3.2,4.29,4.29,0,0,1,1.06-1.39c1.24-.92,3.16-.13,3.88,1.23a4.21,4.21,0,0,0,.62,1.07c.53.56,1.44.58,2,1.07,1.41,1.12.34,3.67,1.53,5,.28.32.66.53,1,.85,1,1.09.34,2.51.46,3.78.14,1.47,1.06,2.59.33,4C563.49,241.87,561.87,237.73,560.3,236.9Z"/><path class="cls-9" d="M582.6,324.39H560.94l4.77-56.54a2.29,2.29,0,0,1,2.28-2.09h8.47a2.29,2.29,0,0,1,2.29,2.13Z"/><g class="cls-47"><path class="cls-41" d="M567.75,263.31a4.29,4.29,0,0,0,1.68,4.12c1.19,1.09,2.7,1.76,3.86,2.88a4.14,4.14,0,0,1,1.2,1.95,13.4,13.4,0,0,1,0,3.1,5.64,5.64,0,0,0,2,4.26,7.66,7.66,0,0,0,5.63,1.65c.52,0,.54-.84,0-.82a7.58,7.58,0,0,1-4.91-1.22,5,5,0,0,1-2.05-4.19,12.94,12.94,0,0,0,0-2.64,4.12,4.12,0,0,0-.87-1.91,13.4,13.4,0,0,0-3.39-2.64c-1.42-.94-3.13-2.51-2.68-4.4.08-.33-.42-.47-.5-.14Z"/><path class="cls-41" d="M562.22,275.54a9.59,9.59,0,0,0,5.84,10.73c1.22.46,2.54.58,3.79.94a5.13,5.13,0,0,1,3.08,2.25c.7,1.09,1.15,2.31,1.82,3.41a11.2,11.2,0,0,0,2.44,2.83c2.28,1.86,5.55,2.63,8.22,1.12.27-.15,0-.52-.23-.4a7.5,7.5,0,0,1-7.41-1,10,10,0,0,1-2.46-2.77c-.63-1-1.06-2.15-1.67-3.18a5.77,5.77,0,0,0-2.4-2.37,15,15,0,0,0-3.48-1,8.9,8.9,0,0,1-7-10.41c.08-.37-.49-.53-.57-.16Z"/><path class="cls-41" d="M558,301.7c1.9,1.25,4.3.67,6.24-.19,2.17-1,4.3-2.42,6.78-2.14a6.24,6.24,0,0,1,5,3.83,26.71,26.71,0,0,1,1,3.52,16.28,16.28,0,0,0,1,2.79c.89,1.88,2.38,3.82,4.55,4.18a.28.28,0,0,0,.15-.53,7.71,7.71,0,0,1-4.08-4c-1-2-1.18-4.29-2.08-6.33a6.91,6.91,0,0,0-4.49-3.87c-2.25-.62-4.36.15-6.37,1.14-2.27,1.12-5.05,2.63-7.54,1.25a.22.22,0,0,0-.22.37Z"/></g><rect class="cls-48" x="474.02" y="309.34" width="526.64" height="24.07"/><path class="cls-45" d="M527.85,284.3a5.14,5.14,0,0,0-4.48-.65,9.88,9.88,0,0,0-6.86,6.48c-.63,2-.59,4.16-1,6.23-.6,3.33-2.25,6.38-3.14,9.65s-.88,7.13,1.43,9.61c-.81-1.12-.33-2.5.15-3.8,2.48-6.62,5.85-13.16,11.25-17.72,1.8-1.52,4-3.09,4.22-5.44A4.52,4.52,0,0,0,527.85,284.3Z"/><path class="cls-44" d="M541.66,306.12c.13-1.55-1.16-2.85-2.47-3.7s-2.82-1.56-3.59-2.92-.63-3.14-1.37-4.55-2.08-2.14-3.17-3.18a8.8,8.8,0,0,1-2.67-6.38,3.84,3.84,0,0,1,2-3.62,6.47,6.47,0,0,1,4.55-.24c2.83.7,5.6,2.57,6.34,5.39.47,1.82,0,3.75.12,5.63.12,2.45,1.12,4.76,1.64,7.15S543.35,304.35,541.66,306.12Z"/><path class="cls-43" d="M526.17,286a15.61,15.61,0,0,0-7.16,7.09,55.26,55.26,0,0,0-2,5.63c-.7,1.87-1.58,3.66-2.35,5.49a16.93,16.93,0,0,0-1.57,6.19.06.06,0,1,0,.12,0c.36-3.83,2.19-7.13,3.63-10.63.75-1.84,1.19-3.8,1.95-5.63a15.42,15.42,0,0,1,2.8-4.45,16.54,16.54,0,0,1,4.62-3.61s0-.1-.05-.08Z"/><path class="cls-49" d="M558.76,299.31a7.17,7.17,0,0,1-8.84.34c-1.44-1.11-2.45-2.77-4.07-3.59-3.09-1.57-7.2.51-10.17-1.28-1.49-.9-2.31-2.57-3.49-3.85s-2.64-2.12-3.54-3.52-.85-3.67.67-4.36c3.22-1.46,6.65-3,9.31-.63,1.43,1.26,2.29,3.08,3.75,4.3,2.15,1.78,5.42,2.13,7,4.43a20.09,20.09,0,0,1,1.45,3.4C552.11,297.47,555.58,299.24,558.76,299.31Z"/><path class="cls-43" d="M529.76,284.48a10,10,0,0,1,5.75,1.44,9.16,9.16,0,0,1,2.31,2c.64.76,1.17,1.61,1.88,2.31,1.39,1.34,3.31,1.57,5.06,2.21,2,.75,3.3,2.34,4.69,3.9s3.06,3.07,5.15,2.89a.07.07,0,0,0,0-.14c-4.34-.17-5.74-5.2-9.42-6.71-1.95-.8-4.11-.95-5.62-2.59-.67-.73-1.19-1.57-1.86-2.3a9.9,9.9,0,0,0-7.94-3.19.1.1,0,0,0,0,.19Z"/><path class="cls-50" d="M958.28,543.27c0,5.31-36.41,8.94-63.76,8.75s-38.42-4.6-35.29-9.43c4.75-7.31,22.22-6.42,49.57-6.23S958.32,538,958.28,543.27Z"/><polygon class="cls-31" points="886.12 524.75 885.77 508.5 898.38 509.43 895.86 526.88 890.06 529.83 886.12 524.75"/><path class="cls-6" d="M885,533.82a5.18,5.18,0,0,0,.65-3.57,2.42,2.42,0,0,1-.07-1.16c.07-.21.21-.4.26-.62.1-.48-.26-.92-.45-1.38a2,2,0,0,1,.69-2.34,21.71,21.71,0,0,0,9.39,0c.49-.09,1.22,0,1.18.49,0,.25-.25.44-.26.69s.34.51.47.79c.33.69-.71,1.28-.82,2a2.2,2.2,0,0,0,.1.84,8.17,8.17,0,0,1,.11,1.92l-.16,6.6a1.59,1.59,0,0,1-.22.92,1.56,1.56,0,0,1-1,.46,18.52,18.52,0,0,1-6,.39,6.21,6.21,0,0,1-4.79-3.28,2.42,2.42,0,0,1-.21-1.58C884,534.51,884.5,533.8,885,533.82Z"/><path class="cls-51" d="M897.11,543.44a13.17,13.17,0,0,1-7.12.48,9.61,9.61,0,0,0-3.34-.44,15.77,15.77,0,0,0-2.68,1,12.65,12.65,0,0,1-4.47.46l-7.31-.11c-2,0-4.57-.45-5.08-2.41a3.31,3.31,0,0,1,2-3.52,13.53,13.53,0,0,1,4.26-.94c4.24-.59,8.48-2.55,10.9-6.09a3.27,3.27,0,0,1,3.22,1.36,3,3,0,0,1-.28,3.29,11.14,11.14,0,0,0,9.36-2.89q.93,2.24,1.64,4.55a7.25,7.25,0,0,1,.37,1.66C898.71,542,899.13,542.72,897.11,543.44Z"/><path class="cls-51" d="M904.22,494.23l1.58.43a71.18,71.18,0,0,1-.44,15.37,3,3,0,0,1-.5,1.52,2.74,2.74,0,0,1-1.43.79,22.18,22.18,0,0,1-7.84.37q-8.43-.66-16.78-2.14a1.6,1.6,0,0,1-1-.45,1.62,1.62,0,0,1-.26-.81,62.26,62.26,0,0,1-.16-13.44,3.2,3.2,0,0,1,.5-1.72,1.18,1.18,0,0,1,1.6-.34c.51-8.15,1.17-16.84.88-25-.21-6-.84-12.13.85-17.88a40.56,40.56,0,0,1,24.2,2.4A382.19,382.19,0,0,0,904.22,494.23Z"/><path class="cls-52" d="M880.21,494.5a74.48,74.48,0,0,0,18.44.93c1.31-.11,2.91-.27,3.88-1.27.1-.1,0-.23-.14-.18a14.07,14.07,0,0,1-1.81.69,11.42,11.42,0,0,1-1.93.31c-1.43.11-2.87.16-4.3.18a83.41,83.41,0,0,1-8.94-.36c-1.7-.16-3.41-.37-5.11-.62-.2,0-.3.29-.09.32Z"/><polygon class="cls-31" points="934.22 520.36 932.31 504.81 944.48 504.48 943.76 521.45 938.49 524.84 934.22 520.36"/><path class="cls-6" d="M934.07,529.15a5,5,0,0,0,.27-3.48,2.26,2.26,0,0,1-.18-1.11c.05-.21.16-.4.19-.61,0-.48-.34-.87-.56-1.29a1.92,1.92,0,0,1,.43-2.3,21.18,21.18,0,0,0,9-.9c.46-.14,1.17-.13,1.18.35,0,.24-.2.45-.18.69s.37.45.52.71c.38.63-.55,1.29-.59,2a2.45,2.45,0,0,0,.18.79,8.12,8.12,0,0,1,.29,1.83l.49,6.35a1.52,1.52,0,0,1-.12.9,1.47,1.47,0,0,1-.94.54,17.55,17.55,0,0,1-5.72,1,6,6,0,0,1-4.92-2.67,2.42,2.42,0,0,1-.35-1.5C933.15,529.92,933.55,529.19,934.07,529.15Z"/><path class="cls-51" d="M946.57,537.2a12.67,12.67,0,0,1-6.78,1.15,9.13,9.13,0,0,0-3.25-.09,14.86,14.86,0,0,0-2.47,1.21,12.16,12.16,0,0,1-4.24.88l-7,.6c-1.94.17-4.43,0-5.11-1.81a3.2,3.2,0,0,1,1.57-3.57,12.65,12.65,0,0,1,4-1.31c4-1,7.88-3.27,9.85-6.9a3.17,3.17,0,0,1,3.23,1,2.84,2.84,0,0,1,0,3.18,10.73,10.73,0,0,0,8.7-3.68c.74,1.37,1.41,2.78,2,4.21a7.07,7.07,0,0,1,.52,1.55C948,535.64,948.43,536.31,946.57,537.2Z"/><path class="cls-51" d="M947.83,489.18l1.61.27a71.7,71.7,0,0,1,1.11,15.34,3,3,0,0,1-.35,1.56,2.66,2.66,0,0,1-1.34.93,22.28,22.28,0,0,1-7.76,1.16q-8.46.19-16.91-.44a1.19,1.19,0,0,1-1.39-1.13,63.1,63.1,0,0,1-1.52-13.35,3.42,3.42,0,0,1,.33-1.77,1.19,1.19,0,0,1,1.56-.5c-.31-8.15-.53-16.86-1.64-24.94-.82-5.94-2.06-12-1-17.88a40.63,40.63,0,0,1,24.33-.05A381,381,0,0,0,947.83,489.18Z"/><path class="cls-52" d="M924,491.88a74.81,74.81,0,0,0,18.42-.94c1.28-.24,2.85-.57,3.71-1.65.08-.09,0-.25-.14-.18a13,13,0,0,1-1.66.85,10.54,10.54,0,0,1-1.83.5c-1.44.28-2.92.47-4.38.64a84.77,84.77,0,0,1-9,.55c-1.71,0-3.41,0-5.11-.11-.22,0-.21.32,0,.34Z"/><path class="cls-53" d="M878.16,298.7c-11.76,46.46-7.52,96.63-25.19,141.18a36.72,36.72,0,0,0,27.1,16.26c14.92,1.74,29.78-5,44.74-3.74,7.84.65,15.35,3.47,23.14,4.58s16.58.15,22.07-5.49c-3.33-45.52-10.08-96.37-21.41-140.58-7.46-5.06-16.06-5-23.52-10.06-3.38-2.29-6.82-4.61-10.7-5.92-4.18-1.42-8.68-1.58-13.1-1.5C894.18,293.56,885.15,297.39,878.16,298.7Z"/><path class="cls-54" d="M883.92,175.76c-3.27-.27-6.22,2.57-7.35,5.41a9.54,9.54,0,0,0-.51,5.07,13.71,13.71,0,0,0,2.2,4.88,9.64,9.64,0,0,1,1.3,2.75,4.51,4.51,0,0,1-.29,3.11.08.08,0,0,0,.13.08c.92-1.21.59-3,0-4.32-.7-1.63-1.89-3-2.55-4.64a9.12,9.12,0,0,1,1.7-9.64,7.29,7.29,0,0,1,5.33-2.52.09.09,0,1,0,0-.18Z"/><path class="cls-54" d="M875.41,198.06a5.43,5.43,0,0,0,3.17,2.35,3.46,3.46,0,0,0,3.39-1,.07.07,0,0,0-.1-.1,3.71,3.71,0,0,1-3.31.8,5.57,5.57,0,0,1-3-2.15c-.06-.07-.18,0-.13.07Z"/><path class="cls-3" d="M809.9,251.88l3.18-1.62.13-3.46,8,.29-.1,2.77,3.38,2.55-.92,25.08a27.57,27.57,0,0,1-6.6.59,41.27,41.27,0,0,1-7.59-1.11Z"/><path class="cls-31" d="M829.79,271.17a13.93,13.93,0,0,0-.4-5.67,5.59,5.59,0,0,0-1.15-2.34c-1.13-1.25-3-1.63-4.09-2.94a6.81,6.81,0,0,0-.39,2.18,1.67,1.67,0,0,1-1,1.72,5,5,0,0,1-2.36.4l-1.52,0a15.69,15.69,0,0,1-5.51-.62A5.29,5.29,0,0,1,809.8,260a.82.82,0,0,0-1.12.15,2.16,2.16,0,0,0-.19,1.16l.09,2.84a5.47,5.47,0,0,0,.22,1.71,7.84,7.84,0,0,1,.43,1.14,9.94,9.94,0,0,1-.05,1.63c0,1.4,1.19,2.49,2.34,3.3a21.91,21.91,0,0,0,7.32,3.34c3.33.82,7.14,1,9.48,3.51a7.11,7.11,0,0,0,3.06-3.69C831.81,273.52,831.37,271.58,829.79,271.17Z"/><path class="cls-34" d="M809.24,268q2.21,1.46,4.52,2.75A20.27,20.27,0,0,0,816,271.9a3.6,3.6,0,0,0,2,.38.1.1,0,0,0,0-.19,10.66,10.66,0,0,1-2.21-.68c-.71-.34-1.41-.73-2.1-1.12q-2.17-1.21-4.24-2.57c-.18-.11-.34.17-.17.28Z"/><path class="cls-34" d="M808.58,264.7a20.34,20.34,0,0,0,4.21,2.38,18.28,18.28,0,0,0,2.26.78,7.34,7.34,0,0,0,2.4.41.13.13,0,0,0,0-.25c-.72-.29-1.55-.37-2.31-.59a20.93,20.93,0,0,1-2.19-.75,19.74,19.74,0,0,1-4.19-2.33c-.21-.15-.41.2-.21.35Z"/><path class="cls-51" d="M840.77,278.34c-4.4-2.09-8.64-5.19-10.48-9.69-1.72,2.74-4.09,4.61-4.89,7.75a4.45,4.45,0,0,0-.16,1.74c4.87,2.93,6.76,8.66,11,12.39a1,1,0,0,0,.48.28,1.06,1.06,0,0,0,.81-.35,12.64,12.64,0,0,0,4.26-9.55C841.82,279.57,842,278.91,840.77,278.34Z"/><path class="cls-54" d="M884.1,175.77c-2.56.51-5.56,2.6-6.57,5a11.11,11.11,0,0,0-.15,7.67c.43,1.33,1.07,2.6,1.42,4a5.22,5.22,0,0,1-.39,4.07,2.78,2.78,0,0,1-3.63,1.07,5.27,5.27,0,0,0,5,2.28,5.92,5.92,0,0,0,4.88-3.23c.82-1.68.8-3.65,1.41-5.42.71-2,2.25-3.77,2.57-5.9a7,7,0,0,0-1.3-4.82C886.4,179,885.44,176.81,884.1,175.77Z"/><path class="cls-31" d="M900.62,229.8q-2.4-5.48-4.79-11c-.44-1-1-2.09-2-2.42-1.69-.55-3.28,1.33-5.07,1.32a3.61,3.61,0,0,1-2.93-2.1,28.92,28.92,0,0,1-1.3-3.55,11.57,11.57,0,0,0-6-6.41,11.89,11.89,0,0,0,2.77-6.76c0-2.16-.92-4.2-1.36-6.31a13.76,13.76,0,0,1,.45-7.17,3.35,3.35,0,0,1,1.87-1.88,17.5,17.5,0,0,1,13.37.09,15.6,15.6,0,0,1,8.76,10c2,7.34-1.9,15.11-1,22.68.29,2.49,1.11,4.92,1.07,7.43S903,229,900.62,229.8Z"/><path class="cls-53" d="M954,352.13c-3.18.87-7.67,1-10.85,1.88a53,53,0,0,1-7.45,1.65c-2.63.32-12.66.95-15.31.88-4-.12-30.59-2.32-44.19-5.26,0-2.92,2.25-47.41,2.77-51.22-1.17,4.25-4.88,11.31-8.37,13.16-4.14,2.21-9.26,1.16-13.62-.59-9.59-3.83-17.62-10.24-25.52-16.9.1-5.4,2.26-10.52,4.38-15.48.84-2,2.22-3.53,3.06-5.5a60,60,0,0,0,13.93,8.77,2.86,2.86,0,0,1,2-1.71q5.24-11.87,10.46-23.73c2.51-5.69,5.09-11.49,9.32-16,6.71-7.23,16.91-10.61,23.13-18.26,8.94-.55,17.8-1.84,26.74-2.4,4.56,2.64,8.53,5.18,13,7.9,3.85,2.31,7.77,4.74,10.45,8.34,3.07,4.14,4.18,9.37,5.17,14.43q4.77,24.48,8.34,49.16c.65,4.49.87,10-2.86,12.56-2.73,1.89-6.4,1.31-9.66.65C950.53,319.88,952.28,339.16,954,352.13Z"/><path class="cls-55" d="M836.68,300.81c.59-1.66,1.19-3.32,1.78-5a8.74,8.74,0,0,0,.62-2.54,2.85,2.85,0,0,0-.92-2.36,2.33,2.33,0,0,0-2-.41,2.63,2.63,0,0,0-1.62,1.32,6,6,0,0,0-.49,1.55l-1,4.85C834.44,299.11,835.31,299.83,836.68,300.81Z"/><path class="cls-56" d="M836,292.63a.81.81,0,0,0,.22,1.22.73.73,0,0,0,1-.65.68.68,0,0,0-1.06-.46"/><path class="cls-57" d="M879.29,298.77c1.65-3.94,3.15-7.93,4.68-11.91.82-2.1,1.63-4.21,2.46-6.31a50.83,50.83,0,0,0,2.38-6.81,32,32,0,0,0,.63-11.41c0-.09-.18-.07-.18,0a42.46,42.46,0,0,1-.57,10.44,43.74,43.74,0,0,1-2.37,7.15c-1.71,4.3-3.34,8.63-5,12.95-.75,1.93-1.48,3.88-2.26,5.8-.06.15.18.21.24.07Z"/><path class="cls-57" d="M949.69,246.53c.4,8.65-1.88,17-3.39,25.46A81.12,81.12,0,0,0,945,284.81a96.23,96.23,0,0,0,.65,13.14c.28,2.41.63,4.8,1,7.2s.75,5,1.34,7.42c0,.16.32.13.3,0-.29-2.17-.73-4.32-1.07-6.48s-.63-4.37-.87-6.57a117.73,117.73,0,0,1-.77-13.14,82.6,82.6,0,0,1,1.15-13c.69-4.21,1.61-8.38,2.32-12.59a58.64,58.64,0,0,0,1-14.18c0-.21-.34-.21-.33,0Z"/><path class="cls-57" d="M877,243.61A29,29,0,0,1,887.31,257a.1.1,0,0,0,.19-.06,26.46,26.46,0,0,0-10.3-13.72c-.25-.17-.49.24-.24.41Z"/><path class="cls-54" d="M929.26,238.52a9.55,9.55,0,0,0-.74-9.48c-1.06-1.51-2.57-2.73-3.23-4.45-1.39-3.62,1.54-7.44,1.64-11.32.09-3.63-2.29-6.82-3.24-10.32-1.38-5.12.37-10.58-.3-15.84-.83-6.47-5.42-12.12-11.24-15.05s-12.7-3.33-19.08-2c-4,.85-8.08,2.7-9.71,6.43-2,1-2.45,3.88-3.1,6a3.31,3.31,0,0,0,1.3,3.32,16.52,16.52,0,0,0,3.3,1.82,5.3,5.3,0,0,1,2.71,2.52c.28.67.31,1.43.56,2.12a4.37,4.37,0,0,0,2.92,2.58c.94.28,2,.36,2.66,1.11a3.2,3.2,0,0,1,4.12-1.43,4.1,4.1,0,0,1,2,2.89,12.13,12.13,0,0,1,0,3.61,6.1,6.1,0,0,1-.59,2.39,2,2,0,0,1-2.06,1,19.41,19.41,0,0,1,.19,8.48c-.49,2.4-2,4.56-2.14,7-.18,2.78,1.38,5.39,1.62,8.16.2,2.2-.44,4.38-.73,6.57s-.15,4.64,1.31,6.3a5.05,5.05,0,0,0,1.81-.21,8.59,8.59,0,0,1,.28-4.59,22.81,22.81,0,0,0,.71-2.7c.26-2-.75-4.23.14-6.08-.11,1.92,1.48,3.52,1.86,5.4.49,2.5-1.29,5.19-.28,7.53a78.05,78.05,0,0,1,9.91-.26c1.56.06,3.11.22,4.66.14C921.06,240,924.78,237.74,929.26,238.52Z"/><path class="cls-58" d="M814,249.77a21.65,21.65,0,0,0,2.9.13,11.92,11.92,0,0,0,2.8-.25c.09,0,.07-.16,0-.17-.94,0-1.9.09-2.84.1s-1.89,0-2.84-.07c-.17,0-.17.24,0,.26Z"/><path class="cls-58" d="M810.36,252.43a19.46,19.46,0,0,0,6.63,1.18,20,20,0,0,0,3.28-.27c.57-.09,1.14-.21,1.71-.35a4.44,4.44,0,0,0,1.52-.53.11.11,0,0,0,0-.2,6.5,6.5,0,0,0-1.49.37c-.54.14-1.08.26-1.63.35a19.67,19.67,0,0,1-3.34.31,21.76,21.76,0,0,1-6.61-.95c-.06,0-.08.07,0,.09Z"/><path class="cls-58" d="M814.46,247.34l0,.94c0,.31,0,.62,0,.93a.11.11,0,0,0,.22,0c0-.31.07-.62.08-.93l0-.94c0-.2-.3-.2-.31,0Z"/><path class="cls-58" d="M816.62,247.36c0,.64,0,1.29.1,1.93a.11.11,0,0,0,.22,0c0-.64-.06-1.29-.1-1.93a.11.11,0,0,0-.22,0Z"/><path class="cls-58" d="M818.59,247.29l0,1.06,0,.51a2.46,2.46,0,0,0,0,.28.49.49,0,0,0,.08.23s.11,0,.14,0a.37.37,0,0,0,.07-.23,2.61,2.61,0,0,0,0-.28l0-.51-.05-1.06c0-.2-.33-.2-.32,0Z"/><path class="cls-58" d="M820.36,247.42v1a4.54,4.54,0,0,0,.08,1,.07.07,0,0,0,.14,0,2.59,2.59,0,0,0,0-.48c0-.16,0-.33,0-.49l-.07-1a.08.08,0,1,0-.15,0Z"/><path class="cls-34" d="M896.12,200.5a2.3,2.3,0,0,0,0-1.53,5.14,5.14,0,0,1-.39-1.68c0-.55.66-.92,1.15-1a1.23,1.23,0,0,1,1.34.58c.08.13.31,0,.26-.11-.43-1.2-2.16-1-2.81-.12-.87,1.16.66,2.56.17,3.81-.08.18.21.25.28.08Z"/><path class="cls-34" d="M896.08,199.13a2.65,2.65,0,0,1,.15-1.12,1,1,0,0,1,.66-.54.14.14,0,0,0,0-.28,1,1,0,0,0-.87.62,2.7,2.7,0,0,0-.14,1.32.12.12,0,1,0,.24,0Z"/><path class="cls-59" d="M880.8,183.83a5.6,5.6,0,0,1,1.46-4.25c.14-.15-.08-.38-.23-.23a5.68,5.68,0,0,0-1.6,4.48c0,.24.39.24.37,0Z"/><path class="cls-59" d="M884.41,184.81a18.84,18.84,0,0,1,2.93,1.82,6.19,6.19,0,0,1,2,2.88,7.35,7.35,0,0,0,1.63,2.91,10.42,10.42,0,0,0,2.76,2.09c.12.06.25-.09.14-.18-.88-.79-1.9-1.41-2.71-2.29a5.81,5.81,0,0,1-1-1.51c-.28-.59-.43-1.23-.69-1.83-.9-2.06-3-3.17-4.91-4.13-.16-.08-.3.16-.14.24Z"/><path class="cls-59" d="M893.17,191.73a10.12,10.12,0,0,0,1.12,1.24c.2.18.42.36.64.53a3.88,3.88,0,0,0,.33.23,1,1,0,0,0,.39.18.12.12,0,0,0,.12-.2.93.93,0,0,0-.13-.15l-.17-.11-.33-.23a7.64,7.64,0,0,1-.62-.51,9.43,9.43,0,0,1-1.11-1.17c-.1-.14-.35,0-.24.19Z"/><path class="cls-59" d="M898.3,205.8a8.27,8.27,0,0,1,1.83,5.15,14.26,14.26,0,0,1-1.34,4.52,20.2,20.2,0,0,0-1.52,4.56,6.93,6.93,0,0,0,0,2.18,14.94,14.94,0,0,0,.93,2.76,7.86,7.86,0,0,1,.41,3.5,34.61,34.61,0,0,1-.63,3.64c0,.09.12.13.14,0a16.09,16.09,0,0,0,.55-6.05,18.39,18.39,0,0,0-.76-2.94,6.56,6.56,0,0,1-.27-2.71c.36-3.26,2.63-6,2.9-9.26a8.5,8.5,0,0,0-1.93-5.57c-.14-.19-.46,0-.32.18Z"/><path class="cls-59" d="M901.92,218.33c-.93,2.78.53,5.52,1.87,7.89a18.44,18.44,0,0,1,1.89,4.05,10.73,10.73,0,0,1,.05,4.3c-.18,1.42-.46,3.21.46,4.44.06.08.2,0,.17-.07a8.78,8.78,0,0,1-.39-2,12.7,12.7,0,0,1,.12-2,14.45,14.45,0,0,0,.16-4c-.46-2.83-2.43-5-3.52-7.63a7.19,7.19,0,0,1-.55-4.84.14.14,0,0,0-.26-.08Z"/><path class="cls-59" d="M920.46,198.94a9.74,9.74,0,0,0,.1,3.61A12.54,12.54,0,0,0,922,205.9a12.54,12.54,0,0,1,1.48,3.35,9.29,9.29,0,0,1-.12,4.16c-.59,2.54-1.84,4.87-2.39,7.42a9.65,9.65,0,0,0-.19,3.55,7.87,7.87,0,0,0,1.34,3.18,12.56,12.56,0,0,1,1.92,3.77,10.34,10.34,0,0,1,.32,2.14c0,.69-.06,1.37-.1,2.06,0,.16.23.18.27,0a8,8,0,0,0,.07-3.47,10,10,0,0,0-1.19-3.31,22.19,22.19,0,0,1-1.91-3.22,8,8,0,0,1-.31-3.88c.37-2.58,1.53-4.94,2.25-7.42a12,12,0,0,0,.54-3.66,7.94,7.94,0,0,0-1-3.43,38.34,38.34,0,0,1-1.91-3.65,9.29,9.29,0,0,1-.52-4.55c0-.08-.12-.12-.13,0Z"/><path class="cls-59" d="M917,228.94c.56,1.65,1.31,3.24,1.76,4.92a8.17,8.17,0,0,1,.29,2.46,5.43,5.43,0,0,1-.2,1.26,12.3,12.3,0,0,0-.41,1.16.08.08,0,0,0,.14.08,3.41,3.41,0,0,0,.7-2.06,8.39,8.39,0,0,0-.11-2.55,30.57,30.57,0,0,0-1.93-5.33c-.06-.14-.29-.09-.24.06Z"/><path class="cls-54" d="M897.13,205a11.68,11.68,0,0,1-.66,7.75c-.51,1.12-1.19,2.16-1.73,3.28a10.19,10.19,0,0,0-1,3.28,9.94,9.94,0,0,0,.21,3.52,16.23,16.23,0,0,0,1.32,3.23,8.18,8.18,0,0,1,1,3.8,25.65,25.65,0,0,1-.67,4.09c-.45,2.29-.59,5.22,1.56,6.73.09.07.21-.09.12-.16-2.08-1.67-1.84-4.49-1.36-6.83a23.9,23.9,0,0,0,.61-3.66,7.65,7.65,0,0,0-.67-3.43,31.24,31.24,0,0,1-1.49-3.4,9.88,9.88,0,0,1-.35-3.59,10.16,10.16,0,0,1,1.12-3.72c.56-1.1,1.23-2.14,1.71-3.29a11.65,11.65,0,0,0,.47-7.64c0-.11-.2-.07-.17,0Z"/><path class="cls-54" d="M900.5,226.51c-1,2.47.88,4.82.89,7.28,0,1.28-.59,2.46-.77,3.71a3,3,0,0,0,.6,2.65c.07.08.21,0,.15-.12-1.3-2.13.43-4.25.31-6.48s-1.95-4.61-1-7c0-.11-.12-.15-.16-.05Z"/><path class="cls-54" d="M922.73,199.33c.15,4.93,4.64,8.33,5.13,13.19a10.13,10.13,0,0,1-.5,4.3,35.09,35.09,0,0,0-1.46,4,4.86,4.86,0,0,0,.43,3.51,15.76,15.76,0,0,0,2.19,2.57,7.82,7.82,0,0,1,2,3.73,15.72,15.72,0,0,1,.14,4.44.09.09,0,0,0,.18,0,10.59,10.59,0,0,0-1-7c-1.28-2.12-3.89-3.41-3.74-6.2a12.82,12.82,0,0,1,1.27-4.11,11.28,11.28,0,0,0,.88-4.09,13.42,13.42,0,0,0-2.21-6.89c-1.34-2.31-3-4.66-3.12-7.41a.07.07,0,1,0-.13,0Z"/><path class="cls-54" d="M900.19,227.92a11.06,11.06,0,0,0,0,3.25,9.67,9.67,0,0,1,.22,3.67c-.42,1.79-1.68,3.87-.51,5.65.09.13.3,0,.22-.13-1.13-1.92.32-4,.6-5.93a9.37,9.37,0,0,0-.31-3,11.24,11.24,0,0,1-.09-3.52c0-.05-.08-.06-.09,0Z"/><path class="cls-57" d="M852.75,283.69a13.78,13.78,0,0,1,2.28,8.66s.08,0,.09,0a13.34,13.34,0,0,0-2-8.85c-.14-.2-.46,0-.33.19Z"/><path class="cls-57" d="M854.61,282.41a5.22,5.22,0,0,1,2.36,2.31.07.07,0,0,0,.12-.06,4.35,4.35,0,0,0-2.34-2.48c-.16-.07-.3.16-.14.23Z"/><path class="cls-57" d="M842.43,278.63a38.94,38.94,0,0,0-2.14,4.86c-.29.82-.56,1.66-.8,2.5a12.86,12.86,0,0,0-.53,2.61.09.09,0,0,0,.18,0c.3-.8.47-1.64.69-2.46s.5-1.68.8-2.51a37.89,37.89,0,0,1,2.12-4.85c.11-.21-.21-.39-.32-.18Z"/><path class="cls-54" d="M889.63,196.55a5.83,5.83,0,0,0-3.29-2.6,4.69,4.69,0,0,0-4.05.46c-.22.17-.11.58.21.49a9.33,9.33,0,0,1,1.81-.42,5.17,5.17,0,0,1,1.79.17,5.6,5.6,0,0,1,3.08,2.16c.19.27.63,0,.45-.26Z"/><path class="cls-54" d="M882.88,195.2a7.84,7.84,0,0,1,3.54.13,7.73,7.73,0,0,1,1.63.66c.54.3,1,.69,1.56,1,.19.09.44-.11.31-.31a3.76,3.76,0,0,0-1.47-1.21,7.39,7.39,0,0,0-1.86-.72,7,7,0,0,0-3.82.1.2.2,0,0,0,.11.39Z"/><path class="cls-54" d="M884.62,198a4.34,4.34,0,0,1,.32,1.88,2.15,2.15,0,0,1-.19.84.74.74,0,0,1-.21.25l0,0h0s0,.1,0,0a3.44,3.44,0,0,1-.09-1,10.32,10.32,0,0,1,.06-1.11c0-.17,0-.34.08-.51s.05-.34.12-.39,0,0,0,0h0a1,1,0,0,1,.09.13,1.29,1.29,0,0,1,.07.43,4.3,4.3,0,0,1-.53,2.19h.61A2,2,0,0,1,885,199h-.52a.77.77,0,0,1-.09.87c-.18.2.07.59.32.4a1.19,1.19,0,0,0,.29-1.57.3.3,0,0,0-.52,0,2.67,2.67,0,0,0-.16,2.44.36.36,0,0,0,.61,0,4.86,4.86,0,0,0,.57-2.67c0-.44-.18-.93-.68-1a.59.59,0,0,0-.56.19,1.15,1.15,0,0,0-.23.57,9.54,9.54,0,0,0-.23,1.5,5.12,5.12,0,0,0,0,1.41.67.67,0,0,0,1,.5,1.42,1.42,0,0,0,.67-.93,3.52,3.52,0,0,0-.37-2.87c-.16-.23-.6-.1-.49.2Z"/><path class="cls-60" d="M885.21,210.11a3.58,3.58,0,0,0,3.06-1.94c.08-.13-.1-.25-.21-.16-.41.33-.73.75-1.14,1.07a2.56,2.56,0,0,1-1.71.59c-.28,0-.28.43,0,.44Z"/><path class="cls-6" d="M944.42,320.61c6.21-6.61,7.39-16.9,4.55-25.52a22.71,22.71,0,0,0-3.3-6.58c-3.16-4.2-8-6.71-12.64-9.24-6.07-3.32-12.07-6.94-17-11.83-2.69-2.68-5-5.71-7.56-8.54-2.18-2.43-4.51-4.71-6.56-7.25-1.62-2-3-4.17-4.48-6.32q-3.86-5.85-7.73-11.68a3,3,0,0,0-1-1.07,2.89,2.89,0,0,0-1.32-.42c-1.51,0-2.36,1-4,2.69.62,3.69,2.09,5,4.19,8.13a117.59,117.59,0,0,0,22.85,25,10.6,10.6,0,0,1,3.39,3.79,7.37,7.37,0,0,1,.37,3.64c-.92,7.74-8.68,14-7.73,21.71.46,3.77,3,6.94,5.62,9.66a62.46,62.46,0,0,0,12.08,9.59C930.42,320.12,939.43,325.93,944.42,320.61Z"/><path class="cls-29" d="M919.18,276a15.35,15.35,0,0,1,.85,5.82c-.1,1.93-.72,3.75-1,5.65a6.16,6.16,0,0,0,1.14,4.88,26.37,26.37,0,0,0,3.77,3.7,45.9,45.9,0,0,0,18.41,9.69c1.79.45,3.7.46,5.07-.94a8.81,8.81,0,0,0,2-4.38.22.22,0,0,0-.42-.12,10.68,10.68,0,0,1-1.78,3.89c-1.19,1.38-2.89,1.42-4.56,1a42,42,0,0,1-9.44-3.6,47.14,47.14,0,0,1-8.4-5.51,40.09,40.09,0,0,1-3.72-3.42,6,6,0,0,1-1.46-2.25,6.32,6.32,0,0,1-.21-2.63c.21-2,.88-3.89,1-5.9a15.45,15.45,0,0,0-.93-6c-.07-.2-.38-.11-.31.09Z"/><path class="cls-29" d="M931.35,299.4a6.16,6.16,0,0,0-1.4,1.77,3.39,3.39,0,0,0-.57,2.17,1,1,0,0,0,1.48.65,3.14,3.14,0,0,0,.72-.78,5.3,5.3,0,0,0,.58-1,5.57,5.57,0,0,0,.52-2.16c0-.27-.08-.61-.37-.7s-.68.26-.91.51a7.24,7.24,0,0,0-1.23,1.86,8.27,8.27,0,0,0-.41,1.08c-.08.3-.21.68,0,.95a.61.61,0,0,0,.86,0,2.32,2.32,0,0,0,.67-1,4.6,4.6,0,0,0,.41-2.48.22.22,0,0,0-.37-.15,4.38,4.38,0,0,0-1.38,3.13.22.22,0,0,0,.41.11,8.16,8.16,0,0,0,.8-1.29,4.73,4.73,0,0,0,.52-1.4c0-.17-.2-.31-.3-.13-.22.44-.37.91-.6,1.35a9.13,9.13,0,0,1-.8,1.25l.42.11a4.06,4.06,0,0,1,1.24-2.82l-.38-.16a4.09,4.09,0,0,1-.15,1.74,3.76,3.76,0,0,1-.32.74c-.13.23-.28.56-.55.66s-.11-.36-.08-.48a6.28,6.28,0,0,1,.29-.83,7,7,0,0,1,.87-1.53c.17-.21.34-.42.53-.62s.26-.31.36-.21,0,.32,0,.42a5.22,5.22,0,0,1-.42,1.64,5,5,0,0,1-.94,1.47c-.15.18-.36.42-.63.38s-.46-.4-.47-.68a2.53,2.53,0,0,1,.21-1,7.49,7.49,0,0,1,.41-.86,6.26,6.26,0,0,1,1.24-1.52c.21-.19-.09-.49-.3-.31Z"/><path class="cls-6" d="M888.1,217.72a8.24,8.24,0,0,1-3.26-2,13.87,13.87,0,0,1-2.22-3.94,18.23,18.23,0,0,0-3.71-5.17,2.4,2.4,0,0,1-.59-.76,2.21,2.21,0,0,1,.41-1.89c.65-1.13,1.36-2.23,2.1-3.3,1.54.42,2.47,1.9,4,2.46a5.6,5.6,0,0,0,5.77-1.7,16.29,16.29,0,0,0,3.08-5.52,14.61,14.61,0,0,1-2.06,5.47c-.53.84-1.14,1.62-1.63,2.48a1.59,1.59,0,0,0-.27.78,1.9,1.9,0,0,0,.63,1.12,10.55,10.55,0,0,1,2,3.49l3.72-3.37a8.38,8.38,0,0,0,1.29-1.37,1.77,1.77,0,0,0-.08,1A19.36,19.36,0,0,0,894,209a12.87,12.87,0,0,0-1.22,1.73,16.14,16.14,0,0,0-.85,2,13.09,13.09,0,0,1-1.53,3.09A4.23,4.23,0,0,1,888.1,217.72Z"/><path class="cls-6" d="M744.59,210.59a4.11,4.11,0,0,1-3.23-.46,14.54,14.54,0,0,0-2-1.34c-1.21-.49-2.57,0-3.85.23a14.86,14.86,0,0,1-7.7-.63,24.85,24.85,0,0,1-6.81-3.78c.66,1.5,2,2.37,3.37,3.34a2.58,2.58,0,0,1,1.14,1.43,2.37,2.37,0,0,1-1.14,2.14,7.8,7.8,0,0,1-4,1.44,19.38,19.38,0,0,0,1.89.92c1.72.8,2.4,2.83,3.17,4.56a13.63,13.63,0,0,0,4.24,5.56,8.46,8.46,0,0,0,6.66,1.6,9.83,9.83,0,0,0,5.21-3.43,16.13,16.13,0,0,0,3.64-8.12C745.32,212.86,745.46,211.43,744.59,210.59Z"/><path class="cls-61" d="M738.16,209.8a17.73,17.73,0,0,1-.09,8.32,17.23,17.23,0,0,1-1.49,3.86,15.91,15.91,0,0,1-1,1.68c-.4.58-.91,1.11-1.29,1.71-.12.19.14.35.3.23a11.23,11.23,0,0,0,2.42-3.48,18.45,18.45,0,0,0,1.49-4,17.51,17.51,0,0,0,0-8.42c-.05-.21-.37-.12-.32.09Z"/><path class="cls-50" d="M269.4,532.88c0,5.3-59.74,8.77-104.65,8.46s-63.12-4.77-58-9.58c7.77-7.29,36.46-6.32,81.37-6S269.44,527.57,269.4,532.88Z"/><path class="cls-51" d="M130.19,218.85s-12.71-.09-17.13,16.48c-3.35,12.56-3.56,22.18-4.42,35.09-.61,9.25.76,19.13,2.32,28.4a23.77,23.77,0,0,0,5.82,12.3c3.59,4.08,8.45,4.6,13.78,4.6C140.13,314.61,153.39,229.16,130.19,218.85Z"/><path class="cls-31" d="M230.81,316.44S234.5,363.06,225,367c0,0-2.9,1.32-1.45-16.86-.53-1-1.62-1.18-1.75-.26-.11.72-.18,6-.21,8.25a1.72,1.72,0,0,1-1.46,1.74.89.89,0,0,1-.79-.24c-.79-.8-1.58-15.81,1.58-22.92-.92-9.48-1.71-20.81-1.71-20.81S225.81,306.43,230.81,316.44Z"/><path class="cls-6" d="M219.52,527.47s-1.32,1.27.79,4.64c.23.37,12.42-3.15,24.8-6.47,15.68-4.2,31.88-8.71,26.64-11.51"/><path class="cls-31" d="M233.36,504.6,226.15,485l-15.86.59s5,14.86,7.69,25.55C218,511.17,228.35,527.73,233.36,504.6Z"/><path class="cls-62" d="M219.52,527.48c1.82-.36,6.44-1.49,12.21-3l11.5-2.93c13.9-3.59,28.53-7.46,28.53-7.46s-1.92-1.53-9.42-.44a26,26,0,0,1-11.77-.84c-.66-.21-1.32-.43-2-.68a49,49,0,0,1-14.6-9.08.86.86,0,0,0-1.43.54c-.74,5.64-3.54,16-13.7,7.4l-.91-.8c-1,.26-.87,1.31-1,2.38a36.62,36.62,0,0,0,.17,9.58A10.25,10.25,0,0,0,219.52,527.48Z"/><path class="cls-51" d="M219.52,527.48c1.82-.36,6.44-1.49,12.21-3l1-.42s-4.83-7.77-15.6-1.91A10.25,10.25,0,0,0,219.52,527.48Z"/><path class="cls-51" d="M243.23,521.59c13.9-3.59,28.53-7.46,28.53-7.46s-1.92-1.53-9.42-.44a26,26,0,0,1-11.77-.84c-.66-.21-1.32-.43-2-.68C245.72,514.28,242.77,517.49,243.23,521.59Z"/><path class="cls-63" d="M240.19,514.94a14.71,14.71,0,0,1,3.08-5"/><path class="cls-63" d="M237.3,513a12.61,12.61,0,0,1,2.77-4.76"/><path class="cls-51" d="M170.54,294.49s-5.12,19.65-4.91,33.5c.25,15.62,9.91,28.58,14.21,43.47s30,107.54,32.67,125.91c0,0,14.61,4.66,20.06-5.13,2.33-.44-5.51-51.2-5.8-67.65s-1.5-25-8-46.72-8.84-49.92-3.94-61.39"/><path class="cls-6" d="M122.18,522.06s-1.67.68-.81,4.31c.09.4,12.74,1.29,25.51,2.42,16.17,1.42,32.93,2.75,29-1.41"/><path class="cls-31" d="M142.89,506.54l-.23-19.49-15.12-4.64s-.32,14.63-1.34,24.88C126.2,507.29,130.4,525.16,142.89,506.54Z"/><path class="cls-62" d="M122.18,522.06c1.84.28,6.56.79,12.49,1.39,3.62.37,7.67.77,11.81,1.17,14.28,1.39,29.35,2.76,29.35,2.76s-1.29-2-8.72-3.45a27.34,27.34,0,0,1-10.8-4.57c-.54-.39-1.09-.8-1.64-1.24A47.14,47.14,0,0,1,144,505.42a.89.89,0,0,0-1.54,0c-2.58,4.69-8.68,12.82-15.38,2l-.59-1c-1-.11-1.25.86-1.7,1.77a33,33,0,0,0-3,8.44A9,9,0,0,0,122.18,522.06Z"/><path class="cls-51" d="M122.18,522.06c1.84.28,6.56.79,12.49,1.39l1.1,0s-2-8.37-14.05-6.75A9,9,0,0,0,122.18,522.06Z"/><path class="cls-51" d="M146.48,524.62c14.28,1.39,29.35,2.76,29.35,2.76s-1.29-2-8.72-3.45a27.34,27.34,0,0,1-10.8-4.57c-.54-.39-1.09-.8-1.64-1.24C151.27,519,147.42,520.89,146.48,524.62Z"/><path class="cls-64" d="M145.85,517.81a14.24,14.24,0,0,1,4.58-3.39"/><path class="cls-64" d="M143.78,515.14a12.22,12.22,0,0,1,4.21-3.26"/><path class="cls-51" d="M154.24,302.13s-11.41,15.54-15.86,27.73c-5,13.76-.26,28.25-1.21,42.69s-7.8,103.93-11.49,120.87c0,0,12.19,8.84,20.6,2,2.34.37,12-46.62,17.25-61.12s7-22.42,8.12-43.51,8.44-46.58,16.9-55"/><path class="cls-65" d="M155.9,309.79s-7.34,10.95-11,22.67,0,37.53-1.82,51.93-9,92.94-14.27,107.85"/><path class="cls-51" d="M204.34,155.12a3.32,3.32,0,0,0-.24.9c-.63,3-5.64,5.27-8.43,5.33a3.78,3.78,0,0,1-2.95-1.16.8.8,0,0,0-.38-.33c-.28-.09-.54.15-.75.36-2.65,2.63-4.61,1.07-7.46.2-2.59-.78-5.79-.45-8.48-.71-.08.59-.28,1.49-.53,2.57-.68,2.95-1.87,7.27-2.75,10.6-.76-2.59-1.65-3.32-1.65-3.32l1.74,7.31,1.06,1.36,2.22,2.82c.6.76-9.76,4-10.82,3.78-1.54-.26-3-1.63-2.8-3.18a4.81,4.81,0,0,1-5.06-5.36,2.6,2.6,0,0,0,.07-1.51,2,2,0,0,0-.61-.73,10.66,10.66,0,0,1-2.92-3.63,4.36,4.36,0,0,1,.45-4.44,5.17,5.17,0,0,0,.61-.72,2.86,2.86,0,0,0,.13-1.94c-.33-1.88-.73-4.07.53-5.5a5.86,5.86,0,0,0,1-1.13c.39-.79,0-1.72,0-2.6a4.15,4.15,0,0,1,1.62-3.15c1.29-1.08,3-1.24,4.45-1.95,2-.94.84-2.6,1.65-4.47a3.31,3.31,0,0,1,3.08-2.12,9.93,9.93,0,0,1,2.38-4.45c1.25-1.16,3.31-1.62,4.66-.59a15,15,0,0,1,3.91-1.92,5.08,5.08,0,0,1,4.19.55,2.9,2.9,0,0,0,1,.6,2.48,2.48,0,0,0,1.33-.33,7.74,7.74,0,0,1,9,2.42c-.57-.78,3.76-1.92,5.86-1a8.25,8.25,0,0,1,4.34,4.7,4.79,4.79,0,0,1-.79,4.81,4.19,4.19,0,0,1,2,7.18A2.81,2.81,0,0,0,204.34,155.12Z"/><path class="cls-66" d="M189.59,159.24c-1.86,1.29-11.47.59-16.07.15-.08.59-.28,1.5-.53,2.57-.51,2.19-1.29,5.14-2,7.87a8.78,8.78,0,0,1,1.4,3c.88-3.33,2.07-7.65,2.75-10.6.25-1.08.45-2,.53-2.57,4.6.44,14.21,1.14,16.07-.16a.73.73,0,0,1,.35-.06A6.18,6.18,0,0,0,189.59,159.24Z"/><path class="cls-31" d="M188,201.47s-5,3.29-5.5,3.57a11.76,11.76,0,0,1-2.49,1.09,14.08,14.08,0,0,1-2.9.41,24.73,24.73,0,0,1-6.49-.1c-2.29-.44-5.36-.89-7.3-2.24a4.91,4.91,0,0,1-1.38-1.63,16.24,16.24,0,0,1-1-1.29c5.74-1.77,7.62-9.25,8.47-14.43.27-1.6.45-3.21.56-4.83.08-1,.08-1.66.08-1.66,2.73,1.41,5.43,2.92,8.09,4.46,2.07,1.2,4.12,2.42,6.11,3.75a23.09,23.09,0,0,1,2.42,1.73c1.27,1.12.59,1.69.07,3.22-.05.16-.09.32-.13.47a11.25,11.25,0,0,0-.29,3.7c.08,1.55.12,2.57,1.38,3.56C187.86,201.38,188,201.43,188,201.47Z"/><path class="cls-67" d="M186.74,193.52c-.05.16-.09.32-.13.47-8.47.07-14.58-11.67-14.83-11.85-.37.19,3.7,1.14,6.36,2.68,2.07,1.2,4.12,2.42,6.11,3.75a23.09,23.09,0,0,1,2.42,1.73C187.94,191.42,187.26,192,186.74,193.52Z"/><path class="cls-31" d="M199.73,163.12c0,.78.05,1.62.05,2.54,0,1.37,0,2.86-.1,4.43,0,.31,0,.63-.05.94-.57,8.84-3,19.52-11.07,21.39-8.65,1.36-18.21-11.85-18.51-12.07-1.17.58-6.45-.9-5.79-6.18,1.05-8.41,6.47-2.51,6.47-2.51-.39-2.68-.72-11.19-.72-11.19l12.8-8.18,16.64,6.47S199.64,160.46,199.73,163.12Z"/><g class="cls-10"><path class="cls-68" d="M168.47,180.31a3.21,3.21,0,0,0,.64.14,1.64,1.64,0,0,0-.21-.24A1.51,1.51,0,0,1,168.47,180.31Z"/></g><path class="cls-51" d="M201.51,158.38c-1.3,1.69-3.95,2.73-6,3-1.28.15-2.83-.12-3.38-1.29a3.6,3.6,0,0,1-5.71.11c-.29-.42-.57-1-1.07-1a1.49,1.49,0,0,0-.81.25,11,11,0,0,1-6.52,1.14c-.36-.05-.73-.62-.37-.64a4.79,4.79,0,0,1-2.91,6.23,6.58,6.58,0,0,1,.55,4,3,3,0,0,1-3.87,2.36c-4.72-1.9-5.09-10.23-5.09-10.23s1.48-6.31,1.61-7,7.56-5.91,7.56-5.91l8-1.48,6.35-.11.8.69,1.52,1.34,8.92,7.82S201.64,158.21,201.51,158.38Z"/><path class="cls-69" d="M194,172.83a8.35,8.35,0,0,0,.3,1.52,7.93,7.93,0,0,0,.59,1.41,11.42,11.42,0,0,0,1.76,2.47l.24.25-.29.16c-.42.22-.87.44-1.28.7a3.35,3.35,0,0,0-1.11.93,1.45,1.45,0,0,1,.37-.66,4.59,4.59,0,0,1,.55-.53,9.88,9.88,0,0,1,1.23-.89l-.05.41a7.78,7.78,0,0,1-1.89-2.62,6.41,6.41,0,0,1-.45-1.55A5,5,0,0,1,194,172.83Z"/><path class="cls-70" d="M187.4,188.32c2.12.72,4.46-1.19,4.77-2.1s-.75-1.2-2.87-1.91-3.54-1.27-3.85-.36S185.28,187.61,187.4,188.32Z"/><path class="cls-71" d="M178.19,178.76c-.05.92,1.42,1.76,3.29,1.87s3.43-.54,3.48-1.47-1.41-1.76-3.28-1.87S178.25,177.84,178.19,178.76Z"/><path class="cls-6" d="M160.76,316.09s28.36,3.68,45.67-.74C209,304.67,211.86,212.89,188,201.47l-2.77.58a32.08,32.08,0,0,1-21.17-2.58h0S149.16,274.47,160.76,316.09Z"/><path class="cls-53" d="M188,201.47s9,21.26,9.06,37.57a78.17,78.17,0,0,0,.5,8.78c.77,6.46.83,15.22,1.13,30.7,2,19.52,7,62.61,7,62.61l13.08,1.11.55-8.29s8.29,2.58,14-.37c-.19-7.18-.19-23.94-2.58-30.57s-2.76-53.4-4.05-59.48-2.4-29.1-13.08-33.7S197.58,200.73,188,201.47Z"/><path class="cls-53" d="M164.19,199.42c.07,0,.12,9.76.17,10.54.37,5.53,2.64,10.72,3.13,16.23.7,7.93-2.36,15.67-3.46,23.55-.81,5.73-.59,11.55-.56,17.33,0,7.56-.29,15.13-.76,22.68-.42,6.77-1.6,13.78-1,20.5.64,6.56-.57,13.77-.86,20.37q-.26,5.53-.49,11.07l0,.36s-23.39-.92-26.52-4.23c-.55-8.29-3.31-41.44-1.29-49.72,1.48-16,5-69.43,3.5-75C141.79,209.46,143.75,207.16,164.19,199.42Z"/><path class="cls-53" d="M137.65,251.08c11.74,3.73,11.74,7,10.63,19.75-1.93,9.95-14.78,17.82-14.78,17.82l-8.84-1.11s-4.69-1.93-7.45-12.15c-1.11-20.17.82-22.65,6.63-31.77,4.69-29.83,12.24-30.48,12.24-30.48s5.3,19.85,3.09,28.41"/><path class="cls-57" d="M136.43,251.76a14.1,14.1,0,0,0-3.24.34,13.59,13.59,0,0,0-6.17,2.84,10.56,10.56,0,0,0-2.8,3.75c-.06.13.28.36.33.25a10.92,10.92,0,0,1,5.49-5.45,15.76,15.76,0,0,1,5.48-1.39,8.63,8.63,0,0,1,1.14,0c.16,0-.11-.3-.23-.3Z"/><path class="cls-57" d="M125.91,251.91a5.61,5.61,0,0,1,1.45-.62,10.7,10.7,0,0,1,4.29-.34c.22,0,0-.28-.16-.29a11.32,11.32,0,0,0-4.3.31,5.68,5.68,0,0,0-1.56.66c-.13.08.18.35.28.28Z"/><path class="cls-51" d="M149.36,205.48A57,57,0,0,1,154,233.4C152.43,248.87,148,258,148,258s-2.63,10.08-1,12.08c3.25-3.79,14.09-21.29,13.19-45a29.32,29.32,0,0,0-.27-3,137,137,0,0,0-4-19.41c-.36-1.17-4.62,1.11-5.23,1.58C150.64,204.38,149.29,205.32,149.36,205.48Z"/><path class="cls-31" d="M136.54,251.91s.28,8.7,9,6.9c1.93-4,5.53-10.22,5.53-10.22s6.63-.41,8.28-.69.55-2.9.55-2.9,2.63.14,3-.55,0-3.18,0-3.18a5.34,5.34,0,0,0,.69-2.9c-.27-1.1.14-4.56-1.52-5.11s-9.94-.55-11,.28S136.54,251.91,136.54,251.91Z"/><path class="cls-57" d="M135.91,213.07c.61,1.77,1.1,3.59,1.56,5.4a71.68,71.68,0,0,1,2.1,12.08,37.6,37.6,0,0,1-.07,7.35c0,.14.33.34.35.2a46,46,0,0,0-.65-13,83.76,83.76,0,0,0-2.36-10c-.18-.62-.37-1.24-.58-1.86,0-.12-.41-.29-.35-.14Z"/><path class="cls-57" d="M219.5,334.05q0-7.47-.07-14.93c-.05-4-.14-8.09-.3-12.13-.13-3.21-.26-6.43-.69-9.62a78.68,78.68,0,0,1-.46-11.89c.09-4.65.32-9.31.47-14a56.12,56.12,0,0,0-.22-10.45c-.87-5.76-2.63-11.39-2.92-17.24a44.26,44.26,0,0,1,.32-6.81c.24-2.22.52-4.42.82-6.63.46-3.44,1-6.86,1.53-10.29l.09-.54c0-.13-.33-.34-.35-.2-1.12,6.81-2.23,13.69-2.72,20.58-.4,5.69,1,11.27,2.11,16.8a44.12,44.12,0,0,1,1,6.56c.09,1.68.07,3.37,0,5-.09,4.51-.33,9-.46,13.53a116,116,0,0,0,.09,12.92c.12,1.44.36,2.87.49,4.31.16,1.66.27,3.33.35,5,.21,4,.31,7.94.38,11.9q.16,8.79.12,17.58v.29c0,.14.35.33.35.2Z"/><path class="cls-6" d="M173.77,185.82h0c3.52,3.81,8.84,8.31,14,7.66,6.57-1.29,9.62-8.42,11-15.75-1.53-1.33-7.4-5.59-18.86-3.74-2.63.73-3.84,1.1-3.84,1.1Z"/><path class="cls-6" d="M176.07,175.1s-4.57-2.43-5.82-2.91c1.57-.71,4.47.89,7.77,2.37l-1.52.42"/><path class="cls-6" d="M173.77,185.83l-4.63-5.33a2.1,2.1,0,0,0,1.34,0c3.4,3.35,3.82,3.79,3.82,3.79Z"/><path class="cls-57" d="M137.49,321.84a23.06,23.06,0,0,0,13.16-9.08,22.38,22.38,0,0,0,2.26-4.06c.06-.13-.28-.36-.33-.25A23,23,0,0,1,141.49,320a21.87,21.87,0,0,1-4.28,1.54c-.13,0,.14.33.28.29Z"/><path class="cls-57" d="M145.41,259.49a22.52,22.52,0,0,1,1.37,7.08,19.21,19.21,0,0,1-.85,6.61,19.94,19.94,0,0,1-3.37,6.21,34,34,0,0,1-4.13,4.52,17.77,17.77,0,0,1-5.76,3.48c-.1,0-.22.41-.1.37a13.93,13.93,0,0,0,5.46-3.08,33.68,33.68,0,0,0,4.35-4.66,21.45,21.45,0,0,0,3.46-5.94,19.25,19.25,0,0,0,1.16-6.77,24.6,24.6,0,0,0-.34-3.92c-.24-1.4-.63-2.76-.93-4.15,0-.12-.38.11-.32.25Z"/><path class="cls-34" d="M153.12,236.62q2.5-.18,5-.15c.84,0,1.67.06,2.51.11a18.89,18.89,0,0,0,2.49.13.15.15,0,0,0,0-.3,11.34,11.34,0,0,0-2.53-.42c-.83-.07-1.67-.11-2.51-.12a33,33,0,0,0-5.07.32c-.24,0-.19.45.06.43Z"/><path class="cls-34" d="M153.32,240.94c1.57.14,3.15.23,4.72.28.79,0,1.57,0,2.36.05a9.22,9.22,0,0,0,2.23-.07.2.2,0,0,0,0-.38,11,11,0,0,0-2.23-.12l-2.36-.06-4.72-.1a.2.2,0,0,0,0,.4Z"/><path class="cls-34" d="M153.12,245.09c1.28.17,2.57.29,3.86.34a14.92,14.92,0,0,0,3.78-.15c.14,0,.15-.29,0-.31a14.09,14.09,0,0,0-1.84-.07l-1.94,0c-1.29,0-2.58-.11-3.86-.23-.3,0-.29.43,0,.46Z"/><path class="cls-72" d="M177,362.16a3.81,3.81,0,0,0,.2-1.39,18.56,18.56,0,0,1,.32-2,26.91,26.91,0,0,1,1.06-3.52c.87-2.33,1.86-4.62,2.92-6.88s2.13-4.38,3.31-6.51c.6-1.09,1.22-2.16,1.85-3.22.32-.53.64-1.06,1-1.59s.79-1.68,1.44-1.45c.25.09.34-.25.17-.38-.56-.43-1.12.13-1.43.59-.6.86-1.11,1.78-1.64,2.67q-1.67,2.79-3.15,5.69a86.54,86.54,0,0,0-5.07,11.5,25.66,25.66,0,0,0-.92,3.44c-.09.54-.17,1.09-.21,1.64a2.52,2.52,0,0,0,.09,1.39s.08,0,.09,0Z"/><path class="cls-57" d="M199.84,282.22a6.42,6.42,0,0,0,2-.11,6.26,6.26,0,0,0,1-.29,5.41,5.41,0,0,0,.85-.47c.09-.06.25-.43,0-.33a7.22,7.22,0,0,1-3.92.79c-.12,0-.08.4.07.41Z"/><path class="cls-57" d="M201.74,240.94a1.21,1.21,0,0,0,.56-.13,1.18,1.18,0,0,0,.47-.3,1.12,1.12,0,0,0,.3-.47,1.07,1.07,0,0,0,.12-.56l-.05-.39a1.42,1.42,0,0,0-.37-.64l-.3-.23a1.46,1.46,0,0,0-.73-.2,1.53,1.53,0,0,0-1,.43,1.06,1.06,0,0,0-.3.47,1.07,1.07,0,0,0-.12.56l.05.39a1.48,1.48,0,0,0,.37.64l.3.23a1.47,1.47,0,0,0,.74.2Z"/><path class="cls-57" d="M202.39,261l.09.19,0,.05v0l.23.29.29.23a1.51,1.51,0,0,0,.35.14.69.69,0,0,0,.2,0,1.11,1.11,0,0,0,.57,0l.34-.14.29-.22.12-.16a.64.64,0,0,0,.18-.32.65.65,0,0,0,.1-.36.5.5,0,0,0,0-.21v-.05a3,3,0,0,0-.22-1,1.61,1.61,0,0,0-.53-.54l-.36-.15a1.51,1.51,0,0,0-.79,0,1.14,1.14,0,0,0-.51.27,1.31,1.31,0,0,0-.39.42,1.51,1.51,0,0,0,0,1.5Z"/><path class="cls-34" d="M169.46,174.93a3.13,3.13,0,0,0-.83-3.06,1.92,1.92,0,0,0-2.76.22,3,3,0,0,0-.5,1.79.19.19,0,0,0,.37.05,3.44,3.44,0,0,1,.6-1.65,1.32,1.32,0,0,1,1.39-.32c1.24.33,1.6,1.77,1.44,2.9,0,.18.25.27.29.07Z"/><path class="cls-34" d="M169.14,173.22a1.71,1.71,0,0,0-1.26-.31,1.36,1.36,0,0,0-1.12.68.14.14,0,0,0,.19.18,2.71,2.71,0,0,1,1-.4,1.71,1.71,0,0,1,1,.19.21.21,0,0,0,.27-.07.21.21,0,0,0-.07-.27Z"/><path class="cls-51" d="M190.22,165.54a8.84,8.84,0,0,0-4-.78c-1.27.05-3.06.25-3.88,1.33-.14.19-.07.71.25.66a16.17,16.17,0,0,0,2-.55,8.08,8.08,0,0,1,1.88-.29,8.23,8.23,0,0,1,3.69.73.4.4,0,0,0,.54-.37.81.81,0,0,0-.5-.73Z"/><path class="cls-51" d="M197,167.48l.15,0h0a1.61,1.61,0,0,1,.31,0l.26,0h.05l.15,0a4.13,4.13,0,0,1,.5.15l.26.1a.91.91,0,0,0,.36.09.34.34,0,0,0,.28-.29.72.72,0,0,0-.15-.53.82.82,0,0,0-.2-.17.21.21,0,0,0-.14-.15,1.7,1.7,0,0,0-.35-.19,2.33,2.33,0,0,0-.68-.21,3.24,3.24,0,0,0-1.35.05c-.29.08-.33.45-.22.69a.7.7,0,0,0,.72.46Z"/><path class="cls-51" d="M187.1,168.46a3.47,3.47,0,0,0-1.1,2.92,2,2,0,0,0,.36.79.85.85,0,0,0,1,.24,1.3,1.3,0,0,0,.51-.76,3.76,3.76,0,0,0,.2-.73,4.85,4.85,0,0,0,.06-.93,3.54,3.54,0,0,1,0-.46c0-.14,0-.29,0-.44a.57.57,0,0,0-.64-.56.57.57,0,0,0-.47.71c0,.12.07.25.11.37s0,.08,0,0v.11c0,.06,0,.11,0,.17s0,.11,0,.17,0,.07,0,0,0,.07,0,.11l-.09.38a4.37,4.37,0,0,1-.22.7l0,.11c-.06.11-.1,0,.08-.05a.34.34,0,0,1,.35,0s0,0,0,0,0,0,0,0,0,.06,0,0a1,1,0,0,1-.08-.14c0,.11,0-.08,0-.1a.83.83,0,0,1,0-.15c0-.06,0-.07,0,0a.17.17,0,0,1,0-.07c0-.12,0-.23,0-.34s0-.07,0,0,0-.07,0-.1a.83.83,0,0,1,0-.15,2.85,2.85,0,0,1,.26-.65l.39-.67c.23-.39-.33-.84-.64-.49Z"/><path class="cls-51" d="M196.89,169.85a4.29,4.29,0,0,0-.44,1.29,4.09,4.09,0,0,0,0,1.48.55.55,0,0,0,.91.24,3.48,3.48,0,0,0,.73-1.35,3.18,3.18,0,0,0,.07-.75c0-.12,0-.23,0-.35a1.19,1.19,0,0,0-.13-.49.46.46,0,0,0-.83.1c-.07.23,0,.47,0,.7,0-.14,0,0,0,.05a.83.83,0,0,1,0,.15,2.76,2.76,0,0,1-.08.27c0,.09,0,.19-.08.28s0,.1-.05.14c.08-.14,0,0,0,0a1.82,1.82,0,0,1-.15.27.83.83,0,0,1-.08.12.43.43,0,0,1,0,.07c0-.06,0-.07,0,0l.91.24,0-.17c0-.14,0,.12,0,0l0-.3a3.62,3.62,0,0,1,0-.57.71.71,0,0,1,0-.14c0,.12,0,0,0,0a1.67,1.67,0,0,1,.06-.29c0-.09.05-.19.08-.28s0-.08,0-.12.07-.17,0-.08a.47.47,0,0,0-.16-.63.48.48,0,0,0-.63.16Z"/><path class="cls-73" d="M174.9,158.25a19.62,19.62,0,0,1-5.85-4.37c-1.68-1.84-3.2-4.13-3.11-6.72,0-.21-.29-.19-.32,0-.34,2.6,1.25,5,2.91,6.83a19.64,19.64,0,0,0,6.18,4.58c.21.11.41-.22.19-.32Z"/><path class="cls-73" d="M181.66,157.16a5.1,5.1,0,0,1,5.55-.51,11.7,11.7,0,0,0,2.51,1.11,4.56,4.56,0,0,0,2.6-.35,5.36,5.36,0,0,1,1.41-.38,5.92,5.92,0,0,1,1.78.23,7.83,7.83,0,0,0,2.64.29,3.92,3.92,0,0,0,3.49-2.34c.47-1.35,0-3.28-1.56-3.66-.22-.05-.39.29-.16.39a2.51,2.51,0,0,1,1.12,3.4c-.72,1.49-2.64,1.93-4.15,1.75a24.25,24.25,0,0,0-2.91-.5,8.35,8.35,0,0,0-2.46.64,3.66,3.66,0,0,1-2.79-.26,18.81,18.81,0,0,0-2.33-1.07,5.33,5.33,0,0,0-4.91,1.09c-.12.1,0,.27.17.17Z"/><path class="cls-73" d="M202.29,149.17c.39-.23.82.1,1.09.38a5.75,5.75,0,0,1,.86,1.15,2.12,2.12,0,0,1,.37,1.24,1.39,1.39,0,0,1-.52,1,.18.18,0,0,0,.18.3c1.09-.52.91-2,.39-2.83a5.35,5.35,0,0,0-1.15-1.4,1.24,1.24,0,0,0-1.44-.26c-.24.15,0,.53.22.38Z"/><path class="cls-73" d="M195.19,141.17a.35.35,0,0,0,0-.69.35.35,0,0,0,0,.69Z"/><path class="cls-73" d="M195.68,141.14a4.93,4.93,0,0,1,3.47,2.08,5.5,5.5,0,0,1,.65,4.27c0,.15.2.28.28.11a4.92,4.92,0,0,0-.55-4.66,5.39,5.39,0,0,0-3.85-2.28c-.31,0-.31.45,0,.48Z"/><path class="cls-73" d="M189.21,141.14a4,4,0,0,1,3.73.34,4.2,4.2,0,0,1,1.77,3.18.15.15,0,0,0,.3,0,4.09,4.09,0,0,0-1.8-3.55,4.27,4.27,0,0,0-4.15-.34c-.21.09-.06.45.15.37Z"/><path class="cls-73" d="M170.82,166.44a2.2,2.2,0,0,1,1.9,2.22A2.1,2.1,0,0,1,172,170a2.87,2.87,0,0,1-1.42.66c-.13,0-.15.26,0,.28a2.06,2.06,0,0,0,1.68-.64,2.5,2.5,0,0,0,.8-1.68,2.57,2.57,0,0,0-2.28-2.57c-.23,0-.22.33,0,.35Z"/><path class="cls-73" d="M160,170c-1.07,1.4-1.87,3.39-1.09,5.12.55,1.22,2.35,2.56,3.69,1.64.13-.09.1-.37-.1-.34a2.93,2.93,0,0,1-1.82-.24,3,3,0,0,1-1.31-1.45c-.62-1.52.16-3.26,1.06-4.48.18-.26-.24-.5-.43-.25Z"/><path class="cls-73" d="M159.74,161.62a4.57,4.57,0,0,0,3.51,5.33c.25,0,.36-.32.11-.39a4.43,4.43,0,0,1-3.23-4.83c0-.25-.34-.36-.39-.11Z"/><path class="cls-61" d="M194.19,177c.41,4.18.29,8.95-2.7,12.23-.19.21.12.53.32.32,3.06-3.39,3.26-8.24,2.85-12.55,0-.29-.49-.3-.47,0Z"/><path class="cls-50" d="M302.22,532.2c.16,5.39,44,8.08,76.93,7.13s46.15-5.73,42.28-10.55c-5.87-7.31-26.88-5.92-59.8-5S302.07,526.8,302.22,532.2Z"/><path class="cls-51" d="M367.87,158.53s-.91.67-1.79,3.2c-1-4.55-2.4-11-2.6-13.15-4.55.21-14.06.44-15.83-.93-4.82.82-9.63.51-11.11-4.22s.65-12.69,4.11-14,3.61,1.16,3.61,1.16-2.86-1.08-2.16,1.9c.18,1,3.65-.52,2.87-2.84.43,1.67.69,2,0,3.17,1,.54,3.16-.89,4.84-1.66a11.63,11.63,0,0,1,8.74.44c1.71-2.17,12.56-3.25,16.42,5.5.85,1.61,5.48.45,7.25,7.87s.46,26.17-13,27.58c-3.8.15-6.84-3-6.84-3l3.43-4Z"/><path class="cls-31" d="M354.47,193.1c7.5,1.23,13.59,1.17,17.38-4.59-4.08-2.35-3.84-19.31-3.84-19.31s-14.07,6.53-17.91,9.83c0,.49.07.93.08,1.32.06,1.77,1.8,5.54-1.07,9.3C349.11,189.65,347,191.86,354.47,193.1Z"/><path class="cls-74" d="M311.58,307.69s-4.15,52.43,6.51,56.88c0,0,3.26,1.48,1.63-19,.6-1.19,1.83-1.33,2-.3.11.82.2,6.75.23,9.28a2,2,0,0,0,1.64,2,1,1,0,0,0,.89-.28c.89-.89,1.78-17.77-1.78-25.77,1-10.66,1.93-23.4,1.93-23.4S317.2,296.44,311.58,307.69Z"/><path class="cls-31" d="M368,169.2c-.12.08-1.85,2.2-4.43,4.57h0c-3.77,3.47-9.37,7.48-14.4,6.44-5.32-1.5-7.9-6.84-9.05-12.83-.19-1-.33-1.95-.45-2.93,0-.21-.05-.42-.07-.63-.19-1.76-.29-3.53-.31-5.22,0-.31,0-.63,0-.93,0-1.55,0-3,.1-4.37.05-.91.11-1.74.18-2.51.22-2.62.49-4.28.49-4.28l16.71-5.59L369,149.6s-.55,8.93-1.07,11.56c0,0,5.34-2.35,6.08,2.22C374.86,168.56,369.14,169.83,368,169.2Z"/><path class="cls-51" d="M338.05,146c2.63,3.7,11.76,3.93,18.19.61,2.89-1.35,7.2-1.89,7.71,2.25.17,1.58-.75,13.9,4,12.26s4.6-9.59,4.6-9.59-1.16-6.29-1.26-7-7.17-6.19-7.17-6.19l-7.79-1.84-6.26-.42-11.55,9.18S337.93,145.86,338.05,146Z"/><path class="cls-75" d="M349.54,171.48c1.72-.2,4-2.73,3-4.44a1,1,0,0,0-.39-.4,1.17,1.17,0,0,0-.67,0c-.86.14-1.72.29-2.59.39-2.34.28-3.8.21-3.68,1.21S347.2,171.76,349.54,171.48Z"/><path class="cls-76" d="M342.1,165.68c.08.7-.76,1.39-2,1.7-.19-1-.33-1.95-.45-2.93C341,164.47,342,165,342.1,165.68Z"/><path class="cls-76" d="M348,159.23a3.56,3.56,0,0,1,.08,1.22,4.14,4.14,0,0,1-.29,1.19,5.78,5.78,0,0,1-1.34,2.05l-.06-.33a6.31,6.31,0,0,1,1,.6,2.8,2.8,0,0,1,.45.39.74.74,0,0,1,.25.53c0-.19-.21-.3-.35-.41a4.76,4.76,0,0,0-.49-.28c-.33-.18-.69-.31-1-.46l-.25-.11.19-.22a8.8,8.8,0,0,0,1.25-1.92A6.28,6.28,0,0,0,348,159.23Z"/><path class="cls-6" d="M349.11,189.65s-28,3.32-33.58,48.93c-3.56,42.06-7.41,105.26-7.41,105.26l8-.59s-3.76,66.2-.21,67.38a84.06,84.06,0,0,0,9.48,0Z"/><path class="cls-6" d="M399.69,514.74s3.22,1.19,3.2,7.18c0,2.87-15.38,12.77-16,13.11s-13.75,6.18-24.29.05a8.75,8.75,0,0,1-.89-3.54Z"/><path class="cls-31" d="M382.16,508l-2-18.26L395,487.71v22.8S391,526.3,382.16,508Z"/><path class="cls-62" d="M399.69,514.74c.38.18.34,1.62.32,2-.12,1.75-.12,3.11-1.29,4.52-3.05,3.67-6.35,7.34-10.59,9.65a32.23,32.23,0,0,1-13.47,3.74l-.71,0a29.7,29.7,0,0,1-9.25-1.4c-.31-.1-3.08-1.68-3-1.7a59.86,59.86,0,0,0,12.94-10.9c.69-.78,1.34-1.59,2-2.4,3.06-4.06,5.22-8.61,4.85-13.1,0,0,3.7-3,5.68,3,2.15-.22,5-1.63,6.92-2.65a1.53,1.53,0,0,1,2.24,1.12,36.16,36.16,0,0,0,.83,3.65C397.69,512.31,398.54,514.23,399.69,514.74Z"/><path class="cls-77" d="M381.05,522.29a14.86,14.86,0,0,0-5-3.27"/><path class="cls-77" d="M382.85,519.21a12.93,12.93,0,0,0-4.63-3.16"/><path class="cls-6" d="M360.87,524.68s1.42.77.34,4c-.12.36-11.44,0-22.9-.11-14.51-.16-29.53-.48-25.62-3.93"/><path class="cls-31" d="M343.83,508.5l-.33-17.44,16.11-3.35s-1,13.48-1,23C358.6,510.72,353.29,526.78,343.83,508.5Z"/><path class="cls-62" d="M360.87,524.68c-1.66.09-5.9.13-11.23.14H339c-12.82,0-26.35-.14-26.35-.14s1.32-1.69,8.06-2.38a24,24,0,0,0,10-3.22c.51-.31,1-.64,1.57-1A43.25,43.25,0,0,0,343,507.38a.78.78,0,0,1,1.36.15c1.88,4.55,6.59,12.58,13.5,3.25l.61-.86c.93,0,1,.91,1.36,1.79a30.75,30.75,0,0,1,2,8A8.55,8.55,0,0,1,360.87,524.68Z"/><path class="cls-77" d="M338.42,520.62a14.77,14.77,0,0,0-3.13-5.11"/><path class="cls-77" d="M341.37,518.61a13,13,0,0,0-2.82-4.84"/><path class="cls-32" d="M322.19,337.18a138.79,138.79,0,0,1,2.9-21.3L327,307l.51-2.38.19-.1,9.09-4.52,28.84-3.07,5.74,5L384,300.16l5.22-.72,1.3-.17,1.41-.2,3.61,9.88,1.89,5.15a86.92,86.92,0,0,1,1.91,33.37v52.34q.08,8.37.14,16.73l.31,35.87q.13,16.75.28,33.53c0,2.71,1.65,9-.95,10.91-1,.75-3.3.71-4.51.86a43.54,43.54,0,0,1-5.23.29,42.09,42.09,0,0,1-10.35-1.33,2.06,2.06,0,0,1-1.5-1.72L364.3,399.81c-3.78-25.44-6.16-43.76-6.16-43.76l-2.4,24.84a190.53,190.53,0,0,0,.13,37.83l7.72,74.85A2.3,2.3,0,0,1,362,496a38.94,38.94,0,0,1-20.93.72l-.17,0-16.23-71.55A190.69,190.69,0,0,1,320.2,373C320.9,359.7,321.67,346.2,322.19,337.18Z"/><path class="cls-78" d="M390.54,299.27c-2.32,3.76-4.82,7.46-8.23,9.68-4.5,2.93-9.93,2.85-15,2s-10.1-2.43-15.22-2.24c-5.34.2-10.57,2.32-15.9,2.16A13.33,13.33,0,0,1,327,307l.51-2.38.19-.1,9.09-4.52,28.84-3.07,5.74,5L384,300.16l5.22-.72Z"/><path class="cls-79" d="M355.84,309.64c0,.9.05,1.79.08,2.69l.21,6.64.3,8.57q.17,4.17.34,8.33c.09,2,.18,4.07.32,6.1,0,.08,0,.17,0,.25s0,.14-.12.16a1.91,1.91,0,0,1-.63,0,1.73,1.73,0,0,1-1-.65,7.57,7.57,0,0,1-1.23-3.26,64,64,0,0,1-.84-9.58,73.71,73.71,0,0,0-.87-8.13c-.49-3.1-1.06-6.18-1.66-9.26-.38-2-.77-3.89-1.18-5.84l-.06-.28c0-.13-.39-.32-.35-.14.31,1.47.61,2.95.9,4.43.62,3.09,1.21,6.19,1.73,9.3a81.48,81.48,0,0,1,1.08,8.53,96.31,96.31,0,0,0,.73,9.9,11.77,11.77,0,0,0,1.07,3.72,2.73,2.73,0,0,0,2.06,1.59,2.5,2.5,0,0,0,.67-.05.05.05,0,0,0,0-.05c-.15-1.9-.23-3.8-.32-5.7q-.18-4.09-.33-8.19-.16-4.29-.31-8.58c-.08-2.32-.15-4.65-.23-7l-.06-2.22c0-.34,0-.7,0-1v-.05c0-.13-.36-.33-.35-.2Z"/><path class="cls-79" d="M357.12,337.1c0,1.79.09,3.57.15,5.35.1,3.24.21,6.48.39,9.71.08,1.27.14,2.56.31,3.82,0,.13.37.33.35.14-.35-2.64-.39-5.34-.5-8-.12-3-.21-5.94-.29-8.92,0-.63,0-1.26,0-1.89,0-.14-.36-.34-.36-.21Z"/><path class="cls-6" d="M364.23,174.32h0c-3.88,3.57-9.63,7.7-14.81,6.62-6.55-1.85-9.06-9.32-9.86-16.86,1.66-1.23,7.95-5.06,19.42-2.25,2.61.95,3.8,1.43,3.8,1.43Z"/><path class="cls-6" d="M362.78,163.27s4.84-2.09,6.14-2.47c-1.53-.85-4.61.53-8.07,1.76l1.51.55"/><path class="cls-32" d="M349.11,189.65S325.79,203.23,326,234.83c-3.55,32-3.35,91.87-3.35,91.87s9.33,1.24,19.56,1.87a60.92,60.92,0,0,0,37.62-10.17c5-3.32,9.15-6.13,11.39-7.25a31.79,31.79,0,0,0-.3-16.74l-7.26-94-11.8-11.86S361.08,196.41,349.11,189.65Z"/><path class="cls-6" d="M371.85,188.51s5.09,37.83,7.06,60.34c.24,9.73.59,17.2.93,22.68.47,7.55,3.2,132.82,3.2,132.82s33.94-1.28,34.73-6.81c-1.39-7.31-5.48-95-6.27-98.53s-6.13-99.92-6.13-99.92S393.42,186.82,371.85,188.51Z"/><path class="cls-6" d="M364.23,174.33l5.13-5a2.11,2.11,0,0,1-1.35-.1c-3.72,3.13-4.19,3.54-4.19,3.54Z"/><path class="cls-80" d="M316.71,340.74c0-.84,0-1.67.06-2.51q.08-3.45.17-6.9.13-5.13.28-10.24l.39-12.7q.24-7,.5-14,.27-7.2.58-14.4.31-6.93.68-13.85c.23-4.07.47-8.14.77-12.2.24-3.22.5-6.43.85-9.64a44.83,44.83,0,0,1,.92-6,6.91,6.91,0,0,1,.24-.81c.11-.3-.3-1-.47-.51a23.72,23.72,0,0,0-1,5c-.38,2.93-.64,5.87-.88,8.81-.31,3.91-.56,7.82-.79,11.74q-.41,6.76-.71,13.54-.33,7.22-.61,14.41t-.52,14.27q-.21,6.56-.41,13.11-.17,5.52-.32,11c-.07,2.61-.13,5.22-.2,7.84,0,1.23-.1,2.46-.09,3.69v.16c0,.44.5.68.52.12Z"/><path class="cls-80" d="M403.87,198.71l-.12,0,.18,0a1.76,1.76,0,0,0-.85.06,5.78,5.78,0,0,0-1.09.35,7.85,7.85,0,0,0-2,1.37,23.54,23.54,0,0,0-3.44,4.83c-.07.1.34.17.41,0a14.63,14.63,0,0,1,2.77-4.25,7.54,7.54,0,0,1,1.89-1.43,7.36,7.36,0,0,1,1.09-.45,4,4,0,0,1,.57-.14,3.28,3.28,0,0,1,.81-.14c.4,0-.19-.3-.18-.24Z"/><path class="cls-80" d="M376,204.68c1.09,5.55,1.76,11.19,2.41,16.81s1.16,11,1.57,16.56.65,10.82.88,16.23.48,10.66,1,16a102.24,102.24,0,0,0,2.61,15.65l.57,2.15c.08.27.24.05.18-.14A96,96,0,0,1,382.3,272c-.59-5.37-.87-10.78-1.11-16.18s-.47-10.8-.85-16.19-.88-11-1.5-16.47-1.39-11.1-2.21-16.64c-.1-.67-.16-1.35-.24-2,0-.14-.4,0-.37.17Z"/><path class="cls-80" d="M322.3,236.59q1.51-11.42,4.09-22.67c.07-.3-.36-1-.47-.5q-2.6,11.31-4.13,22.85c-.05.35.44.87.51.32Z"/><path class="cls-80" d="M402,198a5.13,5.13,0,0,0-1.56.14,5,5,0,0,0-.75.23c-.31.12-.6.29-.9.44-.05,0-.18.11-.14.18s.18,0,.23,0a3.18,3.18,0,0,1,.68-.22c.26-.06.51-.16.78-.21a12.7,12.7,0,0,1,1.51-.18c.12,0,.31-.37.15-.38Z"/><path class="cls-80" d="M332.72,203.81a12.55,12.55,0,0,0-2.79,3.07,17.87,17.87,0,0,0-1.72,3.9c0,.15.34,0,.36-.12a10.09,10.09,0,0,1,1.61-3.68,12.54,12.54,0,0,1,2.55-2.84c.1-.08.17-.48,0-.33Z"/><path class="cls-79" d="M324.31,325.66a19.85,19.85,0,0,1,2.43.17l2.6.22c1.69.14,3.38.3,5.07.46,3.35.31,6.7.63,10,.87a100.75,100.75,0,0,0,20-.17,48.71,48.71,0,0,0,10.72-2.44c.1,0,.28-.38.12-.33-1.58.48-3.16.95-4.77,1.32s-3.21.67-4.82.91a74.9,74.9,0,0,1-9.81.72,195.3,195.3,0,0,1-19.94-1.11l-5.56-.49c-1-.08-1.91-.16-2.86-.22-1.12-.07-2.26-.05-3.37-.21-.23,0,0,.3.19.3Z"/><path class="cls-80" d="M376.09,190.21q3.32,10.36,6.65,20.72,1.68,5.22,3.38,10.44c.27.81.57,1.62.77,2.46a4.38,4.38,0,0,1-.13,2.56,24.58,24.58,0,0,1-1.17,2.49l-1.21,2.43q-1.35,2.74-2.72,5.49c-.91,1.85-1.88,3.69-2.72,5.58-.1.22.2.4.32.19.9-1.63,1.7-3.32,2.53-5s1.66-3.34,2.5-5,1.67-3.3,2.47-5a7,7,0,0,0,.74-2.21,5.64,5.64,0,0,0-.3-2.3c-1.07-3.54-2.27-7-3.42-10.55s-2.28-7-3.43-10.51l-3.93-11.92c-.07-.2-.4-.12-.33.1Z"/><path class="cls-80" d="M388.88,344q4.53-.33,9.06-.56l4.49-.21,2.25-.08a8,8,0,0,0,2.19-.19.12.12,0,0,0,0-.23,7.38,7.38,0,0,0-2.1,0l-2.25.09c-1.53.06-3,.13-4.58.22q-4.53.25-9.06.61c-.26,0-.26.42,0,.4Z"/><path class="cls-80" d="M388.6,344.59a29.28,29.28,0,0,0,.86,3.56,6.56,6.56,0,0,0,1.32,2.7c1.37,1.42,3.6,1.16,5.38,1a57.21,57.21,0,0,0,6.54-.49,5.64,5.64,0,0,0,4.3-2.64,5.58,5.58,0,0,0,.49-3,12,12,0,0,0-.76-3.34.18.18,0,0,0-.34.09c.38,1.79,1,3.62.43,5.45a4.79,4.79,0,0,1-3.88,2.88,43.68,43.68,0,0,1-5.84.5c-1,.06-2,.16-3,.15a4.66,4.66,0,0,1-2.56-.6,5,5,0,0,1-1.68-2.87,31.39,31.39,0,0,1-.89-3.56c0-.26-.44-.15-.39.11Z"/><path class="cls-80" d="M388.1,345.08q.64,5.87,1.48,11.7.44,3,.92,5.89c.26,1.54.49,3.2,1.93,4.1a8.46,8.46,0,0,0,5,.86,27.69,27.69,0,0,0,5.47-1.13,13.32,13.32,0,0,0,4.18-1.76,5.53,5.53,0,0,0,2.19-3.73,19.54,19.54,0,0,0-.31-5.5c-.3-2.23-.57-4.46-.95-6.68,0-.21-.41-.17-.39.05.17,1.84.43,3.67.67,5.5a45.65,45.65,0,0,1,.53,4.95,5.94,5.94,0,0,1-1.33,4.26,8.33,8.33,0,0,1-3.77,2c-3.15,1-6.88,2.09-10.13,1a3.05,3.05,0,0,1-1.82-1.48,7.37,7.37,0,0,1-.59-2.22c-.32-1.81-.61-3.63-.91-5.44q-1-6.19-1.8-12.41c0-.22-.38-.22-.35,0Z"/><path class="cls-80" d="M396.66,208.93a91.27,91.27,0,0,0-2.24,19.83c0,1.91,0,3.84.19,5.74,0,.27.44.28.43,0-.11-3.33-.21-6.64-.06-10a89.43,89.43,0,0,1,1-9.94c.28-1.87.63-3.72,1-5.57.05-.22-.28-.31-.33-.09Z"/><path class="cls-80" d="M378.46,191.57a24.7,24.7,0,0,1,14.5,5.71c.54.46,1.07.94,1.57,1.44s1,1.14,1.54,1.68c.15.16.43-.05.3-.23a15.91,15.91,0,0,0-2.75-2.87,23.85,23.85,0,0,0-3.2-2.37,24.65,24.65,0,0,0-7.47-3.11,24.24,24.24,0,0,0-4.49-.6.18.18,0,0,0,0,.35Z"/><rect class="cls-48" x="362.22" y="284.22" width="42.31" height="57.37" transform="translate(-75.65 497.78) rotate(-61.16)"/><rect class="cls-81" x="351.89" y="295.81" width="13.06" height="7.67" rx="1.61" transform="translate(-76.95 469.05) rotate(-61.16)"/><path class="cls-80" d="M396,238c.55,4.09,1,8.19,1.61,12.27a86.82,86.82,0,0,0,2.22,12c1,3.62,2.78,7,4.09,10.51a11.51,11.51,0,0,1,1,3.53,6.28,6.28,0,0,1-.22,1.67c-.91,3.74-2.9,7.27-4.74,10.62-2.3,4.19-4.79,8.27-7.34,12.31-1.83,2.92-3.73,5.8-5.53,8.74l-.33.55c-.15.27.19,1,.4.66,1.6-2.72,3.38-5.35,5.07-8,2.55-4,5.07-8.12,7.42-12.3a58.57,58.57,0,0,0,5.27-11.15,7.57,7.57,0,0,0,.45-3.61,28.13,28.13,0,0,0-1.62-4.79c-.73-1.8-1.53-3.57-2.25-5.38a54.88,54.88,0,0,1-2.88-11.79c-.67-4.16-1.18-8.34-1.72-12.52-.13-1-.27-2.11-.41-3.16-.06-.41-.59-.68-.52-.12Z"/><path class="cls-31" d="M386.36,317.63a15.48,15.48,0,0,1-3.68,1.6,25.12,25.12,0,0,0-8.11,4.9c-1.22,1.11-2.42,2.85-1.59,4.29.2.36.52.65.71,1,.44.9,0,2-.28,2.93-.53,1.84-.13,4.29,1.68,4.93,1.16.42,2.55-.06,3.62.55a7.34,7.34,0,0,0,1.23.79c.6.19,1.26-.08,1.86.11s1.09.95,1.71,1.32c1.32.8,3-.32,4-1.52a15.44,15.44,0,0,0,3.37-7.84c.42-3.29,1.3-6.84,3.42-9.4,1.47-1.77,2.64-2.9,3.26-5.12a1.1,1.1,0,0,0,0-.76,1.38,1.38,0,0,0-.55-.52l-3.5-2.2a4.74,4.74,0,0,0-2.42-.95c-1.69,0-1.51,1.28-1.9,2.37A8.18,8.18,0,0,1,386.36,317.63Z"/><path class="cls-6" d="M405.37,199.09c-5.46,11.83-10.92,25.75-9.15,38.92,1,7.53,1.79,15.11,3.4,22.54,1.12,5.15,4.11,9.91,5.46,15.07,1.46,5.52-15.69,30.85-18.41,35.5a26.55,26.55,0,0,0,18.4,11.8c3.59-2.61,17-27.85,19.83-31.18,3.53-4.1,7.35-7.77,8.76-13.16a30.27,30.27,0,0,0-.42-15.15c-2.2-8.44-5.72-16.54-9.15-24.54-3.85-9-6.51-18.34-10-27.41C412.64,207.86,409.17,200.71,405.37,199.09Z"/><path class="cls-80" d="M406.34,276.46a7.41,7.41,0,0,1,4.14-.37,8.38,8.38,0,0,1,2,.66c.62.31,1.14.77,1.74,1.1.12.07.28-.07.2-.19a4.36,4.36,0,0,0-1.65-1.29,7.7,7.7,0,0,0-2.13-.74,7.89,7.89,0,0,0-4.38.39c-.26.11-.15.55.12.44Z"/><path class="cls-80" d="M406.45,278.37a8.15,8.15,0,0,1,5,3,9,9,0,0,1,1.92,5.54c0,.25.35.23.38,0,.56-4.23-3.08-8.35-7.14-9-.3,0-.43.41-.13.46Z"/><path class="cls-80" d="M386.72,311a23,23,0,0,0,12.7,9.78,16.59,16.59,0,0,0,4.52.86c.27,0,.34-.43.06-.48a39.13,39.13,0,0,1-3.85-.77,22.49,22.49,0,0,1-3.74-1.42,23.49,23.49,0,0,1-6.5-4.63,22.55,22.55,0,0,1-2.85-3.54c-.14-.22-.48,0-.34.2Z"/><path class="cls-80" d="M405.52,319.73q1.65-1.5,3.18-3.15c.5-.54,1-1.1,1.45-1.67.23-.27.45-.54.66-.82s.5-.54.49-.85a.11.11,0,0,0-.15-.11c-.29.06-.49.42-.67.63l-.72.85c-.47.56-1,1.11-1.45,1.66q-1.49,1.64-3.11,3.15c-.21.19.1.51.32.31Z"/><path class="cls-34" d="M374.13,330.16c.21-.36.41-.73.64-1.09s.47-.7.72-1c.11-.16-.16-.37-.28-.21a9.85,9.85,0,0,0-1.33,2.2c-.07.16.15.31.25.14Z"/><path class="cls-34" d="M378.44,337.41l.54-.7.26-.36c.08-.12.15-.25.22-.38a.11.11,0,0,0-.18-.13l-.31.31-.28.33-.55.7a.19.19,0,1,0,.3.23Z"/><path class="cls-34" d="M382.26,338.68c.19-.21.39-.42.58-.64a4.12,4.12,0,0,0,.28-.31,4.56,4.56,0,0,0,.27-.39.17.17,0,0,0-.05-.23.18.18,0,0,0-.23,0c-.11.09-.22.18-.32.28s-.19.21-.28.32l-.56.65a.22.22,0,0,0,.31.31Z"/><path class="cls-34" d="M367.91,164.82a3.73,3.73,0,0,1,1.83-2.23,1.48,1.48,0,0,1,1.45-.09,1.41,1.41,0,0,1,.48.46,2,2,0,0,1,.15.33c0,.11,0,.2.12.28a.13.13,0,0,0,.2,0c.13-.19,0-.54-.12-.72a1.9,1.9,0,0,0-.54-.59,1.68,1.68,0,0,0-1.64-.1,4,4,0,0,0-2.27,2.6c-.06.21.27.3.34.09Z"/><path class="cls-34" d="M368.53,163.74a4.65,4.65,0,0,1,.83-.07l.43,0,.42,0a.18.18,0,0,0,.17-.15.18.18,0,0,0-.12-.19,3.59,3.59,0,0,0-1.84-.07.22.22,0,0,0,.11.43Z"/><path class="cls-51" d="M352.49,155.29a5.19,5.19,0,0,1,.61,1.34.83.83,0,0,1,0,.15c0,.06,0,.07,0,0s0,0,0,.07,0,.23,0,.34,0,.07,0,0a.44.44,0,0,0,0,.1c0,.05,0,.1,0,.15a.42.42,0,0,1,0,.1s0-.06,0,0l-.09.16s0,0,0,0l0,0a.31.31,0,0,1,.44,0c.09.1,0,0,0,0h0l0-.08a6.14,6.14,0,0,1-.22-.73,3.44,3.44,0,0,1-.09-.7.91.91,0,0,1,0-.17V156s0,0,0,0,.07-.25.12-.38a.56.56,0,0,0-.47-.7.56.56,0,0,0-.64.55c0,.26,0,.51,0,.76a3.48,3.48,0,0,0,0,.79,4.12,4.12,0,0,0,.15.84,2,2,0,0,0,.36.79.8.8,0,0,0,1,.11,1.51,1.51,0,0,0,.55-.8,2.57,2.57,0,0,0,0-1.55,4.57,4.57,0,0,0-1-1.56c-.3-.36-.86.1-.63.49Z"/><path class="cls-51" d="M342.47,156.31a5.22,5.22,0,0,1,.18.56c0,.1,0,.2.05.29h0v.06c0,.05,0,.1,0,.15a3.9,3.9,0,0,1,0,.59s0,.08,0,.12,0,.22,0,.07a1.47,1.47,0,0,1-.05.29l1-.13a3.55,3.55,0,0,1-.32-.53l0-.07c0,.07,0,.08,0,0a.78.78,0,0,1-.05-.14c0-.09-.06-.19-.08-.28s-.06-.19-.08-.28l0-.15c0-.06,0,0,0,0v-.08a3,3,0,0,1,0-.31,1.7,1.7,0,0,0,0-.39.46.46,0,0,0-.84-.11,1.09,1.09,0,0,0-.11.39c0,.14,0,.28-.05.42a2.9,2.9,0,0,0,.06.78,3.37,3.37,0,0,0,.7,1.37.55.55,0,0,0,.91-.24,4.28,4.28,0,0,0-.39-2.77.46.46,0,0,0-.57-.19.45.45,0,0,0-.26.54Z"/><path class="cls-73" d="M339.92,133.11a3.8,3.8,0,0,0-1.61,4.37,5.8,5.8,0,0,0,4.27,3.62c2.39.61,5,.21,7.42-.17,2.55-.4,5.14-1.3,7.74-1,2.3.23,4.73,1.84,4.8,4.35a.18.18,0,0,0,.35,0,4.55,4.55,0,0,0-2.79-4.13c-2-1-4.37-.72-6.52-.3a51.61,51.61,0,0,1-7.53,1.12c-2.26.11-4.73-.2-6.38-1.91a4,4,0,0,1-1.19-3,3.21,3.21,0,0,1,1.57-2.71c.14-.09,0-.31-.13-.23Z"/><path class="cls-73" d="M339.17,142.27a7.07,7.07,0,0,0,4.38,3.53,6.81,6.81,0,0,0,5.88-1.19c.1-.07,0-.24-.14-.17a7.12,7.12,0,0,1-5.71,1,6.87,6.87,0,0,1-4.18-3.3c-.08-.15-.31,0-.23.13Z"/><path class="cls-73" d="M365.87,145.75a2.93,2.93,0,0,1,2.29,2.68,13.73,13.73,0,0,1-.14,4.29c-.2,1.25-.75,2.58-.51,3.85a1.93,1.93,0,0,0,1.68,1.7.1.1,0,0,0,0-.19c-1.47-.4-1.52-2.07-1.27-3.28a26.25,26.25,0,0,0,.63-4.13c.09-1.95-.19-4.94-2.7-5.17-.16,0-.15.23,0,.25Z"/><path class="cls-73" d="M369.32,154.33a5.47,5.47,0,0,0,.94,3.37,4.5,4.5,0,0,0,2.76,2c.14,0,.16-.19.06-.25-.45-.3-.94-.52-1.37-.85a5.89,5.89,0,0,1-1.13-1.21,5.28,5.28,0,0,1-.95-3.1.16.16,0,0,0-.31,0Z"/><path class="cls-73" d="M365.06,144.6a3.49,3.49,0,0,1,.95-1.24c.32-.31.65-.61,1-.89a14.62,14.62,0,0,1,2.31-1.52,14.25,14.25,0,0,1,2.49-1c.88-.27,1.79-.37,2.68-.6a.15.15,0,0,0,0-.29,8.81,8.81,0,0,0-2.81.54,14.9,14.9,0,0,0-2.69,1.17,14.5,14.5,0,0,0-2.35,1.63,5.69,5.69,0,0,0-1.87,2.15c-.06.2.26.29.33.09Z"/><path class="cls-73" d="M360.4,133a7.8,7.8,0,0,1,3.81,2.76,8.33,8.33,0,0,1,1.12,2.05,14.47,14.47,0,0,1,.5,2.26c0,.14.21.09.22,0a5.64,5.64,0,0,0-.41-2.43,7.75,7.75,0,0,0-1.2-2.16,8,8,0,0,0-3.95-2.79c-.21-.06-.3.27-.09.34Z"/><path class="cls-73" d="M377.24,155a7.17,7.17,0,0,1,.29,1.15c.09.33.19.66.29,1a11.79,11.79,0,0,1,.42,2,8.24,8.24,0,0,1-.55,3.77,12.69,12.69,0,0,1-4.87,5.59.09.09,0,0,0,.09.16,11.15,11.15,0,0,0,5-5.52,8.18,8.18,0,0,0,.58-3.85,9.22,9.22,0,0,0-.49-2c-.13-.35-.26-.7-.38-1.05a3.36,3.36,0,0,1-.33-1.22c0-.08-.13-.06-.09,0Z"/><path class="cls-73" d="M379.17,163.66a10.22,10.22,0,0,1-2,3.21,13.37,13.37,0,0,1-2.91,2.33c-.12.07,0,.24.12.19a9.73,9.73,0,0,0,5-5.67c0-.15-.18-.21-.24-.06Z"/><path class="cls-62" d="M371.07,186.45a12.92,12.92,0,0,1,4.13,5.9,32.4,32.4,0,0,1,2,7.56,41.39,41.39,0,0,1,.09,9.44c-.3,3.52-1.1,7-1.25,10.56a.28.28,0,0,0,.54.07,55.67,55.67,0,0,0,1.81-11,38,38,0,0,0-.19-9.76c-.81-4.64-2.6-10.6-6.88-13.23-.32-.2-.6.29-.29.5Z"/><path class="cls-62" d="M364.48,250.21c.11-9,2.68-18.67,7.85-26.07,1.28-1.84,3.19-3.53,5.59-2.78,2.25.7,3.57,2.81,4.19,4.95a40.79,40.79,0,0,1,1.11,7q.4,3.75.61,7.52c.16,2.79.23,5.58.23,8.37s-.25,5.87-.22,8.8c0,.75,1.05.7,1.14,0a68,68,0,0,0,.34-8.8c0-2.79-.07-5.58-.22-8.37s-.41-5.86-.75-8.77A28.74,28.74,0,0,0,383,225c-1.48-3.74-5.8-6.66-9.48-3.8a16.43,16.43,0,0,0-3.9,5.31,49.69,49.69,0,0,0-3.15,7,47.72,47.72,0,0,0-2.71,16.75.37.37,0,0,0,.74,0Z"/><path class="cls-62" d="M363.9,250c-.29,2-.47,4.07-.56,6.11a27.47,27.47,0,0,0,.17,5.66,5.6,5.6,0,0,0,2.22,3.91c1.1.74,2.78,1.09,3.86.15a.57.57,0,0,0-.55-.95,3.18,3.18,0,0,1-1.67.18,3.22,3.22,0,0,1-1.63-1,6.77,6.77,0,0,1-1.28-4.15,53,53,0,0,1,.2-9.84c0-.42-.7-.53-.76-.1Z"/><path class="cls-62" d="M369.16,264.1a3.66,3.66,0,0,0-.15,4,.58.58,0,0,0,.57.27.53.53,0,0,0,.47-.4,9.22,9.22,0,0,0,.2-1.95,16.85,16.85,0,0,0-.18-1.88.48.48,0,0,0-.93-.13,3.11,3.11,0,0,0,.42,2.88.53.53,0,0,0,1-.4s0,0,0-.05,0,0,0-.05a1.33,1.33,0,0,1,.05-.19,2.6,2.6,0,0,0,.09-.47.88.88,0,0,0-.36-.86.72.72,0,0,0-.76,0,.54.54,0,0,0-.17.74c.17.24.67.19.63-.18q0-.12-.06.12s0,0,0,0a.08.08,0,0,1-.07,0h0a.25.25,0,0,1-.12-.08s0,0,0,0v0l0,.11c0,.1-.16.31-.21.45a1.23,1.23,0,0,0,0,.66l1-.41a2.07,2.07,0,0,1-.15-.25,1.09,1.09,0,0,1-.08-.15l0-.05s0,0,0,0-.09-.22,0-.13a.78.78,0,0,1-.05-.14,1.58,1.58,0,0,1-.09-.31,2.34,2.34,0,0,1,0-1.05h-.91a6.52,6.52,0,0,1,.06,1.71,10.79,10.79,0,0,1-.24,1.68l1-.13a2.52,2.52,0,0,1-.31-.69,3.39,3.39,0,0,1-.11-.43s0-.08,0-.11,0,0,0,0a1.34,1.34,0,0,1,0-.2,2.7,2.7,0,0,1,.36-1.51.43.43,0,1,0-.75-.44Z"/><path class="cls-62" d="M383.76,257.54c-.17,1.28-.37,2.56-.6,3.83a12,12,0,0,1-.8,3.13,3.41,3.41,0,0,1-2.17,1.81,7.68,7.68,0,0,1-1.51.25,5.07,5.07,0,0,0-1.46.14.36.36,0,0,0,0,.7,4,4,0,0,0,1.68,0,7.73,7.73,0,0,0,1.58-.3,4.2,4.2,0,0,0,2.46-1.93,9.58,9.58,0,0,0,.94-3.32q.33-2.16.51-4.32c0-.42-.58-.4-.63,0Z"/><path class="cls-62" d="M375.94,265.74a4.92,4.92,0,0,0-.49,2.56c0,.48.13,1,.68,1.2a1,1,0,0,0,1.08-.59,4.13,4.13,0,0,0,.27-1.3l.08-.67a2.75,2.75,0,0,0,.05-.57,1.08,1.08,0,0,0-.49-1,.8.8,0,0,0-.69,0,.94.94,0,0,0-.45.56,3.32,3.32,0,0,0-.16.62,7.36,7.36,0,0,0-.12.82,5,5,0,0,0,.07,1.54.54.54,0,0,0,.51.4.57.57,0,0,0,.52-.4,2.85,2.85,0,0,0,.09-1.56.46.46,0,0,0-.5-.32.45.45,0,0,0-.39.44,1.72,1.72,0,0,0,0,.39,1.76,1.76,0,0,0,.06.39.26.26,0,0,0,.43.12,1.7,1.7,0,0,0,.26-.34,4.48,4.48,0,0,0,.18-.44l-.89-.12a2.93,2.93,0,0,1-.23,1.16h1c0,.1,0-.13,0-.12a.52.52,0,0,0,0-.11.5.5,0,0,0,0-.12c0-.18,0,.05,0-.06a4,4,0,0,1,0-.5,5.44,5.44,0,0,1,.05-.92,2.47,2.47,0,0,1,.11-.47s0-.06,0-.09,0,.06,0,0,.06-.06,0,0-.06,0-.1.06-.07,0,0,0a.33.33,0,0,1-.13,0l0,0h0c-.05,0,0,0,0,0s0-.09,0,0a.24.24,0,0,0,0,.08s0,.09,0,0,0,0,0,.05v.08s0,.13,0,0,0,0,0,.06l0,.12-.09.51c-.06.34-.1.68-.17,1l0,.1s0,.1,0,0,0,0,0,0a.16.16,0,0,1,0,.07s-.07.09,0,0l0,0c-.07,0,.09-.06,0,0l.06,0h0a.33.33,0,0,1,.17,0c.05,0,.07.06.1.08s0-.05,0,0,0,0,0,0a1.29,1.29,0,0,1,0-.19.52.52,0,0,1,0-.11h0a.19.19,0,0,1,0-.08,4.58,4.58,0,0,1,0-.53,2.45,2.45,0,0,1,0-.27.37.37,0,0,1,0-.11v-.06h0a4.12,4.12,0,0,1,.29-1,.47.47,0,0,0-.85-.36Z"/><path class="cls-62" d="M348.93,187.33c-6.27,4.28-9.55,11.39-11.28,18.57a99.85,99.85,0,0,0-2.15,12.5,64,64,0,0,0-.42,6.63,21.92,21.92,0,0,0,.64,6.31.38.38,0,0,0,.75-.1c.09-2.07-.1-4.14-.08-6.21s.15-4.15.36-6.22a108.51,108.51,0,0,1,1.91-12c1.59-7.16,4.49-14.44,10.56-19,.29-.21,0-.7-.29-.49Z"/><path class="cls-62" d="M336.35,229.93a3.8,3.8,0,0,0-4.2,2.11,4,4,0,0,0,1.09,4.65,3.67,3.67,0,0,0,4.87-.28,3.46,3.46,0,0,0,1.05-2.35,3.6,3.6,0,0,0-.94-2.42,3.39,3.39,0,0,0-2.28-1.15,3.24,3.24,0,0,0-2.37,5.54,2.51,2.51,0,0,0,2.61.2,2.29,2.29,0,0,0,1.24-2.26,2.4,2.4,0,0,0-1.65-2.13,1.62,1.62,0,0,0-2,1.43c-.13.8-.14,2.06.67,2.51,1,.58,2.06-.51,2.11-1.51s-.81-2.07-1.83-1.54c-.76.4-1,1.74,0,2a1.41,1.41,0,0,0,1.36-.76l-1.13-.3v1a.59.59,0,0,0,1.17,0l.05-1a.61.61,0,0,0-1.13-.31.42.42,0,0,1-.32.15l.48.07c-.18-.09.07.14.12.23s0,.19,0,.05a.08.08,0,0,1,0,0c.06,0-.28,0-.24,0s.1.16.1.2,0-.13,0,.1c0,0,0,.13,0,.06a.54.54,0,0,1-.09.25s-.11.11-.12.1.2,0,.15,0,0,.22,0-.06-.07-.41-.07-.64a2,2,0,0,1,.08-.59l.07-.12.05-.06s0,0,0,0a.24.24,0,0,1,.09,0,.81.81,0,0,1,.48.27,1.11,1.11,0,0,1,.24.58,1.2,1.2,0,0,1-.05.5,1.06,1.06,0,0,1-.93.63,1.1,1.1,0,0,1-1-.69,1.53,1.53,0,0,1,0-1.24,2,2,0,0,1,2-1.36,2.26,2.26,0,0,1,1.73,1.85,2.12,2.12,0,0,1-1.35,2.14,2.59,2.59,0,0,1-1.21.21,2.23,2.23,0,0,1-1.27-.63,2.57,2.57,0,0,1-.64-3,2.91,2.91,0,0,1,2.86-1.59.47.47,0,0,0,.25-.91Z"/><path class="cls-51" d="M341.36,153.15a2.56,2.56,0,0,1,1.89-.35,2.43,2.43,0,0,1,.83.34c.06,0,.06.05,0,0l.09.07.17.16c.16.16.28.36.43.53a.36.36,0,0,0,.42.13.45.45,0,0,0,.17-.45,2.29,2.29,0,0,0-1-1.36,2.93,2.93,0,0,0-1.22-.58,2.7,2.7,0,0,0-2.29.63c-.31.27,0,1.15.44.86Z"/><path class="cls-51" d="M349.82,153.87a5.69,5.69,0,0,1,3.06-1.51,7.26,7.26,0,0,1,3.43.38c.49.15.41-.65.14-.83-2.22-1.47-5.47-.72-7.25,1.11-.33.35.22,1.23.62.85Z"/><path class="cls-61" d="M347.32,163a20.84,20.84,0,0,0-.32,8.89,18.59,18.59,0,0,0,3.43,8.2c.17.21.5-.06.37-.28a28.78,28.78,0,0,1-2.09-3.86,20.59,20.59,0,0,1-.95-12.82c.08-.29-.37-.41-.44-.13Z"/></g></g></svg>