<svg xmlns="http://www.w3.org/2000/svg" viewBox="0 0 1000.66 566.93"><defs><style>.cls-1{isolation:isolate;}.cls-12,.cls-13,.cls-2,.cls-21,.cls-37,.cls-5{fill:#daeef7;}.cls-13,.cls-2,.cls-26,.cls-4{mix-blend-mode:multiply;}.cls-3{fill:#b5b7c7;}.cls-6{fill:#dbe0f0;}.cls-7{fill:#c8cedf;}.cls-8{fill:#bbbccc;}.cls-9{fill:#fff;}.cls-10{fill:#ff7b8c;}.cls-11{fill:#ff5b7e;}.cls-12,.cls-13,.cls-26{opacity:0.3;}.cls-14{fill:#ffc0bb;}.cls-15{fill:#07085b;}.cls-16{fill:#fcd2b1;}.cls-17{fill:#fee4cb;}.cls-18,.cls-26{fill:#f99893;}.cls-19{fill:#333;}.cls-20{fill:#f2b58c;}.cls-21,.cls-33,.cls-34{opacity:0.5;}.cls-22{fill:#446284;}.cls-23{fill:#55769f;}.cls-24{fill:#f4a640;}.cls-25{fill:#feb546;}.cls-27{fill:#282828;}.cls-28{fill:#06bfad;}.cls-29{fill:#fc8d84;opacity:0.6;}.cls-30{fill:#f46c0f;}.cls-31{fill:#02aa95;}.cls-32{fill:#02ccc0;}.cls-34,.cls-35{fill:#e03268;}.cls-36{fill:#f50;}.cls-37{opacity:0.2;}</style></defs><title>Artboard 14</title><g class="cls-1"><g id="Layer_1" data-name="Layer 1"><path class="cls-2" d="M498.2,181h0a9.51,9.51,0,0,0-8.22-9.42V159.5A15.5,15.5,0,0,0,474.49,144H412.11a15.5,15.5,0,0,0-15.5,15.49v12.17a9.5,9.5,0,0,0-7.85,9.36h0a9.5,9.5,0,0,0,7.85,9.36v63.45a9.5,9.5,0,0,0-7.85,9.36h0a9.5,9.5,0,0,0,7.85,9.36V274a15.49,15.49,0,0,0,15.5,15.49h12.32a4,4,0,0,1,4,4v4.42h29.66v-4.42a4,4,0,0,1,4-4h12.33A15.49,15.49,0,0,0,490,274v-1.34a9.51,9.51,0,0,0,8.22-9.42h0a9.51,9.51,0,0,0-8.22-9.42V190.45A9.51,9.51,0,0,0,498.2,181Z"/><rect class="cls-3" x="418.92" y="295.19" width="49.12" height="19.78" rx="8.61"/><g class="cls-4"><polygon class="cls-5" points="396.62 190.39 460.19 191.2 396.62 192.01 396.62 190.39"/></g><g class="cls-4"><polygon class="cls-5" points="489.97 170 426.4 170.81 489.97 171.61 489.97 170"/></g><g class="cls-4"><polygon class="cls-5" points="396.62 272.55 460.19 273.36 396.62 274.16 396.62 272.55"/></g><g class="cls-4"><polygon class="cls-5" points="489.97 252.15 426.4 252.96 489.97 253.77 489.97 252.15"/></g><rect class="cls-6" x="390.73" y="304.77" width="105.49" height="210.99" rx="44"/><path class="cls-3" d="M439.37,331.22h8.22a27.67,27.67,0,0,1,27.67,27.67v40.31a0,0,0,0,1,0,0H411.7a0,0,0,0,1,0,0V358.88a27.67,27.67,0,0,1,27.67-27.67Z"/><path class="cls-7" d="M440.06,336.08h6.84a23,23,0,0,1,23,23v40.09a0,0,0,0,1,0,0H417a0,0,0,0,1,0,0V359.1A23,23,0,0,1,440.06,336.08Z"/><rect class="cls-8" x="405.26" y="399.19" width="77.33" height="4.49" rx="1.95"/><path class="cls-3" d="M478.77,511.21H408.19A12.25,12.25,0,0,1,395.94,499V321.55a12.25,12.25,0,0,1,12.25-12.24h70.58A12.25,12.25,0,0,1,491,321.55V499A12.25,12.25,0,0,1,478.77,511.21ZM408.19,310.12a11.45,11.45,0,0,0-11.44,11.43V499a11.45,11.45,0,0,0,11.44,11.44h70.58A11.45,11.45,0,0,0,490.2,499V321.55a11.45,11.45,0,0,0-11.43-11.43Z"/><path class="cls-3" d="M406.64,501.64a2.19,2.19,0,1,1-2.19-2.18A2.18,2.18,0,0,1,406.64,501.64Z"/><path class="cls-3" d="M484,501.64a2.18,2.18,0,1,1-2.18-2.18A2.17,2.17,0,0,1,484,501.64Z"/><path class="cls-3" d="M406.64,319.72a2.19,2.19,0,1,1-2.19-2.18A2.19,2.19,0,0,1,406.64,319.72Z"/><path class="cls-8" d="M469.71,484.36H417.25a6.09,6.09,0,0,1-6.09-6.09V459.46a6.09,6.09,0,0,1,6.09-6.09h52.46a6.09,6.09,0,0,1,6.08,6.09v18.81A6.09,6.09,0,0,1,469.71,484.36Zm-52.46-29.91a5,5,0,0,0-5,5v18.81a5,5,0,0,0,5,5h52.46a5,5,0,0,0,5-5V459.46a5,5,0,0,0-5-5Z"/><path class="cls-9" d="M431.84,365.9h-.47l1.22-11a1.2,1.2,0,0,0-1.2-1.33h-4.33a1.2,1.2,0,0,0-1.2,1.33l1.21,11h-.46a.89.89,0,0,0-.9.89v3a.89.89,0,0,0,.9.89h5.23a.89.89,0,0,0,.89-.89v-3A.89.89,0,0,0,431.84,365.9Z"/><rect class="cls-10" x="424.94" y="367.46" width="8.65" height="1.84" rx="0.8"/><path class="cls-9" d="M460.27,365.9h-.47l1.22-11a1.2,1.2,0,0,0-1.2-1.33h-4.33a1.2,1.2,0,0,0-1.2,1.33l1.21,11H455a.89.89,0,0,0-.9.89v3a.89.89,0,0,0,.9.89h5.23a.89.89,0,0,0,.89-.89v-3A.89.89,0,0,0,460.27,365.9Z"/><rect class="cls-5" x="453.37" y="367.46" width="8.65" height="1.84" rx="0.8"/><polygon class="cls-11" points="459.91 376.74 455.39 376.74 448.89 376.74 452.68 399.24 455.39 399.24 459.91 399.24 462.63 399.24 466.42 376.74 459.91 376.74"/><rect class="cls-5" x="447.49" y="376.45" width="20.32" height="2.4" rx="1.05"/><path class="cls-12" d="M452,382.39a7.06,7.06,0,0,0-2.07.32l2.28,13.55a6.94,6.94,0,0,0-.21-13.87Z"/><path class="cls-13" d="M498.2,181h0a9.51,9.51,0,0,0-8.22-9.42V159.5A15.5,15.5,0,0,0,474.49,144H463.44c-5,43.79-18.59,110-55,145a15.64,15.64,0,0,0,3.71.45h12.32a4,4,0,0,1,4,4v4.42h29.66v-4.42a4,4,0,0,1,4-4h12.33A15.49,15.49,0,0,0,490,274v-1.34a9.51,9.51,0,0,0,8.22-9.42h0a9.51,9.51,0,0,0-8.22-9.42V190.45A9.51,9.51,0,0,0,498.2,181Z"/><rect class="cls-8" x="57.57" y="515.18" width="905.71" height="5.28" rx="2.3"/><ellipse class="cls-2" cx="443.3" cy="219.28" rx="46.68" ry="2.83"/><path class="cls-13" d="M490,253.78V219.3c-.16,1.55-21,2.81-46.68,2.81s-46.69-1.27-46.69-2.83v34.56a9.51,9.51,0,0,0,0,18.72V274a15.49,15.49,0,0,0,15.5,15.49h12.32a4,4,0,0,1,4,4v4.42h29.66v-4.42a4,4,0,0,1,4-4h12.33A15.49,15.49,0,0,0,490,274v-1.34a9.51,9.51,0,0,0,0-18.84Z"/><path class="cls-14" d="M537.33,365.53a26.5,26.5,0,0,0,0,9.28c.91,5.21,24.45,129.05,24.45,129.05l-12.42,1.82S508.8,390.66,506.54,383s-4.75-18.57,2.94-27S537.33,365.53,537.33,365.53Z"/><path class="cls-14" d="M530.79,507.44l14.87-17.9,14.87,6.16-3.73,5.14L540.61,509s-6.93,1.39-7.28,1.29A23.88,23.88,0,0,1,530.79,507.44Z"/><path class="cls-15" d="M530.79,507.44l-3.22,4a2.38,2.38,0,0,0,2.59,3.76l31.2-10.35a2.1,2.1,0,0,0,1.33-2.66l-2.16-6.53C541.94,509.21,534.1,509.58,530.79,507.44Z"/><path class="cls-15" d="M582.21,91.38a16.49,16.49,0,0,1,16.6,0c8.84,5.09,8.84,22.22,5.36,26.33s.18,9.65-6.78,15-18,7.32-24.38,1.07-1.68-20.21-1.68-20.21Z"/><path class="cls-14" d="M573.64,149.87l-20,.42c.4-4.44.75-10.33,0-12.45-1.25-3.58,21-4.12,21-4.12A132.54,132.54,0,0,0,573.64,149.87Z"/><path class="cls-14" d="M551.77,508.29l17.09-10.65,14.83,8.87-5.15,3.7-17.93,2.62s-7-.86-7.32-1.07A25,25,0,0,1,551.77,508.29Z"/><path class="cls-14" d="M593,353.79s-2.44,59-2.67,69.2-5.43,85.81-7.7,92.38l-12.68-.91S561.29,368.05,564,353.79,593,353.79,593,353.79Z"/><path class="cls-14" d="M620.16,305.58c4.36-.89,5.45,1.92,9.87,1l-1,6.81c.6,1.33,1.92,4.87,1.92,4.87,4.92,14.25,4.65,12.72,4.16,13s-4.18-5-4.6-4.51,2.11,9,1.36,8.74-4.05-7.77-4.48-7.48,2.14,8.43,1,8.72-3.62-8.74-4.41-8.16,2,9.77,1,9.86c-.88.09-4.27-10.1-5.33-13.35a.55.55,0,0,0-1-.17c-4.24,5.29-4.88,5.46-5.35,4.86-.34-.43,1.84-6.19,3.58-11.7l2.3-6.71Z"/><path class="cls-15" d="M551.77,508.29l-4.33,2.81a2.38,2.38,0,0,0,1.28,4.39h32.87a2.1,2.1,0,0,0,2.1-2.1v-6.88C561.8,513.48,554.24,511.36,551.77,508.29Z"/><path class="cls-16" d="M538.26,149.84S493.79,163.06,473.44,204a11.24,11.24,0,0,0,1.33,12.13c6.18,7.53,19.92,20.68,45.67,29.67,0,0,4.82-1.6,5.42-7.83,0,0-24.51-22.3-30.74-27.52l34.36-26.93Z"/><path class="cls-14" d="M532.29,245.75l-6.54-7-5.31,7s.73,19.56,0,25.18c0,0,1.8,1.07,2.34,0S532.29,245.75,532.29,245.75Z"/><path class="cls-15" d="M584.6,353.79l-10.52,38.93c-24.29,0-60.53-2.28-78.53-14.28,0,0,23.53-109.38,39.15-136.77l53.66-2.94s37.21,51.83,10,153.26c0,0-4.64.34-12.06.55Z"/><path class="cls-17" d="M574.34,149.19s22-2.41,28.93,6.16,30.54,68,31.88,96.43-5.63,61.88-5.63,61.88-7.76.53-11.25,0,.81-54.92-2.94-63.75-20.63-51.17-21.7-55.18l-4.18,22.15a22.94,22.94,0,0,0,1,12.2c3.55,9.56,10.4,27.92,13.15,34.73,0,0-52.73,8.48-78.71-4.38l8.44-35.51s-17.41-75,7.43-74.3Z"/><path class="cls-18" d="M538.78,112c1.11,3,.05,6.18-2.36,7.07s-5.27-.84-6.38-3.85,0-6.18,2.36-7.07S537.67,109,538.78,112Z"/><path class="cls-18" d="M574.69,133.72s-.48,3.72-.8,8.21A19.24,19.24,0,0,1,554,144.79c.13-2.93.08-5.65-.37-6.95C552.4,134.26,574.69,133.72,574.69,133.72Z"/><path class="cls-14" d="M539,129.39a24.62,24.62,0,0,1-1.72-4.13,45.62,45.62,0,0,1-2.1-11.52c-.05-.76-.14-1.52-.24-2.28a24.86,24.86,0,1,1,49.47-2.59,5.37,5.37,0,0,1,4.85-.21c2.9,1.41,3.81,5.51,2,9.13s-5.56,5.43-8.47,4a4.8,4.8,0,0,1-1.08-.74c-1.66,12.12-11.95,21.17-23.9,20.56A22.34,22.34,0,0,1,543,134.8a10.53,10.53,0,0,1-.81-.82A21.53,21.53,0,0,1,539,129.39Z"/><path class="cls-19" d="M561.39,112.28a2.34,2.34,0,1,0,2.45-2.21A2.34,2.34,0,0,0,561.39,112.28Z"/><path class="cls-19" d="M542.22,112.28a2.34,2.34,0,1,0,2.45-2.21A2.33,2.33,0,0,0,542.22,112.28Z"/><path class="cls-18" d="M554.26,107.83c0,.75,0,1.5,0,2.25s-.06,1.5-.14,2.24a15.77,15.77,0,0,1-.35,2.2,5.54,5.54,0,0,1-.84,2c-.06.07-.11.14-.17.2s-.11.12-.19.19l-.21.22a1.5,1.5,0,0,0-.18.24,2.49,2.49,0,0,0-.47,1.12,2.73,2.73,0,0,0,.74,2.21,4.54,4.54,0,0,0,1.92,1.26,6.92,6.92,0,0,0,2.24.37,10.78,10.78,0,0,1-1.11-.2,6.51,6.51,0,0,1-1-.36,4.5,4.5,0,0,1-1.75-1.28,2.47,2.47,0,0,1-.6-1.94,2.24,2.24,0,0,1,.41-1l.16-.2.18-.19.21-.21a2.2,2.2,0,0,0,.2-.23,4.37,4.37,0,0,0,.56-1,7.08,7.08,0,0,0,.33-1.11,14.43,14.43,0,0,0,.3-2.26A23.53,23.53,0,0,0,554.26,107.83Z"/><path class="cls-15" d="M559.43,108.39a14.07,14.07,0,0,1,3.29-1.27,10.84,10.84,0,0,1,3.4-.26,9.47,9.47,0,0,1,1.67.32,7.86,7.86,0,0,1,.82.27c.13,0,.26.11.4.16l.39.17a17.18,17.18,0,0,1,3,1.88,9.38,9.38,0,0,0-2.68-2.45,8.59,8.59,0,0,0-1.68-.79,8.18,8.18,0,0,0-1.83-.39,8.6,8.6,0,0,0-3.67.47,9.69,9.69,0,0,0-1.66.78A7.09,7.09,0,0,0,559.43,108.39Z"/><path class="cls-15" d="M550,108.39a7.44,7.44,0,0,0-1.45-1.11,9.34,9.34,0,0,0-1.66-.78,8.58,8.58,0,0,0-3.67-.47,8.09,8.09,0,0,0-1.82.39,8.41,8.41,0,0,0-1.69.79,9.34,9.34,0,0,0-2.67,2.45,17.49,17.49,0,0,1,3-1.88l.4-.17c.13,0,.26-.12.4-.16a7.69,7.69,0,0,1,.81-.27,9.65,9.65,0,0,1,1.67-.32,10.93,10.93,0,0,1,3.41.26A14.42,14.42,0,0,1,550,108.39Z"/><polygon class="cls-16" points="578.47 148.92 584.53 157.87 576.86 160.55 580.7 168.94 558.12 177.86 558.12 177.86 561.31 159.12 578.47 148.92"/><path class="cls-16" d="M547.84,149.53,538.26,157l5.49,3.66-4.55,6.78,18.92,10.44S557,173,557,172.37s2.52-3.35,2.43-3.88S547.84,149.53,547.84,149.53Z"/><path class="cls-14" d="M578.47,148.92s-16.78,21.26-20.35,28.94c0,0-9.85-12.92-10.28-28.33Z"/><path class="cls-20" d="M558.12,177.86q-.68,11.07-.9,22.15c-.1,3.69-.13,7.38-.18,11.08s0,7.39,0,11.08c0,1.85,0,3.7.08,5.55s.06,3.69.12,5.54c.13,3.69.23,7.39.45,11.08.39,7.38.95,14.76,2,22.07l-.19-2.76-.21-2.76c-.11-1.84-.18-3.69-.28-5.53L559,254l-.05-1.38-.1-2.77-.11-2.77-.07-2.76c-.22-7.38-.33-14.76-.38-22.14s-.09-14.76-.11-22.14Z"/><path class="cls-20" d="M593.63,194.73a28.78,28.78,0,0,1-.82-3.51c-.23-1.18-.38-2.37-.54-3.56-.28-2.38-.43-4.78-.5-7.18l0-1.79v-1.8c0-1.2.06-2.4.08-3.6,0-.61.06-1.2.09-1.8l.09-1.81c.07-1.2.18-2.4.25-3.6-.2,1.19-.37,2.38-.55,3.58s-.26,2.39-.35,3.6l-.11,1.81c0,.6-.05,1.2-.07,1.81l0,1.81,0,1.81a58.15,58.15,0,0,0,.64,7.22c.1.6.19,1.2.31,1.79s.25,1.18.4,1.77A24.33,24.33,0,0,0,593.63,194.73Z"/><path class="cls-15" d="M536.38,89.13C541,73.33,562,72.77,562,72.77c32.45,2.25,27.34,30.72,26.27,35.43a5.26,5.26,0,0,0-3.8.67,8.1,8.1,0,0,0-1.63,1.11c-3.83-1.16-5-7.51-7-10.57-2.69-4.15-14.52-2-19-5a11.08,11.08,0,0,1-5-7.5c-17.32,2.75-17,21-17,21a6.4,6.4,0,0,0-1.67-.09S532.27,103.24,536.38,89.13Z"/><path class="cls-9" d="M547.89,125.07c.59,2.43,3.42,4.29,6.84,4.32s6.3-1.76,6.94-4.17Z"/><path class="cls-12" d="M376.07,179a7.91,7.91,0,0,1,2.35.36l-2.58,15.36a7.86,7.86,0,0,1,.23-15.72Z"/><path class="cls-14" d="M377.36,188.07s-5.94.56-6.33,1.45,5.9.94,5.9.94Z"/><path class="cls-14" d="M341.32,507.75,321.5,495.56l-12.11,10.61,5.18,3.67,17.94,2.5s7-.9,7.31-1.11A23.69,23.69,0,0,0,341.32,507.75Z"/><path class="cls-15" d="M341.32,507.75l4.35,2.79a2.38,2.38,0,0,1-1.25,4.39l-32.87.2a2.1,2.1,0,0,1-2.12-2.08l0-6.88C331.33,513,338.87,510.83,341.32,507.75Z"/><path class="cls-11" d="M258.11,107.43S252.65,85,265.65,76.66s26.77-7.45,36.16-2.43,15,22.54,10.79,32.55l-31.14-9.56Z"/><path class="cls-21" d="M260.13,259.37c2.21.4,4.44.73,6.66,1s4.47.56,6.7.78c4.48.45,9,.74,13.46.84q3.38.08,6.74,0c2.25-.07,4.49-.19,6.73-.38s4.47-.47,6.69-.83,4.42-.84,6.59-1.43c-2.16.63-4.35,1.14-6.57,1.56s-4.45.68-6.69.91-4.49.34-6.74.42-4.5.06-6.75,0c-4.51-.12-9-.41-13.48-.9q-3.36-.36-6.69-.86C264.55,260.18,262.33,259.81,260.13,259.37Z"/><path class="cls-14" d="M356.65,193.45c1.84-2.84,3-5.25,2.94-6.88l-.6-2.72c-.76-3.38,0-5.6,1.35-5.73l.26,0,4.08,8.75,2-1.83,10.23,12.82-11.66,5.67Z"/><polygon class="cls-14" points="309.39 506.17 305.29 482.92 322.43 481.1 323.47 482.28 326.35 498.41 318.25 506.57 309.39 506.17"/><path class="cls-14" d="M220.71,507.13l-7.7-22-16.08.6,1.7,6.11L211,505.13s6,3.72,6.38,3.75A24,24,0,0,0,220.71,507.13Z"/><path class="cls-15" d="M220.71,507.13l1.62,4.9a2.38,2.38,0,0,1-3.74,2.62L193,494.08a2.1,2.1,0,0,1-.33-2.95l4.31-5.37C209.64,504.9,216.87,508,220.71,507.13Z"/><polygon class="cls-14" points="196.93 485.76 208.41 465.13 222.86 474.53 222.92 476.1 214.98 490.43 203.55 491.66 196.93 485.76"/><path class="cls-14" d="M183,111.92a.59.59,0,0,1-1,0c-1.64-3.22-6.86-13.32-7.77-13.09-1.09.27,3.35,9.41,2.62,10.15s-4.84-8.28-5.95-7.8,2.91,8.58,2.51,9-5.09-7-5.91-7.1,3.22,8.35,2.86,8.93-5.09-4.32-5.56-4-.84.52,6.65,14.62l3.18,5.43,5,3,5.61-4.22s3.22-20.29,2.6-20.86S186.55,105.69,183,111.92Z"/><path class="cls-22" d="M281.46,269.58l5.21,96.29s7.71,101.83,17.55,123.23H326l-10.7-239.18H282.82Z"/><path class="cls-23" d="M316.57,277.46l-1.23-27.54-26-.67-.59,2.63-29.7-3.67s-24.39,31.44-18.62,81.51,4.5,68,4.5,68-31.45,28.88-41.08,70.59c0,0,13.8,9.63,23.11,11.24,0,0,46.21-70.6,49.74-78.95,2.11-5,9.13-56.8,14.43-97.66C291.16,303,314.3,286,316.57,277.46Z"/><path class="cls-24" d="M291.63,147.7s18.71,1.19,26.16,11c9.35,12.37,15.19,53.49,15.19,53.49l24.27-20.36L367.72,203s-31.27,43.54-36.88,40.3-21.47-16.84-21.47-16.84-6.5-39.16-6.5-40.39S291.63,147.7,291.63,147.7Z"/><path class="cls-25" d="M321,188.25a56.37,56.37,0,0,0-20.39-37.56,12,12,0,0,0-4.75-2.35A70.62,70.62,0,0,0,282,147h-9.92s-15.94.89-23,3.1-35,14.62-38.08,12.84-24.79-41.17-24.79-41.17l-12,6.19s7.53,55.16,28.34,59.24,41.18-1.23,41.18-1.23,4,55.35,14.17,65.09c0,0,40.21,2.73,55.16,1a6.09,6.09,0,0,0,5.31-5.09C319.94,237.05,323.47,211,321,188.25Z"/><path class="cls-14" d="M308.18,158.15a57.71,57.71,0,0,0-7.54-7.45,11.88,11.88,0,0,0-4.76-2.35A69.9,69.9,0,0,0,282,147h-9.92s-2.72.16-6.4.49C273.66,153.57,288.68,161.83,308.18,158.15Z"/><path class="cls-14" d="M275.4,149.16l20.9.43c-.42-4.64-.79-10.79,0-13,1.3-3.74-22-4.31-22-4.31A138.32,138.32,0,0,1,275.4,149.16Z"/><path class="cls-18" d="M274.31,132.28s.5,3.88.83,8.58a20.29,20.29,0,0,0,15.43,4.44,20.09,20.09,0,0,0,5.33-1.45c-.13-3.07-.09-5.9.39-7.26C297.59,132.85,274.31,132.28,274.31,132.28Z"/><path class="cls-11" d="M271.88,102.61s-11.13-1-22.44,8.38-16.57,34.79-.46,50.54,24.89,16.11,29.09,31.3c0,0,11.18-14.5,0-34.89a14.16,14.16,0,0,1,7,6.05s2.66-14.66-8.65-23.85-12.51-21.83-3.72-24.39S271.88,102.61,271.88,102.61Z"/><path class="cls-18" d="M308.55,110.74c-1.1,3-.05,6.17,2.36,7.06s5.26-.84,6.37-3.85.06-6.17-2.35-7.06S309.66,107.72,308.55,110.74Z"/><path class="cls-14" d="M308.3,128.15A24.66,24.66,0,0,0,310,124a45.88,45.88,0,0,0,2.09-11.51c0-.76.14-1.51.24-2.27a24.83,24.83,0,1,0-49.41-2.6,5.38,5.38,0,0,0-4.84-.21c-2.9,1.42-3.82,5.51-2.05,9.13s5.56,5.42,8.46,4a5.11,5.11,0,0,0,1.09-.74c1.65,12.11,11.93,21.15,23.87,20.54a22.3,22.3,0,0,0,14.89-6.81c.26-.24.53-.51.81-.82A21.67,21.67,0,0,0,308.3,128.15Z"/><path class="cls-19" d="M286,111.05a2.33,2.33,0,1,1-2.45-2.21A2.34,2.34,0,0,1,286,111.05Z"/><path class="cls-19" d="M305.12,111.05a2.33,2.33,0,1,1-2.45-2.21A2.34,2.34,0,0,1,305.12,111.05Z"/><path class="cls-11" d="M287.93,107.16a14,14,0,0,0-3.29-1.25,10.28,10.28,0,0,0-3.4-.26,8.76,8.76,0,0,0-1.67.31c-.27.07-.54.17-.81.27s-.26.11-.4.16l-.39.17a17.57,17.57,0,0,0-3,1.88,9.51,9.51,0,0,1,2.68-2.45,8.33,8.33,0,0,1,1.68-.79,8.64,8.64,0,0,1,1.83-.39,8.73,8.73,0,0,1,3.66.47,10.05,10.05,0,0,1,1.66.78A7.42,7.42,0,0,1,287.93,107.16Z"/><path class="cls-11" d="M297.33,107.16a7.42,7.42,0,0,1,1.44-1.1,9.69,9.69,0,0,1,1.66-.78,8.73,8.73,0,0,1,3.66-.47,8.64,8.64,0,0,1,1.83.39,8.33,8.33,0,0,1,1.68.79,9.51,9.51,0,0,1,2.68,2.45,17.57,17.57,0,0,0-3-1.88l-.39-.17c-.14,0-.27-.12-.4-.16s-.54-.2-.81-.27a8.76,8.76,0,0,0-1.67-.31,10.36,10.36,0,0,0-3.41.26A14.1,14.1,0,0,0,297.33,107.16Z"/><path class="cls-9" d="M244,185.58a20.58,20.58,0,0,0,2.93-4,20.5,20.5,0,0,0,1.1-2.26,24.12,24.12,0,0,0,.84-2.39,13.43,13.43,0,0,1-.54,2.5c-.11.41-.27.81-.42,1.21s-.34.8-.54,1.18a16.53,16.53,0,0,1-1.32,2.21,15.38,15.38,0,0,1-1.29,1.63,9.71,9.71,0,0,0,1.32.16,8.74,8.74,0,0,0,1.84-.09,7,7,0,0,0,.91-.17c.3-.09.6-.16.89-.27a10.61,10.61,0,0,0,1.7-.82,7.49,7.49,0,0,1-1.6,1,7.27,7.27,0,0,1-1.82.63,8.44,8.44,0,0,1-1.93.2,7.61,7.61,0,0,1-1.95-.25l-.47-.12Z"/><path class="cls-11" d="M263,107.64s16.9-6.82,25.88-17.2c0,0-.2,5.69-2.1,7.68.6.4,12.27-4.25,15-13.18s-13.28-5.49-13.28-5.49S279.35,78,279,78.16s-6.89,4.09-7.19,4.39S263,94.93,263,94.93l-2.17,4.49-.5,6.19Z"/><path class="cls-21" d="M310.11,282.36q-2,1.92-3.82,3.95t-3.61,4.13c-1.18,1.39-2.33,2.81-3.47,4.25s-2.26,2.87-3.34,4.34l-.24-.23a32,32,0,0,1,3.08-2,34,34,0,0,1,3.26-1.61,28,28,0,0,1,3.42-1.25l.87-.24.89-.21.44-.1.45-.08.9-.14-.89.19-.44.09-.44.12-.88.24-.86.27c-.29.09-.57.2-.85.3s-.57.2-.85.32l-.83.34-.83.37c-1.1.5-2.16,1.06-3.21,1.66a33.32,33.32,0,0,0-3,2l-.89.65.65-.89c1.09-1.48,2.2-2.94,3.34-4.36s2.32-2.85,3.51-4.24,2.45-2.73,3.71-4.06c.64-.66,1.28-1.31,1.94-1.94S309.43,283,310.11,282.36Z"/><path class="cls-21" d="M279.38,298.58c-1.41-1.9-2.85-3.77-4.35-5.6s-3-3.65-4.56-5.43-3.17-3.51-4.81-5.21c-.83-.84-1.66-1.68-2.53-2.49s-1.73-1.6-2.62-2.39c1.71,1.64,3.35,3.33,5,5.06s3.16,3.5,4.69,5.29,3,3.61,4.52,5.45c1.18,1.5,2.37,3,3.53,4.51-.94-.62-1.89-1.19-2.86-1.73a44.53,44.53,0,0,0-4.23-2.05,36.31,36.31,0,0,0-4.42-1.58l-1.13-.31-1.14-.26-.57-.13-.58-.09-1.16-.19,1.15.24.57.12.57.15,1.12.3,1.12.35c.37.11.74.24,1.1.38s.74.25,1.1.4l1.08.44c.36.14.71.31,1.07.46,1.41.64,2.8,1.35,4.15,2.12a42,42,0,0,1,3.92,2.5l1.16.83Z"/><path class="cls-26" d="M288.37,124.64a6.42,6.42,0,0,1,5.31.71s2.78-1.75,5-.08a5.29,5.29,0,0,1-5.59,3.86A4.72,4.72,0,0,1,288.37,124.64Z"/><path class="cls-18" d="M286,123.15a14.9,14.9,0,0,0,1.62,1.15,14.46,14.46,0,0,0,1.74.92,11.84,11.84,0,0,0,3.76,1,10,10,0,0,0,3.84-.42,14.15,14.15,0,0,0,3.52-1.76,11.17,11.17,0,0,1-1.59,1.22,10.8,10.8,0,0,1-1.8.9,9.6,9.6,0,0,1-2,.51,9.93,9.93,0,0,1-2,0,10.45,10.45,0,0,1-3.87-1.15A11.55,11.55,0,0,1,286,123.15Z"/><path class="cls-18" d="M294.59,110a28,28,0,0,1,1.73,3.3,26.43,26.43,0,0,1,1.3,3.52,9.57,9.57,0,0,1,.35,1.89,4.61,4.61,0,0,1,0,.52,2.74,2.74,0,0,1-.05.28,1.35,1.35,0,0,1-.14.3,1,1,0,0,1-.12.15l-.09.09-.2.16c-.13.09-.27.19-.41.27a9,9,0,0,1-1.73.79,12.36,12.36,0,0,1-1.81.48,21.47,21.47,0,0,0,3.21-1.76l.34-.28.15-.14.08-.07a.05.05,0,0,1,0,0,1.47,1.47,0,0,0,.05-.7,11,11,0,0,0-.36-1.74c-.32-1.17-.73-2.33-1.12-3.5S295,111.17,294.59,110Z"/><polygon class="cls-11" points="367.08 172.63 372.19 172.63 379.56 172.63 375.27 198.13 372.19 198.13 367.08 198.13 364 198.13 359.71 172.63 367.08 172.63"/><path class="cls-14" d="M360.34,178.12s5.48-.94,5.85,0-4.42.42-5.32,3S360.34,178.12,360.34,178.12Z"/><path class="cls-12" d="M375.75,181.69a6.74,6.74,0,0,1,2.07.32l-2.28,13.55a6.94,6.94,0,0,1,.21-13.87Z"/><path class="cls-14" d="M375.51,198.11h.21a2.46,2.46,0,0,0,2.58-2.05l2.39-14.16a1.8,1.8,0,0,0-.72-1.8c-1.76-1.28-5.51-3.86-6.3-3.42-1,.58,4.48,5.13,4.07,5.42s-6.62-1.81-6.79-1,5.71,3.64,5.65,4.06-6-.6-6.29.1,5.61,2.57,5.64,2.85Z"/><rect class="cls-5" x="358.12" y="172.31" width="23.02" height="2.72" rx="1.19" transform="translate(739.27 347.35) rotate(-180)"/><path class="cls-14" d="M775.19,487.66l-.3,10.68-13,9.45s-6.16-8.3-6-9.45,0-19.63,0-19.63,14.91,5.67,15.52,5.67S775.19,487.66,775.19,487.66Z"/><polygon class="cls-14" points="711.48 498.34 711.48 485.12 696.36 480.93 692.99 482.41 692.42 498.34 697.18 512.22 711.48 498.34"/><path class="cls-27" d="M732.91,295.34,752,489.45c7.5-.32,15.28-.89,23.18-1.79.89-37.24,3.44-148.53,3-193.19-.46-54-16.66-61.94-16.66-61.94L734,225.33,696.36,232C708.07,277.58,732.91,295.34,732.91,295.34Z"/><path class="cls-27" d="M689.59,487.19c5.66.65,13.51,1.41,22.87,1.95l20-224.39,2.1-35.7s-30.79-14.81-41,2.77-9.87,43.8-9.87,43.8S685.07,440.93,689.59,487.19Z"/><path class="cls-27" d="M711.48,498.34V513a2.19,2.19,0,0,1-2.19,2.19H674.93a2.48,2.48,0,0,1-1.34-4.57l18.83-12.27S700.43,503.86,711.48,498.34Z"/><path class="cls-27" d="M774.89,498.34V513a2.2,2.2,0,0,1-2.2,2.19H738.33a2.48,2.48,0,0,1-1.33-4.57l18.82-12.27S763.83,503.86,774.89,498.34Z"/><path class="cls-14" d="M680.33,158.83l-8.39,27.07s-36.66-34.53-36.53-44.22l.66-3c.82-3.69,0-6.11-1.48-6.25l-.28,0s-2.44,5.24-4.45,9.53l-2.2-2-11.15,14,12.77,6.2h0s39.14,62,48,57.93S699.7,180,699.7,180Z"/><path class="cls-14" d="M820.5,179.54s12.17,17.28,10.78,21-61.76,52.74-61.76,52.74-1.62,13.18-8.56,16.65l-8.79-15.73,50-55.51-3.93-5.55Z"/><path class="cls-28" d="M696.15,117.86s-5.54,1.64-13.56,14-15.16,46.45-15.16,46.45L693,195.66l16.66-41.2Z"/><polygon class="cls-14" points="738.63 98.77 741.17 119.45 720.67 118.75 721.26 95.09 738.63 98.77"/><path class="cls-29" d="M721,106l.27-10.89,17.62,5.64.49,4.08C735.46,106.28,728,108.05,721,106Z"/><polygon class="cls-30" points="704.72 59.99 705.2 74.34 707.61 75.48 709.71 57.7 704.72 59.99"/><path class="cls-18" d="M709.26,72.37c1,3.14-.23,6.33-2.75,7.13s-5.37-1.09-6.37-4.24.23-6.34,2.75-7.14S708.26,69.22,709.26,72.37Z"/><path class="cls-14" d="M708.72,90.25a24,24,0,0,1-1.58-4.32A46.88,46.88,0,0,1,705.52,74c0-.79-.08-1.57-.15-2.35a25.28,25.28,0,0,1,1-9.78,25.55,25.55,0,0,1,49.93,9.37,5.55,5.55,0,0,1,5,0c2.91,1.59,3.67,5.82,1.68,9.46s-6,5.31-8.88,3.72a4.84,4.84,0,0,1-1.08-.81c-2.26,12.35-13.25,21.16-25.49,20a22.91,22.91,0,0,1-15-7.67c-.25-.25-.52-.54-.8-.88A22.31,22.31,0,0,1,708.72,90.25Z"/><path class="cls-19" d="M733.23,71.68a2.23,2.23,0,1,0,2.44-2A2.24,2.24,0,0,0,733.23,71.68Z"/><path class="cls-19" d="M714.05,71.1a2.23,2.23,0,1,0,2.43-2A2.22,2.22,0,0,0,714.05,71.1Z"/><path class="cls-30" d="M731,67a20.77,20.77,0,0,1,3.26-.74,11,11,0,0,1,3.13,0,10.78,10.78,0,0,1,3,.89l.37.16.36.19.73.4c.49.27.94.6,1.48.88a8.84,8.84,0,0,0-1-1.49A8.59,8.59,0,0,0,741,66.07a7.26,7.26,0,0,0-3.4-1.39,7.5,7.5,0,0,0-3.65.37A7,7,0,0,0,731,67Z"/><path class="cls-30" d="M722,66.62a7.1,7.1,0,0,0-2.77-2.22,7.55,7.55,0,0,0-3.61-.7,7.28,7.28,0,0,0-3.51,1.09,8.17,8.17,0,0,0-1.43,1.11,9.74,9.74,0,0,0-1.1,1.39c.57-.22,1-.52,1.56-.75l.76-.32c.13,0,.25-.12.37-.16l.39-.13a10.1,10.1,0,0,1,3-.62,11,11,0,0,1,3.11.28A21.43,21.43,0,0,1,722,66.62Z"/><path class="cls-30" d="M703.76,42.88s-7.64-.55,1-6.15,30.91-10.91,43.91-2.22c0,0,3.36-5.56,7.19-3.75s-3.15,5.14-3.15,5.14,5.09.37,6.38,3c.95,1.95-2.16,1.71-3.86,1.45,2.84.79,11.7,7.35,3.8,29.08-1.93-.64-15.77-16.08-15.77-16.08S720.43,64,724,57c0,0-26.88,10.26-21.66-3.09C702.34,53.93,691.94,53.62,703.76,42.88Z"/><path class="cls-31" d="M668.47,175l25.3,16.79a2.09,2.09,0,0,1,.77,2.61l-3.65,8.08a2.23,2.23,0,0,1-3.25.91l-25.65-17a2.1,2.1,0,0,1-.74-2.69l4-7.93A2.22,2.22,0,0,1,668.47,175Z"/><path class="cls-32" d="M763.33,114.64a48.76,48.76,0,0,0-16.72-5.88c-3.59,3-14.62,2.93-20.64,3.12-9.13.29-10.26.78-13.83-.81-8.24,3.11-22.62,8.36-22.81,13.39-4.07,108.68,4.32,107.65,4.32,107.65,11.41,5,59.83,2.24,67.54,0s13.57-54.39,13.57-54.39l23.44,22.15c8.11-7.71,24.21-18,24.21-18S787.43,128.85,763.33,114.64Z"/><path class="cls-9" d="M749.36,134.69c1,1.83,2,3.66,3,5.48l3,5.46c1,1.82,2,3.64,3.06,5.45s2.06,3.62,3.1,5.42,2.09,3.6,3.17,5.38c.53.9,1,1.8,1.6,2.68l1.62,2.67,1.66,2.65.83,1.32.85,1.31.85,1.31.42.66.44.65c.59.86,1.17,1.72,1.74,2.59-2.61-3.25-5-6.66-7.33-10.14s-4.46-7.06-6.57-10.66-4.09-7.28-6-11S751.08,138.49,749.36,134.69Z"/><polygon class="cls-28" points="710.8 111.58 720.96 107.27 725.64 111.55 739.37 105.61 746.61 108.76 733.25 119.28 725.7 112.44 720.67 118.75 710.8 111.58"/><path class="cls-21" d="M766.09,273.8c-2.58,1-5.13,2-7.64,3.16s-5,2.32-7.48,3.55-4.92,2.49-7.35,3.79-4.85,2.63-7.23,4l-.19-.47a50.24,50.24,0,0,1,5.43-.86c1.82-.19,3.65-.26,5.48-.27a43.69,43.69,0,0,1,5.48.33l1.36.18,1.35.25.67.12.66.17,1.33.33-1.34-.27-.67-.13-.68-.1-1.35-.2-1.35-.13c-.46-.05-.91-.08-1.36-.1s-.91-.06-1.37-.07l-1.36,0c-.45,0-.91,0-1.36,0-1.82,0-3.63.17-5.44.37a50.76,50.76,0,0,0-5.36.89l-1.63.37,1.44-.84c2.39-1.4,4.79-2.75,7.24-4s4.91-2.54,7.39-3.75,5-2.31,7.56-3.39c1.28-.53,2.56-1.05,3.86-1.52S764.78,274.24,766.09,273.8Z"/><path class="cls-21" d="M693.65,272.73c1.31.44,2.62.87,3.91,1.37s2.58,1,3.85,1.51q3.83,1.62,7.57,3.4c2.48,1.21,4.95,2.46,7.39,3.75s4.85,2.64,7.24,4l1.44.84-1.63-.37a50.76,50.76,0,0,0-5.36-.89c-1.81-.2-3.62-.34-5.44-.37-.45,0-.91,0-1.36,0l-1.36,0c-.46,0-.91.05-1.37.07s-.9,0-1.36.1l-1.35.13-1.35.2-.68.1-.67.13-1.34.27,1.33-.33.66-.17.67-.12,1.35-.25,1.36-.18a43.69,43.69,0,0,1,5.48-.33,52.78,52.78,0,0,1,5.48.27,47.89,47.89,0,0,1,5.43.86l-.19.47c-2.38-1.38-4.81-2.69-7.23-4s-4.88-2.57-7.35-3.79-5-2.42-7.48-3.55S696.23,273.71,693.65,272.73Z"/><path class="cls-21" d="M699.15,241.52c2.24.41,4.49.74,6.75,1s4.51.57,6.78.79c4.52.45,9.07.75,13.61.85,2.28,0,4.55.05,6.82,0s4.55-.19,6.81-.38,4.53-.47,6.77-.84,4.47-.85,6.67-1.45c-2.19.64-4.41,1.16-6.65,1.58s-4.5.69-6.77.92-4.54.34-6.82.43-4.56.06-6.83,0c-4.56-.12-9.11-.41-13.63-.91q-3.4-.37-6.78-.87C703.63,242.35,701.38,242,699.15,241.52Z"/><path class="cls-30" d="M743.28,53.37s6.63,15.19,5.56,23.4c0,0,4.83-6.76,11-6,0,0,4.11-13.47,1.71-22.66l-14.23.83Z"/><g class="cls-33"><path class="cls-5" d="M749.29,248.55a7.92,7.92,0,0,0,.37.78l.39.77.79,1.54,1.33,2.54L756,261c.53,1,5.49,9.94,6.67,11.93a50.84,50.84,0,0,1-4.42-5.56c-.6-1-1.16-2-1.72-3s-1.1-2-1.63-3.07c-1.05-2.06-2.06-4.13-3-6.25-.48-1.05-.93-2.11-1.37-3.18-.22-.54-.44-1.07-.64-1.62A13.73,13.73,0,0,1,749.29,248.55Z"/></g><path class="cls-9" d="M743.16,111.41l-3.42,2.67-3.39,2.7-3.1,2.5-3.51-3.59c-1.25-1.28-2.52-2.54-3.77-3.81l-.33-.33-.28.37c-.84,1.1-1.66,2.2-2.48,3.31s-1.53,2-2.28,3.07q-2.37-1.67-4.75-3.3l-2.52-1.72c-.84-.58-1.68-1.14-2.53-1.7.79.63,1.59,1.26,2.4,1.88l2.41,1.87q2.43,1.85,4.87,3.68l.25.19.2-.25c.86-1.09,1.7-2.18,2.54-3.27s1.5-1.93,2.25-2.9c1.14,1.16,2.28,2.34,3.43,3.49s2.52,2.55,3.79,3.8l.25.25.27-.22,3.32-2.8,3.3-2.82c1.1-.94,2.19-1.88,3.28-2.84s2.17-1.91,3.25-2.88C745.45,109.63,744.31,110.52,743.16,111.41Z"/><path class="cls-9" d="M725.36,111.92c-.41,5.12-.8,10.24-1.11,15.36s-.63,10.24-.88,15.37c-.14,2.56-.23,5.13-.36,7.69l-.17,3.84L722.7,158c-.2,5.13-.29,10.26-.4,15.38-.21,10.26-.14,20.52.09,30.78.21,5.13.33,10.26.7,15.38l.23,3.84c0,.64.06,1.28.12,1.92l.17,1.92q.35,3.83.66,7.67c-.59-5.1-1.22-10.2-1.58-15.33s-.65-10.25-.94-15.38c-.08-2.56-.16-5.13-.22-7.7,0-1.28-.08-2.56-.08-3.85l0-3.85,0-3.85V183l0-1.93.07-7.7c.13-5.13.25-10.27.48-15.4l.15-3.85.19-3.85c.13-2.56.26-5.13.44-7.69.33-5.12.69-10.24,1.12-15.36l.34-3.84.36-3.83Q724.91,115.74,725.36,111.92Z"/><path class="cls-28" d="M730.58,147h17.58l-.63,13.31a8.09,8.09,0,0,1-3.65,6.39l-.75.5a8.1,8.1,0,0,1-9.36-.33h0a8.09,8.09,0,0,1-3.19-6.44Z"/><path class="cls-28" d="M789.63,190.75l24.56-19.08a2.63,2.63,0,0,1,3.71.5l5.73,7.69a2.58,2.58,0,0,1-.51,3.62L799,201.85a2.62,2.62,0,0,1-3.56-.36l-6.13-7A2.61,2.61,0,0,1,789.63,190.75Z"/><path class="cls-14" d="M775.19,487.66l-.3,10.68-13,9.45s-6.16-8.3-6-9.45,0-19.63,0-19.63,14.91,5.67,15.52,5.67S775.19,487.66,775.19,487.66Z"/><polygon class="cls-14" points="711.48 498.34 711.48 485.12 696.36 480.93 692.99 482.41 692.42 498.34 697.18 512.22 711.48 498.34"/><path class="cls-27" d="M732.91,295.34,752,489.45c7.5-.32,15.28-.89,23.18-1.79.89-37.24,3.44-148.53,3-193.19-.46-54-16.66-61.94-16.66-61.94L734,225.33,696.36,232C708.07,277.58,732.91,295.34,732.91,295.34Z"/><path class="cls-27" d="M689.59,487.19c5.66.65,13.51,1.41,22.87,1.95l20-224.39,2.1-35.7s-30.79-14.81-41,2.77-9.87,43.8-9.87,43.8S685.07,440.93,689.59,487.19Z"/><path class="cls-27" d="M711.48,498.34V513a2.19,2.19,0,0,1-2.19,2.19H674.93a2.48,2.48,0,0,1-1.34-4.57l18.83-12.27S700.43,503.86,711.48,498.34Z"/><path class="cls-27" d="M774.89,498.34V513a2.2,2.2,0,0,1-2.2,2.19H738.33a2.48,2.48,0,0,1-1.33-4.57l18.82-12.27S763.83,503.86,774.89,498.34Z"/><path class="cls-14" d="M680.33,158.83l-8.39,27.07s-36.66-34.53-36.53-44.22l.66-3c.82-3.69,0-6.11-1.48-6.25l-.28,0s-2.44,5.24-4.45,9.53l-2.2-2-11.15,14,12.77,6.2h0s39.14,62,48,57.93S699.7,180,699.7,180Z"/><path class="cls-14" d="M820.5,179.54s12.17,17.28,10.78,21-61.76,52.74-61.76,52.74-1.62,13.18-8.56,16.65l-8.79-15.73,50-55.51-3.93-5.55Z"/><polygon class="cls-11" points="626.71 128.16 621.03 128.16 612.86 128.16 617.62 156.45 621.03 156.45 626.71 156.45 630.13 156.45 634.89 128.16 626.71 128.16"/><rect class="cls-5" x="611.1" y="127.8" width="25.55" height="3.02" rx="1.32"/><path class="cls-12" d="M616.73,135.8a8.64,8.64,0,0,0-2.61.4l2.87,17a8.72,8.72,0,0,0-.26-17.44Z"/><path class="cls-28" d="M696.15,117.86s-5.54,1.64-13.56,14-15.16,46.45-15.16,46.45L693,195.66l16.66-41.2Z"/><polygon class="cls-14" points="738.63 98.77 741.17 119.45 720.67 118.75 721.26 95.09 738.63 98.77"/><path class="cls-29" d="M721,106l.27-10.89,17.62,5.64.49,4.08C735.46,106.28,728,108.05,721,106Z"/><polygon class="cls-30" points="704.72 59.99 705.2 74.34 707.61 75.48 709.71 57.7 704.72 59.99"/><path class="cls-18" d="M709.26,72.37c1,3.14-.23,6.33-2.75,7.13s-5.37-1.09-6.37-4.24.23-6.34,2.75-7.14S708.26,69.22,709.26,72.37Z"/><path class="cls-14" d="M708.72,90.25a24,24,0,0,1-1.58-4.32A46.88,46.88,0,0,1,705.52,74c0-.79-.08-1.57-.15-2.35a25.28,25.28,0,0,1,1-9.78,25.55,25.55,0,0,1,49.93,9.37,5.55,5.55,0,0,1,5,0c2.91,1.59,3.67,5.82,1.68,9.46s-6,5.31-8.88,3.72a4.84,4.84,0,0,1-1.08-.81c-2.26,12.35-13.25,21.16-25.49,20a22.91,22.91,0,0,1-15-7.67c-.25-.25-.52-.54-.8-.88A22.31,22.31,0,0,1,708.72,90.25Z"/><path class="cls-19" d="M733.23,71.68a2.23,2.23,0,1,0,2.44-2A2.24,2.24,0,0,0,733.23,71.68Z"/><path class="cls-19" d="M714.05,71.1a2.23,2.23,0,1,0,2.43-2A2.22,2.22,0,0,0,714.05,71.1Z"/><path class="cls-30" d="M731,67a20.77,20.77,0,0,1,3.26-.74,11,11,0,0,1,3.13,0,10.78,10.78,0,0,1,3,.89l.37.16.36.19.73.4c.49.27.94.6,1.48.88a8.84,8.84,0,0,0-1-1.49A8.59,8.59,0,0,0,741,66.07a7.26,7.26,0,0,0-3.4-1.39,7.5,7.5,0,0,0-3.65.37A7,7,0,0,0,731,67Z"/><path class="cls-30" d="M722,66.62a7.1,7.1,0,0,0-2.77-2.22,7.55,7.55,0,0,0-3.61-.7,7.28,7.28,0,0,0-3.51,1.09,8.17,8.17,0,0,0-1.43,1.11,9.74,9.74,0,0,0-1.1,1.39c.57-.22,1-.52,1.56-.75l.76-.32c.13,0,.25-.12.37-.16l.39-.13a10.1,10.1,0,0,1,3-.62,11,11,0,0,1,3.11.28A21.43,21.43,0,0,1,722,66.62Z"/><path class="cls-30" d="M703.76,42.88s-7.64-.55,1-6.15,30.91-10.91,43.91-2.22c0,0,3.36-5.56,7.19-3.75s-3.15,5.14-3.15,5.14,5.09.37,6.38,3c.95,1.95-2.16,1.71-3.86,1.45,2.84.79,11.7,7.35,3.8,29.08-1.93-.64-15.77-16.08-15.77-16.08S720.43,64,724,57c0,0-26.88,10.26-21.66-3.09C702.34,53.93,691.94,53.62,703.76,42.88Z"/><path class="cls-9" d="M717.68,88.23c.74,2.73,4,4.75,7.88,4.69s7.07-2.18,7.73-4.94Z"/><path class="cls-31" d="M668.47,175l25.3,16.79a2.09,2.09,0,0,1,.77,2.61l-3.65,8.08a2.23,2.23,0,0,1-3.25.91l-25.65-17a2.1,2.1,0,0,1-.74-2.69l4-7.93A2.22,2.22,0,0,1,668.47,175Z"/><path class="cls-32" d="M763.33,114.64a48.76,48.76,0,0,0-16.72-5.88c-3.59,3-14.62,2.93-20.64,3.12-9.13.29-10.26.78-13.83-.81-8.24,3.11-22.62,8.36-22.81,13.39-4.07,108.68,4.32,107.65,4.32,107.65,11.41,5,59.83,2.24,67.54,0s13.57-54.39,13.57-54.39l23.44,22.15c8.11-7.71,24.21-18,24.21-18S787.43,128.85,763.33,114.64Z"/><path class="cls-9" d="M749.36,134.69c1,1.83,2,3.66,3,5.48l3,5.46c1,1.82,2,3.64,3.06,5.45s2.06,3.62,3.1,5.42,2.09,3.6,3.17,5.38c.53.9,1,1.8,1.6,2.68l1.62,2.67,1.66,2.65.83,1.32.85,1.31.85,1.31.42.66.44.65c.59.86,1.17,1.72,1.74,2.59-2.61-3.25-5-6.66-7.33-10.14s-4.46-7.06-6.57-10.66-4.09-7.28-6-11S751.08,138.49,749.36,134.69Z"/><polygon class="cls-28" points="710.8 111.58 720.96 107.27 725.64 111.55 739.37 105.61 746.61 108.76 733.25 119.28 725.7 112.44 720.67 118.75 710.8 111.58"/><path class="cls-21" d="M766.09,273.8c-2.58,1-5.13,2-7.64,3.16s-5,2.32-7.48,3.55-4.92,2.49-7.35,3.79-4.85,2.63-7.23,4l-.19-.47a50.24,50.24,0,0,1,5.43-.86c1.82-.19,3.65-.26,5.48-.27a43.69,43.69,0,0,1,5.48.33l1.36.18,1.35.25.67.12.66.17,1.33.33-1.34-.27-.67-.13-.68-.1-1.35-.2-1.35-.13c-.46-.05-.91-.08-1.36-.1s-.91-.06-1.37-.07l-1.36,0c-.45,0-.91,0-1.36,0-1.82,0-3.63.17-5.44.37a50.76,50.76,0,0,0-5.36.89l-1.63.37,1.44-.84c2.39-1.4,4.79-2.75,7.24-4s4.91-2.54,7.39-3.75,5-2.31,7.56-3.39c1.28-.53,2.56-1.05,3.86-1.52S764.78,274.24,766.09,273.8Z"/><path class="cls-21" d="M693.65,272.73c1.31.44,2.62.87,3.91,1.37s2.58,1,3.85,1.51q3.83,1.62,7.57,3.4c2.48,1.21,4.95,2.46,7.39,3.75s4.85,2.64,7.24,4l1.44.84-1.63-.37a50.76,50.76,0,0,0-5.36-.89c-1.81-.2-3.62-.34-5.44-.37-.45,0-.91,0-1.36,0l-1.36,0c-.46,0-.91.05-1.37.07s-.9,0-1.36.1l-1.35.13-1.35.2-.68.1-.67.13-1.34.27,1.33-.33.66-.17.67-.12,1.35-.25,1.36-.18a43.69,43.69,0,0,1,5.48-.33,52.78,52.78,0,0,1,5.48.27,47.89,47.89,0,0,1,5.43.86l-.19.47c-2.38-1.38-4.81-2.69-7.23-4s-4.88-2.57-7.35-3.79-5-2.42-7.48-3.55S696.23,273.71,693.65,272.73Z"/><path class="cls-21" d="M699.15,241.52c2.24.41,4.49.74,6.75,1s4.51.57,6.78.79c4.52.45,9.07.75,13.61.85,2.28,0,4.55.05,6.82,0s4.55-.19,6.81-.38,4.53-.47,6.77-.84,4.47-.85,6.67-1.45c-2.19.64-4.41,1.16-6.65,1.58s-4.5.69-6.77.92-4.54.34-6.82.43-4.56.06-6.83,0c-4.56-.12-9.11-.41-13.63-.91q-3.4-.37-6.78-.87C703.63,242.35,701.38,242,699.15,241.52Z"/><path class="cls-30" d="M743.28,53.37s6.63,15.19,5.56,23.4c0,0,4.83-6.76,11-6,0,0,4.11-13.47,1.71-22.66l-14.23.83Z"/><path class="cls-14" d="M617.33,154.74h-.21a2.73,2.73,0,0,1-2.86-2.28l-2.65-15.71a2,2,0,0,1,.79-2c2-1.41,6.12-4.28,7-3.79,1.15.64-5,5.69-4.52,6s7.35-2,7.54-1.14-6.34,4-6.27,4.5,6.6-.66,7,.12-6.23,2.85-6.26,3.16Z"/><path class="cls-14" d="M634.8,132.53s-6.07-1.05-6.48,0,4.9.46,5.9,3.38S634.8,132.53,634.8,132.53Z"/><path class="cls-14" d="M615.3,143.6s6.59.61,7,1.6-6.54,1.05-6.54,1.05Z"/><path class="cls-5" d="M749.29,248.55a7.92,7.92,0,0,0,.37.78l.39.77.79,1.54,1.33,2.54L756,261c.53,1,5.49,9.94,6.67,11.93a50.84,50.84,0,0,1-4.42-5.56c-.6-1-1.16-2-1.72-3s-1.1-2-1.63-3.07c-1.05-2.06-2.06-4.13-3-6.25-.48-1.05-.93-2.11-1.37-3.18-.22-.54-.44-1.07-.64-1.62A13.73,13.73,0,0,1,749.29,248.55Z"/><path class="cls-9" d="M743.16,111.41l-3.42,2.67-3.39,2.7-3.1,2.5-3.51-3.59c-1.25-1.28-2.52-2.54-3.77-3.81l-.33-.33-.28.37c-.84,1.1-1.66,2.2-2.48,3.31s-1.53,2-2.28,3.07q-2.37-1.67-4.75-3.3l-2.52-1.72c-.84-.58-1.68-1.14-2.53-1.7.79.63,1.59,1.26,2.4,1.88l2.41,1.87q2.43,1.85,4.87,3.68l.25.19.2-.25c.86-1.09,1.7-2.18,2.54-3.27s1.5-1.93,2.25-2.9c1.14,1.16,2.28,2.34,3.43,3.49s2.52,2.55,3.79,3.8l.25.25.27-.22,3.32-2.8,3.3-2.82c1.1-.94,2.19-1.88,3.28-2.84s2.17-1.91,3.25-2.88C745.45,109.63,744.31,110.52,743.16,111.41Z"/><path class="cls-9" d="M725.36,111.92c-.41,5.12-.8,10.24-1.11,15.36s-.63,10.24-.88,15.37c-.14,2.56-.23,5.13-.36,7.69l-.17,3.84L722.7,158c-.2,5.13-.29,10.26-.4,15.38-.21,10.26-.14,20.52.09,30.78.21,5.13.33,10.26.7,15.38l.23,3.84c0,.64.06,1.28.12,1.92l.17,1.92q.35,3.83.66,7.67c-.59-5.1-1.22-10.2-1.58-15.33s-.65-10.25-.94-15.38c-.08-2.56-.16-5.13-.22-7.7,0-1.28-.08-2.56-.08-3.85l0-3.85,0-3.85V183l0-1.93.07-7.7c.13-5.13.25-10.27.48-15.4l.15-3.85.19-3.85c.13-2.56.26-5.13.44-7.69.33-5.12.69-10.24,1.12-15.36l.34-3.84.36-3.83Q724.91,115.74,725.36,111.92Z"/><path class="cls-28" d="M730.58,147h17.58l-.63,13.31a8.09,8.09,0,0,1-3.65,6.39l-.75.5a8.1,8.1,0,0,1-9.36-.33h0a8.09,8.09,0,0,1-3.19-6.44Z"/><path class="cls-28" d="M789.63,190.75l24.56-19.08a2.63,2.63,0,0,1,3.71.5l5.73,7.69a2.58,2.58,0,0,1-.51,3.62L799,201.85a2.62,2.62,0,0,1-3.56-.36l-6.13-7A2.61,2.61,0,0,1,789.63,190.75Z"/><path class="cls-18" d="M725.27,69.19a35.43,35.43,0,0,0-2.18,4.19,32.58,32.58,0,0,0-1.65,4.46,12.28,12.28,0,0,0-.45,2.4,5,5,0,0,0,0,.66,2.53,2.53,0,0,0,.07.36,1.78,1.78,0,0,0,.17.38l.15.19.12.11c.08.06.16.14.25.2a5.91,5.91,0,0,0,.52.35,11.65,11.65,0,0,0,2.19,1,15.25,15.25,0,0,0,2.3.6,26.49,26.49,0,0,1-4.07-2.23,5,5,0,0,1-.43-.35l-.19-.18-.1-.09a.08.08,0,0,0,0,0,1.71,1.71,0,0,1-.07-.89,12.79,12.79,0,0,1,.46-2.21c.4-1.48.92-3,1.42-4.43S724.81,70.7,725.27,69.19Z"/><path class="cls-14" d="M818.66,300.09c-.81-.68-1.54-1.22-1.54-1.22-7.62-7.7-7.4-7.87-7.17-8.2s4.27,1.94,4.38,1.5-4.15-5.15-3.59-5.24,5,3.77,5.22,3.46-4-4.79-3.37-5.32,5,4.53,5.38,3.9-4.33-5.69-3.68-6.08,5.91,5.22,7.6,7a.39.39,0,0,0,.67-.19c1.11-4.74,3.64-4.14,3.87-3.64.62,1.32-.6,7,0,9.53l-7.77,4.52Z"/><path class="cls-15" d="M881.08,291.61c6.11-12.35,20.11-9,20.7-8.81l.6-2.36c-.16-.05-16.49-4-23.49,10.09Z"/><path class="cls-23" d="M905.88,295.24s2.56-9-26.23-7.66c-2.8.13-6.73,2.31-8.09,4.76l-6.29,11.34s21.51,7.94,24,5S905.88,295.24,905.88,295.24Z"/><path class="cls-14" d="M921.26,293.23s-8.73-1.82-25-.67,7.51,10.28,7.51,10.28,8.34-.27,8.7-.34S921.26,293.23,921.26,293.23Z"/><rect class="cls-14" x="900.61" y="284.07" width="14.42" height="25.26" transform="translate(1815.63 593.41) rotate(180)"/><path class="cls-23" d="M861.11,324.09s-8.4,40.06-6,44.39,34.43,5.68,34.43,5.68l1.35-51.42-12.19-18.41Z"/><polygon class="cls-14" points="871.19 443.87 871.85 502.99 875.62 512.19 885.12 502.99 895.65 443.94 871.19 443.87"/><polygon class="cls-14" points="936.51 444.94 940.48 502.99 936.64 511.67 927.85 506.44 916.77 443.94 936.51 444.94"/><path class="cls-25" d="M937.82,380.53l4.89,107.75s-10.59,5.7-22,.82l-9.37-83.36-8.15-1.22L891,487.06s-9.78,7.32-23.63,1.22l9.78-110.6Z"/><path class="cls-14" d="M850.46,310l-10,4.27-14.15-18.76-7.88,4.15,9.82,22a14.15,14.15,0,0,0,14.23,9.23l17.33-1.13Z"/><path class="cls-24" d="M891.78,385s-4.51,20.87-17.16,21.28L876.5,385Z"/><path class="cls-24" d="M921.82,385s4.5,20.87,17.16,21.28l-.1-2.31Z"/><path class="cls-18" d="M900.63,288.39v-8.61H915v7.33C911.93,288.77,907.34,289.72,900.63,288.39Z"/><path class="cls-14" d="M877.94,254.05a5.37,5.37,0,0,1,4.82.2,25.63,25.63,0,0,1,51.26,0,5.37,5.37,0,0,1,4.82-.2c2.88,1.42,3.77,5.49,2,9.08s-5.55,5.37-8.44,3.95a4.74,4.74,0,0,1-1.07-.74c-1.66,11.72-11.45,20.51-22.94,20.34-11.5.17-21.29-8.62-22.94-20.34a4.8,4.8,0,0,1-1.08.74c-2.88,1.42-6.66-.35-8.43-3.95S875.06,255.47,877.94,254.05Z"/><path class="cls-19" d="M914.93,258.87a2.16,2.16,0,1,0,1.78-1.6A2.12,2.12,0,0,0,914.93,258.87Z"/><path class="cls-19" d="M896.36,259.06a2.16,2.16,0,1,0,1.78-1.59A2.16,2.16,0,0,0,896.36,259.06Z"/><path class="cls-15" d="M912.5,254.87a20.55,20.55,0,0,1,3.13-.84,10.56,10.56,0,0,1,3-.13,9.76,9.76,0,0,1,2.91.75l.37.13.35.17.72.35c.49.25.94.55,1.47.79a8.81,8.81,0,0,0-1-1.39,7.63,7.63,0,0,0-1.33-1.14,7,7,0,0,0-3.34-1.22,7.24,7.24,0,0,0-3.52.51A6.72,6.72,0,0,0,912.5,254.87Z"/><path class="cls-15" d="M903.8,254.84a6.88,6.88,0,0,0-2.76-2.05,7.37,7.37,0,0,0-3.52-.53,7.15,7.15,0,0,0-3.35,1.19,8.1,8.1,0,0,0-1.34,1.13,9.58,9.58,0,0,0-1,1.39c.53-.24,1-.54,1.47-.78l.73-.34c.12,0,.23-.13.35-.17l.37-.14a10.09,10.09,0,0,1,2.91-.72,11,11,0,0,1,3,.15A20.64,20.64,0,0,1,903.8,254.84Z"/><path class="cls-18" d="M907.32,256.34a12,12,0,0,1-.18,3.38,9.3,9.3,0,0,1-.48,1.67,4.38,4.38,0,0,1-1,1.58c-.56.44-.81.56-1,1a1.51,1.51,0,0,0,.08,1.22,4.72,4.72,0,0,0,2.34,2,3.82,3.82,0,0,1-3.07-1.58,2.31,2.31,0,0,1-.32-2c.24-.74.66-1,1.23-1.43a4.33,4.33,0,0,0,.8-1.2c.24-.46.4-1,.6-1.47C906.68,258.48,907,257.42,907.32,256.34Z"/><path class="cls-11" d="M921.12,292.29l14.11,2.44a17.67,17.67,0,0,1,11.3,7L964.3,326l-24,13.42,3.25,46.76s-43.57,11-70-.81l3.67-64.25-16.7,15.45s-13.85-15.86-15.07-26.84l31-15.86,20.37-2S908.5,304.89,921.12,292.29Z"/><path class="cls-34" d="M943.52,386.22l-3.25-46.76-2.59-14.65-4-28.1-12.45-1.22s-11.72,11.42-25.69,0l-15,2.94-4.41,39-2.74,48S892.5,397.17,943.52,386.22Z"/><path class="cls-5" d="M940.27,339.46c-.2-2.49-.57-4.94-1-7.38s-.92-4.87-1.59-7.27c.2,2.48.57,4.93,1,7.38S939.6,337.06,940.27,339.46Z"/><path class="cls-28" d="M921.17,361.61a4.82,4.82,0,0,0-4.36,1.59l.11,5.31,3.43,1.6s4.26-3.62,3.94-3.71A49.72,49.72,0,0,1,921.17,361.61Z"/><polygon class="cls-28" points="912.42 396.27 957.67 409.34 962.06 376.27 916.81 363.2 912.42 396.27"/><polygon class="cls-5" points="961.41 404.02 957.43 407.37 914.13 394.98 918.02 363.81 921.08 362.53 961.41 404.02"/><polygon class="cls-2" points="914.13 394.98 917.22 392.3 922.87 386.1 922.52 369.05 921.08 362.53 918.01 363.76 914.13 394.98"/><polygon class="cls-32" points="917.22 392.3 962.46 405.36 966.42 374.68 921.17 361.61 917.22 392.3"/><path class="cls-14" d="M938.89,384.62c-4.87.28-5.26,0-5.17-.52.07-.38,5.91-3.1,9.68-4.82,12.06-20.38-1.74-47.25-1.74-47.25l14.08-7.89c19.82,32.26-5.72,61.34-5.72,61.34l0,0c-.42,1-.73,1.81-.73,1.81-5.24,9.46-5.47,9.31-5.85,9.18s.66-4.64.2-4.62-3.77,5.43-4,4.92,2.2-5.89,1.84-6-3.47,5.19-4.16,4.74,2.93-6.13,2.23-6.27-4.24,5.76-4.8,5.25,3.34-7.13,4.57-9.25A.4.4,0,0,0,938.89,384.62Z"/><path class="cls-11" d="M964.3,326s-11.69,12.91-24,13.42c0,0-.87-9.24-.69-9.51s3.16-6.76,5.42-7.67,12.2-2.43,12.2-2.43Z"/><path class="cls-15" d="M876.25,294c-.6,40.23-16.33,47.54-16.46,47.81l-.68,9.2s30.36-9.07,27.19-57.9a2.32,2.32,0,0,0-2.62-2.22l-5.49.82A2.31,2.31,0,0,0,876.25,294Z"/><path class="cls-18" d="M914.39,269.84a16.65,16.65,0,0,1-3.82,2,12.83,12.83,0,0,1-4.15.75,10.82,10.82,0,0,1-4.13-.81,14.78,14.78,0,0,1-3.65-2.23,11.64,11.64,0,0,0,3.49,2.59,11,11,0,0,0,2.09.72,10.51,10.51,0,0,0,6.49-.66A12.64,12.64,0,0,0,914.39,269.84Z"/><path class="cls-35" d="M927.21,503v10.2a1.52,1.52,0,0,0,1.52,1.53h23.93a1.73,1.73,0,0,0,.93-3.19L940.48,503S934.9,506.83,927.21,503Z"/><path class="cls-35" d="M885.12,503v10.2a1.52,1.52,0,0,1-1.52,1.53H859.67a1.73,1.73,0,0,1-.93-3.19L871.85,503S877.43,506.83,885.12,503Z"/><path class="cls-15" d="M886.53,245.56,884,260.29c-2.7-9.41-1.92-16-1.56-18,.06-.36.11-.72.16-1.08.48-3.75,7.12-7.26,7.12-7.26-4.44-3.78-3.48-11.58-3.48-11.58,1.55,5,6.76,6.62,6.76,6.62-3.86-8.75-1.74-13.72-1.74-13.72.58,5.44,10.24,7.33,10.24,7.33-1-4-1.74-7.33-1.74-7.33,1.74,2.6,8.11,8.52,18.53,9s11.59,10.64,11.59,10.64c7.24,5.38,5.22,18.39,3.09,26.4l-2.09-12.44c-.07-.58-.14-1.14-.23-1.67a10.17,10.17,0,0,0-.23-1.05v0h0c-1.74-6.18-8.83-7.67-8.83-7.67-13.13,6.86-26.84-.23-26.84-.23C888,240.81,886.53,245.56,886.53,245.56Z"/><polygon class="cls-11" points="822.43 278.56 817.71 277.28 810.9 275.44 808.5 300.06 811.34 300.82 816.07 302.1 818.91 302.87 829.24 280.4 822.43 278.56"/><rect class="cls-5" x="818.51" y="267.87" width="2.6" height="22.02" rx="0.76" transform="translate(336.65 997.51) rotate(-74.87)"/><path class="cls-12" d="M812.53,282.23a7.68,7.68,0,0,0-2.27-.25l-1.44,14.82a7.52,7.52,0,0,0,3.71-14.57Z"/><path class="cls-14" d="M810.26,282s2.52,5,2.52,6.32-3.57,4.46-3.57,4.46C807.72,289.74,810.26,282,810.26,282Z"/><path class="cls-25" d="M127.17,276.21h0a1.84,1.84,0,0,1,2.6,0l3.07,3.2a1.88,1.88,0,0,1-.17,2.76h0a1.88,1.88,0,0,1-2.58-.19l-3-3.27A1.83,1.83,0,0,1,127.17,276.21Z"/><path class="cls-36" d="M130.74,274.77s4.36-12.88,19.14-10.68,11.42,18.74,22,21.08c0,0-15.08,8.05-25.33,0-7.77-6.11-11.67-6.41-13.1-6.19a3.09,3.09,0,0,1-2.43-.59C130.22,277.76,129.72,276.66,130.74,274.77Z"/><path class="cls-25" d="M93.64,276.21h0a1.83,1.83,0,0,0-2.6,0L88,279.45a1.87,1.87,0,0,0,.17,2.76h0a1.88,1.88,0,0,0,2.58-.19l3-3.27A1.84,1.84,0,0,0,93.64,276.21Z"/><path class="cls-14" d="M69.26,422.76c-.59.78-1.14,1.42-1.14,1.42-5.28,8.53-5.05,8.65-4.77,8.89s3.45-2.63,3.65-2.25-2.69,5.51-2.16,5.48,3.76-4.46,4-4.21-2.62,5.16-1.94,5.51S70.52,432.46,71,433s-2.74,6-2.07,6.26,4.25-5.94,5.41-7.89a.37.37,0,0,1,.65,0c2,4.06,2.37,4.26,2.77,3.94s-.18-6.24-.5-10.07l-7.95-2.47Z"/><path class="cls-5" d="M90.07,338.61s-13.42-9.08-22.79,83.73c0,0,4.52,2.35,12.94,3.81s12.3-77.3,13.14-78.47S90.07,338.61,90.07,338.61Z"/><path class="cls-14" d="M196.48,321.72c-.24-.33-4.36,2-4.48,1.53s4.25-5.27,3.68-5.36-5.15,3.86-5.34,3.54,4.09-4.91,3.45-5.45-5.17,4.64-5.51,4,4.43-5.83,3.77-6.23-6,5.34-7.77,7.16a.41.41,0,0,1-.69-.2c-1.13-4.85-1.5-5.16-2-4.91s-1.36,6.75-2,10.95h0l-14.39,19.1-34.89-7.21v17.62l32.82,6.57a14.5,14.5,0,0,0,14.56-9.45l9.84-22.05c.81-.68,1.56-1.23,1.56-1.23C196.94,322.23,196.72,322.05,196.48,321.72Z"/><path class="cls-14" d="M112.56,439.77l-26.13,2,7.25,61.7h0l-6.5,4.24-2.61,1.7-1,2.7s2,0,2.09.38,3.51.77,6.64.61,2.91-.06,8.07,0,4.17-1.09,5-1.48c.53-.25.85-2.1,1-3.35l.12-.07v-4.72S112.56,439.77,112.56,439.77Z"/><rect class="cls-14" x="103.35" y="328.64" width="14.91" height="14.91"/><path class="cls-18" d="M118.26,337.58v-8.94H103.35v7.61C106.56,338,111.31,339,118.26,337.58Z"/><path class="cls-14" d="M139.53,302a5.13,5.13,0,0,0-4.65.18,23.86,23.86,0,0,0-24.74-24.74A23.86,23.86,0,0,0,85.41,302.2a5.13,5.13,0,0,0-4.65-.18c-2.78,1.37-3.65,5.3-1.93,8.78S84.19,316,87,314.61a4.71,4.71,0,0,0,1-.72c1.59,11.33,11,19.83,22.13,19.67,11.09.16,20.55-8.34,22.14-19.67a4.71,4.71,0,0,0,1,.72c2.78,1.37,6.43-.34,8.14-3.81S142.31,303.39,139.53,302Z"/><path class="cls-14" d="M90.07,338.61s24.25,16,40.31,0Z"/><path class="cls-19" d="M103.89,307.07a2.08,2.08,0,1,1-2.19-2A2.08,2.08,0,0,1,103.89,307.07Z"/><path class="cls-19" d="M121.81,307.27a2.08,2.08,0,1,1-2.19-2A2.07,2.07,0,0,1,121.81,307.27Z"/><path class="cls-36" d="M106.18,302.81a20.34,20.34,0,0,0-3-.82,10.59,10.59,0,0,0-2.91-.12,9.7,9.7,0,0,0-2.81.72l-.35.13-.35.17-.69.34c-.47.23-.9.53-1.42.76a9,9,0,0,1,1-1.35,7.5,7.5,0,0,1,1.28-1.1,6.83,6.83,0,0,1,3.23-1.18,7.09,7.09,0,0,1,3.39.49A6.55,6.55,0,0,1,106.18,302.81Z"/><path class="cls-36" d="M114.57,302.78a6.53,6.53,0,0,1,2.67-2,7,7,0,0,1,3.39-.51,6.73,6.73,0,0,1,3.24,1.15,7.45,7.45,0,0,1,1.28,1.09,9.21,9.21,0,0,1,1,1.34c-.52-.23-1-.52-1.43-.75l-.7-.33-.34-.17-.35-.13a9.47,9.47,0,0,0-2.82-.69,9.88,9.88,0,0,0-2.91.14A19.52,19.52,0,0,0,114.57,302.78Z"/><path class="cls-9" d="M119.23,318.21c-.61,2.75-3.75,4.91-7.6,5s-7.11-1.84-7.89-4.55Z"/><path class="cls-18" d="M111.17,304.22a12,12,0,0,0,.18,3.28,8.63,8.63,0,0,0,.46,1.61,4.3,4.3,0,0,0,1,1.53c.51.41.78.52,1,.94a1.48,1.48,0,0,1-.09,1.19,4.5,4.5,0,0,1-2.26,1.93,3.71,3.71,0,0,0,3-1.53,2.26,2.26,0,0,0,.31-1.91,2.68,2.68,0,0,0-1.19-1.39,4.13,4.13,0,0,1-.77-1.15,15.24,15.24,0,0,1-.58-1.43C111.79,306.29,111.5,305.27,111.17,304.22Z"/><path class="cls-5" d="M89.69,469.57l4,33.9h0l-6.5,4.24-2.61,1.7-1,2.7s2,0,2.09.38,3.51.77,6.64.61,2.91-.06,8.07,0,4.17-1.09,5-1.48c.53-.25.85-2.1,1-3.35l.12-.07v-4.72s1.59-16.9,3.15-33.3A76.94,76.94,0,0,1,89.69,469.57Z"/><path class="cls-15" d="M93.36,511.61c-5.25.53-7.73-.61-8.8-2.2L81,511.74a1.67,1.67,0,0,0,.9,3.08H105a1.48,1.48,0,0,0,1.48-1.47V507.1C105,508.63,101.51,510.79,93.36,511.61Z"/><path class="cls-14" d="M117,439.77l26.14,2-7.25,61.7h0l6.51,4.24,2.61,1.7,1,2.7s-2,0-2.08.38-3.52.77-6.65.61-2.91-.06-8.07,0-4.17-1.09-5-1.48c-.54-.25-.86-2.1-1-3.35l-.12-.07v-4.72S117,439.77,117,439.77Z"/><path class="cls-5" d="M139.87,469.57l-4,33.9h0l6.51,4.24,2.61,1.7,1,2.7s-2,0-2.08.38-3.52.77-6.65.61-2.91-.06-8.07,0-4.17-1.09-5-1.48c-.54-.25-.86-2.1-1-3.35l-.12-.07v-4.72s-1.6-16.9-3.16-33.3A76.94,76.94,0,0,0,139.87,469.57Z"/><path class="cls-15" d="M136.2,511.61c5.26.53,7.74-.61,8.81-2.2l3.56,2.33a1.67,1.67,0,0,1-.9,3.08H124.54a1.47,1.47,0,0,1-1.48-1.47V507.1C124.55,508.63,128.05,510.79,136.2,511.61Z"/><path class="cls-5" d="M134.47,357.09l28.73,5.75a14.5,14.5,0,0,0,14.56-9.45l9.24-20.7a58.12,58.12,0,0,0-8.31-4.65l-13.42,17.82-34.89-7.21S131,353.25,134.47,357.09Z"/><path class="cls-15" d="M130.38,338.61a15.3,15.3,0,0,0-5.84,0c-8.74,2.47-20.71,2.23-28.71,0-1.62-.46-5.76,0-5.76,0S78.21,435.27,73.51,448c0,0,37.81,12.58,82.55-3.46,0,0-15.57-61.18-21.59-87.43C130.69,353,130.38,338.61,130.38,338.61Z"/><path class="cls-5" d="M95.83,338.61s4.33,11.65,15,1.76A95.49,95.49,0,0,1,95.83,338.61Z"/><path class="cls-5" d="M125.28,338.45s-4.08,11.81-14.72,1.92A110.27,110.27,0,0,0,125.28,338.45Z"/><path class="cls-37" d="M97,361.08h28.25a0,0,0,0,1,0,0v1.68a11.31,11.31,0,0,1-11.31,11.31h-5.62A11.31,11.31,0,0,1,97,362.76v-1.68A0,0,0,0,1,97,361.08Z"/><path class="cls-36" d="M110.79,274.09h-1.4c-30.86-.34-24.07,28.11-24.07,28.11,21.57-4,24.77-20.2,24.77-20.2s3.2,16.23,24.77,20.2C134.86,302.2,141.64,273.75,110.79,274.09Z"/><path class="cls-36" d="M90.07,274.77s-4.36-12.88-19.15-10.68-11.41,18.74-22,21.08c0,0,15.08,8.05,25.33,0,7.78-6.11,11.67-6.41,13.1-6.19a3.09,3.09,0,0,0,2.43-.59C90.58,277.76,91.09,276.66,90.07,274.77Z"/><polygon class="cls-11" points="187.65 309.42 192.54 309.42 199.59 309.42 195.49 333.81 192.54 333.81 187.65 333.81 184.7 333.81 180.6 309.42 187.65 309.42"/><rect class="cls-5" x="179.08" y="309.11" width="22.02" height="2.6" rx="1.13" transform="translate(380.19 620.83) rotate(-180)"/><path class="cls-12" d="M196.25,315.55a7.56,7.56,0,0,1,2.25.34L196,330.58a7.52,7.52,0,0,1,.22-15Z"/><path class="cls-14" d="M198.5,315.89s-4,3.9-4.05,5.35,2.25,5.34,2.25,5.34C198.94,324.05,198.5,315.89,198.5,315.89Z"/></g></g></svg>