<svg id="Layer_1" data-name="Layer 1" xmlns="http://www.w3.org/2000/svg" viewBox="0 0 243.74 133.27"><defs><style>.cls-1{fill:#fff;}</style></defs><title>Artboard 17</title><path class="cls-1" d="M206.25,84.57l-.91-.42-.85.54c-10.52,6.62-20.53.28-21,0l-1-.68-1,.71c-8,5.57-16.42,1.59-16.77,1.42l-1.64,3.31c.42.21,10,4.82,19.52-1a25.54,25.54,0,0,0,11.72,3,22.34,22.34,0,0,0,11.32-3.08c2.58,1,10.09,3.58,17.72,2.13l.73-4C215.64,88.78,206.34,84.62,206.25,84.57Z"/><path class="cls-1" d="M205,93.15l-.91-.42-.84.53c-10.52,6.63-20.54.29-21,0l-1-.68-1,.71c-8,5.56-16.41,1.59-16.77,1.42L161.79,98c.41.2,10,4.81,19.51-1.05A25.43,25.43,0,0,0,193,100a22.44,22.44,0,0,0,11.32-3.08c2.54,1,9.9,3.51,17.41,2.18l.73-3.93C214.13,97.26,205.06,93.19,205,93.15Z"/><path class="cls-1" d="M203.67,101.87l-.9-.41-.85.53c-10.52,6.62-20.53.28-20.95,0l-1-.68-1,.71c-8,5.57-16.41,1.59-16.76,1.42l-1.64,3.31c.42.21,10,4.82,19.51-1a25.63,25.63,0,0,0,11.73,3,22.3,22.3,0,0,0,11.31-3.08c2.51,1,9.68,3.43,17.08,2.24l.72-3.91C212.6,105.87,203.77,101.92,203.67,101.87Z"/><path class="cls-1" d="M202.06,110.92l-.91-.42-.85.53c-10.52,6.63-20.53.29-21,0l-1-.69-1,.71c-8,5.57-16.42,1.59-16.77,1.42l-1.64,3.32c.42.2,10,4.81,19.52-1a25.42,25.42,0,0,0,11.72,3,22.34,22.34,0,0,0,11.32-3.08c2.5,1,9.64,3.43,17,2.25l.72-3.9C210.94,114.9,202.15,111,202.06,110.92Z"/><path class="cls-1" d="M200.44,119.46l-.91-.42-.85.53c-10.52,6.63-20.53.29-21,0l-1-.69-1,.71c-8,5.57-16.41,1.59-16.76,1.42l-1.64,3.32c.42.2,10,4.81,19.51-1a25.5,25.5,0,0,0,11.73,3,22.3,22.3,0,0,0,11.31-3.08c2.51,1,9.68,3.44,17.07,2.25l.73-3.91C209.35,123.45,200.53,119.5,200.44,119.46Z"/><path class="cls-1" d="M33.17,89.48c3.2,1.76,12.45,5.83,21.62.22,3.07,1.68,12.09,5.62,21.14-.22,3.37,1.65,14.09,6,22.93,0,2.8,1.46,10.44,4.48,20.67.94L118.32,87c-10.92,3.78-18.23-1-18.53-1.17l-1.12-.76-1.06.83c-8.59,6.7-20.77-.08-20.89-.15l-1-.59-1,.69c-9.25,6.69-18.54.44-18.92.17l-1.06-.73L53.69,86c-9.46,6.55-19.17,0-19.58-.26L33,85l-1.07.85c-8.8,7-17.19,1.72-20.43-.89l-.8,4A21.83,21.83,0,0,0,22.75,93,17.75,17.75,0,0,0,33.17,89.48Z"/><path class="cls-1" d="M31.88,98.11c3.2,1.76,12.45,5.83,21.62.22,3.07,1.68,12.09,5.62,21.14-.22,3.37,1.64,14.09,6,22.93,0,2.8,1.46,10.44,4.48,20.67.94L117,95.61c-10.92,3.77-18.23-1-18.53-1.18l-1.12-.75-1.06.83c-8.59,6.7-20.77-.09-20.89-.15l-1-.6-1,.7c-9.25,6.69-18.54.44-18.92.17l-1.06-.73-1.05.73c-9.46,6.55-19.17,0-19.58-.26l-1.13-.78-1.07.85c-9.19,7.27-17.93,1.23-20.83-1.22l-.81,4a22.12,22.12,0,0,0,12.48,4.38A17.75,17.75,0,0,0,31.88,98.11Z"/><path class="cls-1" d="M20.17,110.23a17.8,17.8,0,0,0,10.43-3.49c3.19,1.76,12.43,5.83,21.6.22,3.15,1.76,12.53,6,21.21-.19,3.43,1.66,14.08,5.94,22.88,0,2.79,1.46,10.43,4.48,20.66.94l-1.21-3.49c-10.92,3.77-18.23-1-18.53-1.18l-1.12-.75-1.06.83c-8.59,6.7-20.77-.09-20.89-.15l-1.1-.63-1,.79c-8.64,7-18.43.4-18.84.11l-1-.73-1.06.73c-9.46,6.55-19.17,0-19.58-.26l-1.12-.79-1.08.86c-9.65,7.64-18.82.58-21.22-1.57l-.83,4C10,107.53,14.63,110.23,20.17,110.23Z"/><path class="cls-1" d="M18.88,118.86a17.73,17.73,0,0,0,10.43-3.5c3.19,1.77,12.44,5.84,21.61.22,3.07,1.69,12.09,5.63,21.14-.21,3.37,1.64,14.09,6,22.94,0,2.79,1.46,10.43,4.48,20.66.94l-1.21-3.5c-10.92,3.78-18.23-1-18.53-1.17l-1.12-.75-1.06.82c-8.59,6.71-20.77-.08-20.89-.15l-1-.59-1,.7c-9.25,6.68-18.53.44-18.92.17l-1-.73-1.06.73c-9.46,6.55-19.17,0-19.58-.26l-1.12-.79L28,111.7c-10.31,8.16-20.06-.44-21.61-1.93l-.84,4.11C8.18,115.86,13.05,118.86,18.88,118.86Z"/><path class="cls-1" d="M26.33,124.19a24.15,24.15,0,0,0,12.41,3.86,17.51,17.51,0,0,0,10.16-3.22c3.19,1.53,12.67,5.12,21.87-.83,3.37,1.64,14.09,6,22.94,0,2.8,1.46,10.43,4.48,20.66.94l-1.21-3.5c-10.92,3.78-18.23-1-18.53-1.17l-1.12-.75-1.06.82c-8.59,6.71-20.77-.08-20.89-.15l-1-.59-1,.7c-9.33,6.75-19.46,1-19.88.72l-1.09-.64-1,.77c-9.48,7.4-19.67-.35-20.1-.68l-1.06-.83-1.12.76c-10.57,7.19-20.39-.63-20.79-1l-.84,3.74C7,125.41,16.26,130.28,26.33,124.19Z"/><path class="cls-1" d="M27.68,37.83a.15.15,0,0,0,.16.15c.17,0,.27-.11.82-.51l.16.24c-.44.44-1.23,1.19-1.88,1.19-.34,0-.47-.26-.47-.55,0-.08-.14-.07.67-1.57l-2,.07-1.9,1.88c-.22.23-.57.61-.91.61-.13,0-.32,0-.32-.2a2.64,2.64,0,0,1,1.58-1.5l.72-.79c-.59,0-.89,0-.89-.19a2.49,2.49,0,0,1,1.16-1.11c.36-.12.86-.19.86-.06s-.67.08-.67.25.08.08.13.08l.56,0,2.07-1.71A7.55,7.55,0,0,1,30,32.49c.19,0,.32.23.32.39a1.92,1.92,0,0,1-.28.68l-1.15,2c.69,0,.27-.09.85,0a6.14,6.14,0,0,0-.69,1l-.74,0Zm1.4-4.34h0l-2.67,2.2,0,0,1.41-.1Z"/><path class="cls-1" d="M32.48,37.62c-.42.5-1.23,1.34-1.93,1.34s-.8-.63-.8-1.1a2.51,2.51,0,0,1,1.71-2.23c.16,0,.41,0,.41.26,0,.46-.91,1.28-1.3,1.55-.08.38.06.58.49.58s1-.49,1.34-.76Zm-.89-2.57a.84.84,0,0,1,.81-.71.29.29,0,0,1,.3.28.85.85,0,0,1-.74.82A.37.37,0,0,1,31.59,35.05Z"/><path class="cls-1" d="M33.09,36.81A6.38,6.38,0,0,1,32,38l0-.41a3,3,0,0,0,.61-.67c-.19,0-.25-.1-.25-.29,0-.67,1-1.33,1.17-1.33a.17.17,0,0,1,.17.16.63.63,0,0,1-.07.26c.87-.12,1.38-.24,1.47-.12a.9.9,0,0,1,.22.49c0,.28-.17.42-.39.6s-.72.68-.72,1.05a.28.28,0,0,0,.29.26c.4,0,1-.6,1.28-.83l.07.34c-.35.4-1.42,1.42-1.94,1.42a.67.67,0,0,1-.63-.71,2.61,2.61,0,0,1,.85-1.56l0,0Z"/><path class="cls-1" d="M43.75,36.56a13.56,13.56,0,0,0,1.5-2.26c.16-.3.12-.4,0-.4s-.22.12-.29.2l-2.21,2.4-1.39,1.87c-.16.21-.39.56-.68.56s-.58-.73-.68-1L42,35.47c1-1.73.81-1.92.65-1.92a1.31,1.31,0,0,0-.29.11C39.47,35,39.91,35,39.44,35c-.15,0-.27-.12-.22-.34a4.78,4.78,0,0,1,.24-1.09c.08-.11,0-.09.85-.68,0,0,.16-.13.23-.13a.11.11,0,0,1,.11.1c0,.05-.13.22-.49.53l0,0,1-.48A8.72,8.72,0,0,1,43,32.29c.22,0,.26.14.35.3l.22.39a.63.63,0,0,1,.11.35,12,12,0,0,1-.57,1.61l0,0,1.47-1.43c.34-.32,1.13-1,1.51-1a.66.66,0,0,1,.67.64,7.75,7.75,0,0,1-1.38,2.63l0,0c1.14-1,2.2-2,3.41-2.95.12-.1.31-.3.47-.3s.64.6.64.8-.29.51-.4.65l-1.43,1.74A4.05,4.05,0,0,0,47,37.84c0,.19.1.45.32.45s1-.41,2.23-1.62l0,.35a5.55,5.55,0,0,1-3,2.21c-.61,0-.81-.59-.81-1.12,0-1.11,1.17-2.5,1.82-3.34l0,0a19.12,19.12,0,0,0-3.53,3.59c-.14.17-.58.7-.81.7s-.49-.66-.49-.93a1.38,1.38,0,0,1,.37-.73Z"/><path class="cls-1" d="M52,37.62C51.55,38.13,50.74,39,50,39c-.55,0-.8-.63-.8-1.1A2.51,2.51,0,0,1,51,35.63c.16,0,.41.06.41.26,0,.46-.92,1.29-1.3,1.55-.08.38.06.59.49.59s1-.49,1.34-.76Zm-.89-2.57a.84.84,0,0,1,.81-.71.29.29,0,0,1,.3.28.86.86,0,0,1-.74.83A.38.38,0,0,1,51.08,35.05Z"/><path class="cls-1" d="M56.26,37l.07.41c-.49.43-1.44,1.57-2.12,1.57-.35,0-.51-.3-.51-.61a3.32,3.32,0,0,1,.79-1.59l0,0a7.89,7.89,0,0,0-1.42,1.41c-.14.18-.48.63-.73.63-.41,0-.51-.58-.52-.89a3.16,3.16,0,0,1,1.09-2,.47.47,0,0,1,.36-.11c.56,0,.51.15.51.21,0,.36-1.16,1.29-1.16,1.51a.09.09,0,0,0,.1.1.29.29,0,0,0,.18-.13,8.2,8.2,0,0,1,2.71-2.08s.09.05.15.18a2.53,2.53,0,0,1,.14.5c0,.36-1.14,1.06-1.14,1.7a.18.18,0,0,0,.17.17c.22,0,.63-.33.79-.47Z"/><path class="cls-1" d="M58.59,39a.56.56,0,0,1-.54-.61,2.23,2.23,0,0,1,.19-.77l0,0c-.36.31-1,1.14-1.48,1.14s-.71-.51-.71-.91a3,3,0,0,1,1.29-2.21.72.72,0,0,1,.41-.1c.12,0,.6-.08.56.19a1.21,1.21,0,0,1-.37.49,3.18,3.18,0,0,1-.7.67.92.92,0,0,0-.51.79s0,.14.07.14a2.68,2.68,0,0,0,1.11-.65l.92-.83c.19-.17,1.1-1,1.33-1,.07,0,.17,0,.21.51,0,.22-.23.43-.38.56s-.95,1-.95,1.42c0,.14.08.2.23.2.35,0,1.15-.65,1.42-.87l.06.4"/><path class="cls-1" d="M63.72,38.27c-.21.2-.54.58-.86.58a.4.4,0,0,1-.4-.39c0-.27.21-.69.81-1.61a.23.23,0,0,0,.06-.12.07.07,0,0,0-.07-.06c-.09,0-.3.22-.36.29-.48.5-1,1.06-1.43,1.59a.57.57,0,0,1-.4.26c-.44,0-.57-.72-.57-1.05,0-.91,1-2.14,1.54-2.07.14,0,.42,0,.42.21s-.26.46-.37.59a6.72,6.72,0,0,0-.51.57c-.1.14-.27.28-.27.48,0,0,0,.08.06.08s.16-.12.19-.15c.45-.47,2.1-2.11,2.7-2.11a.37.37,0,0,1,.38.42c0,.41-.66,1.16-.86,1.52l0,0,2-1.62c.09-.07.32-.26.43-.26s.17.22.2.26a.82.82,0,0,1,.16.37c0,.16-.18.36-.28.47-.72.79-.78.94-.79,1.16s.11.25.22.23.3,0,1.44-.83l0,.44C66.85,37.88,65.52,39,65,39a.51.51,0,0,1-.47-.54,3.73,3.73,0,0,1,.68-1.49l0,0Z"/><path class="cls-1" d="M17.28,43.59a7.53,7.53,0,0,0-2,.43v0h.25c.05,0,.5,0,.5.1s-.2.16-.29.17a13,13,0,0,1-1.53.36.31.31,0,0,1-.35-.32,3.63,3.63,0,0,1,.13-.64c.12-.49.42-.69.88-.9A8.84,8.84,0,0,1,18,42.17a4.42,4.42,0,0,1,2.21.49,2.39,2.39,0,0,1,1,2,3.78,3.78,0,0,1-2.19,3,8.94,8.94,0,0,1-3.82,1,2.07,2.07,0,0,1-.79-.1.53.53,0,0,1-.22-.49,3.12,3.12,0,0,1,.89-1.81ZM15.45,46.9c-.29.38-.25.51-.19.63s.14.15.52.16a7,7,0,0,0,2.13-.39c1.94-.69,2.61-1.67,2.61-2.48,0-1.19-1.89-1.22-2.72-1.27a1.55,1.55,0,0,1-.31.69Z"/><path class="cls-1" d="M22.31,48c-.18.14-.77.62-1,.62s-.8-.61-.82-1.09c0-1.16,2.37-2.34,3.44-2.37a.56.56,0,0,1,.6.44c0,.12-.24.21-.32.24a.37.37,0,0,1,.27.37c0,.3-.81,1-.81,1.38,0,.16.14.22.29.22.39,0,.91-.47,1.31-.74l.07.35a5.34,5.34,0,0,1-2.08,1.44.44.44,0,0,1-.45-.49,3.1,3.1,0,0,1,.34-1v0Zm-1.12-.24s0,.21.18.18.47,0,2.3-1.85l0,0C21.46,46.75,21.19,47.31,21.19,47.77Z"/><path class="cls-1" d="M28.24,47.27c-.51.53-1.38,1.46-2.17,1.46s-.83-.66-.83-1.2a4.61,4.61,0,0,1,1-2.76c.81-1,1.69-1.86,2-1.86s.19.22.18.34c-.06.88-.3,1.69-2.31,3.63a1,1,0,0,0-.06.64c.08.21.21.4.46.4A3.17,3.17,0,0,0,28.11,47ZM26.33,46a5.82,5.82,0,0,0,1.39-2,4.51,4.51,0,0,0-1.41,2Z"/><path class="cls-1" d="M29.58,48c-.18.14-.77.62-1,.62s-.8-.61-.82-1.09c0-1.16,2.37-2.34,3.44-2.37a.57.57,0,0,1,.6.45c0,.11-.24.2-.32.23a.36.36,0,0,1,.27.38c0,.29-.81.94-.81,1.37,0,.16.14.22.29.23.39,0,.92-.48,1.31-.74l.08.34a5.44,5.44,0,0,1-2.09,1.44.44.44,0,0,1-.45-.49,3.12,3.12,0,0,1,.35-1h0Zm-1.12-.24s.05.21.18.18.48,0,2.31-1.85l0,0C28.73,46.75,28.46,47.32,28.46,47.77Z"/><path class="cls-1" d="M35.69,48.08c-.21.21-.54.59-.85.59a.4.4,0,0,1-.41-.39c0-.27.21-.69.81-1.61a.27.27,0,0,0,.06-.12s0-.06-.07-.06-.29.22-.36.28c-.48.51-1,1.06-1.43,1.6a.57.57,0,0,1-.4.26c-.44,0-.57-.72-.57-1.05,0-.91,1-2.15,1.54-2.07.14,0,.42,0,.42.21s-.26.46-.37.59a6.62,6.62,0,0,0-.51.56c-.1.14-.27.29-.27.48,0,0,0,.09.07.09s.15-.12.18-.15c.46-.47,2.1-2.12,2.7-2.12a.38.38,0,0,1,.38.43c0,.41-.66,1.15-.86,1.51l0,0,2-1.61a1.05,1.05,0,0,1,.44-.26c.07,0,.16.22.19.26a.84.84,0,0,1,.17.37c0,.15-.19.36-.29.47-.72.79-.78.94-.79,1.15s.11.26.23.23.29,0,1.43-.82l0,.43c-.43.35-1.76,1.44-2.28,1.44a.51.51,0,0,1-.47-.54,3.77,3.77,0,0,1,.68-1.5h0Z"/><path class="cls-1" d="M45.05,46.34a.57.57,0,0,1-.16-.39c0-.37.3-.57.58-.72l1-.51.9-1.4a14.22,14.22,0,0,0-3.61,1.4,1.2,1.2,0,0,1-.52.18.26.26,0,0,1-.29-.28,4.66,4.66,0,0,1,.23-.87c.12-.36.2-.38.51-.61l.51-.38c.08,0,.18-.14.28-.14a.1.1,0,0,1,.1.11c0,.07,0,.05-.43.44l0,0a10.86,10.86,0,0,1,3.27-.93c.24,0,.29.05.44.23a1,1,0,0,1,.26.51,1,1,0,0,1-.23.49l-.47.69,0,0,3-1.4a2.48,2.48,0,0,1,.55-.21.17.17,0,0,1,.18.17c0,.12-.56,1.11-1.19.94l-3.4,1.69a.41.41,0,0,0-.21.34c0,.19.29.3.43.39l2.34,1.36c.41.24.85.52.85,1.05,0,.14,0,.45-.24.45a1.34,1.34,0,0,1-.46-.2l-3.65-2-.74.89c0,.44-.76,1.07-1.13,1.07-.12,0-.25-.06-.25-.2a.69.69,0,0,1,.2-.42Z"/><path class="cls-1" d="M53.46,47.26A4,4,0,0,1,51,48.79c-.68,0-1-.6-1-1.21a2.67,2.67,0,0,1,2.51-2.44c.29,0,.66.07.66.44s-.45,1.14-2.23,1.72v.2c0,.36.27.48.57.48.66,0,1.43-.68,1.92-1.07Zm-1.14-1.48a.1.1,0,0,0-.11-.11A2.05,2.05,0,0,0,51,46.85,2.31,2.31,0,0,0,52.32,45.78Z"/><path class="cls-1" d="M56.46,48.09c-.21.2-.55.58-.86.58a.41.41,0,0,1-.41-.39c0-.27.21-.69.82-1.61a.33.33,0,0,0,.05-.12.06.06,0,0,0-.06-.06c-.1,0-.3.22-.36.29-.48.5-1,1.06-1.44,1.59a.57.57,0,0,1-.39.26c-.45,0-.58-.72-.58-1.05,0-.91,1-2.15,1.55-2.07.14,0,.41,0,.41.21s-.26.46-.37.59-.37.36-.51.57-.26.28-.26.48c0,0,0,.08.06.08s.16-.12.19-.15c.45-.47,2.09-2.11,2.69-2.11a.37.37,0,0,1,.38.42c0,.41-.65,1.16-.86,1.52l0,0,2-1.62a1.19,1.19,0,0,1,.44-.26c.07,0,.16.22.19.26a.74.74,0,0,1,.17.37c0,.16-.19.36-.29.47-.72.79-.77.94-.78,1.15s.11.26.22.24.29,0,1.43-.83l.06.44c-.44.34-1.77,1.43-2.29,1.43a.52.52,0,0,1-.47-.54A3.75,3.75,0,0,1,58,46.76l0,0Z"/><path class="cls-1" d="M61.4,48a3.23,3.23,0,0,1-1,.62c-.26,0-.79-.61-.81-1.09,0-1.15,2.36-2.34,3.44-2.36a.57.57,0,0,1,.6.44c0,.11-.24.2-.33.23a.38.38,0,0,1,.27.38c0,.3-.8.94-.8,1.38,0,.16.14.22.28.22.39,0,.92-.47,1.32-.74l.07.34a5.33,5.33,0,0,1-2.09,1.44.43.43,0,0,1-.44-.49,3.12,3.12,0,0,1,.34-1l0,0Zm-1.12-.24s0,.22.19.19.47,0,2.3-1.86l0,0C60.55,46.76,60.28,47.32,60.28,47.77Z"/><path class="cls-1" d="M67.61,47.05l.09.36c-.56.56-1.57,1.4-2.31,1.36a1.52,1.52,0,0,1-1.47-1.05.32.32,0,0,1-.2.12.18.18,0,0,1-.16-.18c0-.12.15-.25.23-.32l2-1.84a.58.58,0,0,1,.53-.6c.28,0,.33.08.36.34a8.26,8.26,0,0,1,.17,1.07A2.14,2.14,0,0,1,65.65,48a1.73,1.73,0,0,0,1.41-.52Zm-3.14.2c.34,0,.54.3.72.54.55-.34.7-.5.73-1,0-.2-.06-.45-.12-.76Z"/><path class="cls-1" d="M69.22,48c-.18.13-.77.61-1,.61s-.8-.61-.81-1.09c0-1.15,2.36-2.33,3.43-2.36a.56.56,0,0,1,.6.44c0,.11-.24.21-.32.23a.38.38,0,0,1,.27.38c0,.3-.8.94-.8,1.38,0,.16.13.22.28.22.39,0,.92-.47,1.31-.74l.08.34a5.36,5.36,0,0,1-2.09,1.45.43.43,0,0,1-.44-.49,3.1,3.1,0,0,1,.34-1l0,0Zm-1.12-.24s.05.21.19.18.47,0,2.3-1.86l0,0C68.37,46.76,68.1,47.32,68.1,47.78Z"/><path class="cls-1" d="M75,47.57a.18.18,0,0,0,.17.17,1.87,1.87,0,0,0,.79-.46l.56-.46.07.4c-.49.44-1.44,1.57-2.11,1.57-.36,0-.52-.29-.52-.61a3.41,3.41,0,0,1,.79-1.59l0,0A7.64,7.64,0,0,0,73.33,48c-.14.17-.48.63-.73.63-.41,0-.51-.59-.52-.9a3.16,3.16,0,0,1,1.09-2,.44.44,0,0,1,.36-.11c.56,0,.51.14.51.2,0,.36-1.16,1.29-1.16,1.51a.1.1,0,0,0,.1.11c.06,0,.15-.09.18-.13a8.05,8.05,0,0,1,2.71-2.08s.1,0,.15.17a2.12,2.12,0,0,1,.14.5"/><path class="cls-1" d="M156.47,129.86l-45-.05L122,54.23l-28.68.11,5.46-28.82,4.53,0c15.4,0,23.18-2.74,28.52-19l1-3.17h40.34Zm-34.4-9.28,26.3,0,14.27-108h-23.2c-3.15,8.18-7.3,13.68-12.89,17.15-5.06,3.14-11.2,4.67-20.14,4.94l-2,10.32L132.59,45Z"/><path class="cls-1" d="M34.43,76.87H28.11v-11h-.06l-4.62,11H17.1l-1.55-21.3H22V68h.06l5.1-12.38h5.73V68h.06L38,55.57h6.68Z"/><path class="cls-1" d="M51.14,55.58h6.44l3.31,21.29H54.45l-.36-3h-7l-1.64,3H38.82ZM49.53,69.27h4.08l-.71-6.39h-.06Z"/><path class="cls-1" d="M68.47,61H62.56l1.14-5.46H82.07L80.94,61H75L71.75,76.88H65.18Z"/><path class="cls-1" d="M84.49,55.58h17.59L101,61h-11l-.56,2.66H99.61l-1,5.07H88.3l-.57,2.65H99l-1.13,5.46H80Z"/><path class="cls-1" d="M105.45,55.58h10.8c3.94,0,7,1.07,7,5.58a5.67,5.67,0,0,1-5,5.87v.06c1.94.54,2.21,2.36,2.21,4.36s-.24,4.17.29,5.42h-6.26a5,5,0,0,1-.27-2.08c0-1,.33-2.33.33-3.41s-.84-1.93-2.65-1.93H109l-1.55,7.42H101ZM110,64.89h3.46c2.17,0,3.19-1.1,3.19-2.38,0-.84-.51-1.85-2.21-1.85h-3.55Z"/><path class="cls-1" d="M146.91,62a1.94,1.94,0,0,0-.74-1.76,3.27,3.27,0,0,0-1.91-.47c-1.1,0-2.54.32-2.54,1.73,0,1.61,3.19,1.7,5.28,2.44,3.7,1.32,4.95,3.34,4.95,5.88,0,5.13-5,7.55-9.6,7.54-4.89,0-9.31-2.23-9-7.66h6.35a3.11,3.11,0,0,0,.81,2.41,3.6,3.6,0,0,0,2.42.54c1.28,0,2.86-.65,2.86-2.06s-2.18-1.76-5.13-2.74c-2.6-.87-5.1-2.24-5.1-5.79,0-4.8,4.65-7,8.95-7,4.53,0,8.62,1.7,8.5,7Z"/><path class="cls-1" d="M160.75,61.05h-5.9L156,55.59h18.38l-1.14,5.45h-5.9L164,76.89h-6.56Z"/><path class="cls-1" d="M185.72,55.09c6,0,9.69,2.83,9.69,9.34,0,7.16-4.71,13-12,13-6,0-9.69-3.19-9.69-9.34C173.76,60.9,178.47,55.09,185.72,55.09Zm-2.09,17c3.94,0,5.22-4.65,5.22-7.81,0-1.94-.74-3.88-3.31-3.88-3.94,0-5.22,4.65-5.22,7.81C180.32,70.15,181.06,72.09,183.63,72.09Z"/><path class="cls-1" d="M200.48,55.6h10.8c3.94,0,6.95,1.08,6.95,5.58a5.68,5.68,0,0,1-5,5.88v0c1.94.54,2.21,2.36,2.2,4.36s-.23,4.18.3,5.43h-6.26a5.06,5.06,0,0,1-.27-2.09c0-1,.33-2.33.33-3.4s-.84-1.94-2.66-1.94h-2.83l-1.55,7.43h-6.44ZM205,64.91h3.46c2.17,0,3.19-1.11,3.19-2.39,0-.83-.51-1.85-2.21-1.85h-3.55Z"/><path class="cls-1" d="M222.62,55.6h17.59l-1.1,5.45h-11l-.56,2.66h10.23l-1.05,5.07H226.43l-.57,2.65h11.28L236,76.9H218.17Z"/></svg>