<svg id="Layer_1" data-name="Layer 1" xmlns="http://www.w3.org/2000/svg" viewBox="0 0 180.14 98.5"><defs><style>.cls-1{fill:#fff;}.cls-2{fill:#5ea9df;}.cls-3{fill:#2969ff;}.cls-4{fill:#da3826;}.cls-5{fill:none;}.cls-6{fill:#7fbd59;}</style></defs><title>Artboard 18</title><path class="cls-1" d="M167.15,68.92l1.54-8.35-3.71,1a13.19,13.19,0,0,1-3.42.42,22.66,22.66,0,0,1-8.12-1.7l-1.86-.86-1.74,1.09a11.59,11.59,0,0,1-6.26,1.85,13.49,13.49,0,0,1-6.6-1.81l-2.14-1.4-2.09,1.45a9.64,9.64,0,0,1-5.61,1.76,11.47,11.47,0,0,1-4.35-.89l-2.16-1.06-3.35,6.77,1.75.87-2.7,5.47,1.8.89L115.38,80l1.69.84-2.88,5.84,1.54.77L113,93l2.16,1.07a18.64,18.64,0,0,0,7.72,1.67,17,17,0,0,0,7.85-1.88,21.12,21.12,0,0,0,8.59,1.89h0a18.92,18.92,0,0,0,8.55-2,29.54,29.54,0,0,0,9.37,1.66,21.62,21.62,0,0,0,3.45-.27l1.68-.27,1.17-6.3h0l.23-1.27.12-.62h0l.88-4.81L166,75.32h0L166.2,74l.08-.39h0l.87-4.72Z"/><path class="cls-2" d="M152.43,62.5l-.67-.3-.63.39c-7.77,4.9-15.17.21-15.48,0l-.77-.5-.76.52a12.82,12.82,0,0,1-12.39,1.05l-1.21,2.45a15.67,15.67,0,0,0,14.42-.77,19,19,0,0,0,8.67,2.2A16.49,16.49,0,0,0,152,65.27c1.91.76,7.46,2.65,13.1,1.58l.54-2.93C159.38,65.62,152.5,62.54,152.43,62.5Z"/><path class="cls-2" d="M151.48,68.84l-.67-.3-.63.39c-7.77,4.89-15.17.21-15.48,0l-.77-.5-.76.52A12.82,12.82,0,0,1,120.78,70l-1.21,2.45A15.71,15.71,0,0,0,134,71.69a19,19,0,0,0,8.67,2.2A16.49,16.49,0,0,0,151,71.61c1.88.75,7.31,2.6,12.87,1.62l.54-2.91C158.26,71.88,151.55,68.88,151.48,68.84Z"/><path class="cls-2" d="M150.53,75.29l-.67-.31-.63.4c-7.77,4.89-15.17.21-15.48,0l-.77-.51-.76.53a12.88,12.88,0,0,1-12.39,1l-1.21,2.45A15.68,15.68,0,0,0,133,78.13a18.81,18.81,0,0,0,8.67,2.21,16.49,16.49,0,0,0,8.36-2.28,25.38,25.38,0,0,0,12.62,1.66l.54-2.89C157.12,78.25,150.6,75.32,150.53,75.29Z"/><path class="cls-2" d="M149.33,82l-.67-.31-.62.39c-7.78,4.9-15.18.21-15.49,0l-.77-.5-.75.52a12.84,12.84,0,0,1-12.4,1l-1.2,2.45a15.66,15.66,0,0,0,14.42-.77,18.91,18.91,0,0,0,8.66,2.2,16.55,16.55,0,0,0,8.37-2.28,25.41,25.41,0,0,0,12.58,1.67l.53-2.89C155.9,84.92,149.4,82,149.33,82Z"/><path class="cls-2" d="M148.14,88.29l-.68-.31-.62.39c-7.78,4.9-15.18.21-15.48,0l-.77-.5-.76.52a12.82,12.82,0,0,1-12.39,1l-1.21,2.45a15.66,15.66,0,0,0,14.42-.77,18.82,18.82,0,0,0,8.66,2.2,16.6,16.6,0,0,0,8.37-2.27,25.5,25.5,0,0,0,12.61,1.65l.54-2.88C154.73,91.24,148.2,88.32,148.14,88.29Z"/><path class="cls-1" d="M90.46,74.74l-1.87-5.41.54-.18,2.29-.79L88.94,61.2l-2.29.8a16.5,16.5,0,0,1-5.36.94,12.27,12.27,0,0,1-6.18-1.52l-2.28-1.55-2.18,1.69a8.31,8.31,0,0,1-5.25,1.67,17.73,17.73,0,0,1-7.5-2l-2.12-1.21-2,1.43a9.09,9.09,0,0,1-5.41,1.81,11.36,11.36,0,0,1-5.77-1.71l-2.15-1.51-2.17,1.5a9.28,9.28,0,0,1-5.38,1.72,12.52,12.52,0,0,1-6.33-1.91l-2.31-1.6-2.2,1.74a8.56,8.56,0,0,1-5.37,2A11.25,11.25,0,0,1,10,60.88l-3.1-2.5-1.23,6h0l-1.22,6h0L3.25,76.34h0L1.46,85.16l.1.08L0,92.17l1.39.92a19.48,19.48,0,0,0,10.49,3.3h0a16.59,16.59,0,0,0,7.54-1.82,19.64,19.64,0,0,0,9.21,2.49h0A15.33,15.33,0,0,0,36.35,95,20.91,20.91,0,0,0,44,96.51a17.38,17.38,0,0,0,8.44-2.14,24,24,0,0,0,9.12,2,16.07,16.07,0,0,0,7.83-1.92A20.8,20.8,0,0,0,77.5,96a23.89,23.89,0,0,0,7.82-1.36l2.28-.79-1.87-5.41.54-.18,2.29-.79-1.87-5.41.53-.17,2.29-.8L87.64,75.7l.54-.17Z"/><path class="cls-2" d="M24.52,66.13c2.36,1.3,9.19,4.31,16,.16,2.27,1.25,8.94,4.16,15.63-.16,2.49,1.22,10.41,4.44,16.95,0a19.25,19.25,0,0,0,15.27.69l-.89-2.58c-8.07,2.79-13.48-.72-13.7-.86l-.82-.56-.79.61c-6.35,5-15.35-.06-15.44-.11l-.76-.44-.72.52c-6.83,4.94-13.7.32-14,.12L40.46,63l-.78.54c-7,4.84-14.17,0-14.47-.19l-.83-.58-.8.63c-6.5,5.15-12.7,1.27-15.09-.66l-.6,2.92a16.14,16.14,0,0,0,8.92,3A13.15,13.15,0,0,0,24.52,66.13Z"/><path class="cls-2" d="M23.57,72.51c2.36,1.3,9.19,4.31,16,.16,2.27,1.25,8.93,4.16,15.62-.16,2.49,1.22,10.42,4.44,17,0a19.31,19.31,0,0,0,15.28.69l-.9-2.58c-8.07,2.79-13.47-.72-13.69-.87L72,69.23l-.78.62c-6.35,5-15.35-.06-15.44-.11L55,69.3l-.71.51c-6.84,5-13.7.33-14,.13l-.78-.54-.78.54c-7,4.84-14.17,0-14.47-.19l-.84-.58-.79.63c-6.79,5.37-13.25.91-15.39-.9l-.6,2.95a16.36,16.36,0,0,0,9.22,3.24A13.18,13.18,0,0,0,23.57,72.51Z"/><path class="cls-2" d="M14.91,81.47a13.13,13.13,0,0,0,7.7-2.58c2.37,1.3,9.2,4.3,16,.16,2.32,1.3,9.26,4.43,15.67-.14,2.54,1.23,10.41,4.39,16.91,0a19.29,19.29,0,0,0,15.27.69L85.54,77c-8.07,2.79-13.48-.72-13.7-.87L71,75.61l-.78.61c-6.35,5-15.36-.06-15.45-.11L54,75.65l-.72.59c-6.39,5.17-13.63.29-13.93.08l-.78-.54-.78.54c-7,4.84-14.17,0-14.47-.2l-.83-.58-.79.63C14.54,81.82,7.77,76.61,6,75l-.61,3A16.55,16.55,0,0,0,14.91,81.47Z"/><path class="cls-2" d="M14,87.84a13,13,0,0,0,7.71-2.58c2.36,1.3,9.19,4.31,16,.16,2.27,1.25,8.94,4.16,15.63-.15,2.49,1.21,10.41,4.44,16.95,0a19.28,19.28,0,0,0,15.27.7l-.89-2.59c-8.07,2.8-13.48-.71-13.7-.86L70.07,82l-.79.61c-6.35,5-15.35-.06-15.44-.11l-.76-.44-.72.52c-6.83,4.94-13.7.32-14,.13l-.78-.55-.78.54c-7,4.84-14.17,0-14.47-.19l-.83-.58-.8.63c-7.61,6-14.82-.32-16-1.42l-.62,3A16.75,16.75,0,0,0,14,87.84Z"/><path class="cls-2" d="M19.46,91.79a17.84,17.84,0,0,0,9.17,2.85,13,13,0,0,0,7.51-2.38c2.36,1.13,9.37,3.78,16.17-.62,2.49,1.22,10.41,4.44,17,0a19.24,19.24,0,0,0,15.27.69l-.9-2.58c-8.07,2.79-13.47-.72-13.69-.86l-.83-.56-.78.61c-6.35,5-15.35-.06-15.44-.11l-.77-.44-.71.52c-6.9,5-14.38.71-14.7.53l-.8-.48-.73.58c-7,5.47-14.54-.26-14.86-.51l-.78-.61-.83.56c-7.81,5.31-15.07-.47-15.36-.72l-.62,2.77C5.16,92.69,12,96.29,19.46,91.79Z"/><path class="cls-1" d="M16.5,29.37c-.39,0-.53-.24-.53-.44,0-.38.62-1.09,1.29-1.36l.06-.07-.06,0A.39.39,0,0,1,17,27.1c0-.33.67-1,1.06-1.1a2.14,2.14,0,0,1,.6-.11A.5.5,0,0,1,19,26l1.2-1c1.51-1.24,1.84-1.24,2-1.24a.58.58,0,0,1,.53.58,1.33,1.33,0,0,1-.23.6L21.82,26l.66.14-.32.37a4.51,4.51,0,0,0-.47.73l-.08.14-.29,0,.36.51-.17.17a2.72,2.72,0,0,1-1.6,1,.63.63,0,0,1-.64-.67c0-.11,0-.24.3-.88l-.88,0-1.36,1.36A1.31,1.31,0,0,1,16.5,29.37Z"/><path class="cls-1" d="M22.58,29.08A1,1,0,0,1,21.7,28a2.22,2.22,0,0,1,1.38-1.91.88.88,0,0,1,0-.17.9.9,0,0,1,.88-.81.51.51,0,0,1,.52.5,1,1,0,0,1-.62.86s0,.05,0,.07c0,.48-.67,1.06-1,1.29H23c.19,0,.43-.2.63-.35l.19-.15.36-.26.19.82-.09.11C23.9,28.39,23.23,29.08,22.58,29.08Z"/><path class="cls-1" d="M25,29a.78.78,0,0,1-.76-.81,1.35,1.35,0,0,1,.07-.41L24.1,28l-.26.24-.44.44-.09-1.08.12-.09.22-.21a.55.55,0,0,1-.07-.28,1.59,1.59,0,0,1,1.16-1.27.41.41,0,0,1,.38.26h0a4.91,4.91,0,0,1,.61-.07.44.44,0,0,1,.36.14,1,1,0,0,1,.23.52.84.84,0,0,1-.38.69,2,2,0,0,0-.37.4,3.41,3.41,0,0,0,.43-.33l.2-.16.37-.28.16.85-.09.1S25.64,29,25,29Z"/><path class="cls-1" d="M34.44,29.28c-.54,0-.89-.44-.89-1.12a2.11,2.11,0,0,1,.16-.75c-.26.29-.55.63-.92,1.11s-.75.62-.83.62c-.47,0-.65-.6-.65-1a1.17,1.17,0,0,1,.32-.69L32,27l-.19.2-1,1.39c-.14.19-.36.5-.71.5s-.65-.56-.75-.86L29.25,28l1.51-1.91a8.75,8.75,0,0,0,.41-.81c-.89.42-1.28.64-1.48.75a.84.84,0,0,1-.54.17.46.46,0,0,1-.36-.17.55.55,0,0,1-.09-.44l0-.22c.08-.45.11-.61.21-.72s.1-.14.67-.54a.56.56,0,0,1,.34-.15.4.4,0,0,1,.32.18l.14-.06a4.15,4.15,0,0,1,1.33-.47.52.52,0,0,1,.49.32l.19.33a.73.73,0,0,1,.12.4.71.71,0,0,1,0,.14l.2-.2a2.59,2.59,0,0,1,1.31-.84h0a.78.78,0,0,1,.79.77,1.51,1.51,0,0,1-.13.54c.38-.33.77-.66,1.18-1l0,0a.77.77,0,0,1,.5-.25c.4,0,.76.63.76.88a1.15,1.15,0,0,1-.33.62L35.76,26.6A2.6,2.6,0,0,0,35,28v0a5.45,5.45,0,0,0,1.39-1.1l.43-.42.1.92,0,.06A4.25,4.25,0,0,1,34.44,29.28Z"/><path class="cls-1" d="M37,29.08A1,1,0,0,1,36.1,28a2.24,2.24,0,0,1,1.38-1.91.88.88,0,0,1,0-.17.9.9,0,0,1,.89-.81.5.5,0,0,1,.51.5,1,1,0,0,1-.62.86.22.22,0,0,1,0,.08c0,.47-.66,1-1,1.28h.07a1.27,1.27,0,0,0,.62-.35l.2-.15.35-.26.19.83-.09.11A2.59,2.59,0,0,1,37,29.08Z"/><path class="cls-1" d="M40.07,29.09a.67.67,0,0,1-.67-.66c-.22.28-.46.53-.73.53S38,28.59,38,28a2.64,2.64,0,0,1,.91-1.73.63.63,0,0,1,.46-.15.77.77,0,0,1,.57.17l.08.13a2.93,2.93,0,0,1,1.08-.59c.11,0,.26.06.37.31a2.15,2.15,0,0,1,.13.44v0c0,.22-.17.41-.38.63l.56-.47.18.95-.13.11-.27.26C41.12,28.55,40.58,29.09,40.07,29.09Z"/><path class="cls-1" d="M43.3,29.15a.68.68,0,0,1-.66-.53,1.19,1.19,0,0,1-.71.33.9.9,0,0,1-.81-1,2.51,2.51,0,0,1,1.08-1.88.79.79,0,0,1,.46-.12h.18a.54.54,0,0,1,.43.16.41.41,0,0,1,.1.32.44.44,0,0,1,0,.15l0,0c.71-.66.91-.77,1.1-.77.39,0,.43.46.44.64a.81.81,0,0,1-.37.65,3.68,3.68,0,0,0-.49.58,7.11,7.11,0,0,0,.61-.45l.4-.32.09.49.06.44-.25.24C44.4,28.62,43.82,29.15,43.3,29.15Z"/><path class="cls-1" d="M48,29.09a.67.67,0,0,1-.64-.68h0l-.11.1-.06.06a1.23,1.23,0,0,1-.77.44.58.58,0,0,1-.59-.56v0l-.22.26a.68.68,0,0,1-.52.3c-.52,0-.71-.64-.71-1.07,0-.79.8-1.83,1.4-1.83h.11c.34,0,.47.18.51.33a2.15,2.15,0,0,1,1.05-.58.57.57,0,0,1,.57.61v0l.43-.33a.84.84,0,0,1,.5-.26c.21,0,.32.2.37.31l0,0a.8.8,0,0,1,.15.41.84.84,0,0,1-.28.54c-.15.16-.25.28-.32.37l.58-.39.39-.26.12.95-.21.17A4.13,4.13,0,0,1,48,29.09Z"/><path class="cls-1" d="M11.23,36.31a1.65,1.65,0,0,1-.73-.11.64.64,0,0,1-.31-.62,2.59,2.59,0,0,1,.72-1.51l.84-1h-.07a2.11,2.11,0,0,0-.41.11,3.23,3.23,0,0,1-.76.16.52.52,0,0,1-.55-.53,2.62,2.62,0,0,1,.08-.46l0-.08a1.23,1.23,0,0,1,.82-.86,6.78,6.78,0,0,1,2.44-.51,3.66,3.66,0,0,1,1.79.41A2.06,2.06,0,0,1,16,33a3.15,3.15,0,0,1-1.77,2.47A6.86,6.86,0,0,1,11.23,36.31ZM11.57,35h.1a4.92,4.92,0,0,0,1.47-.28c1.1-.39,1.74-1,1.74-1.56s-.74-.58-1.51-.63a1.22,1.22,0,0,1-.21.38l-1.51,2Z"/><path class="cls-1" d="M17.2,36.41a.61.61,0,0,1-.62-.64c-.42.34-.64.46-.82.46-.38,0-.87-.6-.89-1.09a1.28,1.28,0,0,1,.41-.9,4.28,4.28,0,0,1,2.41-1.15h0a.71.71,0,0,1,.75.62.38.38,0,0,1-.08.23.78.78,0,0,1,0,.22,1.09,1.09,0,0,1-.31.6L17.9,35a4.86,4.86,0,0,0,.41-.27l.22-.16.35-.24.18.81-.1.11C18.73,35.51,17.71,36.41,17.2,36.41Z"/><path class="cls-1" d="M19.26,36.31c-.56,0-.89-.45-.89-1.18a3.72,3.72,0,0,1,.81-2.22c.45-.56,1.27-1.49,1.7-1.49a.41.41,0,0,1,.29.13.58.58,0,0,1,.13.44c-.06.8-.34,1.46-1.75,2.83a.39.39,0,0,0,0,.22c0,.07.05.08.05.08h0c.08,0,.37,0,1-.6l.29-.27.35.74-.18.19C20.61,35.63,20,36.31,19.26,36.31Z"/><path class="cls-1" d="M22.58,36.41a.61.61,0,0,1-.62-.64c-.43.34-.65.46-.82.46-.39,0-.88-.6-.9-1.08a1.28,1.28,0,0,1,.41-.91,4.19,4.19,0,0,1,2.42-1.14h0a.7.7,0,0,1,.74.61.38.38,0,0,1-.08.23.54.54,0,0,1,0,.22,1,1,0,0,1-.32.6l-.17.23a4,4,0,0,0,.4-.27l.22-.16.36-.24.18.81-.1.11C24.1,35.52,23.09,36.41,22.58,36.41Z"/><path class="cls-1" d="M27.32,36.35a.67.67,0,0,1-.64-.69h0l-.11.1-.06.06a1.2,1.2,0,0,1-.77.45.59.59,0,0,1-.59-.57h0l-.21.25a.68.68,0,0,1-.52.3c-.52,0-.71-.64-.71-1.07,0-.78.8-1.82,1.39-1.82h.11c.34,0,.47.18.51.32a2.13,2.13,0,0,1,1.06-.57.57.57,0,0,1,.57.6v0l.42-.34a.87.87,0,0,1,.5-.25c.22,0,.32.2.38.3l0,0a.73.73,0,0,1,.15.4.9.9,0,0,1-.29.55l-.32.36c.14-.08.32-.2.59-.38l.39-.27.12.95-.21.17A4.09,4.09,0,0,1,27.32,36.35Z"/><path class="cls-1" d="M36.73,36.49a.94.94,0,0,1-.49-.19l-2.47-1.36-.34.4a1.09,1.09,0,0,1-.32.54,1.27,1.27,0,0,1-.79.43.45.45,0,0,1-.48-.44.75.75,0,0,1,.21-.49l.89-1.15a.72.72,0,0,1,0-.27.91.91,0,0,1,.58-.79l.66-.34.21-.34a12,12,0,0,0-1.7.73l-.18.09a1.14,1.14,0,0,1-.52.16.48.48,0,0,1-.5-.49,2.78,2.78,0,0,1,.19-.74.89.89,0,0,1,.39-.53l.46-.34,0,0a.59.59,0,0,1,.35-.14.34.34,0,0,1,.31.18A6.12,6.12,0,0,1,35,31h.07a.56.56,0,0,1,.48.26,1,1,0,0,1,.28.58.65.65,0,0,1,0,.2l1.3-.61a1.56,1.56,0,0,1,.53-.19.42.42,0,0,1,.42.43,1.32,1.32,0,0,1-1.06,1h-.07l-2.35,1.17.11.07,1.72,1a1.24,1.24,0,0,1,.78,1C37.2,36.24,37,36.49,36.73,36.49Z"/><path class="cls-1" d="M37.67,36.35a1.08,1.08,0,0,1-1-1.18,2,2,0,0,1,.61-1.39,2.23,2.23,0,0,1,1.53-.71c.58,0,.79.32.79.62s-.29,1-1.62,1.47H38a2.54,2.54,0,0,0,1.14-.64l.46-.37.2.85-.1.11A3.19,3.19,0,0,1,37.67,36.35Z"/><path class="cls-1" d="M42.67,36.35a.67.67,0,0,1-.64-.69h0l-.11.09-.06.06a1.2,1.2,0,0,1-.77.45.59.59,0,0,1-.59-.56v0l-.21.25a.72.72,0,0,1-.52.3c-.53,0-.72-.64-.72-1.07,0-.78.81-1.82,1.4-1.82h.11c.34,0,.47.18.51.32a2.19,2.19,0,0,1,1-.57.57.57,0,0,1,.57.6v0l.43-.34a.9.9,0,0,1,.5-.25c.22,0,.32.2.38.3l0,0a.73.73,0,0,1,.16.4.85.85,0,0,1-.29.55c-.14.16-.25.27-.32.36l.58-.38.39-.27.13,1-.22.17A4.13,4.13,0,0,1,42.67,36.35Z"/><path class="cls-1" d="M46.1,36.41a.61.61,0,0,1-.62-.63c-.43.33-.65.45-.82.45-.39,0-.88-.59-.9-1.08a1.3,1.3,0,0,1,.41-.9,4.21,4.21,0,0,1,2.42-1.15h0a.7.7,0,0,1,.74.62.37.37,0,0,1-.08.22.59.59,0,0,1,0,.23c0,.2-.14.37-.32.6L46.8,35a4,4,0,0,0,.4-.27l.22-.16.36-.24.18.82-.1.11C47.62,35.52,46.61,36.41,46.1,36.41Z"/><path class="cls-1" d="M48.32,36.34a1.5,1.5,0,0,1-1.23-.69.42.42,0,0,1-.4-.42.6.6,0,0,1,.23-.43l0,0,1.4-1.28a.68.68,0,0,1,.66-.6.51.51,0,0,1,.56.52,2.56,2.56,0,0,0,0,.27,2.2,2.2,0,0,1,.08.55,1.42,1.42,0,0,1-.08.45l.52-.4.22.84-.12.12a3.32,3.32,0,0,1-1.87,1.1Zm-.17-1.5a.38.38,0,0,1,.09.09.35.35,0,0,0,.19-.34Z"/><path class="cls-1" d="M51.87,36.41a.6.6,0,0,1-.61-.63c-.43.33-.65.45-.83.45-.38,0-.87-.59-.89-1.08a1.28,1.28,0,0,1,.41-.9,4.21,4.21,0,0,1,2.42-1.15h0a.71.71,0,0,1,.74.62.33.33,0,0,1-.08.22.85.85,0,0,1,0,.23,1,1,0,0,1-.32.6,2.11,2.11,0,0,0-.17.22,4,4,0,0,0,.4-.27l.22-.16.36-.24.17.82-.09.11C53.4,35.52,52.38,36.41,51.87,36.41Z"/><path class="cls-1" d="M55.06,36.35a.67.67,0,0,1-.67-.66c-.22.28-.46.53-.73.53s-.66-.37-.68-.94a2.64,2.64,0,0,1,.91-1.73.63.63,0,0,1,.46-.15.79.79,0,0,1,.57.17l.08.13a2.85,2.85,0,0,1,1.08-.59c.09,0,.26,0,.37.31a1.62,1.62,0,0,1,.12.44v0c0,.22-.17.41-.38.63l.56-.47.18.95-.13.11-.27.26C56.11,35.81,55.57,36.35,55.06,36.35Z"/><path class="cls-3" d="M20.45,28a.12.12,0,0,0,.13.11c.12,0,.2-.08.6-.38l.12.18c-.33.33-.91.88-1.39.88-.25,0-.35-.19-.35-.41,0-.05-.1-.05.5-1.15l-1.49,0-1.4,1.4c-.16.16-.42.45-.67.45s-.24,0-.24-.15a2,2,0,0,1,1.17-1.11l.53-.59c-.44,0-.66,0-.66-.13a1.8,1.8,0,0,1,.86-.82c.27-.09.64-.15.64-.05s-.5.06-.5.18.06.06.09.06l.42,0,1.53-1.27A5.6,5.6,0,0,1,22.14,24c.14,0,.23.17.23.29a1.3,1.3,0,0,1-.21.5l-.84,1.48c.5,0,.19-.06.62,0a5.24,5.24,0,0,0-.51.78l-.54,0Zm1-3.21h0l-2,1.63v0l1-.08Z"/><path class="cls-3" d="M24,27.8c-.31.38-.91,1-1.43,1S22,28.33,22,28a1.84,1.84,0,0,1,1.26-1.65c.12,0,.3,0,.3.19,0,.35-.67.95-1,1.15-.05.28.05.43.36.43s.72-.36,1-.56Zm-.66-1.9a.61.61,0,0,1,.59-.52.21.21,0,0,1,.23.21.63.63,0,0,1-.55.61A.28.28,0,0,1,23.35,25.9Z"/><path class="cls-3" d="M24.46,27.21a5,5,0,0,1-.82.84l0-.3a2.15,2.15,0,0,0,.45-.5c-.14,0-.18-.06-.18-.21,0-.49.69-1,.86-1a.12.12,0,0,1,.12.12.45.45,0,0,1-.05.19c.64-.09,1-.17,1.09-.09a.67.67,0,0,1,.16.36c0,.21-.13.31-.29.44s-.53.51-.53.78a.21.21,0,0,0,.21.19c.3,0,.73-.44.95-.61l.05.25c-.26.3-1,1-1.43,1a.49.49,0,0,1-.47-.52,2,2,0,0,1,.63-1.16h0Z"/><path class="cls-3" d="M32.34,27a10,10,0,0,0,1.1-1.67c.12-.22.09-.29,0-.29s-.17.09-.21.14L31.61,27l-1,1.38c-.11.15-.28.41-.5.41s-.43-.54-.5-.75L31,26.22c.71-1.29.59-1.42.47-1.42a.69.69,0,0,0-.21.08c-2.1,1-1.77,1-2.12,1-.11,0-.2-.09-.17-.26a4.26,4.26,0,0,1,.18-.8c.06-.09,0-.07.63-.5a.37.37,0,0,1,.17-.1.08.08,0,0,1,.08.07s-.09.16-.36.4h0l.78-.35a5.46,5.46,0,0,1,1.29-.48c.16,0,.19.1.26.22l.16.28a.5.5,0,0,1,.08.26,9,9,0,0,1-.42,1.19h0l1.09-1c.25-.24.83-.75,1.11-.75a.48.48,0,0,1,.5.47,5.76,5.76,0,0,1-1,1.94l0,0c.84-.73,1.62-1.47,2.52-2.18.09-.08.22-.22.35-.22s.47.44.47.59-.21.37-.3.48l-1.06,1.29A3,3,0,0,0,34.75,28c0,.13.07.33.24.33s.72-.31,1.64-1.2l0,.26A4.11,4.11,0,0,1,34.44,29c-.45,0-.6-.43-.6-.83a5.17,5.17,0,0,1,1.35-2.46h0a14.28,14.28,0,0,0-2.61,2.65c-.1.12-.43.51-.6.51s-.36-.49-.36-.69a1.07,1.07,0,0,1,.27-.54Z"/><path class="cls-3" d="M38.41,27.8c-.31.38-.91,1-1.43,1s-.59-.46-.59-.81a1.86,1.86,0,0,1,1.27-1.65c.11,0,.3.05.3.2,0,.34-.68.95-1,1.14-.05.28,0,.43.37.43s.71-.36,1-.56Zm-.66-1.9a.61.61,0,0,1,.6-.52.21.21,0,0,1,.22.21.63.63,0,0,1-.54.61A.28.28,0,0,1,37.75,25.9Z"/><path class="cls-3" d="M41.58,27.34l.05.3c-.36.32-1.06,1.16-1.56,1.16-.26,0-.38-.22-.38-.45a2.4,2.4,0,0,1,.58-1.17v0a5.22,5.22,0,0,0-1,1.05c-.11.13-.36.46-.54.46s-.38-.43-.38-.66a2.31,2.31,0,0,1,.8-1.5.36.36,0,0,1,.27-.08c.41,0,.37.11.37.15,0,.27-.86,1-.86,1.12a.09.09,0,0,0,.08.08s.11-.07.13-.1a6,6,0,0,1,2-1.54s.06,0,.11.13a1.81,1.81,0,0,1,.1.37c0,.27-.84.79-.84,1.26a.12.12,0,0,0,.12.12c.16,0,.46-.24.59-.34Z"/><path class="cls-3" d="M43.46,26.88c.15-.13.82-.78,1-.78s.13,0,.15.37c0,.17-.17.32-.28.42s-.7.74-.7,1c0,.11.06.15.17.15s.85-.47,1.05-.64l0,.3c-.35.33-1.07,1.12-1.58,1.12a.42.42,0,0,1-.4-.45,1.6,1.6,0,0,1,.15-.58h0c-.26.23-.72.84-1.1.84s-.52-.38-.52-.67a2.21,2.21,0,0,1,1-1.63.47.47,0,0,1,.3-.08c.1,0,.45-.06.42.14s-.2.3-.27.37a2.68,2.68,0,0,1-.52.49.7.7,0,0,0-.38.59s0,.1.06.1a2,2,0,0,0,.82-.49Z"/><path class="cls-3" d="M47.1,28.28c-.16.15-.41.43-.64.43a.3.3,0,0,1-.3-.28c0-.2.16-.52.6-1.19a.36.36,0,0,0,0-.09,0,0,0,0,0,0,0c-.06,0-.21.16-.26.21-.36.38-.74.79-1.06,1.18-.08.09-.17.2-.3.2-.32,0-.42-.54-.42-.78,0-.67.73-1.59,1.14-1.53.11,0,.31,0,.31.15s-.19.35-.27.44a3.7,3.7,0,0,0-.38.42c-.07.1-.2.21-.2.35s0,.06,0,.06.12-.08.14-.1c.33-.35,1.55-1.57,2-1.57.19,0,.28.14.28.32s-.48.85-.63,1.12h0l1.52-1.2c.07-.05.24-.19.32-.19s.12.17.14.19a.58.58,0,0,1,.12.28c0,.11-.13.26-.21.35-.53.58-.57.69-.58.85s.08.19.17.17.21,0,1-.61l0,.32C49.4,28,48.42,28.8,48,28.8a.38.38,0,0,1-.35-.39,2.62,2.62,0,0,1,.51-1.11h0Z"/><path class="cls-3" d="M12.77,32.22a5.3,5.3,0,0,0-1.47.32h.19s.37,0,.37.08-.15.11-.22.12a9.65,9.65,0,0,1-1.13.26c-.16,0-.26-.08-.26-.23a2.73,2.73,0,0,1,.1-.48c.08-.36.31-.51.65-.66a6.54,6.54,0,0,1,2.32-.48,3.28,3.28,0,0,1,1.63.37A1.76,1.76,0,0,1,15.67,33a2.82,2.82,0,0,1-1.62,2.22,6.78,6.78,0,0,1-2.82.76,1.65,1.65,0,0,1-.59-.07.41.41,0,0,1-.16-.37,2.34,2.34,0,0,1,.66-1.33Zm-1.35,2.44c-.21.28-.19.38-.15.47s.11.11.39.12A5.17,5.17,0,0,0,13.24,35c1.43-.51,1.93-1.23,1.93-1.84,0-.88-1.4-.9-2-.93a1.08,1.08,0,0,1-.22.5Z"/><path class="cls-3" d="M16.49,35.48c-.13.1-.57.46-.73.46s-.59-.45-.6-.81c0-.85,1.75-1.72,2.54-1.75a.43.43,0,0,1,.45.33c0,.08-.18.15-.24.17a.27.27,0,0,1,.19.28c0,.22-.59.7-.59,1,0,.12.1.17.21.17.29,0,.68-.35,1-.55l.06.25a4,4,0,0,1-1.55,1.07.33.33,0,0,1-.33-.37,2.28,2.28,0,0,1,.26-.76h0Zm-.83-.18s0,.16.14.14.34,0,1.7-1.37l0,0C15.86,34.55,15.66,35,15.66,35.3Z"/><path class="cls-3" d="M20.87,34.94c-.38.39-1,1.07-1.61,1.07s-.6-.48-.6-.88a3.36,3.36,0,0,1,.75-2c.6-.74,1.25-1.38,1.47-1.38s.14.17.13.25c0,.65-.22,1.25-1.7,2.69a.67.67,0,0,0,0,.47c.06.16.15.29.34.29a2.3,2.3,0,0,0,1.17-.68ZM19.46,34a4.34,4.34,0,0,0,1-1.5,3.34,3.34,0,0,0-1,1.49Z"/><path class="cls-3" d="M21.86,35.48c-.13.1-.57.46-.72.46s-.59-.45-.61-.81c0-.85,1.75-1.72,2.55-1.74a.41.41,0,0,1,.44.32c0,.09-.18.15-.24.17a.28.28,0,0,1,.2.28c0,.22-.6.7-.6,1,0,.12.11.17.22.17.28,0,.67-.35,1-.55l.05.25a3.92,3.92,0,0,1-1.54,1.07.32.32,0,0,1-.33-.36A2.32,2.32,0,0,1,22.5,35h0ZM21,35.3s0,.16.14.14.35,0,1.7-1.37h0C21.23,34.55,21,35,21,35.3Z"/><path class="cls-3" d="M26.38,35.54c-.16.15-.4.43-.63.43a.29.29,0,0,1-.3-.29c0-.2.15-.51.6-1.19a.25.25,0,0,0,0-.09,0,0,0,0,0-.05,0c-.07,0-.22.16-.27.21-.35.37-.73.78-1.06,1.18a.41.41,0,0,1-.29.19c-.33,0-.42-.53-.42-.78,0-.67.73-1.58,1.14-1.53.1,0,.31,0,.31.16s-.2.34-.28.44a4.72,4.72,0,0,0-.37.41c-.08.11-.2.21-.2.36s0,.06,0,.06.11-.09.13-.11c.34-.35,1.55-1.56,2-1.56a.28.28,0,0,1,.28.31c0,.3-.49.85-.64,1.12h0L28,33.64a.82.82,0,0,1,.32-.19c.06,0,.13.16.15.19a.66.66,0,0,1,.12.27c0,.12-.14.27-.21.35-.53.59-.58.7-.58.85s.08.2.16.18.22,0,1.06-.61L29,35c-.32.25-1.3,1.06-1.69,1.06a.38.38,0,0,1-.34-.4,2.78,2.78,0,0,1,.5-1.11h0Z"/><path class="cls-3" d="M33.29,34.25a.46.46,0,0,1-.11-.29c0-.27.21-.42.43-.53l.72-.38L35,32a11,11,0,0,0-2.66,1,.9.9,0,0,1-.39.13.19.19,0,0,1-.21-.2,2.88,2.88,0,0,1,.17-.64c.09-.27.15-.29.37-.46l.38-.28a.45.45,0,0,1,.21-.1.07.07,0,0,1,.07.08c0,.05,0,0-.31.32v0a7.94,7.94,0,0,1,2.42-.68c.18,0,.21,0,.32.16s.2.25.2.38a.71.71,0,0,1-.17.36l-.35.51h0l2.18-1a2.57,2.57,0,0,1,.41-.15.12.12,0,0,1,.13.13c0,.08-.42.81-.88.68l-2.51,1.25a.31.31,0,0,0-.15.26c0,.14.21.22.31.28l1.73,1c.3.18.63.39.63.78,0,.1,0,.33-.18.33a1.14,1.14,0,0,1-.34-.15L33.7,34.57l-.55.65c0,.33-.56.8-.83.8-.09,0-.19-.05-.19-.15a.5.5,0,0,1,.14-.31Z"/><path class="cls-3" d="M39.51,34.93a2.89,2.89,0,0,1-1.84,1.13c-.5,0-.73-.45-.74-.9a2,2,0,0,1,1.85-1.8c.22,0,.49.06.49.33s-.34.84-1.65,1.27v.15c0,.26.2.35.42.35a2.84,2.84,0,0,0,1.42-.79Zm-.84-1.1s0-.09-.08-.07a1.5,1.5,0,0,0-.93.86A1.69,1.69,0,0,0,38.67,33.83Z"/><path class="cls-3" d="M41.73,35.54c-.16.15-.41.43-.64.43a.3.3,0,0,1-.3-.29c0-.19.16-.51.6-1.18a.18.18,0,0,0,0-.09,0,0,0,0,0,0,0c-.07,0-.22.16-.27.21-.36.38-.74.79-1.06,1.18-.08.09-.17.19-.29.19-.33,0-.43-.53-.43-.78,0-.67.73-1.58,1.14-1.53.11,0,.31,0,.31.16s-.19.34-.27.44a3,3,0,0,0-.38.42c-.07.1-.2.21-.2.35s0,.06.05.06.12-.09.14-.11c.33-.35,1.55-1.56,2-1.56a.28.28,0,0,1,.28.31c0,.3-.48.86-.63,1.12v0l1.52-1.2c.07,0,.24-.19.32-.19s.12.16.14.19a.61.61,0,0,1,.13.27c0,.12-.14.27-.22.35-.53.59-.57.7-.58.86s.08.19.17.17.22,0,1.06-.61l0,.32c-.32.25-1.31,1.06-1.69,1.06a.38.38,0,0,1-.35-.4,2.76,2.76,0,0,1,.51-1.1l0,0Z"/><path class="cls-3" d="M45.38,35.49a2.53,2.53,0,0,1-.72.45c-.2,0-.59-.45-.61-.8,0-.86,1.75-1.73,2.55-1.75a.42.42,0,0,1,.44.33c0,.08-.18.15-.24.17a.27.27,0,0,1,.2.28c0,.22-.6.69-.6,1,0,.11.11.16.22.16.28,0,.67-.35,1-.55l0,.26a4,4,0,0,1-1.54,1.06.32.32,0,0,1-.33-.36A2.32,2.32,0,0,1,46,35h0Zm-.83-.18s0,.16.14.13.35,0,1.7-1.37h0C44.75,34.56,44.55,35,44.55,35.31Z"/><path class="cls-3" d="M50,34.78,50,35c-.42.41-1.16,1-1.71,1a1.14,1.14,0,0,1-1.09-.78.21.21,0,0,1-.15.09.13.13,0,0,1-.11-.13c0-.09.11-.19.16-.24l1.48-1.36c0-.23.15-.45.39-.45s.25.07.27.26a5.92,5.92,0,0,1,.13.79,1.56,1.56,0,0,1-.89,1.24,1.24,1.24,0,0,0,1-.38Zm-2.32.14c.25,0,.4.22.53.4.41-.25.52-.37.54-.76,0-.15,0-.33-.09-.56Z"/><path class="cls-3" d="M51.16,35.49c-.13.1-.57.45-.73.45s-.58-.45-.6-.8c0-.86,1.75-1.73,2.54-1.75a.42.42,0,0,1,.45.33c0,.08-.18.15-.24.17a.27.27,0,0,1,.2.28c0,.22-.6.7-.6,1,0,.11.1.16.21.16.29,0,.68-.35,1-.55l.06.26a4,4,0,0,1-1.55,1.06c-.22,0-.32-.16-.32-.36A2.2,2.2,0,0,1,51.8,35v0Zm-.83-.18s0,.16.14.14.35,0,1.7-1.38h0C50.53,34.56,50.33,35,50.33,35.31Z"/><path class="cls-3" d="M56.57,34.6l0,.3c-.36.32-1.06,1.16-1.56,1.16a.41.41,0,0,1-.39-.45,2.42,2.42,0,0,1,.59-1.17v0a5.22,5.22,0,0,0-1,1c-.11.13-.36.46-.54.46s-.38-.43-.39-.66a2.32,2.32,0,0,1,.81-1.5.36.36,0,0,1,.27-.08c.41,0,.37.11.37.15,0,.27-.86,1-.86,1.12a.09.09,0,0,0,.08.08.21.21,0,0,0,.13-.1,6,6,0,0,1,2-1.54s.06,0,.1.13a1.34,1.34,0,0,1,.11.37c0,.27-.84.79-.84,1.26a.12.12,0,0,0,.12.12c.16,0,.46-.24.59-.34Z"/><path class="cls-1" d="M79.48,98.45l7.77-55.84-21.34.08,5-26.36,5.44,0c11,0,15.22-1.77,18.68-12.28L96.36,0h34.5l-13,98.49Zm28-11.83,9.88-74.75H104.75c-2.45,5.66-5.69,9.69-9.89,12.3-3.74,2.32-8.15,3.56-14.12,3.94l-.5,2.67,20.65-.08L93.11,86.61Z"/><path class="cls-4" d="M115.64,96l-33.27,0,7.78-55.86L69,40.16l4-21.3,3.35,0c11.39,0,17.13-2,21.08-14l.77-2.34H128ZM90.22,89.12l19.44,0L120.2,9.35H103.06c-2.33,6.05-5.4,10.11-9.53,12.67-3.74,2.33-8.28,3.45-14.89,3.66L77.2,33.3,98,33.22Z"/><polygon class="cls-5" points="46.66 53.63 47.99 47.24 45.67 47.24 46.66 53.63"/><path class="cls-5" d="M137.13,46.77c-1.31,0-1.73,2.46-1.73,3.64a1.87,1.87,0,0,0,.11.72.84.84,0,0,0,.21,0c1.3,0,1.72-2.46,1.72-3.64a1.87,1.87,0,0,0-.11-.72Z"/><path class="cls-1" d="M93.18,45.21c0-2.86-1.26-6.26-7.26-6.26H45.34l-.55,2.65L44.38,39H36.57l-1,1.73.83-1.73H26.64l-.21.51v-.51H18.65l-.26.63v-.63H9.21l1.45,20H34.9l1.21-2.24h2l.27,2.24H54.76l2.43-11.71H59L56.53,59H81.17l1.14-5.49h.14c0,.1,0,.2,0,.3a10.73,10.73,0,0,0-.14,1.52,5.53,5.53,0,0,0,.38,2.41L83.21,59h9.24l-1.27-3a9.12,9.12,0,0,1-.07-2.06c0-.37,0-.75,0-1.12a8.14,8.14,0,0,0-.32-2.5A6.41,6.41,0,0,0,93.18,45.21ZM46.66,53.63l-1-6.39H48Z"/><path class="cls-1" d="M178.46,47.26,180.14,39H162.8l-.5,2.39c-1-1.38-2.88-2.39-6.15-2.39h-9.71l-.84,4c-1.39-2.86-4.27-4.42-8.34-4.42a10.67,10.67,0,0,0-6.09,1.85l.31-1.48H113.55l-.36,1.75a9.13,9.13,0,0,0-6.42-2.13c-4.34,0-8.74,2.51-8.74,7.31a6,6,0,0,0,1,3.51H96.5l-.1,2a7,7,0,0,0,1.85,5.34,9.43,9.43,0,0,0,7,2.56c4.59,0,9.23-2.65,9.23-7.71A6,6,0,0,0,113.32,48h1.82v-.73h1L113.77,59H123l2.43-11.71h1.25a13.2,13.2,0,0,0-.35,3c0,5.57,3.56,9,9.29,9a10.59,10.59,0,0,0,7.2-2.73L142.29,59h9.11l1.15-5.49h.13c0,.1,0,.2,0,.3a10.87,10.87,0,0,0-.14,1.52,5.68,5.68,0,0,0,.38,2.41l.56,1.26h22.72l1.72-8.3h-.74l.7-3.41Zm-42.74,3.89a.84.84,0,0,1-.21,0,1.87,1.87,0,0,1-.11-.72c0-1.18.42-3.64,1.73-3.64l.2,0a1.87,1.87,0,0,1,.11.72C137.44,48.69,137,51.15,135.72,51.15Z"/><path class="cls-1" d="M93.18,45.21c0-2.86-1.26-6.26-7.26-6.26H45.34l-.55,2.65L44.38,39H36.57l-1,1.73.83-1.73H26.64l-.21.51v-.51H18.65l-.26.63v-.63H9.21l1.45,20H34.9l1.21-2.24h2l.27,2.24H54.76l2.43-11.71H59L56.53,59H81.17l1.14-5.49h.14c0,.1,0,.2,0,.3a10.73,10.73,0,0,0-.14,1.52,5.53,5.53,0,0,0,.38,2.41L83.21,59h9.24l-1.27-3a9.12,9.12,0,0,1-.07-2.06c0-.37,0-.75,0-1.12a8.14,8.14,0,0,0-.32-2.5A6.41,6.41,0,0,0,93.18,45.21ZM46.66,53.63l-1-6.39H48Z"/><path class="cls-1" d="M135.72,51.15a.84.84,0,0,1-.21,0,1.87,1.87,0,0,1-.11-.72c0-1.18.42-3.64,1.73-3.64l.2,0a1.87,1.87,0,0,1,.11.72C137.44,48.69,137,51.15,135.72,51.15Z"/><path class="cls-6" d="M25.45,56.81H20.77V48.66h-.05l-3.42,8.15H12.64L11.5,41.07h4.76v9.15h0l3.77-9.15H24.3v9.15h.05l3.72-9.15H33Z"/><path class="cls-6" d="M37.8,41.07h4.76L45,56.82H40.24L40,54.57H34.84l-1.21,2.24H28.69ZM36.6,51.19h3l-.52-4.71h-.05Z"/><path class="cls-6" d="M50.6,45.11H46.24l.84-4H60.66l-.84,4H55.45L53,56.82H48.18Z"/><path class="cls-6" d="M62.44,41.08h13l-.82,4H66.47l-.41,2h7.56l-.78,3.74H65.26l-.42,2h8.34l-.84,4H59.15Z"/><path class="cls-6" d="M77.94,41.08h8c2.91,0,5.14.8,5.13,4.13a4.19,4.19,0,0,1-3.68,4.34v0C88.81,50,89,51.33,89,52.81s-.17,3.09.22,4H84.59a3.85,3.85,0,0,1-.19-1.54c0-.75.24-1.72.24-2.51s-.62-1.44-2-1.44h-2.1l-1.15,5.49H74.67ZM81.29,48h2.56c1.6,0,2.35-.82,2.35-1.76,0-.62-.37-1.37-1.63-1.37H82Z"/><path class="cls-6" d="M108.58,45.85a1.44,1.44,0,0,0-.55-1.3,2.32,2.32,0,0,0-1.41-.36c-.82,0-1.88.25-1.88,1.28,0,1.19,2.36,1.26,3.91,1.81,2.73,1,3.65,2.47,3.65,4.34,0,3.8-3.68,5.58-7.1,5.58-3.61,0-6.87-1.65-6.67-5.67h4.69a2.33,2.33,0,0,0,.6,1.79,2.67,2.67,0,0,0,1.78.4c1,0,2.12-.49,2.12-1.52s-1.61-1.3-3.79-2c-1.92-.64-3.77-1.66-3.77-4.28,0-3.55,3.44-5.18,6.61-5.18,3.35,0,6.37,1.26,6.28,5.14Z"/><path class="cls-6" d="M118.81,45.12h-4.37l.84-4h13.58l-.84,4h-4.36l-2.43,11.71h-4.85Z"/><path class="cls-6" d="M137.26,40.72c4.45,0,7.16,2.09,7.16,6.9,0,5.29-3.48,9.59-8.84,9.58-4.45,0-7.16-2.36-7.16-6.9C128.42,45,131.9,40.71,137.26,40.72Zm-1.55,12.56c2.91,0,3.86-3.44,3.86-5.77,0-1.44-.55-2.87-2.44-2.87-2.91,0-3.86,3.44-3.86,5.77C133.27,51.85,133.82,53.28,135.71,53.28Z"/><path class="cls-6" d="M148.17,41.09h8c2.91,0,5.14.8,5.14,4.13a4.19,4.19,0,0,1-3.68,4.34v0c1.43.4,1.63,1.74,1.63,3.22s-.18,3.09.22,4h-4.63a3.63,3.63,0,0,1-.2-1.54c0-.75.24-1.72.24-2.51s-.62-1.44-2-1.44h-2.09l-1.15,5.49h-4.76ZM151.52,48h2.56c1.61,0,2.36-.81,2.36-1.76,0-.62-.38-1.37-1.63-1.37h-2.63Z"/><path class="cls-6" d="M164.53,41.09h13l-.82,4h-8.16l-.42,2h7.56l-.77,3.75h-7.58l-.42,2h8.33l-.84,4H161.24Z"/></svg>